<svg xmlns="http://www.w3.org/2000/svg" xmlns:xlink="http://www.w3.org/1999/xlink" width="360" height="49" viewBox="0 0 360 49">
  <defs>
    <linearGradient id="linear-gradient" x1="0.098" y1="0.5" x2="0.924" y2="0.5" gradientUnits="objectBoundingBox">
      <stop offset="0" stop-color="#9ccb48"/>
      <stop offset="1" stop-color="#31aae0"/>
    </linearGradient>
    <filter id="Ellipse_8" x="0" y="0" width="49" height="49" filterUnits="userSpaceOnUse">
      <feOffset dy="3" input="SourceAlpha"/>
      <feGaussianBlur stdDeviation="3" result="blur"/>
      <feFlood flood-opacity="0.161"/>
      <feComposite operator="in" in2="blur"/>
      <feComposite in="SourceGraphic"/>
    </filter>
    <filter id="Ellipse_479" x="104" y="0" width="49" height="49" filterUnits="userSpaceOnUse">
      <feOffset dy="3" input="SourceAlpha"/>
      <feGaussianBlur stdDeviation="3" result="blur-2"/>
      <feFlood flood-opacity="0.161"/>
      <feComposite operator="in" in2="blur-2"/>
      <feComposite in="SourceGraphic"/>
    </filter>
    <filter id="Ellipse_479-2" x="207" y="0" width="49" height="49" filterUnits="userSpaceOnUse">
      <feOffset dy="3" input="SourceAlpha"/>
      <feGaussianBlur stdDeviation="3" result="blur-3"/>
      <feFlood flood-opacity="0.161"/>
      <feComposite operator="in" in2="blur-3"/>
      <feComposite in="SourceGraphic"/>
    </filter>
    <filter id="Ellipse_480" x="311" y="0" width="49" height="49" filterUnits="userSpaceOnUse">
      <feOffset dy="3" input="SourceAlpha"/>
      <feGaussianBlur stdDeviation="3" result="blur-4"/>
      <feFlood flood-opacity="0.161"/>
      <feComposite operator="in" in2="blur-4"/>
      <feComposite in="SourceGraphic"/>
    </filter>
  </defs>
  <g id="Group_17214" data-name="Group 17214" transform="translate(-13 -145)">
    <line id="Line_27" data-name="Line 27" x2="307.634" transform="translate(43.866 166.5)" fill="none" stroke="#f2f2f2" stroke-linecap="round" stroke-width="8"/>
    <path id="Line_24" data-name="Line 24" d="M243.133,4H2.533C-1.075,4-4,2.209-4,0s2.925-4,6.533-4h240.6c3.608,0,4.533,1.791,4.533,4S246.741,4,243.133,4Z" transform="translate(40.183 166.5)" fill="url(#linear-gradient)"/>
    <g id="Group_17205" data-name="Group 17205" transform="translate(-3)">
      <g transform="matrix(1, 0, 0, 1, 16, 145)" filter="url(#Ellipse_8)">
        <g id="Ellipse_8-2" data-name="Ellipse 8" transform="translate(9 6)" fill="#9ccb48" stroke="#fff" stroke-width="2">
          <circle cx="15.5" cy="15.5" r="15.5" stroke="none"/>
          <circle cx="15.5" cy="15.5" r="14.5" fill="none"/>
        </g>
      </g>
      <text id="_1" data-name="1" transform="translate(40 172)" font-size="16" font-family="Poppins-Medium, Poppins" font-weight="500"><tspan x="-2.8" y="0">1</tspan></text>
    </g>
    <g id="Group_17206" data-name="Group 17206" transform="translate(-14)">
      <g transform="matrix(1, 0, 0, 1, 27, 145)" filter="url(#Ellipse_479)">
        <g id="Ellipse_479-3" data-name="Ellipse 479" transform="translate(113 6)" fill="#9ccb48" stroke="#fff" stroke-width="2">
          <circle cx="15.5" cy="15.5" r="15.5" stroke="none"/>
          <circle cx="15.5" cy="15.5" r="14.5" fill="none"/>
        </g>
      </g>
      <text id="_2" data-name="2" transform="translate(155 172)" font-size="16" font-family="Poppins-Medium, Poppins" font-weight="500"><tspan x="-4.616" y="0">2</tspan></text>
    </g>
    <g id="Group_23444" data-name="Group 23444" transform="translate(89)">
      <g transform="matrix(1, 0, 0, 1, -76, 145)" filter="url(#Ellipse_479-2)">
        <g id="Ellipse_479-4" data-name="Ellipse 479" transform="translate(216 6)" fill="#9ccb48" stroke="#fff" stroke-width="2">
          <circle cx="15.5" cy="15.5" r="15.5" stroke="none"/>
          <circle cx="15.5" cy="15.5" r="14.5" fill="none"/>
        </g>
      </g>
      <text id="_3" data-name="3" transform="translate(155 172)" font-size="16" font-family="Poppins-Medium, Poppins" font-weight="500"><tspan x="-4.752" y="0">3</tspan></text>
    </g>
    <g id="Group_17207" data-name="Group 17207" transform="translate(56)">
      <g transform="matrix(1, 0, 0, 1, -43, 145)" filter="url(#Ellipse_480)">
        <g id="Ellipse_480-2" data-name="Ellipse 480" transform="translate(320 6)" fill="#707070" stroke="#fff" stroke-width="2">
          <circle cx="15.5" cy="15.5" r="15.5" stroke="none"/>
          <circle cx="15.5" cy="15.5" r="14.5" fill="none"/>
        </g>
      </g>
      <text id="_4" data-name="4" transform="translate(292 172)" fill="#fff" font-size="16" font-family="Poppins-Medium, Poppins" font-weight="500"><tspan x="-5.176" y="0">4</tspan></text>
    </g>
  </g>
</svg>
