<svg xmlns="http://www.w3.org/2000/svg" width="72.728" height="72.443" viewBox="0 0 72.728 72.443">
  <g id="Group_2" data-name="Group 2" transform="translate(0 -0.153)">
    <g id="Group_22809" data-name="Group 22809" transform="translate(14.3 40.174)">
      <path id="Union_13" data-name="Union 13" d="M9.22,31.116,0,22.212,21.45,0l8.425,8.136L27.4,10.609,21.536,4.943,4.943,22.126,11.649,28.6a1.166,1.166,0,0,0,1.648-.029l5.333-5.522,2.522,2.42L15.811,31a4.667,4.667,0,0,1-6.591.115ZM26.1,20.349l-2.607-2.331,5.591-5.789,2.472-2.472.011.011,1.924-1.988L36,10.209,26.2,20.34l-.046-.045-.052.054h0Z" fill="#9ccb48"/>
      <path id="Subtraction_7" data-name="Subtraction 7" d="M18.947,19.008h0a4.644,4.644,0,0,1-3.178-1.25L0,3.053,2.473.58,18.153,15.2a1.167,1.167,0,0,0,1.647-.058l6.357-6.818-6.34-5.912L22.354,0,31.1,8.154l-8.742,9.374A4.676,4.676,0,0,1,18.947,19.008Z" transform="translate(13.651 12.579)" fill="#31aae0"/>
    </g>
    <g id="Group_22812" data-name="Group 22812" transform="translate(58.113 33.198) rotate(-179)">
      <path id="Union_13-2" data-name="Union 13" d="M9.22,31.116,0,22.212,21.45,0l8.425,8.136L27.4,10.609,21.536,4.943,4.943,22.126,11.649,28.6a1.166,1.166,0,0,0,1.648-.029l5.333-5.522,2.522,2.42L15.811,31a4.667,4.667,0,0,1-6.591.115ZM26.1,20.349l-2.607-2.331,5.591-5.789,2.472-2.472.011.011,1.924-1.988L36,10.209,26.2,20.34l-.046-.045-.052.054h0Z" transform="translate(0 0)" fill="#9ccb48"/>
      <path id="Subtraction_7-2" data-name="Subtraction 7" d="M18.947,19.008h0a4.644,4.644,0,0,1-3.178-1.25L0,3.053,2.473.58,18.153,15.2a1.167,1.167,0,0,0,1.647-.058l6.357-6.818-6.34-5.912L22.354,0,31.1,8.154l-8.742,9.374A4.676,4.676,0,0,1,18.947,19.008Z" transform="translate(13.651 12.579)" fill="#31aae0"/>
    </g>
    <g id="Group_22810" data-name="Group 22810" transform="translate(71.947 13.08) rotate(89)">
      <path id="Union_13-3" data-name="Union 13" d="M9.22,31.116,0,22.212,21.45,0l8.425,8.136L27.4,10.609,21.536,4.943,4.943,22.126,11.648,28.6a1.166,1.166,0,0,0,1.648-.029l5.333-5.522,2.522,2.42L15.811,31a4.667,4.667,0,0,1-6.591.115ZM26.1,20.349l-2.607-2.331,5.591-5.789,2.472-2.472.011.011,1.924-1.988L36,10.209,26.2,20.34l-.046-.045-.052.054h0Z" transform="translate(44.749 32.422) rotate(180)" fill="#9ccb48"/>
      <path id="Subtraction_7-3" data-name="Subtraction 7" d="M18.946,19.008h0a4.644,4.644,0,0,1-3.178-1.25L0,3.053,2.473.58,18.153,15.2a1.167,1.167,0,0,0,1.647-.058l6.357-6.818-6.34-5.912L22.354,0,31.1,8.154l-8.741,9.374A4.676,4.676,0,0,1,18.946,19.008Z" transform="translate(31.098 19.843) rotate(180)" fill="#31aae0"/>
    </g>
    <g id="Group_22811" data-name="Group 22811" transform="translate(0 59.281) rotate(-90)">
      <path id="Union_13-4" data-name="Union 13" d="M9.22,31.116,0,22.212,21.45,0l8.425,8.136L27.4,10.609,21.536,4.943,4.943,22.126,11.648,28.6a1.166,1.166,0,0,0,1.648-.029l5.333-5.522,2.522,2.42L15.811,31a4.667,4.667,0,0,1-6.591.115ZM26.1,20.349l-2.607-2.331,5.591-5.789,2.472-2.472.011.011,1.924-1.988L36,10.209,26.2,20.34l-.046-.045-.052.054h0Z" transform="translate(44.749 32.422) rotate(180)" fill="#9ccb48"/>
      <path id="Subtraction_7-4" data-name="Subtraction 7" d="M18.946,19.008h0a4.644,4.644,0,0,1-3.178-1.25L0,3.053,2.473.58,18.153,15.2a1.167,1.167,0,0,0,1.647-.058l6.357-6.818-6.34-5.912L22.354,0,31.1,8.154l-8.741,9.374A4.676,4.676,0,0,1,18.946,19.008Z" transform="translate(31.098 19.843) rotate(180)" fill="#31aae0"/>
    </g>
  </g>
</svg>
