<svg id="arrow-left" xmlns="http://www.w3.org/2000/svg" width="24" height="23" viewBox="0 0 24 23">
  <path id="Vector" d="M20.142,12.056H6.642l3.988,3.689a.876.876,0,0,1,0,1.3,1.049,1.049,0,0,1-1.4,0L3.541,11.786a.87.87,0,0,1,0-1.3L9.225,5.229a1.058,1.058,0,0,1,1.4,0,.876.876,0,0,1,0,1.3L6.642,10.217h13.5a.922.922,0,1,1,0,1.838Z" transform="translate(-0.193 0.363)" fill="#292d32"/>
  <path id="Vector-2" data-name="Vector" d="M0,0H24V23H0Z" transform="translate(24 23) rotate(180)" fill="none" opacity="0"/>
</svg>
