<svg xmlns="http://www.w3.org/2000/svg" width="18.24" height="18.24" viewBox="0 0 18.24 18.24">
  <path id="_8665033_bank_icon" data-name="8665033_bank_icon" d="M8.667.092a1.139,1.139,0,0,1,.9,0l7.98,3.42a1.136,1.136,0,0,1,.666,1.276,1.178,1.178,0,0,1-1.147.912v.285a.833.833,0,0,1-.855.855H1.959A.875.875,0,0,1,1.1,5.985V5.7A1.167,1.167,0,0,1,.019,4.788,1.141,1.141,0,0,1,.687,3.512ZM9.116,4.56a1.14,1.14,0,1,0-1.14-1.14A1.139,1.139,0,0,0,9.116,4.56ZM4.524,14.82H5.949V7.98h2.28v6.84H9.971V7.98h2.28v6.84h1.425V7.98h2.28v6.993c.021.011.043-.007.064.039l1.71,1.14A1.14,1.14,0,0,1,17.1,18.24H1.1a1.14,1.14,0,0,1-.6-2.088l1.71-1.14c.02-.046.041-.028.03-.039V7.98h2.28Z" transform="translate(0.004 0)" fill="#9ccb48"/>
</svg>
