<svg xmlns="http://www.w3.org/2000/svg" width="37.273" height="37.273" viewBox="0 0 37.273 37.273">
  <g id="vuesax_bold_camera" data-name="vuesax/bold/camera" transform="translate(-364 -316)">
    <g id="camera" transform="translate(364 316)">
      <path id="Vector" d="M24.473,6.212A2.552,2.552,0,0,1,22.221,4.83L21.1,2.578A5.126,5.126,0,0,0,16.941,0H13.384A5.13,5.13,0,0,0,9.207,2.578L8.088,4.83A2.552,2.552,0,0,1,5.836,6.212a5.829,5.829,0,0,0-5.824,6.2L.82,25.237c.186,3.2,1.91,5.824,6.2,5.824H23.293c4.286,0,5.995-2.625,6.2-5.824L30.3,12.409A5.829,5.829,0,0,0,24.473,6.212ZM12.825,8.154h4.659a1.165,1.165,0,0,1,0,2.33H12.825a1.165,1.165,0,0,1,0-2.33Zm2.33,16.882A5.249,5.249,0,1,1,20.4,19.786,5.253,5.253,0,0,1,15.155,25.035Z" transform="translate(3.482 3.106)" fill="#fff"/>
      <path id="Vector-2" data-name="Vector" d="M0,0H37.273V37.273H0Z" fill="none" opacity="0"/>
    </g>
  </g>
</svg>
