<svg xmlns="http://www.w3.org/2000/svg" width="15.74" height="15.74" viewBox="0 0 15.74 15.74">
  <g id="Group_16728" data-name="Group 16728" transform="translate(-74.42 -178.42)">
    <path id="Vector" d="M.9,14.99A1.649,1.649,0,0,1-.267,12.176L12.176-.267a1.649,1.649,0,0,1,2.332,2.332L2.065,14.507A1.644,1.644,0,0,1,.9,14.99Z" transform="translate(75.17 179.17)"/>
    <path id="Vector-2" data-name="Vector" d="M13.342,14.99a1.644,1.644,0,0,1-1.166-.483L-.267,2.065A1.649,1.649,0,0,1,2.065-.267L14.507,12.176a1.649,1.649,0,0,1-1.166,2.815Z" transform="translate(75.17 179.17)"/>
  </g>
</svg>
