<svg xmlns="http://www.w3.org/2000/svg" width="17.801" height="17.801" viewBox="0 0 17.801 17.801">
  <g id="vuesax_bulk_category-2" data-name="vuesax/bulk/category-2" transform="translate(-172 -188)">
    <g id="category-2" transform="translate(172 188)">
      <path id="Vector" d="M3.879,0H2.47A2.207,2.207,0,0,0,0,2.47V3.879a2.207,2.207,0,0,0,2.47,2.47H3.879a2.207,2.207,0,0,0,2.47-2.47V2.47A2.207,2.207,0,0,0,3.879,0Z" transform="translate(9.968 1.483)" fill="#9ccb48" opacity="0.4"/>
      <path id="Vector-2" data-name="Vector" d="M3.887,0H2.477A2.209,2.209,0,0,0,0,2.47V3.879A2.209,2.209,0,0,0,2.47,6.356H3.879a2.207,2.207,0,0,0,2.47-2.47V2.477A2.2,2.2,0,0,0,3.887,0Z" transform="translate(1.483 9.961)" fill="#9ccb48" opacity="0.4"/>
      <path id="Vector-3" data-name="Vector" d="M6.364,3.182A3.182,3.182,0,1,1,3.182,0,3.182,3.182,0,0,1,6.364,3.182Z" transform="translate(1.483 1.483)" fill="#9ccb48"/>
      <path id="Vector-4" data-name="Vector" d="M6.364,3.182A3.182,3.182,0,1,1,3.182,0,3.182,3.182,0,0,1,6.364,3.182Z" transform="translate(9.954 9.954)" fill="#9ccb48"/>
      <path id="Vector-5" data-name="Vector" d="M0,0H17.8V17.8H0Z" fill="none" opacity="0"/>
    </g>
  </g>
</svg>
