<svg xmlns="http://www.w3.org/2000/svg" xmlns:xlink="http://www.w3.org/1999/xlink" width="194" height="177" viewBox="0 0 194 177">
  <defs>
    <filter id="Rectangle_775" x="0" y="0" width="194" height="177" filterUnits="userSpaceOnUse">
      <feOffset dy="5" input="SourceAlpha"/>
      <feGaussianBlur stdDeviation="5" result="blur"/>
      <feFlood flood-opacity="0.071"/>
      <feComposite operator="in" in2="blur"/>
      <feComposite in="SourceGraphic"/>
    </filter>
    <linearGradient id="linear-gradient" x1="0.5" x2="0.5" y2="1" gradientUnits="objectBoundingBox">
      <stop offset="0" stop-color="#4791ff" stop-opacity="0.2"/>
      <stop offset="1" stop-color="#468ffd" stop-opacity="0"/>
    </linearGradient>
    <filter id="Path_15968" x="0" y="51.543" width="193.793" height="125.457" filterUnits="userSpaceOnUse">
      <feOffset dy="5" input="SourceAlpha"/>
      <feGaussianBlur stdDeviation="5" result="blur-2"/>
      <feFlood flood-opacity="0.071"/>
      <feComposite operator="in" in2="blur-2"/>
      <feComposite in="SourceGraphic"/>
    </filter>
  </defs>
  <g id="Group_23447" data-name="Group 23447" transform="translate(-191 -531)">
    <g id="Group_17678" data-name="Group 17678" transform="translate(-3884.794 -980.235)">
      <g transform="matrix(1, 0, 0, 1, 4075.79, 1511.23)" filter="url(#Rectangle_775)">
        <g id="Rectangle_775-2" data-name="Rectangle 775" transform="translate(15 10)" fill="#fff" stroke="#f5f4f4" stroke-width="1">
          <rect width="164" height="147" rx="10" stroke="none"/>
          <rect x="0.5" y="0.5" width="163" height="146" rx="9.5" fill="none"/>
        </g>
      </g>
      <text id="Total_amount_paid" data-name="Total amount paid" transform="translate(4103.794 1540.235)" fill="#707070" font-size="12" font-family="Rubik-Medium, Rubik" font-weight="500" letter-spacing="0.02em"><tspan x="0" y="0">Total Amount Paid</tspan></text>
      <text id="_1_534" data-name="$1,534" transform="translate(4103.794 1561.235)" font-size="16" font-family="Rubik-Medium, Rubik" font-weight="500" letter-spacing="0.02em"><tspan x="0" y="0">$1,534</tspan></text>
      <g id="Group_16530" data-name="Group 16530" transform="translate(4090.932 1578.03)">
        <path id="Path_373" data-name="Path 373" d="M3195.454-22363.437s9.092-6.572,14.738-6.572,16.108,4.752,24.16,0,8.547-12.578,15.894-12.445c12.944-.762,9.87,10.158,19.49,8.6s11.984-10.758,18.99-14.824,17.252-4.844,25.1-2.766,19.49,13.807,27.9,13.932c10.1.117,5.726-11.736,17.091-11.166" transform="translate(-3195.454 22392.555)" fill="none" stroke="#4791ff" stroke-linecap="round" stroke-width="2"/>
        <path id="Path_377" data-name="Path 377" d="M3358.81-22388.676c-11.365-.57-6.992,11.283-17.091,11.166-8.408-.125-20.055-11.857-27.9-13.932s-18.088-1.295-25.095,2.766-9.37,13.271-18.99,14.824-6.546-9.365-19.49-8.6c-7.347-.133-7.843,7.7-15.894,12.445s-18.513,0-24.16,0-14.738,6.572-14.738,6.572v56.895a10.579,10.579,0,0,0,1.67,2.453,9.654,9.654,0,0,0,2.325,1.691H3353.4s2.88-.219,4.232-1.785,1.177-4.48,1.177-4.48Z" transform="translate(-3195.454 22392.555)" opacity="0.22" fill="url(#linear-gradient)"/>
      </g>
      <g transform="matrix(1, 0, 0, 1, 4075.79, 1511.23)" filter="url(#Path_15968)">
        <g id="Path_15968-2" data-name="Path 15968" transform="translate(-3180.23 22454.1)" fill="#fff">
          <path d="M 3354.460205078125 -22297.6015625 L 3199.83935546875 -22297.6015625 C 3199.572021484375 -22297.6796875 3198.38134765625 -22298.056640625 3197.504638671875 -22298.873046875 C 3196.63427734375 -22299.685546875 3196.021484375 -22300.97265625 3195.8681640625 -22301.314453125 C 3195.8505859375 -22303.361328125 3195.58544921875 -22334.93359375 3195.85888671875 -22349.568359375 C 3196.257568359375 -22349.544921875 3196.643310546875 -22349.533203125 3197.010498046875 -22349.533203125 C 3201.8740234375 -22349.533203125 3203.481201171875 -22351.6015625 3205.035400390625 -22353.6015625 C 3206.50146484375 -22355.486328125 3207.885986328125 -22357.26953125 3212.227783203125 -22357.26953125 C 3212.334228515625 -22357.26953125 3212.442138671875 -22357.267578125 3212.552001953125 -22357.265625 C 3218.211669921875 -22357.123046875 3225.49951171875 -22353.009765625 3231.9296875 -22349.380859375 C 3234.9267578125 -22347.689453125 3237.75732421875 -22346.091796875 3240.239013671875 -22344.98828125 C 3243.052001953125 -22343.740234375 3246.23046875 -22343.080078125 3249.430908203125 -22343.080078125 C 3255.652099609375 -22343.080078125 3261.512451171875 -22345.447265625 3265.932373046875 -22349.748046875 C 3268.5478515625 -22352.29296875 3270.36279296875 -22355.1484375 3272.117919921875 -22357.908203125 C 3273.61328125 -22360.26171875 3275.02587890625 -22362.482421875 3276.81884765625 -22364.328125 C 3278.81103515625 -22366.37890625 3280.994140625 -22367.673828125 3283.689208984375 -22368.404296875 C 3284.495361328125 -22368.623046875 3285.2900390625 -22368.734375 3286.0517578125 -22368.734375 C 3289.798583984375 -22368.734375 3292.587158203125 -22366.11328125 3295.539306640625 -22363.337890625 C 3298.5341796875 -22360.5234375 3301.630615234375 -22357.611328125 3305.970947265625 -22357.267578125 C 3306.138916015625 -22357.25390625 3306.30810546875 -22357.248046875 3306.47509765625 -22357.248046875 C 3308.40771484375 -22357.248046875 3310.296630859375 -22358.083984375 3312.419921875 -22359.87890625 C 3314.260986328125 -22361.4375 3316.057861328125 -22363.52734375 3317.96044921875 -22365.740234375 C 3322.65673828125 -22371.205078125 3327.9794921875 -22377.3984375 3335.744384765625 -22377.3984375 C 3343.427978515625 -22377.3984375 3349.4697265625 -22381.455078125 3353.185302734375 -22384.859375 C 3355.72216796875 -22387.18359375 3357.52392578125 -22389.486328125 3358.528076171875 -22390.90234375 L 3358.528076171875 -22302.904296875 C 3358.52587890625 -22302.80859375 3358.458984375 -22300.533203125 3357.4638671875 -22299.255859375 C 3356.541259765625 -22298.072265625 3354.749267578125 -22297.662109375 3354.460205078125 -22297.6015625 Z" stroke="none"/>
          <path d="M 3358.028076171875 -22389.390625 C 3356.962890625 -22388.015625 3355.45166015625 -22386.2578125 3353.52294921875 -22384.490234375 C 3348.10107421875 -22379.5234375 3341.953369140625 -22376.8984375 3335.744384765625 -22376.8984375 C 3332.405029296875 -22376.8984375 3329.23828125 -22375.7109375 3326.06298828125 -22373.271484375 C 3323.199462890625 -22371.0703125 3320.72900390625 -22368.1953125 3318.33984375 -22365.416015625 C 3316.423828125 -22363.185546875 3314.6142578125 -22361.080078125 3312.742919921875 -22359.498046875 C 3310.524169921875 -22357.62109375 3308.53271484375 -22356.748046875 3306.47509765625 -22356.748046875 C 3306.295166015625 -22356.748046875 3306.11279296875 -22356.75390625 3305.931396484375 -22356.76953125 C 3301.416259765625 -22357.126953125 3298.25439453125 -22360.099609375 3295.19677734375 -22362.97265625 C 3292.31884765625 -22365.677734375 3289.6005859375 -22368.234375 3286.0517578125 -22368.234375 C 3285.334228515625 -22368.234375 3284.58349609375 -22368.12890625 3283.81982421875 -22367.921875 C 3278.09033203125 -22366.37109375 3275.51806640625 -22362.32421875 3272.539794921875 -22357.640625 C 3270.769287109375 -22354.85546875 3268.9384765625 -22351.9765625 3266.281005859375 -22349.388671875 C 3261.76708984375 -22344.998046875 3255.782958984375 -22342.580078125 3249.430908203125 -22342.580078125 C 3246.160888671875 -22342.580078125 3242.912353515625 -22343.25390625 3240.0361328125 -22344.53125 C 3237.532470703125 -22345.64453125 3234.691650390625 -22347.248046875 3231.68408203125 -22348.9453125 C 3225.306396484375 -22352.544921875 3218.077392578125 -22356.625 3212.540283203125 -22356.765625 C 3212.4345703125 -22356.767578125 3212.330322265625 -22356.76953125 3212.227783203125 -22356.76953125 C 3208.130859375 -22356.76953125 3206.87939453125 -22355.158203125 3205.43017578125 -22353.294921875 C 3203.8779296875 -22351.296875 3202.11865234375 -22349.033203125 3197.010498046875 -22349.033203125 C 3196.795654296875 -22349.033203125 3196.574951171875 -22349.037109375 3196.349365234375 -22349.044921875 C 3196.09521484375 -22334.416015625 3196.343505859375 -22304.21484375 3196.367431640625 -22301.421875 C 3196.603515625 -22300.91015625 3197.16064453125 -22299.87890625 3197.845458984375 -22299.240234375 C 3198.58544921875 -22298.55078125 3199.589111328125 -22298.201171875 3199.912109375 -22298.1015625 L 3354.40625 -22298.1015625 C 3354.76123046875 -22298.181640625 3356.29931640625 -22298.576171875 3357.069580078125 -22299.564453125 C 3357.81884765625 -22300.525390625 3358.01513671875 -22302.298828125 3358.028076171875 -22302.908203125 L 3358.028076171875 -22389.390625 M 3359.028076171875 -22392.55859375 L 3359.028076171875 -22302.8984375 C 3359.028076171875 -22302.8984375 3358.988037109375 -22300.3984375 3357.858154296875 -22298.94921875 C 3356.728759765625 -22297.5 3354.5087890625 -22297.1015625 3354.5087890625 -22297.1015625 L 3199.771484375 -22297.1015625 C 3199.771484375 -22297.1015625 3198.26416015625 -22297.482421875 3197.163818359375 -22298.5078125 C 3196.06298828125 -22299.53515625 3195.369140625 -22301.20703125 3195.369140625 -22301.20703125 C 3195.369140625 -22301.20703125 3195.067138671875 -22335.1328125 3195.369140625 -22350.10546875 C 3195.95703125 -22350.056640625 3196.501953125 -22350.033203125 3197.010498046875 -22350.033203125 C 3206.2373046875 -22350.033203125 3203.044189453125 -22357.76953125 3212.227783203125 -22357.76953125 C 3212.33740234375 -22357.76953125 3212.44873046875 -22357.767578125 3212.561767578125 -22357.765625 C 3220.985595703125 -22357.5546875 3232.583984375 -22348.9375 3240.442138671875 -22345.4453125 C 3243.220703125 -22344.2109375 3246.300048828125 -22343.580078125 3249.430908203125 -22343.580078125 C 3255.1533203125 -22343.580078125 3261.046630859375 -22345.69140625 3265.583740234375 -22350.10546875 C 3272.6025390625 -22356.939453125 3273.9208984375 -22366.27734375 3283.55859375 -22368.88671875 C 3284.4375 -22369.125 3285.2646484375 -22369.234375 3286.0517578125 -22369.234375 C 3293.897216796875 -22369.234375 3297.632568359375 -22358.431640625 3306.010498046875 -22357.765625 C 3306.166259765625 -22357.75390625 3306.321044921875 -22357.748046875 3306.47509765625 -22357.748046875 C 3315.4326171875 -22357.748046875 3321.427001953125 -22377.8984375 3335.744384765625 -22377.8984375 C 3350.3076171875 -22377.8984375 3359.028076171875 -22392.55859375 3359.028076171875 -22392.55859375 Z" stroke="none" fill="#f5f4f4"/>
        </g>
      </g>
      <path id="Path_15969" data-name="Path 15969" d="M3358.809-22392.559s-8.7,14.66-23.241,14.66-20.478,20.85-29.678,20.133c-9.2-.732-12.791-13.736-22.41-11.121s-10.936,11.947-17.941,18.781a23.006,23.006,0,0,1-25.1,4.66c-7.843-3.492-19.42-12.109-27.829-12.32-10.1-.2-5.8,8.619-17.16,7.66" transform="translate(895.478 23968.303)" fill="none" stroke="#02bc77" stroke-linecap="round" stroke-linejoin="round" stroke-width="2"/>
      <text id="_7_" data-name="+ 7% " transform="translate(4221.794 1560.235)" fill="#02bc77" font-size="10" font-family="Rubik-Regular, Rubik" letter-spacing="0.02em"><tspan x="0" y="0">+ 7% </tspan></text>
    </g>
  </g>
</svg>
