<svg xmlns="http://www.w3.org/2000/svg" width="24" height="24" viewBox="0 0 24 24">
  <g id="vuesax_linear_message" data-name="vuesax/linear/message" transform="translate(-684 -186)">
    <g id="message" transform="translate(684 186)">
      <path id="Vector" d="M9.976,20.763a2.262,2.262,0,0,1-1.8-.958l-1.5-2v0a.478.478,0,0,0-.2-.1H5.985C4.26,17.71,2.319,17.555,1,16.4-.193,15.356-.75,13.632-.75,10.975V5.985C-.75,1.579,1.579-.75,5.985-.75h7.982c4.406,0,6.735,2.329,6.735,6.735v4.989c0,4.406-2.329,6.735-6.735,6.735h-.5a.265.265,0,0,0-.2.1l-1.494,1.992A2.262,2.262,0,0,1,9.976,20.763ZM7.883,16.915l1.494,1.992a.779.779,0,0,0,.6.359.779.779,0,0,0,.6-.359l1.5-2a1.764,1.764,0,0,1,1.4-.7h.5c3.574,0,5.238-1.665,5.238-5.239V5.985c0-3.574-1.665-5.239-5.238-5.239H5.985C2.411.747.747,2.411.747,5.985v4.989c0,2.194.394,3.56,1.241,4.3.751.657,1.946.937,4,.937h.5A1.864,1.864,0,0,1,7.883,16.915Z" transform="translate(2.024 2.024)"/>
      <path id="Vector-2" data-name="Vector" d="M.523,1.538H.514A1.019,1.019,0,1,1,.514-.5H.523a1.019,1.019,0,0,1,0,2.038Z" transform="translate(15.476 10.483)"/>
      <path id="Vector-3" data-name="Vector" d="M.523,1.538H.514A1.019,1.019,0,1,1,.514-.5H.523a1.019,1.019,0,0,1,0,2.038Z" transform="translate(11.482 10.483)"/>
      <path id="Vector-4" data-name="Vector" d="M.523,1.538H.514A1.019,1.019,0,1,1,.514-.5H.523a1.019,1.019,0,0,1,0,2.038Z" transform="translate(7.488 10.483)"/>
      <path id="Vector-5" data-name="Vector" d="M0,0H24V24H0Z" fill="none" opacity="0"/>
    </g>
  </g>
</svg>
