<svg xmlns="http://www.w3.org/2000/svg" xmlns:xlink="http://www.w3.org/1999/xlink" width="211.245" height="118.232" viewBox="0 0 211.245 118.232">
  <defs>
    <linearGradient id="linear-gradient" x1="0.5" x2="0.5" y2="1" gradientUnits="objectBoundingBox">
      <stop offset="0" stop-color="#9ccb48"/>
      <stop offset="1" stop-color="#31aae0"/>
    </linearGradient>
  </defs>
  <g id="undraw_throw_away_re_x60k" transform="translate(0 0)">
    <path id="Path_1" data-name="Path 1" d="M225.06,651.471H192.787s-.654-9.595,3.216-9.7,3.434,4.252,8.286-1.745,10.739-5.67,11.5-2.126-1.472,6.378,2.617,5.506S228.385,644.82,225.06,651.471Z" transform="translate(-180.603 -533.689)" fill="#e6e6e6"/>
    <path id="Path_2" data-name="Path 2" d="M260.488,651.285l-.109,0a33.232,33.232,0,0,1,2.642-12.668,11.5,11.5,0,0,1,2.282-3.507l.073.081a11.422,11.422,0,0,0-2.26,3.48A33.137,33.137,0,0,0,260.488,651.285Z" transform="translate(-232.713 -533.501)" fill="#fff"/>
    <path id="Path_3" data-name="Path 3" d="M311.389,681.767l-.1-.031a16.913,16.913,0,0,1,4.258-7.084l.073.081A16.8,16.8,0,0,0,311.389,681.767Z" transform="translate(-271.933 -563.97)" fill="#fff"/>
    <path id="Path_4" data-name="Path 4" d="M205.47,673.747l-.108-.015a11.874,11.874,0,0,0-1.068-6.941,9.557,9.557,0,0,0-1.685-2.46l.076-.079a9.678,9.678,0,0,1,1.708,2.49A11.983,11.983,0,0,1,205.47,673.747Z" transform="translate(-188.203 -555.958)" fill="#fff"/>
    <path id="Path_5" data-name="Path 5" d="M217.678,638.347H177.544l-.009-.136c-.023-.338-.535-8.316,2.05-11.162a2.831,2.831,0,0,1,2.069-.993,6.158,6.158,0,0,1,3.6,1.09c1.61.955,2.673,1.586,6.54-3.193,4.188-5.177,8.708-6.291,11.306-5.671a4.032,4.032,0,0,1,3.174,3.1,13.74,13.74,0,0,1,.136,4.011c-.088,1.2-.157,2.152.337,2.583.413.359,1.235.392,2.589.1,2.754-.588,6.6-.085,8.528,2.408,1.038,1.341,1.856,3.779-.143,7.777Zm-39.86-.292H217.5c1.489-3.022,1.536-5.575.133-7.387-1.77-2.287-5.483-2.889-8.237-2.3-1.472.314-2.348.262-2.842-.168-.6-.526-.53-1.54-.436-2.823a13.532,13.532,0,0,0-.131-3.929,3.751,3.751,0,0,0-2.957-2.881c-2.515-.6-6.909.5-11.011,5.571-4.025,4.975-5.237,4.256-6.915,3.259a5.849,5.849,0,0,0-3.441-1.049,2.55,2.55,0,0,0-1.861.9c-2.322,2.558-2.039,9.732-1.982,10.811Z" transform="translate(-168.841 -520.419)" fill="#2f2e41"/>
    <path id="Path_8" data-name="Path 8" d="M784.861,524.982h-39.53l-.008-.221-1.888-53.983h43.32Zm-39.087-.459h38.643l1.863-53.286h-42.37Z" transform="translate(-604.89 -406.893)" fill="#3f3d56"/>
    <g id="Group_1" data-name="Group 1" transform="translate(146.864 73.887)">
      <rect id="Rectangle_17" data-name="Rectangle 17" width="3.007" height="37.207" fill="url(#linear-gradient)"/>
      <rect id="Rectangle_18" data-name="Rectangle 18" width="3.007" height="37.207" transform="translate(11.839)" fill="url(#linear-gradient)"/>
      <rect id="Rectangle_19" data-name="Rectangle 19" width="3.007" height="37.207" transform="translate(23.677)" fill="url(#linear-gradient)"/>
    </g>
    <path id="Path_19353" data-name="Path 19353" d="M876.134,412.652l-.194-.123-49.1-31.03,4.259-6.74.194.123,49.1,31.03Zm-48.662-31.295,48.519,30.662,3.769-5.963-48.519-30.662Z" transform="translate(-669.148 -332.915)" fill="#3f3d56"/>
    <path id="Path_10" data-name="Path 10" d="M944.472,388.633a8.828,8.828,0,0,0-13.455,8.738l2.341,1.48a6.965,6.965,0,1,1,6.652,4.205l2.341,1.48a8.828,8.828,0,0,0,2.123-15.9Z" transform="translate(-749.341 -342.549)" fill="url(#linear-gradient)"/>
    <rect id="Rectangle_21" data-name="Rectangle 21" width="208.65" height="0.459" transform="translate(0 117.773)" fill="#3f3d56"/>
    <g id="Group_6" data-name="Group 6" transform="translate(66.279 0)">
      <path id="Path_111" data-name="Path 111" d="M520.323,648.616H516.98l-1.591-12.894h4.935Z" transform="translate(-495.467 -533.976)" fill="#b56f40"/>
      <path id="Path_112" data-name="Path 112" d="M494.234,691.793H504.74v-4.059h-6.5a4,4,0,0,0-4,4h0Z" transform="translate(-479.168 -574.049)" fill="#2f2e41"/>
      <path id="Path_113" data-name="Path 113" d="M531.766,575l2.306,2.42,10.433-7.742-3.4-3.572Z" transform="translate(-508.085 -480.339)" fill="#feb8b8"/>
      <path id="Path_114" data-name="Path 114" d="M527.235,604.423l-4.487-4.708-2.939,2.8,7.249,7.607.041-.039A4,4,0,0,0,527.235,604.423Z" transform="translate(-498.872 -506.233)" fill="#2f2e41"/>
      <path id="Path_115" data-name="Path 115" d="M429.009,325.27a2.742,2.742,0,0,1,1.312-3.994l13.125-33.45,5.116,3.063-14.58,32.089a2.757,2.757,0,0,1-4.973,2.291Z" transform="translate(-428.596 -265.935)" fill="#b56f40"/>
      <path id="Path_116" data-name="Path 116" d="M574.172,340.5a2.742,2.742,0,0,1-2.462-3.409L552.347,306.82l5.484-2.341,17.407,30.649a2.757,2.757,0,0,1-1.066,5.371Z" transform="translate(-523.941 -278.766)" fill="#b56f40"/>
      <path id="Path_117" data-name="Path 117" d="M493.853,428.275l3.427,50.937,8.19-.723,1.686-37.58,4.577,16.14,9.877.723L517.7,425.866Z" transform="translate(-478.874 -372.29)" fill="#31aae0"/>
      <path id="Path_118" data-name="Path 118" d="M539.239,551.224l-1.446,2.409-10.116,6.986,7.227,3.854s13.972-7.709,12.767-10.118Z" transform="translate(-504.933 -468.873)" fill="#31aae0"/>
      <path id="Path_119" data-name="Path 119" d="M462.607,287.882l2.851-8.034a14.345,14.345,0,0,1,7.421-8.187h0A20.527,20.527,0,0,1,484.927,271l1.038.258a20.054,20.054,0,0,1,7.6,3.673c1.757,1.385,3.337,3.139,3.478,5.025a.056.056,0,0,0,0,.012c.487,2.133.727,13.214.727,13.214h-4.292l.679,14.935-.055-.108s-24.757,4.685-24.757,2.276V294.868l-.508-5.582Z" transform="translate(-454.8 -252.506)" fill="#dcdcdc"/>
      <circle id="Ellipse_12" data-name="Ellipse 12" cx="6.861" cy="6.861" r="6.861" transform="translate(24.054 2.686)" fill="#b56f40"/>
      <path id="Path_120" data-name="Path 120" d="M541.172,198.927l5.327.213a2.908,2.908,0,0,0,1.913-.459,2.431,2.431,0,0,0,.228-2.81c-1.148-2.567-3.708-3.486-6.519-3.411s-5.757,1.028-7.271,3.4a11.04,11.04,0,0,0-1.353,8.113,8.845,8.845,0,0,1,7.232-5.043Z" transform="translate(-509.23 -192.456)" fill="#2f2e41"/>
    </g>
    <g id="Group_4" data-name="Group 4" transform="translate(110.222 36.967)">
      <path id="Path_81" data-name="Path 81" d="M639.671,390.119l-19.282-13.514a.828.828,0,0,1-.2-1.151l15.134-21.593a.828.828,0,0,1,1.151-.2l19.282,13.514a.828.828,0,0,1,.2,1.151l-15.133,21.593A.828.828,0,0,1,639.671,390.119Z" transform="translate(-620.038 -353.509)" fill="#ff4141"/>
      <path id="Path_82" data-name="Path 82" d="M684.745,415.075l-11.314-7.93a1.217,1.217,0,1,1,1.4-1.993l11.314,7.93a1.217,1.217,0,1,1-1.4,1.993Z" transform="translate(-660.776 -393.129)" fill="#fff"/>
      <path id="Path_83" data-name="Path 83" d="M673.433,431.216l-11.314-7.93a1.217,1.217,0,1,1,1.4-1.993l11.314,7.93a1.217,1.217,0,0,1-1.4,1.993Z" transform="translate(-652.06 -405.565)" fill="#fff"/>
      <path id="Path_84" data-name="Path 84" d="M662,447.531l-11.314-7.93a1.217,1.217,0,1,1,1.4-1.993l11.314,7.93a1.217,1.217,0,0,1-1.4,1.993Z" transform="translate(-643.251 -418.135)" fill="#fff"/>
      <path id="Path_85" data-name="Path 85" d="M707.874,399.452l-4.382-3.071a1.217,1.217,0,1,1,1.4-1.993l4.382,3.071a1.217,1.217,0,0,1-1.4,1.993Z" transform="translate(-683.937 -384.835)" fill="#fff"/>
    </g>
  </g>
</svg>
