<svg id="Group_17151" data-name="Group 17151" xmlns="http://www.w3.org/2000/svg" xmlns:xlink="http://www.w3.org/1999/xlink" width="142.993" height="132.806" viewBox="0 0 142.993 132.806">
  <defs>
    <linearGradient id="linear-gradient" x1="0.5" x2="0.5" y2="1" gradientUnits="objectBoundingBox">
      <stop offset="0" stop-color="#9ccb48"/>
      <stop offset="1" stop-color="#31aae0"/>
    </linearGradient>
    <clipPath id="clip-path">
      <rect id="Rectangle_1057" data-name="Rectangle 1057" width="142.993" height="132.806" fill="none"/>
    </clipPath>
    <clipPath id="clip-path-4">
      <rect id="Rectangle_1040" data-name="Rectangle 1040" width="142.993" height="132.806" fill="#9ccb48"/>
    </clipPath>
    <clipPath id="clip-path-5">
      <rect id="Rectangle_1038" data-name="Rectangle 1038" width="8.081" height="14.384" fill="#9ccb48"/>
    </clipPath>
    <clipPath id="clip-path-6">
      <rect id="Rectangle_1042" data-name="Rectangle 1042" width="142.993" height="132.806" fill="#31aae0"/>
    </clipPath>
    <clipPath id="clip-path-7">
      <rect id="Rectangle_1050" data-name="Rectangle 1050" width="142.993" height="132.806" fill="url(#linear-gradient)"/>
    </clipPath>
    <clipPath id="clip-path-8">
      <rect id="Rectangle_1043" data-name="Rectangle 1043" width="4.272" height="5.516" fill="#fff"/>
    </clipPath>
    <clipPath id="clip-path-9">
      <rect id="Rectangle_1044" data-name="Rectangle 1044" width="8.23" height="8.036" fill="#fff"/>
    </clipPath>
    <clipPath id="clip-path-10">
      <rect id="Rectangle_1045" data-name="Rectangle 1045" width="9.876" height="6.984" fill="#31aae0"/>
    </clipPath>
    <clipPath id="clip-path-11">
      <rect id="Rectangle_1046" data-name="Rectangle 1046" width="26.335" height="18.697" fill="#31aae0"/>
    </clipPath>
    <clipPath id="clip-path-13">
      <rect id="Rectangle_1048" data-name="Rectangle 1048" width="26.335" height="18.696" fill="#31aae0"/>
    </clipPath>
    <clipPath id="clip-path-14">
      <rect id="Rectangle_1049" data-name="Rectangle 1049" width="11.522" height="10.785" fill="#31aae0"/>
    </clipPath>
    <clipPath id="clip-path-16">
      <rect id="Rectangle_1051" data-name="Rectangle 1051" width="6.845" height="37.373"/>
    </clipPath>
    <clipPath id="clip-path-17">
      <rect id="Rectangle_1052" data-name="Rectangle 1052" width="5.286" height="14.978"/>
    </clipPath>
    <clipPath id="clip-path-18">
      <rect id="Rectangle_1053" data-name="Rectangle 1053" width="13.951" height="39.139" fill="none"/>
    </clipPath>
    <clipPath id="clip-path-19">
      <rect id="Rectangle_1054" data-name="Rectangle 1054" width="11.64" height="12.889" fill="#9ccb48"/>
    </clipPath>
  </defs>
  <g id="Group_17150" data-name="Group 17150" clip-path="url(#clip-path)">
    <g id="Group_17098" data-name="Group 17098">
      <g id="Group_17097" data-name="Group 17097" clip-path="url(#clip-path)">
        <path id="Path_17233" data-name="Path 17233" d="M20.941,217.728c27.921,13.308,73.19,13.308,101.111,0s27.921-34.884,0-48.192-73.19-13.308-101.111,0-27.921,34.884,0,48.192" transform="translate(0 -94.903)" fill="#68e1fd" opacity="0.18"/>
      </g>
    </g>
    <g id="Group_17100" data-name="Group 17100">
      <g id="Group_17099" data-name="Group 17099" clip-path="url(#clip-path)">
        <path id="Path_17234" data-name="Path 17234" d="M280.724,264.521a17.323,17.323,0,0,0,13.167,0c3.637-1.733,3.637-4.543,0-6.276a17.323,17.323,0,0,0-13.167,0c-3.637,1.733-3.637,4.543,0,6.276" transform="translate(-165.351 -152.83)" fill="#ebebeb"/>
      </g>
    </g>
    <g id="Group_17108" data-name="Group 17108">
      <g id="Group_17107" data-name="Group 17107" clip-path="url(#clip-path-4)">
        <path id="Path_17235" data-name="Path 17235" d="M46.4,248.353l3.292-1.9a13.2,13.2,0,0,0,4.061-5.7c1.017-2.8.877-4.937.147-6.006-.9-1.316-3.22-1.086-3.312,1.688-.182,5.462-1.775,9.241-4.188,11.921" transform="translate(-27.598 -139.164)" fill="#9ccb48"/>
        <path id="Path_17237" data-name="Path 17237" d="M46.1,250.443a.2.2,0,0,1-.115-.369c7.617-5.271,6.141-12.613,6.125-12.687a.2.2,0,0,1,.4-.085c.017.076,1.556,7.676-6.291,13.105a.2.2,0,0,1-.115.036" transform="translate(-27.301 -141.051)" fill="#fff"/>
        <path id="Path_17238" data-name="Path 17238" d="M26.895,248.952a2.444,2.444,0,0,1-.869-2.2c.277-1.263,1.017-2.172-.254-3.8s-1.6-3.8-.1-4.979c1.155-.91,2.958.38,3.609-2.032.475-1.758.313-5.652,2.556-6.948s3.636.655,3.291,3.3c-.308,2.363-.742,4.638-.407,5.257.654,1.211,1.779,1.048,1.728,3.268a6.1,6.1,0,0,1-2,3.777Z" transform="translate(-14.677 -135.962)" fill="#9ccb48"/>
        <path id="Path_17239" data-name="Path 17239" d="M38.947,250.715a.2.2,0,0,1-.2-.178c-.58-4.8.8-13.091,1.945-15.555a.2.2,0,0,1,.368.17c-1.123,2.421-2.465,10.747-1.911,15.336a.2.2,0,0,1-.177.225l-.025,0" transform="translate(-22.965 -139.696)" fill="#fff"/>
        <path id="Path_17240" data-name="Path 17240" d="M35.6,259.586a.2.2,0,0,1-.089-.021c-1.406-.687-2.3-3.129-2.334-3.232a.2.2,0,1,1,.381-.137c.009.023.873,2.39,2.131,3.005a.2.2,0,0,1-.089.385" transform="translate(-19.725 -152.304)" fill="#fff"/>
        <path id="Path_17241" data-name="Path 17241" d="M38.819,262.445a.2.2,0,0,1-.075-.391,9.027,9.027,0,0,0,3.856-3.8.2.2,0,0,1,.36.186,9.28,9.28,0,0,1-4.065,3.986.206.206,0,0,1-.075.015" transform="translate(-22.969 -153.546)" fill="#fff"/>
        <path id="Path_17242" data-name="Path 17242" d="M240.356,189.108a14.545,14.545,0,0,1-1.943-5.985c-.171-3.12.514-4.415,1.453-4.787s1.011.773,1.5,1.452,1.467.29,1.83-1.82,1.693-5.685,4.445-6.367c3.039-.753,1.409,2.812.646,4.2s-1.358,3.285-.855,3.8,1.283-.437,2.031.446c.9,1.066-1.9,4.9-3.516,5.831Z" transform="translate(-141.792 -102.006)" fill="#9ccb48"/>
        <path id="Path_17243" data-name="Path 17243" d="M248.94,190.845h-.011a.2.2,0,0,1-.192-.212,29.193,29.193,0,0,1,4.536-14.1.2.2,0,1,1,.329.236,28.775,28.775,0,0,0-4.461,13.886.2.2,0,0,1-.2.192" transform="translate(-147.948 -104.949)" fill="#fff"/>
        <path id="Path_17244" data-name="Path 17244" d="M247.023,201.875a.209.209,0,0,1-.1-.025,5.24,5.24,0,0,1-1.789-2.571.2.2,0,1,1,.385-.128,4.948,4.948,0,0,0,1.6,2.344.2.2,0,0,1-.1.38" transform="translate(-145.8 -118.372)" fill="#fff"/>
        <path id="Path_17245" data-name="Path 17245" d="M250,198.966a.2.2,0,0,1-.05-.4,6.689,6.689,0,0,0,3.948-2.288.2.2,0,0,1,.342.217c-.043.068-1.1,1.681-4.19,2.463a.2.2,0,0,1-.05.006" transform="translate(-148.58 -116.691)" fill="#fff"/>
        <path id="Path_17246" data-name="Path 17246" d="M112.721,161.172s-3.885-.947-4.088-8.223c-.218-7.853.952-17.015-3.631-17.76s-7.154,4.874-7.1,11.4c.051,5.733,2.36,18.173,14.813,20.611Z" transform="translate(-58.234 -80.37)" fill="#9ccb48"/>
        <path id="Path_17248" data-name="Path 17248" d="M119.21,170.289a.22.22,0,0,1-.036,0,10.159,10.159,0,0,1-6.778-4.581c-5.035-7.51-3.448-21.528-2.928-23.978a.2.2,0,0,1,.4.084c-.515,2.421-2.088,16.275,2.867,23.668a9.767,9.767,0,0,0,6.514,4.408.2.2,0,0,1-.036.4" transform="translate(-64.723 -84.203)" fill="#fff"/>
        <path id="Path_17249" data-name="Path 17249" d="M99.169,205.22c-4.018.545-10.543.535-14.3-2.43s-2.977-5.52-1.531-6.585,2.7-2.284.214-4.649-6.486-6.166-7.779-11.868-.656-9.265,1.888-10.453c2.469-1.152,3.119.679,4.631,4.456s4.912.539,7.82,1.718,2.793,3.513,2.977,5.52,1.143,2.561,2.79,2.561,3.291.95,3.292,2.851Z" transform="translate(-44.682 -100.457)" fill="#9ccb48"/>
        <path id="Path_17250" data-name="Path 17250" d="M105.177,209.965a.214.214,0,0,1-.055-.007c-.174-.049-4.328-1.258-10.376-6.813-6.442-5.918-9.483-14.79-9.513-14.878a.2.2,0,1,1,.384-.13c.03.088,3.04,8.864,9.4,14.71,5.966,5.48,10.169,6.709,10.211,6.721a.2.2,0,0,1-.055.4" transform="translate(-50.69 -111.821)" fill="#fff"/>
        <path id="Path_17251" data-name="Path 17251" d="M110.243,212.534a.2.2,0,0,1-.189-.129c-1.3-3.342-1.595-10.485-1.607-10.787a.2.2,0,0,1,.195-.211.212.212,0,0,1,.21.194c0,.073.3,7.378,1.579,10.656a.2.2,0,0,1-.189.276" transform="translate(-64.504 -119.796)" fill="#fff"/>
        <path id="Path_17252" data-name="Path 17252" d="M110.892,238.006a10.083,10.083,0,0,1-1.118-.056.2.2,0,0,1-.177-.225.2.2,0,0,1,.225-.177c.038,0,3.808.43,5.54-1.336a.2.2,0,0,1,.289.284c-1.267,1.292-3.439,1.51-4.759,1.51" transform="translate(-65.187 -140.462)" fill="#fff"/>
      </g>
    </g>
    <g id="Group_17110" data-name="Group 17110">
      <g id="Group_17109" data-name="Group 17109" clip-path="url(#clip-path-6)">
        <path id="Path_17253" data-name="Path 17253" d="M82.249,43.368l-.435-2.526L79.56,42.326a3.11,3.11,0,0,0-.857-1.041l1.079-2.918-2.009-.449-1.484,2.827a5.414,5.414,0,0,0-1.546.5L74.1,39.117,71.7,41.008l.158,2.512a13.425,13.425,0,0,0-1.33,1.757l-1.988-.1L67.143,48.3l1.707.728a10.184,10.184,0,0,0-.337,1.979L66.346,53l.435,2.526,2.254-1.483a3.109,3.109,0,0,0,.857,1.041L68.814,58l2.009.449,2.122-2.07c.492-.075.372-1,.907-1.261l.642,2.131L76.9,55.363l-.062-.988a36.027,36.027,0,0,0,2.723-2.36l.5-.824,1.393-3.123L80.8,46.892l-.72-1.531ZM74.9,51.7c-1.845,1.451-2.407,1.767-2.741-.171a7.513,7.513,0,0,1,2.591-6.344c1.846-1.451,2.554-1.559,2.887.379S76.747,50.245,74.9,51.7" transform="translate(-39.462 -22.553)" fill="#9ccb48" opacity="0.82"/>
        <path id="Path_17254" data-name="Path 17254" d="M92.369,37.918,95,39.433,93.513,42.26l-2.628-1.515Z" transform="translate(-54.058 -22.553)" fill="#9ccb48"/>
        <path id="Path_17255" data-name="Path 17255" d="M103.839,46.649l-2.254,1.483-2.628-1.515,2.254-1.483Z" transform="translate(-58.859 -26.846)" fill="#9ccb48" opacity="0.8"/>
        <path id="Path_17256" data-name="Path 17256" d="M103.749,63.415l-1.707-.728-2.628-1.515,1.707.728Z" transform="translate(-59.132 -36.385)" fill="#e0e0e0"/>
        <path id="Path_17257" data-name="Path 17257" d="M72.436,83.207l2.628,1.515L76.142,81.8l-2.627-1.515Z" transform="translate(-43.084 -47.756)" fill="#9ccb48" opacity="0.73"/>
        <path id="Path_17258" data-name="Path 17258" d="M88.139,84.025,85.511,82.51l-.642-2.131L87.5,81.894Z" transform="translate(-50.48 -47.809)" fill="#9ccb48" opacity="0.85"/>
        <path id="Path_17259" data-name="Path 17259" d="M88.733,47.108,88.3,44.581l-2.254,1.483a3.117,3.117,0,0,0-.857-1.041l1.079-2.918-2.009-.449-1.483,2.828a5.406,5.406,0,0,0-1.546.5l-.642-2.131L78.18,44.748l.157,2.512a13.428,13.428,0,0,0-1.329,1.757l-1.988-.1-1.393,3.123,1.707.728A10.184,10.184,0,0,0,75,54.75L72.83,56.743l.435,2.526,2.254-1.483a3.115,3.115,0,0,0,.857,1.041L75.3,61.744l2.008.449,1.484-2.828a5.4,5.4,0,0,0,1.546-.5l.642,2.131L83.384,59.1l-.158-2.512a13.4,13.4,0,0,0,1.33-1.757l1.988.1,1.393-3.123L86.23,51.08a10.177,10.177,0,0,0,.337-1.979Zm-7.347,8.327c-1.845,1.451-3.612,1.056-3.946-.883s.892-4.685,2.737-6.136,3.612-1.056,3.945.882-.891,4.685-2.737,6.136" transform="translate(-43.319 -24.777)" fill="#9ccb48"/>
        <path id="Path_17260" data-name="Path 17260" d="M84.583,42.393l-2.628-1.515L79.55,42.769l2.627,1.515Z" transform="translate(-47.316 -24.314)" fill="#9ccb48"/>
        <path id="Path_17261" data-name="Path 17261" d="M79.549,45.545l.158,2.512,2.627,1.515-.157-2.512Z" transform="translate(-47.316 -27.09)" fill="#9ccb48"/>
        <path id="Path_17262" data-name="Path 17262" d="M76.366,57.453l-2.628-1.515-1.988-.1,2.628,1.515Z" transform="translate(-42.677 -33.213)" fill="#9ccb48"/>
        <path id="Path_17263" data-name="Path 17263" d="M69.706,55.84l-1.393,3.123,2.628,1.515,1.393-3.123Z" transform="translate(-40.632 -33.213)" fill="#9ccb48"/>
        <path id="Path_17264" data-name="Path 17264" d="M71.14,71.746,68.512,70.23l-2.167,1.992,2.628,1.515Z" transform="translate(-39.462 -41.773)" fill="#9ccb48" opacity="0.83"/>
        <path id="Path_17265" data-name="Path 17265" d="M69.408,79.189,66.78,77.673l-.435-2.526,2.628,1.515Z" transform="translate(-39.462 -44.697)" fill="#9ccb48" opacity="0.96"/>
        <path id="Path_17266" data-name="Path 17266" d="M97.174,39.433l-2.628-1.515,2.009.449,2.628,1.515Z" transform="translate(-56.236 -22.553)" fill="#9ccb48"/>
        <path id="Path_17267" data-name="Path 17267" d="M45.691,9.356V5.582l-3,1.354a5.343,5.343,0,0,0-.811-1.787l1.892-3.815L41.458,0,39.1,3.546a5.339,5.339,0,0,0-1.953.191L36.817.46,33.55,2.346,33.22,6a16.123,16.123,0,0,0-1.953,2.065l-2.358-.823-2.311,4,1.892,1.63a16.157,16.157,0,0,0-.811,2.724l-3,2.114v3.773l3-1.353a5.345,5.345,0,0,0,.811,1.787L26.6,25.737l2.311,1.334,2.358-3.546a5.339,5.339,0,0,0,1.953-.191l.329,3.278,3.268-1.887.329-3.658a6.124,6.124,0,0,0,2.62-1.836l1.691.6,2.311-4L42.351,14.6a8.454,8.454,0,0,0,.337-3.133ZM35.183,18.777c-2.507,1.447-4.065.421-4.065-2.474A10.122,10.122,0,0,1,35.7,8.414c2.507-1.448,4.026-.395,4.026,2.5a10.033,10.033,0,0,1-4.54,7.863" transform="translate(-14.677)" fill="#31aae0" opacity="0.83"/>
        <path id="Path_17268" data-name="Path 17268" d="M65.259,1.515,62.631,0,60.273,3.546,62.9,5.062Z" transform="translate(-35.85 0)" fill="#31aae0"/>
        <path id="Path_17269" data-name="Path 17269" d="M74.758,15.293,72.13,13.777l-3,1.354,2.628,1.515Z" transform="translate(-41.117 -8.195)" fill="#31aae0"/>
        <path id="Path_17270" data-name="Path 17270" d="M48.72,62.379l-2.628-1.515-.329-3.278L48.391,59.1Z" transform="translate(-27.219 -34.252)" fill="#31aae0" opacity="0.93"/>
        <path id="Path_17271" data-name="Path 17271" d="M29.42,57.917l2.628,1.515,1.892-3.815L31.312,54.1Z" transform="translate(-17.499 -32.179)" fill="#31aae0" opacity="0.88"/>
        <path id="Path_17272" data-name="Path 17272" d="M52.177,13.1V9.322l-3,1.354a5.343,5.343,0,0,0-.811-1.787l1.892-3.815L47.944,3.74,45.586,7.286a5.339,5.339,0,0,0-1.953.191L43.3,4.2,40.036,6.086l-.329,3.658a16.154,16.154,0,0,0-1.953,2.065l-2.358-.824-2.31,4,1.892,1.63a16.157,16.157,0,0,0-.811,2.724l-3,2.114v3.773l3-1.353a5.35,5.35,0,0,0,.811,1.787l-1.892,3.815,2.31,1.334,2.358-3.546a5.349,5.349,0,0,0,1.953-.191l.329,3.278L43.3,28.465l.329-3.658a16.093,16.093,0,0,0,1.953-2.064l2.358.823,2.311-4-1.892-1.631a16.153,16.153,0,0,0,.811-2.724ZM41.669,22.517c-2.507,1.447-4.54.274-4.54-2.621a10.035,10.035,0,0,1,4.54-7.863c2.507-1.447,4.54-.274,4.54,2.621a10.033,10.033,0,0,1-4.54,7.863" transform="translate(-18.535 -2.225)" fill="#31aae0"/>
        <path id="Path_17273" data-name="Path 17273" d="M37.481,18.7l2.628,1.515L37.751,19.4,35.123,17.88Z" transform="translate(-20.891 -10.635)" fill="#31aae0"/>
        <rect id="Rectangle_1041" data-name="Rectangle 1041" width="4.622" height="3.033" transform="matrix(0.5, -0.866, 0.866, 0.5, 11.922, 11.248)" fill="#31aae0"/>
        <path id="Path_17274" data-name="Path 17274" d="M29.42,27.757l2.628,1.515L33.94,30.9l-2.628-1.516Z" transform="translate(-17.499 -16.51)" fill="#31aae0"/>
        <path id="Path_17275" data-name="Path 17275" d="M27.68,38.5l2.628,1.515-3,2.114-2.628-1.515Z" transform="translate(-14.678 -22.901)" fill="#31aae0"/>
        <path id="Path_17276" data-name="Path 17276" d="M24.677,43.72,27.3,45.235v3.773l-2.628-1.515Z" transform="translate(-14.678 -26.004)" fill="#31aae0"/>
        <path id="Path_17277" data-name="Path 17277" d="M52.471,2.65,49.843,1.135,46.575,3.021,49.2,4.537Z" transform="translate(-27.703 -0.675)" fill="#31aae0"/>
      </g>
    </g>
    <g id="Group_17133" data-name="Group 17133">
      <g id="Group_17132" data-name="Group 17132" clip-path="url(#clip-path-7)">
        <path id="Path_17278" data-name="Path 17278" d="M136.649,235.207l38.1-22a.428.428,0,0,0,0-.811l-3.524-2.039a1.548,1.548,0,0,0-1.4,0l-38.109,22a.428.428,0,0,0,0,.81l3.534,2.041a1.552,1.552,0,0,0,1.4,0" transform="translate(-78.168 -125.021)" fill="#e0e0e0"/>
        <path id="Path_17279" data-name="Path 17279" d="M182.754,7.719,148.407,27.55a3.879,3.879,0,0,0-1.755,3.039v81.474c0,1.119.786,1.573,1.755,1.013l34.348-19.831a3.878,3.878,0,0,0,1.755-3.039V8.732c0-1.119-.785-1.573-1.755-1.013" transform="translate(-87.228 -4.449)" fill="#2d3133"/>
        <path id="Path_17280" data-name="Path 17280" d="M141.913,23.1,176.26,3.27c.866-.5,1.584-.189,1.727.682a3.923,3.923,0,0,0-1.727-2.708L174.832.419a3.881,3.881,0,0,0-3.509,0L136.975,20.25a3.588,3.588,0,0,0-1.241,1.31l4.938,2.851a3.59,3.59,0,0,1,1.241-1.31" transform="translate(-80.734)"/>
        <path id="Path_17281" data-name="Path 17281" d="M134.467,136.411a3.877,3.877,0,0,0,1.755,3.039l1.429.825a3.923,3.923,0,0,0,3.211.141c-.827.314-1.457-.152-1.457-1.154V57.788a3.587,3.587,0,0,1,.514-1.729l-4.938-2.851a3.584,3.584,0,0,0-.514,1.729Z" transform="translate(-79.98 -31.648)"/>
        <path id="Path_17282" data-name="Path 17282" d="M151.768,56.089l32.459-18.74c.582-.336,1.053-.064,1.053.608V98.244a2.327,2.327,0,0,1-1.053,1.823l-32.459,18.741c-.581.336-1.053.063-1.053-.608V57.912a2.327,2.327,0,0,1,1.053-1.823" transform="translate(-89.645 -22.129)" fill="#fff"/>
        <path id="Path_17283" data-name="Path 17283" d="M192.46,40.045a1.365,1.365,0,0,0-.617,1.069c0,.394.276.553.617.357a1.364,1.364,0,0,0,.617-1.069c0-.393-.276-.553-.617-.356" transform="translate(-114.107 -23.769)" fill="#37474f"/>
        <path id="Path_17284" data-name="Path 17284" d="M189.79,222.125a5.387,5.387,0,0,0-2.437,4.221c0,1.554,1.091,2.184,2.437,1.407a5.386,5.386,0,0,0,2.437-4.221c0-1.554-1.091-2.184-2.437-1.407" transform="translate(-111.437 -131.921)" fill="#37474f"/>
        <path id="Path_17285" data-name="Path 17285" d="M177.167,55.4a2.729,2.729,0,0,0-1.235,2.138c0,.787.553,1.106,1.235.713a2.728,2.728,0,0,0,1.234-2.138c0-.787-.553-1.106-1.234-.713" transform="translate(-104.644 -32.851)" fill="#37474f"/>
        <path id="Path_17286" data-name="Path 17286" d="M186.428,45.78c0,.525.393.724.877.444l8.121-4.689a1.882,1.882,0,0,0,.877-1.457c0-.525-.393-.724-.878-.444l-8.121,4.689a1.882,1.882,0,0,0-.877,1.457" transform="translate(-110.887 -23.499)" fill="#37474f"/>
        <path id="Path_17287" data-name="Path 17287" d="M139.758,90.049a2.183,2.183,0,0,1,.988,1.711c0,.63-.442.885-.988.57a2.182,2.182,0,0,1-.988-1.71c0-.63.442-.885.988-.57" transform="translate(-82.54 -53.481)" fill="#37474f"/>
        <path id="Path_17288" data-name="Path 17288" d="M139.758,108.825a2.183,2.183,0,0,1,.988,1.711c0,.63-.442.885-.988.57a2.183,2.183,0,0,1-.988-1.711c0-.63.442-.885.988-.57" transform="translate(-82.54 -64.649)" fill="#37474f"/>
        <path id="Path_17289" data-name="Path 17289" d="M139.006,90.426a2.183,2.183,0,0,1,.988,1.71c0,.63-.442.885-.988.57a2.182,2.182,0,0,1-.987-1.71c0-.63.442-.885.987-.57" transform="translate(-82.093 -53.705)" fill="#455a64"/>
        <path id="Path_17290" data-name="Path 17290" d="M139.006,109.2a2.183,2.183,0,0,1,.988,1.711c0,.63-.442.885-.988.57a2.183,2.183,0,0,1-.987-1.711c0-.63.442-.885.987-.57" transform="translate(-82.093 -64.873)" fill="#455a64"/>
        <path id="Path_17291" data-name="Path 17291" d="M201.529,42.661c0-.671-.471-.943-1.053-.608L196.591,44.3l-28.575,16.5a2.328,2.328,0,0,0-1.053,1.823v60.288c0,.671.471.943,1.053.608l28.584-16.5,3.875-2.237a2.328,2.328,0,0,0,1.053-1.823Z" transform="translate(-99.31 -24.927)" fill="#fff"/>
        <path id="Path_17292" data-name="Path 17292" d="M201.529,42.661c0-.671-.471-.943-1.053-.608L196.591,44.3l-28.575,16.5a2.328,2.328,0,0,0-1.053,1.823v60.288c0,.671.471.943,1.053.608l28.584-16.5,3.875-2.237a2.328,2.328,0,0,0,1.053-1.823Z" transform="translate(-99.31 -24.927)" fill="none" stroke="#27debf" stroke-miterlimit="10" stroke-width="1"/>
        <path id="Path_17293" data-name="Path 17293" d="M167.249,127.105a.743.743,0,0,1-.375-.1.931.931,0,0,1-.41-.857V65.862a2.516,2.516,0,0,1,1.154-2l28.574-16.5.2.351-28.574,16.5a2.138,2.138,0,0,0-.951,1.648v60.288a.447.447,0,0,0,.749.432l28.584-16.5.2.351-28.584,16.5a1.156,1.156,0,0,1-.572.172" transform="translate(-99.012 -28.173)" fill="#27debf"/>
        <path id="Path_17294" data-name="Path 17294" d="M167.249,127.105a.743.743,0,0,1-.375-.1.931.931,0,0,1-.41-.857V65.862a2.516,2.516,0,0,1,1.154-2l28.574-16.5.2.351-28.574,16.5a2.138,2.138,0,0,0-.951,1.648v60.288a.447.447,0,0,0,.749.432l28.584-16.5.2.351-28.584,16.5A1.156,1.156,0,0,1,167.249,127.105Z" transform="translate(-99.012 -28.173)" fill="none" stroke="#9ccb48" stroke-miterlimit="10" stroke-width="1"/>
        <path id="Path_17295" data-name="Path 17295" d="M240.043,106.886l-.2-.351,3.875-2.237a2.139,2.139,0,0,0,.952-1.648V42.362a.447.447,0,0,0-.749-.432l-3.885,2.243-.2-.351,3.885-2.243a.84.84,0,0,1,1.357.783V102.65a2.516,2.516,0,0,1-1.154,2Z" transform="translate(-142.65 -24.629)" fill="#27debf"/>
        <path id="Path_17296" data-name="Path 17296" d="M240.043,106.886l-.2-.351,3.875-2.237a2.139,2.139,0,0,0,.952-1.648V42.362a.447.447,0,0,0-.749-.432l-3.885,2.243-.2-.351,3.885-2.243a.84.84,0,0,1,1.357.783V102.65a2.516,2.516,0,0,1-1.154,2Z" transform="translate(-142.65 -24.629)" fill="none" stroke="#9ccb48" stroke-miterlimit="10" stroke-width="1"/>
        <path id="Path_17297" data-name="Path 17297" d="M199.951,77.019c3.636-2.1,6.584-.4,6.584,3.8a14.552,14.552,0,0,1-6.584,11.4c-3.636,2.1-6.584.4-6.584-3.8a14.552,14.552,0,0,1,6.584-11.4" transform="translate(-115.014 -45.276)" fill="#31aae0"/>
        <path id="Path_17298" data-name="Path 17298" d="M206.48,86.066c1.18-.681,2.136-.129,2.136,1.233A4.72,4.72,0,0,1,206.48,91c-1.18.681-2.136.129-2.136-1.233a4.721,4.721,0,0,1,2.136-3.7" transform="translate(-121.543 -51.018)" fill="#27debf"/>
        <path id="Path_17299" data-name="Path 17299" d="M207.809,100.741c0-2.238-1.571-3.145-3.509-2.026l-1.212.7a7.756,7.756,0,0,0-3.509,6.078v.6a5.029,5.029,0,0,0,4.067-.716,12.977,12.977,0,0,0,4.163-4.118Z" transform="translate(-118.709 -58.43)" fill="#27debf"/>
        <g id="Group_17113" data-name="Group 17113" transform="translate(82.801 34.756)" opacity="0.93">
          <g id="Group_17112" data-name="Group 17112">
            <g id="Group_17111" data-name="Group 17111" clip-path="url(#clip-path-8)">
              <path id="Path_17300" data-name="Path 17300" d="M206.48,86.066c1.18-.681,2.136-.129,2.136,1.233A4.72,4.72,0,0,1,206.48,91c-1.18.681-2.136.129-2.136-1.233a4.721,4.721,0,0,1,2.136-3.7" transform="translate(-204.344 -85.774)" fill="#fff"/>
            </g>
          </g>
        </g>
        <g id="Group_17116" data-name="Group 17116" transform="translate(80.87 39.806)" opacity="0.93">
          <g id="Group_17115" data-name="Group 17115">
            <g id="Group_17114" data-name="Group 17114" clip-path="url(#clip-path-9)">
              <path id="Path_17301" data-name="Path 17301" d="M207.809,100.741c0-2.238-1.571-3.145-3.509-2.026l-1.212.7a7.756,7.756,0,0,0-3.509,6.078v.6a5.029,5.029,0,0,0,4.067-.716,12.977,12.977,0,0,0,4.163-4.118Z" transform="translate(-199.579 -98.236)" fill="#fff"/>
            </g>
          </g>
        </g>
        <path id="Path_17302" data-name="Path 17302" d="M177.147,131.393l8.472-4.891c.388-.224.7-.043.7.405v.28a1.551,1.551,0,0,1-.7,1.216l-8.472,4.891c-.387.224-.7.043-.7-.405v-.28a1.552,1.552,0,0,1,.7-1.216" transform="translate(-104.949 -75.186)" fill="#27debf"/>
        <g id="Group_17119" data-name="Group 17119" transform="translate(71.496 51.22)">
          <g id="Group_17118" data-name="Group 17118">
            <g id="Group_17117" data-name="Group 17117" clip-path="url(#clip-path-10)">
              <path id="Path_17303" data-name="Path 17303" d="M177.147,131.393l8.472-4.891c.388-.224.7-.043.7.405v.28a1.551,1.551,0,0,1-.7,1.216l-8.472,4.891c-.387.224-.7.043-.7-.405v-.28a1.552,1.552,0,0,1,.7-1.216" transform="translate(-176.445 -126.406)" fill="#31aae0"/>
            </g>
          </g>
        </g>
        <path id="Path_17304" data-name="Path 17304" d="M176.8,131.491l25.633-14.8c.194-.112.351-.021.351.2v2.991a.776.776,0,0,1-.351.608l-25.633,14.8c-.194.112-.351.021-.351-.2V132.1a.776.776,0,0,1,.351-.608" transform="translate(-104.949 -69.379)" fill="#27debf"/>
        <g id="Group_17122" data-name="Group 17122" transform="translate(71.496 47.265)">
          <g id="Group_17121" data-name="Group 17121">
            <g id="Group_17120" data-name="Group 17120" clip-path="url(#clip-path-11)">
              <path id="Path_17305" data-name="Path 17305" d="M176.8,131.491l25.633-14.8c.194-.112.351-.021.351.2v2.991a.776.776,0,0,1-.351.608l-25.633,14.8c-.194.112-.351.021-.351-.2V132.1a.776.776,0,0,1,.351-.608" transform="translate(-176.445 -116.644)" fill="#31aae0"/>
            </g>
          </g>
        </g>
        <path id="Path_17306" data-name="Path 17306" d="M177.147,164.226l8.472-4.891c.388-.224.7-.043.7.405v.28a1.551,1.551,0,0,1-.7,1.216l-8.472,4.891c-.387.224-.7.043-.7-.405v-.28a1.552,1.552,0,0,1,.7-1.216" transform="translate(-104.949 -94.715)" fill="#27debf"/>
        <g id="Group_17125" data-name="Group 17125" transform="translate(71.496 64.524)">
          <g id="Group_17124" data-name="Group 17124">
            <g id="Group_17123" data-name="Group 17123" clip-path="url(#clip-path-10)">
              <path id="Path_17307" data-name="Path 17307" d="M177.147,164.226l8.472-4.891c.388-.224.7-.043.7.405v.28a1.551,1.551,0,0,1-.7,1.216l-8.472,4.891c-.387.224-.7.043-.7-.405v-.28a1.552,1.552,0,0,1,.7-1.216" transform="translate(-176.445 -159.239)" fill="#31aae0"/>
            </g>
          </g>
        </g>
        <path id="Path_17308" data-name="Path 17308" d="M176.8,164.324l25.633-14.8c.194-.112.351-.021.351.2v2.99a.774.774,0,0,1-.351.608l-25.633,14.8c-.194.112-.351.021-.351-.2v-2.991a.776.776,0,0,1,.351-.608" transform="translate(-104.949 -88.908)" fill="#27debf"/>
        <g id="Group_17128" data-name="Group 17128" transform="translate(71.496 60.569)">
          <g id="Group_17127" data-name="Group 17127">
            <g id="Group_17126" data-name="Group 17126" clip-path="url(#clip-path-13)">
              <path id="Path_17309" data-name="Path 17309" d="M176.8,164.324l25.633-14.8c.194-.112.351-.021.351.2v2.99a.774.774,0,0,1-.351.608l-25.633,14.8c-.194.112-.351.021-.351-.2v-2.991a.776.776,0,0,1,.351-.608" transform="translate(-176.445 -149.477)" fill="#31aae0"/>
            </g>
          </g>
        </g>
        <path id="Path_17310" data-name="Path 17310" d="M201.52,181.594l10.118-5.841c.388-.224.7-.042.7.405v3.131a1.551,1.551,0,0,1-.7,1.216l-10.118,5.842c-.388.223-.7.042-.7-.405v-3.131a1.552,1.552,0,0,1,.7-1.216" transform="translate(-119.446 -104.48)" fill="#27debf"/>
        <g id="Group_17131" data-name="Group 17131" transform="translate(81.372 71.177)">
          <g id="Group_17130" data-name="Group 17130">
            <g id="Group_17129" data-name="Group 17129" clip-path="url(#clip-path-14)">
              <path id="Path_17311" data-name="Path 17311" d="M201.52,181.594l10.118-5.841c.388-.224.7-.042.7.405v3.131a1.551,1.551,0,0,1-.7,1.216l-10.118,5.842c-.388.223-.7.042-.7-.405v-3.131a1.552,1.552,0,0,1,.7-1.216" transform="translate(-200.818 -175.656)" fill="#31aae0"/>
            </g>
          </g>
        </g>
      </g>
    </g>
    <g id="Group_17147" data-name="Group 17147">
      <g id="Group_17146" data-name="Group 17146" clip-path="url(#clip-path)">
        <path id="Path_17312" data-name="Path 17312" d="M246.612,137.6s-4.978-6.867-5.281-7.684a4.4,4.4,0,0,1,.073-1.958c.057-.426.139-1.374.21-1.637.124-.46-.473-.366-.808.052s-.453,1.266-.623,1.4-1.5-1.795-2.195-2.689-1.128-1.433-1.549-1.1c-.3.239-.078.76.425,1.521a14.814,14.814,0,0,1,.8,1.278c.076.163-.338.177-.561.52-.174.268-.012.7-.242.909a.762.762,0,0,0-.193,1,6.52,6.52,0,0,0,1.714,1.814,4.083,4.083,0,0,1,1.485,1.4c.439.7,4.405,7.862,4.672,8.292s.783,1.305,1.565,1.33,7.183-5.486,7.513-5.761c1.055-.88,1.388-1.009,1.57-.216.057.248.094.53.134.85.127,1,.81,4.594.81,4.594s3.238,1.569,5.9.8a7.3,7.3,0,0,0,3.56-1.887l-1.334-2.173a45.113,45.113,0,0,0,2.566-7.068l-8.347-1.348c-.171-.037-.445-.106-.794-.2a2.59,2.59,0,0,0-2.5.247c-2.872,2.5-8.575,7.716-8.575,7.716" transform="translate(-140.551 -73.688)" fill="#b56f40"/>
        <path id="Path_17313" data-name="Path 17313" d="M300.392,261.574l-1.5,2.08a5,5,0,0,0,2.174.462c1.339.051,1.707-.389,1.757-.494.226-.485-.127-1.36-.224-2.112Z" transform="translate(-177.782 -155.545)"/>
        <path id="Path_17314" data-name="Path 17314" d="M291.66,263.9s-1.813-.115-3.067-.273-2.246.454-1.951.97A3.611,3.611,0,0,0,288.7,265.9c.921.31,2.024.535,2.986.823.985.295,1.616.632,2.174.44.622-.215.889-.463.836-.916a19.627,19.627,0,0,0-.5-1.912Z" transform="translate(-170.462 -156.787)"/>
        <path id="Path_17315" data-name="Path 17315" d="M304.939,256.188s-.227,1.889-.244,2.294-1.843.535-2.189-.205l-.057-2.309Z" transform="translate(-179.895 -152.249)" fill="#99592e"/>
        <path id="Path_17316" data-name="Path 17316" d="M296.346,259.379l.653,2.865s.062.35-1.431.572a9.348,9.348,0,0,1-4.231-.984c-.4-.2-.446-.61,1.019-.529s1.985.084,1.985.084l-.476-1.27Z" transform="translate(-173.143 -154.278)" fill="#b56f40"/>
        <path id="Path_17317" data-name="Path 17317" d="M308.914,141.474l1.032-.285s2.162,6.835,2.4,7.493a2.358,2.358,0,0,1,.043,2.175c-.554.969-3.476,4.872-3.476,4.872l-1.855-1.815,2.1-3.855-1.861-3.771Z" transform="translate(-182.637 -83.979)" fill="#b56f40"/>
        <path id="Path_17318" data-name="Path 17318" d="M284.9,111.886a3.046,3.046,0,0,1,.044-2.946c1.027-1.91,3.323-2.843,6.055-2.485a5.137,5.137,0,0,1,3.569,2.784c.9,1.738.982,5.24,1.2,6.564Z" transform="translate(-169.244 -63.274)"/>
        <path id="Path_17319" data-name="Path 17319" d="M284.458,121.814s-.649,1.236-.536,1.349a1.667,1.667,0,0,0,.545.2Z" transform="translate(-168.868 -72.454)" fill="#b56f40"/>
        <path id="Path_17320" data-name="Path 17320" d="M287.22,111.452c-.706.46-1.921,1.3-1.975,4.079-.055,2.851.348,3.77.769,4.1a5.678,5.678,0,0,0,6.172-2.785c.87-1.816.694-4.475-.6-5.247a4.521,4.521,0,0,0-4.367-.148" transform="translate(-169.66 -66.001)" fill="#b56f40"/>
        <path id="Path_17321" data-name="Path 17321" d="M302.644,164.7c1.25,1.945,2.438,3.657,2.691,5.843.535,4.615-1.221,9.892-1.593,13.3a6.179,6.179,0,0,1,1.178,3.334c0,1.41-2.275,14.721-2.275,14.721s-1.654.5-2.49-.22l-1.563-24.488.823-2.981Z" transform="translate(-177.601 -97.962)" fill="#27debf"/>
        <g id="Group_17136" data-name="Group 17136" transform="translate(120.99 66.737)">
          <g id="Group_17135" data-name="Group 17135">
            <g id="Group_17134" data-name="Group 17134" clip-path="url(#clip-path-16)">
              <path id="Path_17322" data-name="Path 17322" d="M302.644,164.7c1.25,1.945,2.438,3.657,2.691,5.843.535,4.615-1.221,9.892-1.593,13.3a6.179,6.179,0,0,1,1.178,3.334c0,1.41-2.275,14.721-2.275,14.721s-1.654.5-2.49-.22l-1.563-24.488.823-2.981Z" transform="translate(-298.591 -164.699)"/>
            </g>
          </g>
        </g>
        <path id="Path_17323" data-name="Path 17323" d="M298.591,188.559l.823-2.981a19.951,19.951,0,0,0,4.463-1.77,6,6,0,0,1-3.264,2.376l-1.26,3.832-.109,8.77Z" transform="translate(-177.601 -109.328)" fill="#27debf"/>
        <g id="Group_17139" data-name="Group 17139" transform="translate(120.99 74.48)">
          <g id="Group_17138" data-name="Group 17138">
            <g id="Group_17137" data-name="Group 17137" clip-path="url(#clip-path-17)">
              <path id="Path_17324" data-name="Path 17324" d="M298.591,188.559l.823-2.981a19.951,19.951,0,0,0,4.463-1.77,6,6,0,0,1-3.264,2.376l-1.26,3.832-.109,8.77Z" transform="translate(-298.591 -183.808)"/>
            </g>
          </g>
        </g>
        <path id="Path_17325" data-name="Path 17325" d="M291.013,164.7c.669,1.091,2.267,2.957,1.927,4.75-.412,2.173-1.581,3.7-5.157,4.763l-3.354,12.146a10.018,10.018,0,0,1,2.281,3.189c.533,1.554,2.462,13.516,2.462,13.516s-.6.974-2.48.738c0,0-6.568-15-7.033-15.968a4.862,4.862,0,0,1-.556-3.261c.209-1.573,2.447-18.782,2.447-18.782Z" transform="translate(-165.97 -97.962)" fill="#27debf"/>
        <g id="Group_17142" data-name="Group 17142" transform="translate(113.066 66.737)">
          <g id="Group_17141" data-name="Group 17141">
            <g id="Group_17140" data-name="Group 17140" clip-path="url(#clip-path-18)">
              <path id="Path_17326" data-name="Path 17326" d="M291.013,164.7c.669,1.091,2.267,2.957,1.927,4.75-.412,2.173-1.581,3.7-5.157,4.763l-3.354,12.146a10.018,10.018,0,0,1,2.281,3.189c.533,1.554,2.462,13.516,2.462,13.516s-.6.974-2.48.738c0,0-6.568-15-7.033-15.968a4.862,4.862,0,0,1-.556-3.261c.209-1.573,2.447-18.782,2.447-18.782Z" transform="translate(-279.036 -164.699)"/>
            </g>
          </g>
        </g>
        <path id="Path_17327" data-name="Path 17327" d="M294.549,139.622l-8.347-1.348c-.171-.037-.447-.107-.795-.2h0s-.356,5.234-2.5,6.435h0c.051.25.095.53.135.85.127,1,.81,4.594.81,4.594s3.238,1.569,5.9.8a7.3,7.3,0,0,0,3.56-1.887l-1.334-2.174a45.046,45.046,0,0,0,2.566-7.068" transform="translate(-168.273 -82.127)" fill="#9ccb48"/>
        <g id="Group_17145" data-name="Group 17145" transform="translate(114.636 55.949)">
          <g id="Group_17144" data-name="Group 17144">
            <g id="Group_17143" data-name="Group 17143" clip-path="url(#clip-path-19)">
              <path id="Path_17328" data-name="Path 17328" d="M294.549,139.622l-8.347-1.348c-.171-.037-.447-.107-.795-.2h0s-.356,5.234-2.5,6.435h0c.051.25.095.53.135.85.127,1,.81,4.594.81,4.594s3.238,1.569,5.9.8a7.3,7.3,0,0,0,3.56-1.887l-1.334-2.174a45.046,45.046,0,0,0,2.566-7.068" transform="translate(-282.909 -138.076)" fill="#9ccb48"/>
            </g>
          </g>
        </g>
        <path id="Path_17329" data-name="Path 17329" d="M301.107,157.226a23.413,23.413,0,0,1-3.47,1.715,6.508,6.508,0,0,0,3.106-.861Z" transform="translate(-177.033 -93.517)" fill="#9ccb48"/>
        <path id="Path_17330" data-name="Path 17330" d="M289.5,110.522s-.389,2.635.553,4.18c0,0,.354-1.049,1.245-.848s.935,1.367.312,2.027a1.3,1.3,0,0,1-1.317.422s-.14,1.9-.215,3.5c-.073,1.539-.5,5.076,1.3,6.5s6.3,1.9,8.411-1.048c1.174-1.641-.386-4.544-1.111-7.8-.667-2.992-1.043-7.425-4.217-8.136a5.3,5.3,0,0,0-4.956,1.2" transform="translate(-172.143 -64.93)"/>
      </g>
    </g>
    <g id="Group_17149" data-name="Group 17149">
      <g id="Group_17148" data-name="Group 17148" clip-path="url(#clip-path)">
        <path id="Path_17331" data-name="Path 17331" d="M296.764,19.579l-.669.387a3.462,3.462,0,0,0,.091-.726c0-1.356-.951-1.905-2.126-1.227a3.8,3.8,0,0,0-.945.812v-.01c0-1.825-1.281-2.565-2.861-1.652a6.325,6.325,0,0,0-2.862,4.956c0,.093.006.181.012.268a1.743,1.743,0,0,0-1.163.27,4.7,4.7,0,0,0-2.126,3.682,2.371,2.371,0,0,0,.054.511l-.357.206a3.418,3.418,0,0,0-1.755,2.439c0,.787.786.972,1.755.412l12.95-7.477a3.417,3.417,0,0,0,1.755-2.439c0-.787-.785-.972-1.755-.412" transform="translate(-167.768 -9.976)" fill="#31aae0" opacity="0.43"/>
      </g>
    </g>
  </g>
</svg>
