<svg xmlns="http://www.w3.org/2000/svg" xmlns:xlink="http://www.w3.org/1999/xlink" width="106.448" height="126.852" viewBox="0 0 106.448 126.852">
  <defs>
    <linearGradient id="linear-gradient" x1="0.5" x2="0.5" y2="1" gradientUnits="objectBoundingBox">
      <stop offset="0" stop-color="#9ccb48"/>
      <stop offset="1" stop-color="#31aae0"/>
    </linearGradient>
  </defs>
  <g id="undraw_completing_re_i7ap" transform="translate(0.037 0.025)">
    <path id="Path_19384" data-name="Path 19384" d="M444.643,451.9a11.739,11.739,0,0,0-8.421-3.437H436.1a12.024,12.024,0,0,1-6.061-1.637l-.191-.112.154-.159a11.72,11.72,0,0,0,2.067-2.926,3.544,3.544,0,0,1-2.86.924,3.629,3.629,0,0,1-2.664-1.706c-1.13-1.834-2.477-4.435-2.477-6.418a12.061,12.061,0,0,1,3.935-8.9,7.51,7.51,0,0,0,2.481-5.6v-.15a17.037,17.037,0,0,1,.506-4.124l.033-.134.14,0a11.515,11.515,0,0,0,2.693-.226,9.089,9.089,0,0,1-2.415-.642l-.151-.061.051-.154c3.525-2.183,11.483-1.052,16.1-11.62,3.745-8.569,16.959,7.606,16.959,16.956,0,.954-.944,2.215-.237,2.845,7.64,6.816,2.369,11.193.707,15.6-.394,1.045.461,2.192.461,3.323,0,.192,0,.39-.015.589l-.015.305-.255-.17a8.44,8.44,0,0,1-1.393-1.143,7.354,7.354,0,0,1-.233,6.348,11.242,11.242,0,0,1-2.3,3.215,12.021,12.021,0,0,1-16.472-.791Z" transform="translate(-403.448 -347.809)" fill="#e6e6e6"/>
    <path id="Path_19385" data-name="Path 19385" d="M558.51,597.381a.216.216,0,0,0,.214-.186,72.456,72.456,0,0,0,.1-15.192c-.747-7.972-3.146-19.454-10.331-28.885a.216.216,0,1,0-.344.262c7.124,9.349,9.5,20.747,10.245,28.663a71.963,71.963,0,0,1-.1,15.09.217.217,0,0,0,.215.247Z" transform="translate(-504.524 -470.554)" fill="#3f3d56"/>
    <path id="Path_19386" data-name="Path 19386" d="M478.216,601.633a.216.216,0,0,0,.127-.391,29.829,29.829,0,0,0-6.585-3.352c-3.633-1.33-9.157-2.536-14.844-.726a.216.216,0,1,0,.131.412c5.571-1.773,10.995-.587,14.564.72a29.337,29.337,0,0,1,6.479,3.3A.216.216,0,0,0,478.216,601.633Z" transform="translate(-430.093 -505.767)" fill="#3f3d56"/>
    <path id="Path_19387" data-name="Path 19387" d="M597.407,491.078a.216.216,0,0,0-.381-.155,29.825,29.825,0,0,0-3.817,6.326c-1.588,3.528-3.189,8.951-1.793,14.754a.216.216,0,0,0,.421-.1c-1.367-5.684.206-11.009,1.767-14.475a29.334,29.334,0,0,1,3.754-6.225A.215.215,0,0,0,597.407,491.078Z" transform="translate(-539.379 -419.88)" fill="#3f3d56"/>
    <path id="Path_19388" data-name="Path 19388" d="M756.324,710.577H739.1l-.074-.134c-.22-.4-.433-.823-.632-1.258-1.775-3.8-2.525-8.144-3.186-11.978l-.5-2.89a1.784,1.784,0,0,1,2.808-1.745q3.927,2.858,7.857,5.71c.992.722,2.125,1.557,3.21,2.46.1-.508.214-1.018.324-1.521a1.785,1.785,0,0,1,3.26-.564l2.016,3.238c1.47,2.365,2.768,4.7,2.5,7.209a.394.394,0,0,1-.007.091,5.684,5.684,0,0,1-.293,1.21Z" transform="translate(-656.555 -583.98)" fill="#f0f0f0"/>
    <path id="Path_19389" data-name="Path 19389" d="M775.809,364.682l-3.325-12.306a2.058,2.058,0,0,0-2.5-1.451h0a2.057,2.057,0,0,0-1.452,2.609l3.846,12.677,2.012,7.8a1.8,1.8,0,1,0,2.3.1Z" transform="translate(-684.066 -305.813)" fill="#a0616a"/>
    <path id="Path_19390" data-name="Path 19390" d="M604.915,360.766l10.1-7.774a2.058,2.058,0,0,0,.387-2.861h0a2.057,2.057,0,0,0-2.966-.345l-10.246,8.4-6.441,4.84a1.8,1.8,0,1,0,.785,2.167Z" transform="translate(-541.149 -304.546)" fill="#a0616a"/>
    <path id="Path_19391" data-name="Path 19391" d="M699.633,418.419l-.445,9.945,13.981-3.039c-1.19-4-2-4.678-1.1-7.459Z" transform="translate(-627.634 -360.413)" fill="#a0616a"/>
    <path id="Path_19392" data-name="Path 19392" d="M698.572,322.378h-4.659l-2,3.424-.953-.053a3.434,3.434,0,0,0-3.624,3.429h0L688.51,331s-2.1,3.661.925,5.462c0,0-.54,3.393,0,3.357s1.783-.727.54-.036-1.15.783-.99.944l.161.161,13.071,2.195s.382-2.534.424-2.986-.235.653.041-.452.691-.691.276-1.1,2.685-5.548,1.411-7.539l2.042-1.991h0c0-1.91-3.068-3.459-4.978-3.459h-.245Z" transform="translate(-617.976 -282.603)" fill="#9ccb48"/>
    <path id="Path_19393" data-name="Path 19393" d="M362.6,631.168h-1.886l-.9-7.273H362.6Z" transform="translate(-293.233 -508.404)" fill="#a0616a"/>
    <path id="Path_19394" data-name="Path 19394" d="M656.637,768.52a.8.8,0,0,0,.8.8h3.549l.11-.228.5-1.036.194,1.036.043.228h1.339l-.019-.229-.357-4.281-.467-.029-2.018-.12-.5-.03v1.278C659.439,766.307,656.487,767.82,656.637,768.52Z" transform="translate(-592.956 -642.974)" fill="#2f2e41"/>
    <path id="Path_19395" data-name="Path 19395" d="M498.592,609.582l-1.586,1.02-4.689-5.631,2.341-1.505Z" transform="translate(-401.197 -491.757)" fill="#a0616a"/>
    <path id="Path_19396" data-name="Path 19396" d="M820.619,744.8a.8.8,0,0,0,1.1.24l2.985-1.92-.031-.251-.138-1.143.724.766.16.168,1.126-.724-.14-.183-2.617-3.407-.408.229-1.762.991-.433.243.692,1.075C821.778,741.427,820.114,744.3,820.619,744.8Z" transform="translate(-726.505 -621.56)" fill="#2f2e41"/>
    <path id="Path_19397" data-name="Path 19397" d="M628.326,790.1l-58.387.057a.22.22,0,0,1,0-.441l58.387-.057a.22.22,0,0,1,0,.441Z" transform="translate(-522.135 -663.371)" fill="#cacaca"/>
    <path id="Path_19398" data-name="Path 19398" d="M684.326,452.085s-8.937,4.727-13.664,1.5c0,0-1.034,5.008-1.448,5.423s-1.075.595-.606,1.057.729,1.086-.161,1.879-1.777.541-.919,1.358-2.595,20.844-2.595,20.844.552,18.625,0,19.188-1.291.689-.576,1.386.715.156.715,1.117v.961l.327.955h4.485a1.745,1.745,0,0,0,0-2.349c-1.082-1.092.329-1.391.659-2.415s.883.08.33-1.025-.818-.895-.823-1.621,8.144-29.18,8.144-29.18l.987,15.749,11.872,17.247,3.495-2.621s-2.544-3.582-1.949-4.074-1.754-1.11-1.013-1.665-1.042-1.115-.37-1.851-.926-2.592-1.851-2.592-2.225-3.093-2.225-3.093l1.939-24.438Z" transform="translate(-599.01 -388.296)" fill="url(#linear-gradient)"/>
    <path id="Path_19399" data-name="Path 19399" d="M701.084,267.61a2.755,2.755,0,0,1-1.173-.05c-1.2-.175-1.361.033-2.257.848-1.3,1.18-.56,8.378-1.2,9.938l-.206.152a7.412,7.412,0,0,0,1.2-.336c.22-.695.441-1.391.663-2.085a6.108,6.108,0,0,1,.392,1.684,9.411,9.411,0,0,1,1.9-.818c.649-.44,5.344-.883,5.947-1.077C707.888,270.655,705.419,268.547,701.084,267.61Z" transform="translate(-625.241 -237.887)" fill="#2f2e41"/>
    <circle id="Ellipse_620" data-name="Ellipse 620" cx="4.486" cy="4.486" r="4.486" transform="translate(72.942 28.786)" fill="#a0616a"/>
    <path id="Path_19400" data-name="Path 19400" d="M741.569,255.923a2,2,0,0,1-.717-.251.682.682,0,0,1-.326-.645.689.689,0,0,1,.739-.49,2.009,2.009,0,0,1,.89.36,1.38,1.38,0,0,0-1.175-1.237,2.865,2.865,0,0,1,1.259.12.98.98,0,0,1,.649.987,1.609,1.609,0,0,1,1.584.982,2.675,2.675,0,0,1,0,1.95.689.689,0,0,1-.345.456.738.738,0,0,1-.654-.2,15.635,15.635,0,0,1-2.727-2.519" transform="translate(-661.316 -226.596)" fill="#2f2e41"/>
    <path id="Path_19401" data-name="Path 19401" d="M712.677,266.24c-.19.09-.091.423-.239.572a.607.607,0,0,1-.227.141,2.726,2.726,0,0,0-.192-.809c-.019-.047-.051-.1-.1-.1s-.073.083-.075.139a2.34,2.34,0,0,1-.184.816l0,.01-.128,0c-.32-.012-1.03-.836-1.188-.557a10.446,10.446,0,0,0,1.336-3.591,1.592,1.592,0,0,0-.051-.7.622.622,0,0,0-.518-.428.4.4,0,0,0-.41.453l-.08-.011c-.743-.6-.1-1.656-.967-2.072-.293-.141-2.086.33-2.4.247a2.723,2.723,0,0,0-.2-.971c-.019-.047-.051-.1-.1-.1s-.073.083-.075.139a2.341,2.341,0,0,1-.184.816,3.422,3.422,0,0,0-1.314.069c-.378.1-.738.271-1.117.362a1.445,1.445,0,0,1-1.135-.124,1.279,1.279,0,0,1-.326-1.566,3.086,3.086,0,0,1,.693-.9c.217-.21.442-.412.667-.613l.6-.543a7.379,7.379,0,0,1,.809-.66,3.994,3.994,0,0,1,3.118-.544c.635.152,1.485-.062,2.066.235a12.237,12.237,0,0,1,1.243.967c.682.543.221.1.967.414C714.744,258.085,713.957,265.638,712.677,266.24Z" transform="translate(-630.468 -228.198)" fill="#2f2e41"/>
    <circle id="Ellipse_621" data-name="Ellipse 621" cx="27.822" cy="27.822" r="27.822" transform="translate(4.714 15.143)" fill="#fff"/>
    <path id="Path_19402" data-name="Path 19402" d="M364.773,244.037a28.1,28.1,0,1,1,28.1-28.1A28.132,28.132,0,0,1,364.773,244.037Zm0-55.644a27.544,27.544,0,1,0,27.544,27.544A27.576,27.576,0,0,0,364.773,188.392Z" transform="translate(-332.237 -172.972)" fill="#9ccb48"/>
    <path id="Path_19403" data-name="Path 19403" d="M420.918,290.355a3.094,3.094,0,0,1-2.476-1.238L410.852,279a3.095,3.095,0,1,1,4.952-3.714l4.966,6.621,12.754-19.131a3.095,3.095,0,0,1,5.15,3.433l-15.181,22.771A3.1,3.1,0,0,1,421,290.354Z" transform="translate(-392.178 -232.91)" fill="url(#linear-gradient)"/>
    <ellipse id="Ellipse_622" data-name="Ellipse 622" cx="0.973" cy="1.399" rx="0.973" ry="1.399" transform="matrix(0.144, -0.99, 0.99, 0.144, 58.292, 17.441)" fill="#e6e6e6"/>
    <ellipse id="Ellipse_623" data-name="Ellipse 623" cx="0.973" cy="1.399" rx="0.973" ry="1.399" transform="matrix(0.144, -0.99, 0.99, 0.144, 67.396, 16.553)"/>
    <ellipse id="Ellipse_624" data-name="Ellipse 624" cx="0.973" cy="1.399" rx="0.973" ry="1.399" transform="matrix(0.144, -0.99, 0.99, 0.144, 55.799, 10.071)" fill="url(#linear-gradient)"/>
    <ellipse id="Ellipse_625" data-name="Ellipse 625" cx="0.884" cy="0.615" rx="0.884" ry="0.615" transform="matrix(0.008, -1, 1, 0.008, 53.515, 7.367)" fill="#e6e6e6"/>
    <ellipse id="Ellipse_626" data-name="Ellipse 626" cx="0.884" cy="0.615" rx="0.884" ry="0.615" transform="matrix(0.008, -1, 1, 0.008, 52.174, 1.744)"/>
    <ellipse id="Ellipse_627" data-name="Ellipse 627" cx="0.884" cy="0.615" rx="0.884" ry="0.615" transform="matrix(0.008, -1, 1, 0.008, 62.606, 11.64)" fill="#e6e6e6"/>
    <ellipse id="Ellipse_628" data-name="Ellipse 628" cx="0.884" cy="0.615" rx="0.884" ry="0.615" transform="matrix(0.008, -1, 1, 0.008, 58.206, 13.837)" fill="url(#linear-gradient)"/>
    <ellipse id="Ellipse_629" data-name="Ellipse 629" cx="0.884" cy="0.615" rx="0.884" ry="0.615" transform="matrix(0.008, -1, 1, 0.008, 64.33, 17.897)"/>
    <ellipse id="Ellipse_630" data-name="Ellipse 630" cx="0.973" cy="1.399" rx="0.973" ry="1.399" transform="matrix(0.144, -0.99, 0.99, 0.144, 6.081, 83.353)" fill="#e6e6e6"/>
    <ellipse id="Ellipse_631" data-name="Ellipse 631" cx="0.973" cy="1.399" rx="0.973" ry="1.399" transform="matrix(0.144, -0.99, 0.99, 0.144, 15.185, 82.465)"/>
    <ellipse id="Ellipse_632" data-name="Ellipse 632" cx="0.973" cy="1.399" rx="0.973" ry="1.399" transform="matrix(0.144, -0.99, 0.99, 0.144, 3.588, 75.983)" fill="url(#linear-gradient)"/>
    <ellipse id="Ellipse_633" data-name="Ellipse 633" cx="0.884" cy="0.615" rx="0.884" ry="0.615" transform="matrix(0.008, -1, 1, 0.008, 1.305, 73.278)" fill="#e6e6e6"/>
    <ellipse id="Ellipse_634" data-name="Ellipse 634" cx="0.884" cy="0.615" rx="0.884" ry="0.615" transform="matrix(0.008, -1, 1, 0.008, -0.037, 67.655)"/>
    <ellipse id="Ellipse_635" data-name="Ellipse 635" cx="0.884" cy="0.615" rx="0.884" ry="0.615" transform="matrix(0.008, -1, 1, 0.008, 10.395, 77.551)" fill="#e6e6e6"/>
    <ellipse id="Ellipse_636" data-name="Ellipse 636" cx="0.884" cy="0.615" rx="0.884" ry="0.615" transform="matrix(0.008, -1, 1, 0.008, 5.996, 79.748)" fill="url(#linear-gradient)"/>
    <ellipse id="Ellipse_637" data-name="Ellipse 637" cx="0.884" cy="0.615" rx="0.884" ry="0.615" transform="matrix(0.008, -1, 1, 0.008, 12.12, 83.808)"/>
  </g>
</svg>
