<svg xmlns="http://www.w3.org/2000/svg" width="27.726" height="25.162" viewBox="0 0 27.726 25.162">
  <path id="noun-uploading-folder-4560338" d="M150.522,80.254H137.953a.48.48,0,0,1-.4-.231l-1.513-2.114a2.331,2.331,0,0,0-2.045-1.19H129.22a3.2,3.2,0,0,0-3.212,3.212V98.68a3.2,3.2,0,0,0,3.2,3.2h21.314a3.2,3.2,0,0,0,3.212-3.212v-15.2a3.2,3.2,0,0,0-3.212-3.212ZM136.37,87.52c2.781-2.769,2.618-2.642,2.853-2.83a1.182,1.182,0,0,1,.647-.2,1.155,1.155,0,0,1,.647.2c.2.2,2.643,2.622,2.842,2.819a1.15,1.15,0,0,1,0,1.629,1.13,1.13,0,0,1-1.629,0l-.7-.7v3.431a1.155,1.155,0,1,1-2.311,0v-3.42l-.7.7a1.156,1.156,0,0,1-1.641-1.629ZM143.8,97.64h-7.856a1.155,1.155,0,0,1,0-2.311H143.8a1.155,1.155,0,0,1,0,2.311Z" transform="translate(-126.008 -76.719)" fill="#9ccb48" opacity="0.21"/>
</svg>
