<svg id="edit" xmlns="http://www.w3.org/2000/svg" width="20.237" height="20.237" viewBox="0 0 20.237 20.237">
  <path id="Vector" d="M11.366,0H4.654A4.278,4.278,0,0,0,0,4.654v6.7a4.28,4.28,0,0,0,4.654,4.663h6.7a4.274,4.274,0,0,0,4.654-4.654V4.654A4.268,4.268,0,0,0,11.366,0Z" transform="translate(1.686 2.53)" fill="#9ccb48" opacity="0.4"/>
  <path id="Vector-2" data-name="Vector" d="M5.58,1.151C4.07-.367,2.595-.4,1.043,1.151L.09,2.1a.307.307,0,0,0-.076.312A6.322,6.322,0,0,0,4.323,6.716a.346.346,0,0,0,.093.008.326.326,0,0,0,.228-.093l.936-.944A3.24,3.24,0,0,0,6.726,3.436,3.307,3.307,0,0,0,5.58,1.151Z" transform="translate(12.144 1.362)" fill="#9ccb48"/>
  <path id="Vector-3" data-name="Vector" d="M9.422,4.283a6.74,6.74,0,0,1-.649-.346c-.169-.1-.337-.211-.5-.329a4.4,4.4,0,0,1-.438-.337A.867.867,0,0,1,7.7,3.154a6.074,6.074,0,0,1-.8-.809.646.646,0,0,1-.11-.143,3.149,3.149,0,0,1-.32-.43,4.036,4.036,0,0,1-.3-.464A6.649,6.649,0,0,1,5.83.666C5.72.43,5.636.211,5.56,0L1.023,4.536A2.588,2.588,0,0,0,.382,5.8L.02,8.314a1.578,1.578,0,0,0,.4,1.358,1.5,1.5,0,0,0,1.079.422c.093,0,.186-.008.278-.017l2.5-.354a2.519,2.519,0,0,0,1.265-.641l4.536-4.536C9.868,4.477,9.658,4.385,9.422,4.283Z" transform="translate(5.638 4.503)" fill="#9ccb48"/>
  <path id="Vector-4" data-name="Vector" d="M0,0H20.237V20.237H0Z" fill="none" opacity="0"/>
</svg>
