<svg xmlns="http://www.w3.org/2000/svg" width="12.923" height="12.924" viewBox="0 0 12.923 12.924">
  <g id="vuesax_bulk_edit" data-name="vuesax/bulk/edit" transform="translate(-625.506 -253.33)">
    <g id="edit" transform="translate(620 252)">
      <path id="Vector" d="M5.449,1.124c-1.474-1.482-2.915-1.515-4.43,0l-.931.922a.3.3,0,0,0-.074.3A6.174,6.174,0,0,0,4.222,6.559a.338.338,0,0,0,.091.008.318.318,0,0,0,.222-.091l.914-.922a3.165,3.165,0,0,0,1.12-2.2A3.229,3.229,0,0,0,5.449,1.124Z" transform="translate(11.86 1.33)" fill="#9ccb48"/>
      <path id="Vector-2" data-name="Vector" d="M9.2,4.183a6.582,6.582,0,0,1-.634-.338c-.165-.1-.329-.206-.486-.321A4.3,4.3,0,0,1,7.653,3.2a.847.847,0,0,1-.132-.115,5.932,5.932,0,0,1-.782-.791.631.631,0,0,1-.107-.14,3.075,3.075,0,0,1-.313-.42,3.941,3.941,0,0,1-.3-.453A6.493,6.493,0,0,1,5.693.651C5.586.42,5.5.206,5.43,0L1,4.43A2.528,2.528,0,0,0,.374,5.665L.019,8.119A1.541,1.541,0,0,0,.406,9.445a1.46,1.46,0,0,0,1.054.412c.091,0,.181-.008.272-.016l2.446-.346a2.46,2.46,0,0,0,1.235-.626l4.43-4.43C9.637,4.373,9.432,4.282,9.2,4.183Z" transform="translate(5.506 4.397)" fill="#9ccb48"/>
    </g>
  </g>
</svg>
