<svg xmlns="http://www.w3.org/2000/svg" width="24" height="24" viewBox="0 0 24 24">
  <g id="vuesax_bulk_coin" data-name="vuesax/bulk/coin" transform="translate(-172 -316)">
    <g id="coin">
      <path id="Vector" d="M0,0H24V24H0Z" transform="translate(172 316)" fill="none" opacity="0"/>
      <path id="Vector-2" data-name="Vector" d="M13,0V3.7c0,3.12-2.91,5.65-6.5,5.65S0,6.82,0,3.7V0C0,3.12,2.91,5.35,6.5,5.35S13,3.12,13,0Z" transform="translate(177.5 328.65)" fill="#9ccb48"/>
      <path id="Vector-3" data-name="Vector" d="M13,0V5c0,3.12-2.91,5.35-6.5,5.35S0,8.12,0,5V0A4.7,4.7,0,0,0,.69,2.47,6.683,6.683,0,0,0,6.5,5.35a6.683,6.683,0,0,0,5.81-2.88A4.7,4.7,0,0,0,13,0Z" transform="translate(177.5 323.65)" fill="#9ccb48" opacity="0.4"/>
      <path id="Vector-4" data-name="Vector" d="M13,5.65a4.7,4.7,0,0,1-.69,2.47A6.683,6.683,0,0,1,6.5,11,6.683,6.683,0,0,1,.69,8.12,4.7,4.7,0,0,1,0,5.65C0,2.53,2.91,0,6.5,0a7.018,7.018,0,0,1,4.6,1.65A5.331,5.331,0,0,1,13,5.65Z" transform="translate(177.5 318)" fill="#9ccb48"/>
    </g>
  </g>
</svg>
