<svg xmlns="http://www.w3.org/2000/svg" width="20" height="20" viewBox="0 0 20 20">
  <g id="vuesax_bulk_sms" data-name="vuesax/bulk/sms" transform="translate(-556 -252)">
    <g id="sms" transform="translate(556 252)">
      <path id="Vector" d="M0,0H20V20H0Z" fill="none" opacity="0"/>
      <path id="Vector-2" data-name="Vector" d="M12.75,14.75H4.25C1.7,14.75,0,13.449,0,10.412V4.338C0,1.3,1.7,0,4.25,0h8.5C15.3,0,17,1.3,17,4.338v6.074C17,13.449,15.3,14.75,12.75,14.75Z" transform="translate(1.5 2.625)" fill="#9ccb48" opacity="0.4"/>
      <g id="Group" transform="translate(5.685 7.034)">
        <path id="Vector-3" data-name="Vector" d="M4.315,3.469A2.788,2.788,0,0,1,2.56,2.877L.212,1A.56.56,0,1,1,.91.124L3.257,2A1.79,1.79,0,0,0,5.365,2L7.712.124A.554.554,0,0,1,8.5.214.554.554,0,0,1,8.41,1L6.062,2.877A2.752,2.752,0,0,1,4.315,3.469Z" transform="translate(0 0)" fill="#9ccb48"/>
      </g>
    </g>
  </g>
</svg>
