<svg xmlns="http://www.w3.org/2000/svg" width="24" height="24" viewBox="0 0 24 24">
  <g id="vuesax_bold_filter" data-name="vuesax/bold/filter" transform="translate(-556 -508)">
    <g id="filter">
      <path id="Vector" d="M13.245,2V4.2a3.733,3.733,0,0,1-1,2.3l-4.3,3.8a3.255,3.255,0,0,0-1,2.3v4.3a2.227,2.227,0,0,1-.9,1.7l-1.4.9a2.038,2.038,0,0,1-3.1-1.7V12.5a3.865,3.865,0,0,0-.8-2.1l-.47-.49a1,1,0,0,1-.12-1.22L5.275.47A1,1,0,0,1,6.125,0h5.12A2.006,2.006,0,0,1,13.245,2Z" transform="translate(563.355 510.1)"/>
      <path id="Vector-2" data-name="Vector" d="M6.95,1.53,3.4,7.22a1,1,0,0,1-1.57.16L.9,6.4a3.315,3.315,0,0,1-.9-2V2.1A2.03,2.03,0,0,1,2,0H6.1A1,1,0,0,1,6.95,1.53Z" transform="translate(559.4 510.1)"/>
      <path id="Vector-3" data-name="Vector" d="M0,0H24V24H0Z" transform="translate(580 532) rotate(180)" fill="none" opacity="0"/>
    </g>
  </g>
</svg>
