<svg xmlns="http://www.w3.org/2000/svg" xmlns:xlink="http://www.w3.org/1999/xlink" width="32" height="32" viewBox="0 0 32 32">
  <defs>
    <radialGradient id="radial-gradient" cx="0.5" cy="0.5" r="0.5" gradientUnits="objectBoundingBox">
      <stop offset="0" stop-color="#fff"/>
      <stop offset="1" stop-color="#fff" stop-opacity="0"/>
    </radialGradient>
  </defs>
  <g id="Ring_Chart2" data-name="Ring Chart2" transform="translate(-331 -62)">
    <path id="Path_19264" data-name="Path 19264" d="M0-16A16,16,0,0,1,16,0,16,16,0,0,1,0,16,16,16,0,0,1-16,0,16,16,0,0,1,0-16m0,2A14,14,0,0,0-14,0,14,14,0,0,0,0,14,14,14,0,0,0,14,0,14,14,0,0,0,0-14Z" transform="translate(347 78)" fill="url(#radial-gradient)"/>
  </g>
</svg>
