<svg id="Group_17688" data-name="Group 17688" xmlns="http://www.w3.org/2000/svg" xmlns:xlink="http://www.w3.org/1999/xlink" width="85.77" height="90.894" viewBox="0 0 85.77 90.894">
  <defs>
    <clipPath id="clip-path">
      <rect id="Rectangle_2494" data-name="Rectangle 2494" width="85.77" height="90.894" fill="#9ccb48"/>
    </clipPath>
  </defs>
  <g id="Group_17687" data-name="Group 17687" clip-path="url(#clip-path)">
    <path id="Path_18925" data-name="Path 18925" d="M179.172,258.557v-1.028h-1.527l1.585,3.235h.029a16.309,16.309,0,0,1-.087-2.207" transform="translate(-142.26 -206.232)" fill="#9ccb48"/>
    <path id="Path_18926" data-name="Path 18926" d="M139.331,210.282q-.261-.569-.383-.912h-.076a13.179,13.179,0,0,1,.093,1.986v.912h1.324Z" transform="translate(-111.21 -167.666)" fill="#9ccb48"/>
    <path id="Path_18927" data-name="Path 18927" d="M139.4,235.986v1.876h3.42l-.923-1.876Z" transform="translate(-111.631 -188.98)" fill="#9ccb48"/>
    <path id="Path_18928" data-name="Path 18928" d="M270.863,278.92a17.668,17.668,0,1,0,17.668,17.668,17.668,17.668,0,0,0-17.668-17.668m7.572,20.192h-7.572a2.529,2.529,0,0,1-2.524-2.524v-7.572a2.524,2.524,0,0,1,5.048,0v5.048h5.048a2.524,2.524,0,0,1,0,5.048" transform="translate(-202.761 -223.362)" fill="#9ccb48"/>
    <path id="Path_18929" data-name="Path 18929" d="M56.826,53.513a22.73,22.73,0,0,1,11.26-3c.555,0,1.109,0,1.664.052A51.609,51.609,0,0,0,54.279,23.092a34.519,34.519,0,0,0-7.95-5.328L50.242,7.213a2.509,2.509,0,0,0-.679-2.752A21.68,21.68,0,0,0,35.264.029a21.681,21.681,0,0,0-14.31,4.442,2.509,2.509,0,0,0-.679,2.752l3.918,10.552a35.725,35.725,0,0,0-10.1,7.4C7.987,30.717.9,47.711,0,60.605c.985,18.249,16.253,25.24,35.29,25.24a60.027,60.027,0,0,0,13.1-1.311,22.732,22.732,0,0,1,8.435-31.021m-14.4-6.508H40.054v1.876h2.369V51.3H40.054v8h-3.71l-3.972-8h-4.6v8H24.613v-8H22.349V48.881h2.265V47H22.349V44.6h2.265V37.227h3.925L32.127,44.6H36.9V37.227h3.153V44.6h2.369Z" transform="translate(0 0)" fill="#9ccb48"/>
  </g>
</svg>
