<svg id="vuesax_bulk_location" data-name="vuesax/bulk/location" xmlns="http://www.w3.org/2000/svg" width="18" height="18" viewBox="0 0 18 18">
  <g id="location">
    <path id="Vector" d="M13.125,5.025A6.469,6.469,0,0,0,6.66,0H6.652A6.468,6.468,0,0,0,.187,5.017c-.877,3.87,1.493,7.147,3.638,9.21a4.067,4.067,0,0,0,5.663,0C11.632,12.165,14,8.895,13.125,5.025Z" transform="translate(2.34 1.313)" fill="#9ccb48" opacity="0.4"/>
    <path id="Vector-2" data-name="Vector" d="M4.725,2.363A2.362,2.362,0,1,1,2.362,0,2.362,2.362,0,0,1,4.725,2.363Z" transform="translate(6.638 5.37)" fill="#9ccb48"/>
    <path id="Vector-3" data-name="Vector" d="M0,0H18V18H0Z" fill="none" opacity="0"/>
  </g>
</svg>
