<svg xmlns="http://www.w3.org/2000/svg" width="229.257" height="69.851" viewBox="0 0 229.257 69.851">
  <g id="Group_22980" data-name="Group 22980" transform="translate(71.62 -182.813)">
    <g id="Group_1" data-name="Group 1" transform="translate(15.825 198.738)">
      <path id="Path_19337" data-name="Path 19337" d="M8.7-12.624a6.685,6.685,0,0,1-4.762-1.584,6.175,6.175,0,0,1-1.8-4.461q-.022-.6-.022-1.963,0-1.383.022-2.007a6.141,6.141,0,0,1,1.818-4.45A6.671,6.671,0,0,1,8.7-28.683a8.172,8.172,0,0,1,3.457.68,5.451,5.451,0,0,1,2.275,1.851,4.833,4.833,0,0,1,.848,2.643v.045a.38.38,0,0,1-.145.3.488.488,0,0,1-.323.123H12.692a.616.616,0,0,1-.4-.112.857.857,0,0,1-.223-.424,3.255,3.255,0,0,0-1.182-1.974,3.827,3.827,0,0,0-2.208-.569q-3.212,0-3.346,3.591-.022.6-.022,1.851t.022,1.9q.134,3.591,3.346,3.591a3.825,3.825,0,0,0,2.219-.58,3.18,3.18,0,0,0,1.171-1.963.708.708,0,0,1,.212-.424.665.665,0,0,1,.413-.112h2.119a.492.492,0,0,1,.346.134.375.375,0,0,1,.123.335,4.833,4.833,0,0,1-.848,2.643A5.451,5.451,0,0,1,12.157-13.3,8.172,8.172,0,0,1,8.7-12.624Zm9.524-.223A.516.516,0,0,1,17.845-13a.516.516,0,0,1-.156-.379V-28.148a.507.507,0,0,1,.156-.39.537.537,0,0,1,.379-.145h1.985a.527.527,0,0,1,.39.145.527.527,0,0,1,.145.39v5.085a4.459,4.459,0,0,1,3.613-1.606,4.215,4.215,0,0,1,3.279,1.349,5.249,5.249,0,0,1,1.227,3.669v6.268a.537.537,0,0,1-.145.379.507.507,0,0,1-.39.156H26.32A.516.516,0,0,1,25.941-13a.516.516,0,0,1-.156-.379v-6.134a3,3,0,0,0-.636-2.041,2.317,2.317,0,0,0-1.84-.725,2.447,2.447,0,0,0-1.874.736,2.847,2.847,0,0,0-.691,2.03v6.134A.537.537,0,0,1,20.6-13a.507.507,0,0,1-.39.156Zm16.84.223a4.737,4.737,0,0,1-2.085-.457,3.788,3.788,0,0,1-1.494-1.238,2.93,2.93,0,0,1-.546-1.717,2.943,2.943,0,0,1,1.227-2.453,7.365,7.365,0,0,1,3.368-1.271l3.056-.446v-.468a2,2,0,0,0-.491-1.472,2.172,2.172,0,0,0-1.584-.491,2.268,2.268,0,0,0-1.193.279,3.9,3.9,0,0,0-.725.546q-.268.29-.357.379a.337.337,0,0,1-.335.268H32.186a.492.492,0,0,1-.346-.134.462.462,0,0,1-.145-.357,2.412,2.412,0,0,1,.546-1.271,4.126,4.126,0,0,1,1.617-1.227,6.273,6.273,0,0,1,2.677-.513,5.315,5.315,0,0,1,3.836,1.182,4.15,4.15,0,0,1,1.2,3.1v7a.537.537,0,0,1-.145.379.507.507,0,0,1-.39.156H39.234A.516.516,0,0,1,38.855-13a.516.516,0,0,1-.156-.379v-.87a3.64,3.64,0,0,1-1.394,1.171A4.933,4.933,0,0,1,35.064-12.624Zm.758-2.119a2.677,2.677,0,0,0,2.007-.8,3.228,3.228,0,0,0,.781-2.342v-.468L36.38-18a4.859,4.859,0,0,0-1.952.647,1.3,1.3,0,0,0-.658,1.093,1.269,1.269,0,0,0,.6,1.115A2.553,2.553,0,0,0,35.822-14.743Zm9.056-11.621a.516.516,0,0,1-.379-.156.516.516,0,0,1-.156-.379V-28.5a.516.516,0,0,1,.156-.379.516.516,0,0,1,.379-.156h2.03a.554.554,0,0,1,.39.156.5.5,0,0,1,.167.379V-26.9a.516.516,0,0,1-.156.379.543.543,0,0,1-.4.156Zm.089,13.516A.516.516,0,0,1,44.588-13a.516.516,0,0,1-.156-.379V-23.91a.516.516,0,0,1,.156-.379.516.516,0,0,1,.379-.156h1.851a.527.527,0,0,1,.39.145.527.527,0,0,1,.145.39v10.528a.537.537,0,0,1-.145.379.507.507,0,0,1-.39.156Zm5.888,0A.516.516,0,0,1,50.476-13a.516.516,0,0,1-.156-.379V-23.91a.516.516,0,0,1,.156-.379.516.516,0,0,1,.379-.156h1.829a.516.516,0,0,1,.379.156.516.516,0,0,1,.156.379V-23a4.465,4.465,0,0,1,3.725-1.673A4.146,4.146,0,0,1,60.2-23.319a5.31,5.31,0,0,1,1.2,3.669v6.268A.537.537,0,0,1,61.26-13a.507.507,0,0,1-.39.156H58.907A.516.516,0,0,1,58.528-13a.516.516,0,0,1-.156-.379v-6.134a3,3,0,0,0-.636-2.041,2.317,2.317,0,0,0-1.84-.725,2.411,2.411,0,0,0-1.862.736,2.876,2.876,0,0,0-.68,2.03v6.134a.537.537,0,0,1-.145.379.507.507,0,0,1-.39.156Z" transform="translate(80.406 29.04)" fill="#9ccb48"/>
      <path id="Path_19335" data-name="Path 19335" d="M3.655-12.564a.516.516,0,0,1-.379-.156A.516.516,0,0,1,3.12-13.1v-14.52a.567.567,0,0,1,.145-.4.507.507,0,0,1,.39-.156h2.03a.507.507,0,0,1,.39.156.567.567,0,0,1,.145.4v5.755H12.8v-5.755a.567.567,0,0,1,.145-.4.507.507,0,0,1,.39-.156h2.007a.543.543,0,0,1,.4.156.543.543,0,0,1,.156.4V-13.1a.507.507,0,0,1-.156.39.567.567,0,0,1-.4.145H13.335a.516.516,0,0,1-.379-.156A.516.516,0,0,1,12.8-13.1v-5.978H6.22V-13.1a.537.537,0,0,1-.145.379.507.507,0,0,1-.39.156Zm20.453.223a5.366,5.366,0,0,1-3.937-1.439,5.715,5.715,0,0,1-1.55-4.048l-.022-.558.022-.558a5.747,5.747,0,0,1,1.572-3.992,5.313,5.313,0,0,1,3.914-1.45,5.182,5.182,0,0,1,4.071,1.606A6.178,6.178,0,0,1,29.618-18.5v.468a.516.516,0,0,1-.156.379.543.543,0,0,1-.4.156H21.655v.178a3.531,3.531,0,0,0,.68,2.063,2.078,2.078,0,0,0,1.751.836,2.559,2.559,0,0,0,2.119-1.026,1.318,1.318,0,0,1,.323-.312.792.792,0,0,1,.368-.067h1.918a.518.518,0,0,1,.346.123.38.38,0,0,1,.145.3,2.075,2.075,0,0,1-.636,1.26,5.265,5.265,0,0,1-1.818,1.26A6.592,6.592,0,0,1,24.108-12.341Zm2.476-7.026v-.067a3.238,3.238,0,0,0-.658-2.119,2.222,2.222,0,0,0-1.818-.8,2.19,2.19,0,0,0-1.807.8,3.276,3.276,0,0,0-.647,2.119v.067Zm5.955,6.8a.516.516,0,0,1-.379-.156A.516.516,0,0,1,32-13.1V-27.865a.507.507,0,0,1,.156-.39.537.537,0,0,1,.379-.145h1.851a.527.527,0,0,1,.39.145.527.527,0,0,1,.145.39V-13.1a.537.537,0,0,1-.145.379.507.507,0,0,1-.39.156ZM38.45-8.326a.537.537,0,0,1-.379-.145.507.507,0,0,1-.156-.39V-23.627a.507.507,0,0,1,.156-.39.537.537,0,0,1,.379-.145h1.762a.527.527,0,0,1,.39.145.527.527,0,0,1,.145.39v.892a4.208,4.208,0,0,1,3.569-1.651,4.287,4.287,0,0,1,3.457,1.416,6.074,6.074,0,0,1,1.294,3.825q.022.268.022.781,0,.535-.022.8a6.071,6.071,0,0,1-1.294,3.781,4.255,4.255,0,0,1-3.457,1.439,4.022,4.022,0,0,1-3.435-1.584v5.063a.527.527,0,0,1-.145.39.527.527,0,0,1-.39.145Zm5.041-6.4q2.409,0,2.565-2.966.022-.223.022-.669t-.022-.669Q45.9-22,43.491-22a2.251,2.251,0,0,0-1.918.825,3.612,3.612,0,0,0-.691,2.03l-.022.848.022.87a3.089,3.089,0,0,0,.7,1.907A2.338,2.338,0,0,0,43.491-14.727Zm13.093,2.387a5.366,5.366,0,0,1-3.937-1.439,5.715,5.715,0,0,1-1.55-4.048l-.022-.558.022-.558a5.747,5.747,0,0,1,1.572-3.992,5.313,5.313,0,0,1,3.914-1.45,5.182,5.182,0,0,1,4.071,1.606A6.178,6.178,0,0,1,62.093-18.5v.468a.516.516,0,0,1-.156.379.543.543,0,0,1-.4.156H54.13v.178a3.531,3.531,0,0,0,.68,2.063,2.078,2.078,0,0,0,1.751.836,2.559,2.559,0,0,0,2.119-1.026A1.318,1.318,0,0,1,59-15.753a.792.792,0,0,1,.368-.067H61.29a.518.518,0,0,1,.346.123.38.38,0,0,1,.145.3,2.075,2.075,0,0,1-.636,1.26,5.265,5.265,0,0,1-1.818,1.26A6.592,6.592,0,0,1,56.584-12.341Zm2.476-7.026v-.067a3.238,3.238,0,0,0-.658-2.119,2.222,2.222,0,0,0-1.818-.8,2.19,2.19,0,0,0-1.807.8,3.276,3.276,0,0,0-.647,2.119v.067Zm5.933,6.8a.516.516,0,0,1-.379-.156.516.516,0,0,1-.156-.379V-23.6a.554.554,0,0,1,.156-.39.5.5,0,0,1,.379-.167H66.8a.543.543,0,0,1,.4.156.543.543,0,0,1,.156.4v.914a3.517,3.517,0,0,1,1.349-1.093,4.364,4.364,0,0,1,1.862-.379h.914a.527.527,0,0,1,.39.145.527.527,0,0,1,.145.39v1.606a.537.537,0,0,1-.145.379.507.507,0,0,1-.39.156h-1.74a2.23,2.23,0,0,0-1.651.6,2.23,2.23,0,0,0-.6,1.651V-13.1a.516.516,0,0,1-.156.379.543.543,0,0,1-.4.156Zm13.16.223a6.962,6.962,0,0,1-2.81-.5,4.383,4.383,0,0,1-1.684-1.182,2.017,2.017,0,0,1-.546-1.171.446.446,0,0,1,.156-.357.533.533,0,0,1,.357-.134h1.762a.423.423,0,0,1,.335.156q.089.067.468.4a2.747,2.747,0,0,0,.892.558,3.1,3.1,0,0,0,1.138.2,2.768,2.768,0,0,0,1.472-.357,1.1,1.1,0,0,0,.58-.981,1.1,1.1,0,0,0-.257-.758,2.225,2.225,0,0,0-.926-.524,16.24,16.24,0,0,0-1.985-.5,5.952,5.952,0,0,1-2.8-1.227,2.819,2.819,0,0,1-.9-2.186,2.955,2.955,0,0,1,.535-1.684,3.855,3.855,0,0,1,1.595-1.294,5.868,5.868,0,0,1,2.532-.5,6.4,6.4,0,0,1,2.587.48,4.6,4.6,0,0,1,1.662,1.138A1.909,1.909,0,0,1,82.88-21.6a.472.472,0,0,1-.145.346.472.472,0,0,1-.346.145H80.739a.63.63,0,0,1-.379-.156,5.71,5.71,0,0,1-.491-.424,2.483,2.483,0,0,0-.781-.491,2.814,2.814,0,0,0-1.048-.178A2.04,2.04,0,0,0,76.758-22a1.132,1.132,0,0,0-.457.937,1.044,1.044,0,0,0,.223.691,2.139,2.139,0,0,0,.87.513,12.343,12.343,0,0,0,1.94.491A6.12,6.12,0,0,1,82.4-18.051a2.919,2.919,0,0,1,.926,2.186,3.005,3.005,0,0,1-1.361,2.543A6.431,6.431,0,0,1,78.152-12.341Z" transform="translate(-3.12 28.757)" fill="#31aae0"/>
      <path id="Path_19336" data-name="Path 19336" d="M-124.612-7.623a.3.3,0,0,1-.221-.087.3.3,0,0,1-.087-.221V-16.67a.316.316,0,0,1,.087-.234.3.3,0,0,1,.221-.087h3.4a3.572,3.572,0,0,1,2.382.736,2.632,2.632,0,0,1,.87,2.128,2.621,2.621,0,0,1-.863,2.121,3.589,3.589,0,0,1-2.389.729h-2.369v3.346a.288.288,0,0,1-.094.221.322.322,0,0,1-.228.087Zm3.332-4.778a2.177,2.177,0,0,0,1.479-.442,1.62,1.62,0,0,0,.5-1.285,1.653,1.653,0,0,0-.5-1.291,2.151,2.151,0,0,0-1.485-.448H-123.6V-12.4Zm7.6,4.911a2.923,2.923,0,0,1-2.2-.85,3.484,3.484,0,0,1-.9-2.322l-.013-.455.013-.442a3.53,3.53,0,0,1,.917-2.3,2.877,2.877,0,0,1,2.175-.856,2.88,2.88,0,0,1,2.3.943,3.763,3.763,0,0,1,.816,2.549V-11a.3.3,0,0,1-.087.221.3.3,0,0,1-.221.087h-4.63v.12a2.48,2.48,0,0,0,.529,1.479,1.574,1.574,0,0,0,1.291.609,1.873,1.873,0,0,0,1.01-.248,1.984,1.984,0,0,0,.582-.515.779.779,0,0,1,.181-.194.5.5,0,0,1,.221-.033h.656a.3.3,0,0,1,.2.067.23.23,0,0,1,.08.187,1.178,1.178,0,0,1-.368.709,3.03,3.03,0,0,1-1.03.716A3.635,3.635,0,0,1-113.679-7.489Zm1.833-4.122v-.04a2.224,2.224,0,0,0-.5-1.506,1.686,1.686,0,0,0-1.345-.582,1.646,1.646,0,0,0-1.332.582,2.263,2.263,0,0,0-.488,1.506v.04Zm5.862,4.122a3.042,3.042,0,0,1-2.282-.83,3.215,3.215,0,0,1-.863-2.208l-.013-.575.013-.575a3.207,3.207,0,0,1,.87-2.2,3.033,3.033,0,0,1,2.275-.836,3.033,3.033,0,0,1,2.275.836,3.207,3.207,0,0,1,.87,2.2q.013.147.013.575t-.013.575a3.215,3.215,0,0,1-.863,2.208A3.042,3.042,0,0,1-105.984-7.489Zm0-1.03a1.713,1.713,0,0,0,1.332-.535,2.352,2.352,0,0,0,.529-1.539q.013-.134.013-.509t-.013-.509a2.352,2.352,0,0,0-.529-1.539,1.713,1.713,0,0,0-1.332-.535,1.734,1.734,0,0,0-1.338.535,2.28,2.28,0,0,0-.522,1.539l-.013.509.013.509a2.28,2.28,0,0,0,.522,1.539A1.734,1.734,0,0,0-105.984-8.52Zm5.286,3.439a.3.3,0,0,1-.221-.087.3.3,0,0,1-.087-.221v-8.886a.3.3,0,0,1,.087-.221.3.3,0,0,1,.221-.087h.616a.3.3,0,0,1,.221.087.3.3,0,0,1,.087.221v.589a2.543,2.543,0,0,1,2.195-1.03,2.53,2.53,0,0,1,2.108.883,3.787,3.787,0,0,1,.756,2.275q.013.147.013.455t-.013.455a3.772,3.772,0,0,1-.763,2.268,2.525,2.525,0,0,1-2.1.89,2.585,2.585,0,0,1-2.168-1v3.1a.313.313,0,0,1-.08.221.277.277,0,0,1-.214.087Zm2.837-3.493a1.607,1.607,0,0,0,1.385-.589A2.751,2.751,0,0,0-96-10.715q.013-.134.013-.388,0-2.529-1.874-2.529a1.628,1.628,0,0,0-1.385.609,2.542,2.542,0,0,0-.5,1.452l-.013.509.013.522a2.236,2.236,0,0,0,.509,1.378A1.679,1.679,0,0,0-97.86-8.573Zm5.273.95a.3.3,0,0,1-.221-.087.3.3,0,0,1-.087-.221v-8.886a.3.3,0,0,1,.087-.221.3.3,0,0,1,.221-.087h.629a.3.3,0,0,1,.221.087.3.3,0,0,1,.087.221v8.886a.3.3,0,0,1-.087.221.3.3,0,0,1-.221.087Zm5.848.134a2.923,2.923,0,0,1-2.2-.85,3.484,3.484,0,0,1-.9-2.322l-.013-.455.013-.442a3.53,3.53,0,0,1,.917-2.3,2.877,2.877,0,0,1,2.175-.856,2.88,2.88,0,0,1,2.3.943,3.763,3.763,0,0,1,.816,2.549V-11a.3.3,0,0,1-.087.221.3.3,0,0,1-.221.087h-4.63v.12a2.48,2.48,0,0,0,.529,1.479,1.574,1.574,0,0,0,1.291.609,1.873,1.873,0,0,0,1.01-.248,1.984,1.984,0,0,0,.582-.515.779.779,0,0,1,.181-.194.5.5,0,0,1,.221-.033h.656a.3.3,0,0,1,.2.067.23.23,0,0,1,.08.187,1.178,1.178,0,0,1-.368.709,3.029,3.029,0,0,1-1.03.716A3.635,3.635,0,0,1-86.739-7.489Zm1.833-4.122v-.04a2.224,2.224,0,0,0-.5-1.506,1.686,1.686,0,0,0-1.345-.582,1.646,1.646,0,0,0-1.332.582,2.263,2.263,0,0,0-.488,1.506v.04ZM-78-7.623a.3.3,0,0,1-.221-.087.3.3,0,0,1-.087-.221V-16.67a.316.316,0,0,1,.087-.234A.3.3,0,0,1-78-16.991h.683a.316.316,0,0,1,.234.087A.316.316,0,0,1-77-16.67v3.694h4.6V-16.67a.316.316,0,0,1,.087-.234.3.3,0,0,1,.221-.087h.683a.316.316,0,0,1,.234.087.316.316,0,0,1,.087.234v8.739a.288.288,0,0,1-.094.221.322.322,0,0,1-.228.087h-.683a.3.3,0,0,1-.221-.087.3.3,0,0,1-.087-.221v-3.841H-77v3.841a.288.288,0,0,1-.094.221.322.322,0,0,1-.228.087Zm11.991.134a2.923,2.923,0,0,1-2.2-.85,3.484,3.484,0,0,1-.9-2.322l-.013-.455.013-.442a3.53,3.53,0,0,1,.917-2.3,2.877,2.877,0,0,1,2.175-.856,2.88,2.88,0,0,1,2.3.943,3.763,3.763,0,0,1,.816,2.549V-11a.3.3,0,0,1-.087.221.3.3,0,0,1-.221.087h-4.63v.12a2.48,2.48,0,0,0,.529,1.479,1.574,1.574,0,0,0,1.291.609,1.873,1.873,0,0,0,1.01-.248,1.984,1.984,0,0,0,.582-.515.779.779,0,0,1,.181-.194.5.5,0,0,1,.221-.033h.656a.3.3,0,0,1,.2.067.23.23,0,0,1,.08.187,1.178,1.178,0,0,1-.368.709,3.03,3.03,0,0,1-1.03.716A3.635,3.635,0,0,1-66.01-7.489Zm1.833-4.122v-.04a2.224,2.224,0,0,0-.5-1.506,1.686,1.686,0,0,0-1.345-.582,1.646,1.646,0,0,0-1.332.582,2.263,2.263,0,0,0-.488,1.506v.04Zm3.332,3.988a.3.3,0,0,1-.221-.087.3.3,0,0,1-.087-.221v-8.886a.3.3,0,0,1,.087-.221.3.3,0,0,1,.221-.087h.629a.3.3,0,0,1,.221.087.3.3,0,0,1,.087.221v8.886a.3.3,0,0,1-.087.221.3.3,0,0,1-.221.087Zm3.386,2.543a.3.3,0,0,1-.221-.087.3.3,0,0,1-.087-.221v-8.886a.3.3,0,0,1,.087-.221.3.3,0,0,1,.221-.087h.616a.3.3,0,0,1,.221.087.3.3,0,0,1,.087.221v.589a2.543,2.543,0,0,1,2.195-1.03,2.53,2.53,0,0,1,2.108.883,3.787,3.787,0,0,1,.756,2.275q.013.147.013.455t-.013.455a3.772,3.772,0,0,1-.763,2.268,2.525,2.525,0,0,1-2.1.89,2.585,2.585,0,0,1-2.168-1v3.1a.313.313,0,0,1-.08.221.277.277,0,0,1-.214.087Zm2.837-3.493a1.608,1.608,0,0,0,1.385-.589,2.752,2.752,0,0,0,.475-1.552q.013-.134.013-.388,0-2.529-1.874-2.529a1.628,1.628,0,0,0-1.385.609,2.542,2.542,0,0,0-.5,1.452l-.013.509.013.522A2.236,2.236,0,0,0-56-9.162,1.679,1.679,0,0,0-54.621-8.573Zm5.152-7.307a.3.3,0,0,1-.221-.087.3.3,0,0,1-.087-.221v-.723a.322.322,0,0,1,.087-.228.288.288,0,0,1,.221-.094h.843a.31.31,0,0,1,.228.094.31.31,0,0,1,.094.228v.723a.288.288,0,0,1-.094.221.322.322,0,0,1-.228.087Zm.107,8.257a.3.3,0,0,1-.221-.087.3.3,0,0,1-.087-.221v-6.343a.3.3,0,0,1,.087-.221.3.3,0,0,1,.221-.087h.642a.3.3,0,0,1,.221.087.3.3,0,0,1,.087.221v6.343a.3.3,0,0,1-.087.221.3.3,0,0,1-.221.087Zm3.372,0a.3.3,0,0,1-.221-.087.3.3,0,0,1-.087-.221v-6.343a.3.3,0,0,1,.087-.221.3.3,0,0,1,.221-.087h.629a.3.3,0,0,1,.221.087.3.3,0,0,1,.087.221v.589a2.718,2.718,0,0,1,.917-.763,2.9,2.9,0,0,1,1.318-.268,2.511,2.511,0,0,1,2,.823A3.216,3.216,0,0,1-40.1-11.7v3.774a.3.3,0,0,1-.087.221.3.3,0,0,1-.221.087h-.669A.3.3,0,0,1-41.3-7.71a.3.3,0,0,1-.087-.221v-3.707a2.149,2.149,0,0,0-.462-1.472,1.684,1.684,0,0,0-1.332-.522,1.745,1.745,0,0,0-1.338.529,2.06,2.06,0,0,0-.5,1.465v3.707a.3.3,0,0,1-.087.221.3.3,0,0,1-.221.087ZM-35.2-4.679a3.661,3.661,0,0,1-1.767-.368,2.438,2.438,0,0,1-.95-.836,1.956,1.956,0,0,1-.308-.843.261.261,0,0,1,.087-.228.317.317,0,0,1,.221-.094h.642a.325.325,0,0,1,.2.06.446.446,0,0,1,.134.221,1.8,1.8,0,0,0,.529.743,1.735,1.735,0,0,0,1.144.314,2.134,2.134,0,0,0,1.459-.422,1.946,1.946,0,0,0,.468-1.492v-.91a2.5,2.5,0,0,1-.883.7A2.874,2.874,0,0,1-35.5-7.57a2.52,2.52,0,0,1-2.121-.9,3.814,3.814,0,0,1-.743-2.3l-.013-.375.013-.361a3.829,3.829,0,0,1,.749-2.3,2.508,2.508,0,0,1,2.114-.917,2.609,2.609,0,0,1,2.195,1.03v-.575a.322.322,0,0,1,.087-.228.288.288,0,0,1,.221-.094h.616a.31.31,0,0,1,.228.094.31.31,0,0,1,.094.228V-7.77Q-32.058-4.679-35.2-4.679ZM-35.23-8.64a1.64,1.64,0,0,0,1.378-.6,2.466,2.466,0,0,0,.509-1.432q.013-.12.013-.468t-.013-.455a2.491,2.491,0,0,0-.5-1.432,1.636,1.636,0,0,0-1.385-.6,1.589,1.589,0,0,0-1.378.589,2.785,2.785,0,0,0-.468,1.552l-.013.348.013.361a2.8,2.8,0,0,0,.468,1.546A1.581,1.581,0,0,0-35.23-8.64Zm9.194,1.017a.3.3,0,0,1-.221-.087.3.3,0,0,1-.087-.221V-16.67a.316.316,0,0,1,.087-.234.3.3,0,0,1,.221-.087h3.4a3.572,3.572,0,0,1,2.382.736,2.632,2.632,0,0,1,.87,2.128,2.621,2.621,0,0,1-.863,2.121,3.589,3.589,0,0,1-2.389.729h-2.369v3.346a.288.288,0,0,1-.094.221.322.322,0,0,1-.228.087ZM-22.7-12.4a2.177,2.177,0,0,0,1.479-.442,1.62,1.62,0,0,0,.5-1.285,1.653,1.653,0,0,0-.5-1.291,2.151,2.151,0,0,0-1.485-.448h-2.315V-12.4Zm7.6,4.911a2.923,2.923,0,0,1-2.2-.85,3.484,3.484,0,0,1-.9-2.322l-.013-.455.013-.442a3.53,3.53,0,0,1,.917-2.3,2.877,2.877,0,0,1,2.175-.856,2.88,2.88,0,0,1,2.3.943A3.763,3.763,0,0,1-12-11.223V-11a.3.3,0,0,1-.087.221.3.3,0,0,1-.221.087h-4.63v.12a2.48,2.48,0,0,0,.529,1.479,1.574,1.574,0,0,0,1.291.609,1.873,1.873,0,0,0,1.01-.248,1.984,1.984,0,0,0,.582-.515.779.779,0,0,1,.181-.194.5.5,0,0,1,.221-.033h.656a.3.3,0,0,1,.2.067.23.23,0,0,1,.08.187,1.178,1.178,0,0,1-.368.709,3.03,3.03,0,0,1-1.03.716A3.635,3.635,0,0,1-15.1-7.489Zm1.833-4.122v-.04a2.224,2.224,0,0,0-.5-1.506,1.686,1.686,0,0,0-1.345-.582,1.646,1.646,0,0,0-1.332.582,2.263,2.263,0,0,0-.488,1.506v.04Zm5.862,4.122a3.042,3.042,0,0,1-2.282-.83,3.215,3.215,0,0,1-.863-2.208l-.013-.575.013-.575a3.207,3.207,0,0,1,.87-2.2,3.033,3.033,0,0,1,2.275-.836,3.033,3.033,0,0,1,2.275.836,3.207,3.207,0,0,1,.87,2.2q.013.147.013.575t-.013.575a3.215,3.215,0,0,1-.863,2.208A3.042,3.042,0,0,1-7.407-7.489Zm0-1.03a1.713,1.713,0,0,0,1.332-.535,2.352,2.352,0,0,0,.529-1.539q.013-.134.013-.509t-.013-.509a2.352,2.352,0,0,0-.529-1.539,1.713,1.713,0,0,0-1.332-.535,1.734,1.734,0,0,0-1.338.535,2.28,2.28,0,0,0-.522,1.539l-.013.509.013.509a2.28,2.28,0,0,0,.522,1.539A1.734,1.734,0,0,0-7.407-8.52Zm5.286,3.439a.3.3,0,0,1-.221-.087.3.3,0,0,1-.087-.221v-8.886a.3.3,0,0,1,.087-.221.3.3,0,0,1,.221-.087h.616a.3.3,0,0,1,.221.087.3.3,0,0,1,.087.221v.589A2.543,2.543,0,0,1,1-14.716a2.53,2.53,0,0,1,2.108.883,3.787,3.787,0,0,1,.756,2.275q.013.147.013.455t-.013.455A3.772,3.772,0,0,1,3.1-8.379a2.525,2.525,0,0,1-2.1.89,2.585,2.585,0,0,1-2.168-1v3.1a.313.313,0,0,1-.08.221.277.277,0,0,1-.214.087ZM.716-8.573A1.608,1.608,0,0,0,2.1-9.162a2.752,2.752,0,0,0,.475-1.552q.013-.134.013-.388,0-2.529-1.874-2.529a1.628,1.628,0,0,0-1.385.609,2.542,2.542,0,0,0-.5,1.452l-.013.509.013.522A2.236,2.236,0,0,0-.662-9.162,1.679,1.679,0,0,0,.716-8.573Zm5.273.95a.3.3,0,0,1-.221-.087.3.3,0,0,1-.087-.221v-8.886a.3.3,0,0,1,.087-.221.3.3,0,0,1,.221-.087h.629a.3.3,0,0,1,.221.087.3.3,0,0,1,.087.221v8.886a.3.3,0,0,1-.087.221.3.3,0,0,1-.221.087Zm5.848.134a2.923,2.923,0,0,1-2.2-.85,3.484,3.484,0,0,1-.9-2.322l-.013-.455.013-.442a3.53,3.53,0,0,1,.917-2.3,2.877,2.877,0,0,1,2.175-.856,2.88,2.88,0,0,1,2.3.943,3.763,3.763,0,0,1,.816,2.549V-11a.3.3,0,0,1-.087.221.3.3,0,0,1-.221.087H10v.12a2.48,2.48,0,0,0,.529,1.479,1.574,1.574,0,0,0,1.291.609,1.873,1.873,0,0,0,1.01-.248,1.984,1.984,0,0,0,.582-.515.779.779,0,0,1,.181-.194.5.5,0,0,1,.221-.033h.656a.3.3,0,0,1,.2.067.23.23,0,0,1,.08.187,1.178,1.178,0,0,1-.368.709,3.03,3.03,0,0,1-1.03.716A3.635,3.635,0,0,1,11.837-7.489Zm1.833-4.122v-.04a2.224,2.224,0,0,0-.5-1.506,1.686,1.686,0,0,0-1.345-.582,1.646,1.646,0,0,0-1.332.582A2.263,2.263,0,0,0,10-11.651v.04Z" transform="translate(126.013 42.775)" fill="#464646"/>
    </g>
    <g id="Group_2" data-name="Group 2" transform="translate(-71.62 182.666)">
      <g id="Group_22809" data-name="Group 22809" transform="translate(13.788 38.736)">
        <path id="Union_13" data-name="Union 13" d="M8.89,30,0,21.417,20.683,0l8.124,7.845-2.384,2.384L20.766,4.766l-16,16.568,6.466,6.244a1.124,1.124,0,0,0,1.589-.028l5.142-5.324,2.432,2.334-5.149,5.332A4.5,4.5,0,0,1,8.89,30ZM25.163,19.621l-2.514-2.248L28.04,11.79l2.384-2.384.011.011L32.29,7.5l2.422,2.344-9.454,9.768-.045-.043-.05.052h0Z" fill="#9ccb48"/>
        <path id="Subtraction_7" data-name="Subtraction 7" d="M18.269,18.328h0A4.478,4.478,0,0,1,15.2,17.123L0,2.944,2.385.559,17.5,14.658a1.125,1.125,0,0,0,1.588-.056l6.13-6.574-6.113-5.7L21.554,0l8.431,7.862L21.556,16.9A4.509,4.509,0,0,1,18.269,18.328Z" transform="translate(13.163 12.129)" fill="#31aae0"/>
      </g>
      <g id="Group_22812" data-name="Group 22812" transform="translate(56.034 32.01) rotate(-179)">
        <path id="Union_13-2" data-name="Union 13" d="M8.89,30,0,21.417,20.683,0l8.124,7.845-2.384,2.384L20.766,4.766l-16,16.568,6.466,6.244a1.124,1.124,0,0,0,1.589-.028l5.142-5.324,2.432,2.334-5.149,5.332A4.5,4.5,0,0,1,8.89,30ZM25.163,19.621l-2.514-2.248L28.04,11.79l2.384-2.384.011.011L32.29,7.5l2.422,2.344-9.454,9.768-.045-.043-.05.052h0Z" transform="translate(0 0)" fill="#9ccb48"/>
        <path id="Subtraction_7-2" data-name="Subtraction 7" d="M18.269,18.328h0A4.478,4.478,0,0,1,15.2,17.123L0,2.944,2.385.559,17.5,14.658a1.125,1.125,0,0,0,1.588-.056l6.13-6.574-6.113-5.7L21.554,0l8.431,7.862L21.556,16.9A4.509,4.509,0,0,1,18.269,18.328Z" transform="translate(13.163 12.129)" fill="#31aae0"/>
      </g>
      <g id="Group_22810" data-name="Group 22810" transform="translate(69.373 12.612) rotate(89)">
        <path id="Union_13-3" data-name="Union 13" d="M8.89,30,0,21.417,20.683,0l8.124,7.845-2.384,2.384L20.766,4.766l-16,16.568,6.465,6.244a1.124,1.124,0,0,0,1.589-.028l5.142-5.324,2.432,2.334-5.149,5.332A4.5,4.5,0,0,1,8.89,30ZM25.163,19.621l-2.514-2.248,5.391-5.582,2.384-2.384.011.011L32.29,7.5l2.422,2.344-9.453,9.768-.045-.043-.05.052h0Z" transform="translate(43.148 31.262) rotate(180)" fill="#9ccb48"/>
        <path id="Subtraction_7-3" data-name="Subtraction 7" d="M18.269,18.328h0A4.478,4.478,0,0,1,15.2,17.123L0,2.944,2.385.559,17.5,14.658a1.125,1.125,0,0,0,1.588-.056l6.13-6.574-6.113-5.7L21.554,0l8.431,7.862L21.556,16.9A4.509,4.509,0,0,1,18.269,18.328Z" transform="translate(29.985 19.133) rotate(180)" fill="#31aae0"/>
      </g>
      <g id="Group_22811" data-name="Group 22811" transform="translate(0 57.16) rotate(-90)">
        <path id="Union_13-4" data-name="Union 13" d="M8.89,30,0,21.417,20.683,0l8.124,7.845-2.384,2.384L20.766,4.766l-16,16.568,6.465,6.244a1.124,1.124,0,0,0,1.589-.028l5.142-5.324,2.432,2.334-5.149,5.332A4.5,4.5,0,0,1,8.89,30ZM25.163,19.621l-2.514-2.248,5.391-5.582,2.384-2.384.011.011L32.29,7.5l2.422,2.344-9.453,9.768-.045-.043-.05.052h0Z" transform="translate(43.148 31.262) rotate(180)" fill="#9ccb48"/>
        <path id="Subtraction_7-4" data-name="Subtraction 7" d="M18.269,18.328h0A4.478,4.478,0,0,1,15.2,17.123L0,2.944,2.385.559,17.5,14.658a1.125,1.125,0,0,0,1.588-.056l6.13-6.574-6.113-5.7L21.554,0l8.431,7.862L21.556,16.9A4.509,4.509,0,0,1,18.269,18.328Z" transform="translate(29.985 19.133) rotate(180)" fill="#31aae0"/>
      </g>
    </g>
  </g>
</svg>
