<svg xmlns="http://www.w3.org/2000/svg" width="327" height="319" viewBox="0 0 327 319">
  <g id="Group_18063" data-name="Group 18063" transform="translate(-31 -447)">
    <g id="Group_18059" data-name="Group 18059" transform="translate(176.189 580.457)">
      <g id="Group_18061" data-name="Group 18061" transform="translate(4 4)">
        <circle id="Ellipse_507" data-name="Ellipse 507" cx="18.5" cy="18.5" r="18.5" transform="translate(-0.189 -0.457)" fill="#9ccb48" opacity="0.19"/>
        <circle id="Ellipse_506" data-name="Ellipse 506" cx="5.5" cy="5.5" r="5.5" transform="translate(12.811 12.543)" fill="#9ccb48"/>
      </g>
    </g>
    <circle id="Ellipse_575" data-name="Ellipse 575" cx="5" cy="5" r="5" transform="translate(141 563)" fill="#31aae0"/>
    <circle id="Ellipse_576" data-name="Ellipse 576" cx="5" cy="5" r="5" transform="translate(276 642)" fill="#31aae0"/>
    <circle id="Ellipse_579" data-name="Ellipse 579" cx="5" cy="5" r="5" transform="translate(230 553)" fill="#31aae0"/>
    <circle id="Ellipse_580" data-name="Ellipse 580" cx="5" cy="5" r="5" transform="translate(230 647)" fill="#31aae0"/>
    <circle id="Ellipse_581" data-name="Ellipse 581" cx="5" cy="5" r="5" transform="translate(225 683)" fill="#31aae0"/>
    <circle id="Ellipse_582" data-name="Ellipse 582" cx="5" cy="5" r="5" transform="translate(145 640)" fill="#31aae0"/>
    <circle id="Ellipse_583" data-name="Ellipse 583" cx="5" cy="5" r="5" transform="translate(167 727)" fill="#31aae0"/>
    <circle id="Ellipse_584" data-name="Ellipse 584" cx="5" cy="5" r="5" transform="translate(262 499)" fill="#31aae0"/>
    <circle id="Ellipse_586" data-name="Ellipse 586" cx="5" cy="5" r="5" transform="translate(135 489)" fill="#31aae0"/>
    <circle id="Ellipse_593" data-name="Ellipse 593" cx="5" cy="5" r="5" transform="translate(128 456)" fill="#31aae0"/>
    <circle id="Ellipse_594" data-name="Ellipse 594" cx="5" cy="5" r="5" transform="translate(226 447)" fill="#31aae0"/>
    <circle id="Ellipse_595" data-name="Ellipse 595" cx="5" cy="5" r="5" transform="translate(267 699)" fill="#31aae0"/>
    <circle id="Ellipse_596" data-name="Ellipse 596" cx="5" cy="5" r="5" transform="translate(146 754)" fill="#31aae0"/>
    <circle id="Ellipse_597" data-name="Ellipse 597" cx="5" cy="5" r="5" transform="translate(276 733)" fill="#31aae0"/>
    <circle id="Ellipse_598" data-name="Ellipse 598" cx="5" cy="5" r="5" transform="translate(340 656)" fill="#31aae0"/>
    <circle id="Ellipse_599" data-name="Ellipse 599" cx="5" cy="5" r="5" transform="translate(318 576)" fill="#31aae0"/>
    <circle id="Ellipse_600" data-name="Ellipse 600" cx="5" cy="5" r="5" transform="translate(348 575)" fill="#31aae0"/>
    <circle id="Ellipse_601" data-name="Ellipse 601" cx="5" cy="5" r="5" transform="translate(333 523)" fill="#31aae0"/>
    <circle id="Ellipse_602" data-name="Ellipse 602" cx="5" cy="5" r="5" transform="translate(286 475)" fill="#31aae0"/>
    <g id="Ellipse_571" data-name="Ellipse 571" transform="translate(36 447)" fill="none" stroke="#31aae0" stroke-linecap="round" stroke-linejoin="round" stroke-width="1.5" stroke-dasharray="5">
      <circle cx="159.5" cy="159.5" r="159.5" stroke="none"/>
      <circle cx="159.5" cy="159.5" r="158.75" fill="none"/>
    </g>
    <g id="Ellipse_572" data-name="Ellipse 572" transform="translate(69 480)" fill="none" stroke="#31aae0" stroke-linecap="round" stroke-linejoin="round" stroke-width="1.5" stroke-dasharray="5">
      <circle cx="126.5" cy="126.5" r="126.5" stroke="none"/>
      <circle cx="126.5" cy="126.5" r="125.75" fill="none"/>
    </g>
    <g id="Ellipse_573" data-name="Ellipse 573" transform="translate(101 512)" fill="none" stroke="#31aae0" stroke-linecap="round" stroke-linejoin="round" stroke-width="1.5" stroke-dasharray="5">
      <circle cx="94.5" cy="94.5" r="94.5" stroke="none"/>
      <circle cx="94.5" cy="94.5" r="93.75" fill="none"/>
    </g>
    <g id="Ellipse_574" data-name="Ellipse 574" transform="translate(133 544)" fill="none" stroke="#31aae0" stroke-linecap="round" stroke-linejoin="round" stroke-width="1.5" stroke-dasharray="5">
      <circle cx="62.5" cy="62.5" r="62.5" stroke="none"/>
      <circle cx="62.5" cy="62.5" r="61.75" fill="none"/>
    </g>
    <circle id="Ellipse_577" data-name="Ellipse 577" cx="5" cy="5" r="5" transform="translate(99 584)" fill="#31aae0"/>
    <circle id="Ellipse_578" data-name="Ellipse 578" cx="5" cy="5" r="5" transform="translate(114 659)" fill="#31aae0"/>
    <circle id="Ellipse_587" data-name="Ellipse 587" cx="5" cy="5" r="5" transform="translate(74 553)" fill="#31aae0"/>
    <circle id="Ellipse_588" data-name="Ellipse 588" cx="5" cy="5" r="5" transform="translate(71 637)" fill="#31aae0"/>
    <circle id="Ellipse_589" data-name="Ellipse 589" cx="5" cy="5" r="5" transform="translate(104 693)" fill="#31aae0"/>
    <circle id="Ellipse_590" data-name="Ellipse 590" cx="5" cy="5" r="5" transform="translate(57 685)" fill="#31aae0"/>
    <circle id="Ellipse_591" data-name="Ellipse 591" cx="5" cy="5" r="5" transform="translate(31 602)" fill="#31aae0"/>
    <circle id="Ellipse_592" data-name="Ellipse 592" cx="5" cy="5" r="5" transform="translate(69 496)" fill="#31aae0"/>
    <circle id="Ellipse_585" data-name="Ellipse 585" cx="5" cy="5" r="5" transform="translate(248 526)" fill="#31aae0"/>
  </g>
</svg>
