<svg id="Group_22720" data-name="Group 22720" xmlns="http://www.w3.org/2000/svg" xmlns:xlink="http://www.w3.org/1999/xlink" width="205.664" height="191.702" viewBox="0 0 205.664 191.702">
  <defs>
    <clipPath id="clip-path">
      <rect id="Rectangle_3881" data-name="Rectangle 3881" width="205.664" height="191.702" fill="none"/>
    </clipPath>
    <clipPath id="clip-path-6">
      <rect id="Rectangle_3874" data-name="Rectangle 3874" width="22.11" height="25.011" fill="none"/>
    </clipPath>
    <clipPath id="clip-path-10">
      <rect id="Rectangle_3878" data-name="Rectangle 3878" width="1.414" height="1.464" fill="none"/>
    </clipPath>
    <clipPath id="clip-path-11">
      <rect id="Rectangle_3879" data-name="Rectangle 3879" width="7.349" height="8.628" fill="none"/>
    </clipPath>
  </defs>
  <g id="Group_22719" data-name="Group 22719" clip-path="url(#clip-path)">
    <g id="Group_22695" data-name="Group 22695">
      <g id="Group_22694" data-name="Group 22694" clip-path="url(#clip-path)">
        <path id="Path_19019" data-name="Path 19019" d="M11.156,347.707a12.41,12.41,0,0,0-5.308-1.827,3.537,3.537,0,0,0-2.512.462.516.516,0,0,0-.258.458.558.558,0,0,0,.246.314,7.589,7.589,0,0,0,7.832.594" transform="translate(-1.696 -190.928)" fill="#9ccb48"/>
        <path id="Path_19020" data-name="Path 19020" d="M13.859,339.416A25.9,25.9,0,0,1,10.43,336.4a8.675,8.675,0,0,1-2.15-3.975,1.6,1.6,0,0,1,.17-1.33c2.733,2.134,4.88,4.895,5.408,8.323" transform="translate(-4.536 -182.787)" fill="#9ccb48"/>
        <path id="Path_19021" data-name="Path 19021" d="M20.839,339.835a12.389,12.389,0,0,1,.064-4.5,6.086,6.086,0,0,1,2.4-3.715,5.316,5.316,0,0,1-.063,3.529,17.152,17.152,0,0,1-2.378,5.006" transform="translate(-11.408 -183.077)" fill="#9ccb48"/>
        <path id="Path_19022" data-name="Path 19022" d="M18.788,360.68a7.843,7.843,0,0,0-4.257,2.155,8.052,8.052,0,0,0-2.435,4.181,5.744,5.744,0,0,0,3.931-2.485c.981-1.261,1.661-2.645,2.74-3.825" transform="translate(-6.677 -199.121)" fill="#9ccb48"/>
        <path id="Path_19023" data-name="Path 19023" d="M27.433,350.152a10.5,10.5,0,0,1,1.213-9.932,12.645,12.645,0,0,1-1.213,9.932" transform="translate(-14.741 -187.826)" fill="#9ccb48"/>
        <path id="Path_19024" data-name="Path 19024" d="M27.154,371.786a7.592,7.592,0,0,0-7.26,4.179c-.09.18-.169.408-.049.569a.541.541,0,0,0,.482.142,6.318,6.318,0,0,0,3.745-1.934,35.8,35.8,0,0,1,3.114-2.96" transform="translate(-10.922 -205.244)" fill="#9ccb48"/>
        <path id="Path_19025" data-name="Path 19025" d="M35.237,358.894a13.517,13.517,0,0,1-.135-7.553,3.681,3.681,0,0,1,1.612-2.452.316.316,0,0,1,.247-.043.326.326,0,0,1,.156.181,4.549,4.549,0,0,1,.38,2.167,13.55,13.55,0,0,1-.34,2.194,11.658,11.658,0,0,1-1.169,3.938,7.964,7.964,0,0,0-.468.865c-.139.294-.14.4-.268.631" transform="translate(-19.118 -192.581)" fill="#e0e0e0"/>
        <path id="Path_19026" data-name="Path 19026" d="M56.585,364.154a9.738,9.738,0,0,1,1.707-8.007c.123-.159.285-.33.486-.312.306.028.386.437.372.744a14.466,14.466,0,0,1-2.564,7.574" transform="translate(-31.095 -196.446)" fill="#e0e0e0"/>
        <path id="Path_19027" data-name="Path 19027" d="M58.792,372.286a11.646,11.646,0,0,0,9.557-1.944,7.737,7.737,0,0,0-5.174-.635,7.382,7.382,0,0,0-4.383,2.579" transform="translate(-32.457 -204)" fill="#9ccb48"/>
        <path id="Path_19028" data-name="Path 19028" d="M60.382,365.59a11.048,11.048,0,0,1,8.674-5.015,5.341,5.341,0,0,1-2.837,3.136,15.73,15.73,0,0,1-4.163,1.218,2.938,2.938,0,0,0-1.673.661" transform="translate(-33.335 -199.063)" fill="#9ccb48"/>
        <path id="Path_19029" data-name="Path 19029" d="M55.769,340.27a25.26,25.26,0,0,0,1.109-5.08,8.458,8.458,0,0,0-1.012-5.025,11.062,11.062,0,0,0-.148,10.279" transform="translate(-30.1 -182.274)" fill="#e0e0e0"/>
        <path id="Path_19030" data-name="Path 19030" d="M69.92,337.947a13.613,13.613,0,0,1,10.02-6.817,11.164,11.164,0,0,1-10.02,6.817" transform="translate(-38.601 -182.807)" fill="#9ccb48"/>
        <path id="Path_19031" data-name="Path 19031" d="M67.163,347.188c2.927.446,5.421,2.315,8.157,3.449a3.654,3.654,0,0,0,1.844.353,1.444,1.444,0,0,0,.9-2.554,3.941,3.941,0,0,0-1.339-.813,14.891,14.891,0,0,0-9.314-.519" transform="translate(-37.079 -191.349)" fill="#9ccb48"/>
        <path id="Path_19032" data-name="Path 19032" d="M63.382,352.317a3.46,3.46,0,0,1,1.414.98,15.256,15.256,0,0,0,6.185,3.177c.236.059.546.082.663-.131.1-.186-.027-.412-.16-.578a8.513,8.513,0,0,0-3.735-2.536,9.533,9.533,0,0,0-4.368-1.035" transform="translate(-34.991 -194.426)" fill="#9ccb48"/>
        <path id="Path_19033" data-name="Path 19033" d="M59.114,324.419a11.707,11.707,0,0,0,8.975,3.054.615.615,0,0,0,.409-.147c.226-.245-.045-.625-.308-.83a10.339,10.339,0,0,0-9.075-2.077" transform="translate(-32.635 -178.927)" fill="#9ccb48"/>
        <path id="Path_19034" data-name="Path 19034" d="M64.174,319.953a12.509,12.509,0,0,1,11.2-1.848,8.891,8.891,0,0,1-5.337,2.343,16.892,16.892,0,0,1-5.862-.495" transform="translate(-35.429 -175.292)" fill="#9ccb48"/>
        <path id="Path_19035" data-name="Path 19035" d="M60.3,300.473c-.259-2.634-.091-4.713-.274-7.359-.015-.211-.06-.466-.258-.542-.275-.106-.5.232-.6.513a8.438,8.438,0,0,0,1.123,7.329" transform="translate(-32.454 -161.51)" fill="#e0e0e0"/>
        <path id="Path_19036" data-name="Path 19036" d="M61.74,300.681a15.486,15.486,0,0,0,4.363-4.24,5.8,5.8,0,0,0,1.392-4.039,4.175,4.175,0,0,0-3.147,1.562,8.783,8.783,0,0,0-1.6,3.228c-.349,1.159-.594,2.35-1,3.488" transform="translate(-34.085 -161.426)" fill="#9ccb48"/>
        <path id="Path_19037" data-name="Path 19037" d="M71.24,300.1a35.179,35.179,0,0,0,10.736-6.331,5.479,5.479,0,0,0-4.033.31,12.718,12.718,0,0,0-6.759,5.992" transform="translate(-39.299 -162.032)" fill="#e0e0e0"/>
        <path id="Path_19038" data-name="Path 19038" d="M64.43,310.275a21.822,21.822,0,0,0,5.962.029,25.307,25.307,0,0,0,5.566-1.849.652.652,0,0,0,.378-.287.435.435,0,0,0-.136-.476,1.149,1.149,0,0,0-.474-.222,10.3,10.3,0,0,0-6.015.359,27.918,27.918,0,0,0-5.281,2.447" transform="translate(-35.57 -169.579)" fill="#9ccb48"/>
        <path id="Path_19039" data-name="Path 19039" d="M37.941,314.252a10.545,10.545,0,0,1-.1-8.728,6.665,6.665,0,0,1,.772,4.34c-.15,1.491-.6,3.026-.633,4.524" transform="translate(-20.398 -168.671)" fill="#e0e0e0"/>
        <path id="Path_19040" data-name="Path 19040" d="M15.956,318.924a12.174,12.174,0,0,0-9.046,3.854,8.455,8.455,0,0,0,4.953-.918,25.213,25.213,0,0,0,4.245-2.841" transform="translate(-3.815 -176.068)" fill="#9ccb48"/>
        <path id="Path_19041" data-name="Path 19041" d="M8.509,316.019a12.623,12.623,0,0,0-4.829.148A5.79,5.79,0,0,0,0,319.288a8.722,8.722,0,0,0,4.527-.855,26.022,26.022,0,0,0,3.982-2.414" transform="translate(0 -174.377)" fill="#9ccb48"/>
        <path id="Path_19042" data-name="Path 19042" d="M19.068,313.214a15.227,15.227,0,0,0-4.741-2.368,5.168,5.168,0,0,0-4.942,1.2,9.235,9.235,0,0,0,4.723.918,16.324,16.324,0,0,1,5.145.522" transform="translate(-5.181 -171.517)" fill="#9ccb48"/>
        <path id="Path_19043" data-name="Path 19043" d="M27.469,303.715a11.023,11.023,0,0,1-2.481-10.385,15.825,15.825,0,0,1,2.481,10.385" transform="translate(-13.573 -161.939)" fill="#9ccb48"/>
        <path id="Path_19044" data-name="Path 19044" d="M46.615,290.636c.479-1.114.816-2.283,1.246-3.416a9.827,9.827,0,0,1,1.776-3.149,4.679,4.679,0,0,1,3.146-1.63,12.672,12.672,0,0,1-6.106,8.214" transform="translate(-25.735 -155.927)" fill="#e0e0e0"/>
        <path id="Path_19045" data-name="Path 19045" d="M35.695,298.508a16.343,16.343,0,0,0-2.784-3.387,4.656,4.656,0,0,0-3.787-.994,8.821,8.821,0,0,0,6.571,4.381" transform="translate(-16.079 -162.326)" fill="#e0e0e0"/>
        <path id="Path_19046" data-name="Path 19046" d="M42.7,290.853a18.841,18.841,0,0,1-1.253-4.058,6.331,6.331,0,0,1,.636-4.126,9.363,9.363,0,0,1,.689,8.215" transform="translate(-22.831 -156.053)" fill="#e0e0e0"/>
        <path id="Path_19047" data-name="Path 19047" d="M46.643,275.783a8.851,8.851,0,0,1,5.765-5.419,2.145,2.145,0,0,1,1.011-.151.876.876,0,0,1,.745.622c.094.444-.273.843-.618,1.138a19.628,19.628,0,0,1-6.9,3.811" transform="translate(-25.75 -149.168)" fill="#e0e0e0"/>
        <path id="Path_19048" data-name="Path 19048" d="M46.656,267.074a18.716,18.716,0,0,1,.753-4.99,6.308,6.308,0,0,1,3.14-3.792,7.4,7.4,0,0,1-1.395,4.858,22.287,22.287,0,0,0-2.54,4.48" transform="translate(-25.735 -142.595)" fill="#e0e0e0"/>
        <path id="Path_19049" data-name="Path 19049" d="M40.576,269.2c-.653-1.9-.72-4.323-1.86-5.982-.8-1.16-2.074-1.95-2.761-3.178a4.834,4.834,0,0,0,.161,3.608,10.44,10.44,0,0,0,2.109,3.02c.844.9,1.566,1.579,2.351,2.532" transform="translate(-19.696 -143.559)" fill="#e0e0e0"/>
        <path id="Path_19050" data-name="Path 19050" d="M46.522,335.747c-.051,0-.095-12.7-.1-28.369s.034-28.372.085-28.372.095,12.7.1,28.372-.035,28.369-.086,28.369" transform="translate(-25.629 -154.031)" fill="#e0e0e0"/>
        <path id="Path_19051" data-name="Path 19051" d="M57.724,320.727a2.73,2.73,0,0,1-.477.179l-1.315.443c-1.108.378-2.631.925-4.283,1.6a17.39,17.39,0,0,0-4.058,2.033,2.985,2.985,0,0,0-.815,1.079c-.126.3-.149.481-.165.477a.36.36,0,0,1,.005-.133,2.015,2.015,0,0,1,.093-.37,2.862,2.862,0,0,1,.8-1.15,7.132,7.132,0,0,1,1.76-1.094c.7-.329,1.485-.672,2.314-1.012,1.657-.679,3.191-1.208,4.313-1.555.56-.175,1.017-.3,1.334-.389a2.713,2.713,0,0,1,.5-.111" transform="translate(-25.73 -177.063)" fill="#e0e0e0"/>
        <path id="Path_19052" data-name="Path 19052" d="M62.439,300.777a.8.8,0,0,1-.134.143l-.408.383-1.522,1.382-5.065,4.51c-1.977,1.76-3.686,3.441-4.87,4.707-.593.633-1.06,1.156-1.378,1.522l-.368.42a.765.765,0,0,1-.138.139.794.794,0,0,1,.109-.163c.077-.1.189-.254.342-.443.3-.38.756-.919,1.338-1.564a64.209,64.209,0,0,1,4.843-4.757c1.984-1.756,3.789-3.333,5.1-4.47l1.561-1.339.43-.357a.8.8,0,0,1,.159-.115" transform="translate(-26.807 -166.05)" fill="#e0e0e0"/>
        <path id="Path_19053" data-name="Path 19053" d="M58.866,313.68c-.052-.023.361-.977.773-2.183s.611-2.224.663-2.215a7.442,7.442,0,0,1-.49,2.274,14.827,14.827,0,0,1-.615,1.527,2.38,2.38,0,0,1-.331.6" transform="translate(-32.495 -170.745)" fill="#e0e0e0"/>
        <path id="Path_19054" data-name="Path 19054" d="M37.594,324.833a2.249,2.249,0,0,1-.3-.354l-.781-1c-.655-.847-1.562-2.017-2.578-3.3s-1.95-2.429-2.626-3.26l-.8-.987a2.258,2.258,0,0,1-.275-.377,2.261,2.261,0,0,1,.329.331c.2.22.491.545.843.95.7.81,1.653,1.947,2.671,3.229s1.908,2.465,2.538,3.333c.315.434.566.788.734,1.036a2.261,2.261,0,0,1,.247.4" transform="translate(-16.69 -174.21)" fill="#e0e0e0"/>
        <path id="Path_19055" data-name="Path 19055" d="M39.678,324.556a4.473,4.473,0,0,1-1.02-1.909,5.453,5.453,0,0,1-.231-1.924l.081.006c-.036.147-.063.225-.077.222s-.015-.084,0-.235l.081.007a8.823,8.823,0,0,0,.326,1.872,14.27,14.27,0,0,0,.844,1.961" transform="translate(-21.208 -177.058)" fill="#e0e0e0"/>
        <path id="Path_19056" data-name="Path 19056" d="M27.444,319.5a3.3,3.3,0,0,0-.712-.413,4.762,4.762,0,0,0-1.977-.157,12.2,12.2,0,0,0-1.991.321,6.069,6.069,0,0,1-.819.2,2.829,2.829,0,0,1,.784-.322,9.086,9.086,0,0,1,2.012-.379,4.316,4.316,0,0,1,2.039.22,1.261,1.261,0,0,1,.663.534" transform="translate(-12.116 -175.957)" fill="#e0e0e0"/>
        <path id="Path_19057" data-name="Path 19057" d="M23.035,316.886c-.014.029-.415-.166-1.091-.4a10.981,10.981,0,0,0-5.5-.419c-.7.126-1.129.258-1.138.227a1.03,1.03,0,0,1,.289-.123,6.752,6.752,0,0,1,.824-.231,9.7,9.7,0,0,1,5.566.424,6.823,6.823,0,0,1,.779.353,1.048,1.048,0,0,1,.267.166" transform="translate(-8.452 -174.299)" fill="#e0e0e0"/>
        <path id="Path_19058" data-name="Path 19058" d="M44.867,302.415a44.921,44.921,0,0,1-1.413-5.571,22.717,22.717,0,0,1,.8,2.763,22.506,22.506,0,0,1,.617,2.808" transform="translate(-23.987 -163.879)" fill="#e0e0e0"/>
        <path id="Path_19059" data-name="Path 19059" d="M44.041,305.589a13.3,13.3,0,0,0-.882-1.654,7.3,7.3,0,0,0-1.3-1.339,1.208,1.208,0,0,1,.5.258,4.034,4.034,0,0,1,.947.975,3.667,3.667,0,0,1,.731,1.76" transform="translate(-23.11 -167.053)" fill="#e0e0e0"/>
        <path id="Path_19060" data-name="Path 19060" d="M32.3,367.711c-.02,0-.057-.306-.2-.845a12.05,12.05,0,0,0-.849-2.2,30.469,30.469,0,0,0-4.5-6.345c-1.006-1.148-1.981-2.232-2.809-3.27a22.965,22.965,0,0,1-2.009-2.9A13.956,13.956,0,0,1,20.915,350c-.093-.265-.161-.472-.2-.615a1.059,1.059,0,0,1-.052-.219c.017-.005.109.291.318.809a15.775,15.775,0,0,0,1.059,2.11,24.317,24.317,0,0,0,2.029,2.856c.831,1.027,1.808,2.1,2.815,3.256a28.835,28.835,0,0,1,4.483,6.409,10.99,10.99,0,0,1,.8,2.239,6.321,6.321,0,0,1,.112.637,1.059,1.059,0,0,1,.018.225" transform="translate(-11.407 -192.767)" fill="#e0e0e0"/>
        <path id="Path_19061" data-name="Path 19061" d="M56.674,365.266a4.667,4.667,0,0,1-.526.3,11.524,11.524,0,0,0-1.363.9,15.69,15.69,0,0,0-1.791,1.634c-.628.664-1.276,1.435-1.937,2.261-1.321,1.658-2.557,3.125-3.3,4.3-.376.581-.649,1.071-.828,1.414a4.642,4.642,0,0,1-.289.529.5.5,0,0,1,.048-.149c.039-.094.092-.237.177-.412a13.321,13.321,0,0,1,.782-1.451,47.258,47.258,0,0,1,3.263-4.341c.662-.828,1.318-1.6,1.958-2.263a14.6,14.6,0,0,1,1.835-1.621,9.586,9.586,0,0,1,1.408-.86c.174-.088.317-.141.411-.182a.5.5,0,0,1,.148-.05" transform="translate(-25.749 -201.652)" fill="#e0e0e0"/>
        <path id="Path_19062" data-name="Path 19062" d="M60.932,373.456a7.614,7.614,0,0,1-1.111.161,14.67,14.67,0,0,0-2.635.519,7.921,7.921,0,0,0-2.36,1.238c-.544.42-.8.768-.826.748a.845.845,0,0,1,.164-.256,4.162,4.162,0,0,1,.579-.593,7.153,7.153,0,0,1,2.385-1.312,11.916,11.916,0,0,1,2.679-.473,6.151,6.151,0,0,1,1.124-.032" transform="translate(-29.811 -206.167)" fill="#e0e0e0"/>
        <path id="Path_19063" data-name="Path 19063" d="M54.719,373.884c-.058-.033.443-.8.831-1.827.365-1.038.45-1.948.515-1.938a1.761,1.761,0,0,1-.018.6,6.4,6.4,0,0,1-.324,1.4,6.773,6.773,0,0,1-.645,1.289,1.788,1.788,0,0,1-.359.475" transform="translate(-30.206 -204.332)" fill="#e0e0e0"/>
        <path id="Path_19064" data-name="Path 19064" d="M59.926,343.236a.831.831,0,0,1-.178.095l-.522.237c-.228.1-.506.223-.819.387s-.68.329-1.062.558l-.606.345c-.21.121-.418.264-.64.4-.447.271-.895.605-1.372.946a23.567,23.567,0,0,0-5.286,5.469c-.324.49-.643.948-.9,1.4-.131.226-.267.439-.381.653l-.324.618c-.215.389-.37.761-.521,1.08s-.269.6-.359.832l-.219.53a.815.815,0,0,1-.088.181.824.824,0,0,1,.054-.193l.187-.543c.08-.237.186-.523.332-.847s.29-.7.5-1.1l.315-.627c.111-.217.245-.433.374-.663.252-.462.568-.928.89-1.423a22.686,22.686,0,0,1,5.325-5.51c.484-.34.938-.671,1.391-.938.225-.137.436-.278.649-.4l.615-.336c.388-.223.76-.383,1.08-.537s.6-.272.835-.361l.537-.206a.821.821,0,0,1,.191-.06" transform="translate(-25.754 -189.49)" fill="#e0e0e0"/>
        <path id="Path_19065" data-name="Path 19065" d="M58.565,353.477a1.276,1.276,0,0,1,.437-.65,2.755,2.755,0,0,1,1.759-.675,4.821,4.821,0,0,1,1.851.361,2.66,2.66,0,0,1,.7.34,4.271,4.271,0,0,1-.743-.217,5.577,5.577,0,0,0-1.8-.3,2.866,2.866,0,0,0-1.68.589,5.219,5.219,0,0,0-.521.552" transform="translate(-32.331 -194.412)" fill="#e0e0e0"/>
        <path id="Path_19066" data-name="Path 19066" d="M55.913,353.752a4.694,4.694,0,0,0,.387-3.321,1.073,1.073,0,0,1,.206.473,3.36,3.36,0,0,1-.284,2.435c-.155.281-.292.426-.31.413" transform="translate(-30.866 -193.462)" fill="#e0e0e0"/>
        <path id="Path_19067" data-name="Path 19067" d="M27.057,394.625a42.046,42.046,0,0,0,3.987,14.783h9.785a42.51,42.51,0,0,0,3.75-14.783Z" transform="translate(-14.937 -217.861)" fill="#b56f40"/>
        <path id="Path_19068" data-name="Path 19068" d="M44.9,412.049c0,.051-3.222.092-7.195.092s-7.2-.041-7.2-.092,3.221-.091,7.2-.091,7.195.041,7.195.091" transform="translate(-16.841 -227.43)" fill="#fafafa"/>
        <path id="Path_19069" data-name="Path 19069" d="M45.517,415.976c0,.051-3.02.092-6.745.092s-6.746-.041-6.746-.092,3.02-.092,6.746-.092,6.745.041,6.745.092" transform="translate(-17.681 -229.597)" fill="#fafafa"/>
        <path id="Path_19070" data-name="Path 19070" d="M36.2,401.741a27.7,27.7,0,0,1,0,4.507,27.7,27.7,0,0,1,0-4.507" transform="translate(-19.932 -221.789)" fill="#fafafa"/>
        <path id="Path_19071" data-name="Path 19071" d="M47.9,401.741a29.712,29.712,0,0,1,0,4.668,29.712,29.712,0,0,1,0-4.668" transform="translate(-26.394 -221.789)" fill="#fafafa"/>
        <path id="Path_19072" data-name="Path 19072" d="M58.888,401.653a30.9,30.9,0,0,1,0,4.761,30.9,30.9,0,0,1,0-4.761" transform="translate(-32.46 -221.741)" fill="#fafafa"/>
        <path id="Path_19073" data-name="Path 19073" d="M44.676,401.628c0,.051-3.779.092-8.439.092s-8.44-.041-8.44-.092,3.778-.092,8.44-.092,8.439.041,8.439.092" transform="translate(-15.346 -221.676)" fill="#fafafa"/>
        <path id="Path_19074" data-name="Path 19074" d="M411.7,333.088c-.024,0-.048-.338-.166-.939a11.745,11.745,0,0,0-.751-2.471,9.412,9.412,0,0,0-2.137-3.135,5.963,5.963,0,0,0-8.385-.028,9.378,9.378,0,0,0-2.151,3.126,11.747,11.747,0,0,0-.76,2.468c-.119.6-.145.941-.169.939a1,1,0,0,1,0-.248,7.028,7.028,0,0,1,.076-.706,10.715,10.715,0,0,1,.7-2.517,9.323,9.323,0,0,1,2.156-3.217,6.131,6.131,0,0,1,8.676.028,9.364,9.364,0,0,1,2.142,3.226,10.715,10.715,0,0,1,.689,2.52,7,7,0,0,1,.074.706.988.988,0,0,1,0,.248" transform="translate(-219.27 -179.188)" fill="#e0e0e0"/>
        <path id="Path_19075" data-name="Path 19075" d="M417.3,333.088c-.024,0-.048-.338-.166-.939a11.745,11.745,0,0,0-.751-2.471,9.412,9.412,0,0,0-2.137-3.135,5.963,5.963,0,0,0-8.385-.028,9.378,9.378,0,0,0-2.151,3.126,11.749,11.749,0,0,0-.76,2.468c-.119.6-.145.941-.169.939a1,1,0,0,1,0-.248,7.028,7.028,0,0,1,.076-.706,10.714,10.714,0,0,1,.7-2.517,9.315,9.315,0,0,1,2.156-3.217,6.131,6.131,0,0,1,8.676.028,9.364,9.364,0,0,1,2.142,3.226,10.716,10.716,0,0,1,.689,2.52,7,7,0,0,1,.074.706.988.988,0,0,1,0,.248" transform="translate(-222.36 -179.188)" fill="#e0e0e0"/>
        <path id="Path_19076" data-name="Path 19076" d="M377.672,341.315l28.311-.216.618,38.592h-31.77Z" transform="translate(-206.933 -188.311)" fill="#ebebeb"/>
        <path id="Path_19077" data-name="Path 19077" d="M444.379,341.1h3.554l3.06,38.592h-6Z" transform="translate(-245.328 -188.311)" fill="#e0e0e0"/>
        <rect id="Rectangle_3858" data-name="Rectangle 3858" width="18.535" height="3.105" transform="translate(174.515 167.982)" fill="#fff"/>
        <rect id="Rectangle_3859" data-name="Rectangle 3859" width="32.305" height="53.473" transform="translate(2.815 6.018)" fill="#e0e0e0"/>
        <rect id="Rectangle_3860" data-name="Rectangle 3860" width="32.305" height="53.473" transform="translate(1.741 6.018)" fill="#ebebeb"/>
        <rect id="Rectangle_3861" data-name="Rectangle 3861" width="29.553" height="51.305" transform="translate(3.117 7.102)" fill="#fff"/>
        <rect id="Rectangle_3862" data-name="Rectangle 3862" width="18.173" height="37.971" transform="translate(8.743 13.768)" fill="#ebebeb"/>
        <path id="Path_19078" data-name="Path 19078" d="M19.517,68.247c-.042-3.547,3.147-7.01,6.66-7.505,1.675-.236,3.454.1,5.019-.546,2.793-1.145,3.682-4.857,6.494-5.957l.128,27.445h-18.3Z" transform="translate(-10.775 -29.944)" fill="#e0e0e0"/>
        <rect id="Rectangle_3863" data-name="Rectangle 3863" width="26.869" height="28.008" transform="translate(175.847 38.372)" fill="#e0e0e0"/>
        <rect id="Rectangle_3864" data-name="Rectangle 3864" width="26.868" height="28.008" transform="translate(174.028 38.372)" fill="#f5f5f5"/>
        <path id="Path_19079" data-name="Path 19079" d="M415.382,113.672H388.5V85.647h26.885Zm-26.869-.017h26.852V85.664H388.514Z" transform="translate(-214.478 -47.283)" fill="#e0e0e0"/>
        <rect id="Rectangle_3865" data-name="Rectangle 3865" width="19.645" height="20.478" transform="translate(177.639 42.137)" fill="#fff"/>
        <path id="Path_19080" data-name="Path 19080" d="M392.16,140.09a3.205,3.205,0,0,1-.485.564c-.314.331-.755.779-1.249,1.266s-.948.921-1.283,1.229a3.135,3.135,0,0,1-.568.473,3.145,3.145,0,0,1,.482-.561c.314-.331.756-.78,1.251-1.269s.951-.923,1.286-1.23a3.056,3.056,0,0,1,.565-.471" transform="translate(-214.52 -77.339)" fill="#e0e0e0"/>
        <path id="Path_19081" data-name="Path 19081" d="M440.434,139.978a3.255,3.255,0,0,1,.563.485c.331.314.779.755,1.266,1.249s.92.948,1.228,1.283a3.119,3.119,0,0,1,.473.568,3.142,3.142,0,0,1-.561-.482c-.331-.314-.78-.756-1.269-1.252s-.923-.951-1.23-1.286a3.067,3.067,0,0,1-.471-.566" transform="translate(-243.15 -77.277)" fill="#e0e0e0"/>
        <path id="Path_19082" data-name="Path 19082" d="M440.315,89.84a3.2,3.2,0,0,1,.485-.564c.314-.331.755-.779,1.249-1.266s.949-.921,1.283-1.229a3.138,3.138,0,0,1,.568-.473,3.144,3.144,0,0,1-.482.561c-.314.331-.756.78-1.252,1.269s-.951.923-1.286,1.23a3.058,3.058,0,0,1-.565.471" transform="translate(-243.085 -47.648)" fill="#e0e0e0"/>
        <path id="Path_19083" data-name="Path 19083" d="M392.106,89.885a3.2,3.2,0,0,1-.563-.485c-.331-.314-.779-.755-1.266-1.249s-.921-.949-1.229-1.283a3.137,3.137,0,0,1-.473-.568,3.118,3.118,0,0,1,.561.482c.331.314.78.756,1.269,1.252s.923.951,1.231,1.286a3.064,3.064,0,0,1,.47.565" transform="translate(-214.52 -47.643)" fill="#e0e0e0"/>
        <path id="Path_19084" data-name="Path 19084" d="M416.063,114.442s0-.035,0-.1,0-.164,0-.286c0-.257,0-.626-.009-1.105,0-.97-.011-2.382-.02-4.173-.009-3.587-.023-8.7-.039-14.814l.076.076-19.589.012h0l.087-.087c0,7.516-.009,14.548-.013,20.478l-.075-.075,14.185.039,3.984.019,1.054.009.272,0a.91.91,0,0,1,.095,0,.685.685,0,0,1-.086,0l-.264,0-1.04.008-3.967.02-14.233.038H396.4v-.075c0-5.93-.008-12.962-.013-20.478v-.087h.089l19.589.011h.076v.076c-.016,6.138-.029,11.264-.039,14.862-.009,1.785-.015,3.19-.02,4.156,0,.473-.007.838-.009,1.091,0,.119,0,.21,0,.278a.757.757,0,0,1,0,.091" transform="translate(-218.833 -51.827)" fill="#e0e0e0"/>
        <rect id="Rectangle_3866" data-name="Rectangle 3866" width="6.555" height="6.555" transform="translate(184.184 49.098)" fill="#ebebeb"/>
      </g>
    </g>
    <g id="Group_22697" data-name="Group 22697">
      <g id="Group_22696" data-name="Group 22696" clip-path="url(#clip-path)">
        <path id="Path_19085" data-name="Path 19085" d="M387.07,203.783H366.476a6.267,6.267,0,0,1-6.267-6.267V176.922a6.267,6.267,0,0,1,6.267-6.267H387.07a6.267,6.267,0,0,1,6.267,6.267v20.594a6.267,6.267,0,0,1-6.267,6.267" transform="translate(-198.861 -94.214)" fill="#9ccb48"/>
        <path id="Path_19086" data-name="Path 19086" d="M391.131,200.158h-2a.221.221,0,1,1,0-.443H390.9l-.259-7.673a.222.222,0,0,1,.172-.224.219.219,0,0,1,.252.127l.865,1.969,2.748-1.374c-1.012-2.047-2.153-4.25-2.348-4.447a2.932,2.932,0,0,0-.727-.438,3.944,3.944,0,0,0-.48-.209c-.742-.274-1.794-.551-2.215-.658a2.615,2.615,0,0,1-4.54,0c-.42.106-1.466.381-2.181.645l-.008,0a4.222,4.222,0,0,0-.495.213,2.979,2.979,0,0,0-.737.444c-.2.2-1.336,2.4-2.348,4.447l2.749,1.374.865-1.969a.221.221,0,0,1,.424.095l-.212,7.674h4.034a.221.221,0,0,1,0,.443H382.2a.222.222,0,0,1-.159-.067.224.224,0,0,1-.063-.16l.187-6.769-.5,1.145a.221.221,0,0,1-.128.119.217.217,0,0,1-.174-.01l-3.154-1.578a.221.221,0,0,1-.1-.3c.363-.736,2.189-4.422,2.53-4.762a3.207,3.207,0,0,1,.85-.526,4.149,4.149,0,0,1,.515-.223c.968-.358,2.389-.7,2.449-.719a.221.221,0,0,1,.265.153,2.147,2.147,0,0,0,3.852,0,.219.219,0,0,1,.265-.153c.06.015,1.482.361,2.414.705h0l.025.008a4.335,4.335,0,0,1,.537.233,3.154,3.154,0,0,1,.839.52c.34.34,2.167,4.026,2.53,4.762a.221.221,0,0,1-.1.3l-3.154,1.578a.217.217,0,0,1-.174.01.221.221,0,0,1-.128-.119l-.5-1.128.228,6.751a.222.222,0,0,1-.063.161.219.219,0,0,1-.159.068" transform="translate(-208.728 -102.854)" fill="#fff"/>
        <path id="Path_19087" data-name="Path 19087" d="M399.145,216.685h-.628a.221.221,0,0,1,0-.443h.628a.221.221,0,1,1,0,.443" transform="translate(-219.888 -119.381)" fill="#fff"/>
        <path id="Path_19088" data-name="Path 19088" d="M375.1,223.027h-1.148v-.677h3.127v.677h-1.148v2.911h-.83Z" transform="translate(-206.451 -122.753)" fill="#fff"/>
        <rect id="Rectangle_3868" data-name="Rectangle 3868" width="1.45" height="0.641" transform="translate(170.734 101.422)" fill="#fff"/>
        <path id="Path_19089" data-name="Path 19089" d="M385.143,225.509l.282-.625a2.11,2.11,0,0,0,1.184.374c.492,0,.692-.164.692-.384,0-.671-2.086-.21-2.086-1.543,0-.61.492-1.117,1.512-1.117a2.4,2.4,0,0,1,1.245.318l-.256.63a2.028,2.028,0,0,0-.994-.282c-.491,0-.681.185-.681.41,0,.661,2.086.205,2.086,1.523,0,.6-.5,1.112-1.523,1.112a2.556,2.556,0,0,1-1.46-.415" transform="translate(-212.626 -122.678)" fill="#fff"/>
        <path id="Path_19090" data-name="Path 19090" d="M396.357,222.35v3.587h-.83v-1.471H393.9v1.471h-.83V222.35h.83v1.415h1.63V222.35Z" transform="translate(-217.001 -122.753)" fill="#fff"/>
        <rect id="Rectangle_3869" data-name="Rectangle 3869" width="0.83" height="3.587" transform="translate(180.205 99.597)" fill="#fff"/>
        <path id="Path_19091" data-name="Path 19091" d="M408.344,225.938l-.692-1h-.763v1h-.83V222.35h1.553c.958,0,1.558.5,1.558,1.3a1.167,1.167,0,0,1-.738,1.132l.8,1.153Zm-.779-2.911h-.676v1.251h.676c.508,0,.764-.236.764-.625s-.256-.625-.764-.625" transform="translate(-224.173 -122.753)" fill="#fff"/>
        <path id="Path_19092" data-name="Path 19092" d="M414.594,223.027h-1.148v-.677h3.127v.677h-1.148v2.911h-.83Z" transform="translate(-228.251 -122.753)" fill="#fff"/>
      </g>
    </g>
    <g id="Group_22699" data-name="Group 22699">
      <g id="Group_22698" data-name="Group 22698" clip-path="url(#clip-path)">
        <path id="Path_19093" data-name="Path 19093" d="M383.112,364.371a12.706,12.706,0,0,0-.78-2.852,7.9,7.9,0,0,0-1.79-2.619,4.981,4.981,0,0,0-7-.023,7.855,7.855,0,0,0-1.8,2.611,12.664,12.664,0,0,0-.79,2.848.712.712,0,0,1,0-.208,5.546,5.546,0,0,1,.06-.592,8.889,8.889,0,0,1,.58-2.112,7.8,7.8,0,0,1,1.806-2.7,5.149,5.149,0,0,1,7.291.024,7.837,7.837,0,0,1,1.794,2.71,8.918,8.918,0,0,1,.572,2.115,5.546,5.546,0,0,1,.058.593.7.7,0,0,1,0,.208" transform="translate(-204.788 -197.211)" fill="#263238"/>
        <path id="Path_19094" data-name="Path 19094" d="M387.8,364.371a12.708,12.708,0,0,0-.78-2.852,7.9,7.9,0,0,0-1.79-2.619,4.981,4.981,0,0,0-7-.023,7.855,7.855,0,0,0-1.8,2.611,12.667,12.667,0,0,0-.79,2.848.693.693,0,0,1,0-.208,5.562,5.562,0,0,1,.06-.592,8.888,8.888,0,0,1,.58-2.112,7.8,7.8,0,0,1,1.806-2.7,5.149,5.149,0,0,1,7.291.024,7.837,7.837,0,0,1,1.794,2.71,8.918,8.918,0,0,1,.572,2.115,5.556,5.556,0,0,1,.058.593.7.7,0,0,1,0,.208" transform="translate(-207.376 -197.211)" fill="#263238"/>
        <path id="Path_19095" data-name="Path 19095" d="M352.265,370.244l23.715-.144.517,25.743H349.885Z" transform="translate(-193.162 -204.321)" fill="#31aae0"/>
        <path id="Path_19096" data-name="Path 19096" d="M408.142,370.1h2.977l2.563,25.743h-5.023Z" transform="translate(-225.323 -204.321)" fill="#18739b"/>
        <rect id="Rectangle_3871" data-name="Rectangle 3871" width="15.526" height="2.601" transform="translate(163.249 174.523)" fill="#fff"/>
      </g>
    </g>
    <g id="Group_22710" data-name="Group 22710">
      <g id="Group_22709" data-name="Group 22709" clip-path="url(#clip-path)">
        <path id="Path_19097" data-name="Path 19097" d="M214.421,181.444H103.26a5.543,5.543,0,0,1-5.447-5.635V5.893A5.543,5.543,0,0,1,103.26.258H214.421a5.544,5.544,0,0,1,5.448,5.635V175.809a5.544,5.544,0,0,1-5.448,5.635" transform="translate(-54 -0.142)" fill="#e0e0e0"/>
        <path id="Path_19098" data-name="Path 19098" d="M214.279,181.3s.13-.011.387-.026a3.239,3.239,0,0,0,.477-.06,4.673,4.673,0,0,0,.651-.151,5.434,5.434,0,0,0,1.675-.859,5.549,5.549,0,0,0,1.643-2,5.7,5.7,0,0,0,.49-1.488,9.233,9.233,0,0,0,.1-1.743q0-1.84-.006-4.022c0-2.908-.006-6.262-.01-10.037-.009-15.106-.021-36.962-.037-63.968,0-13.5-.009-28.295-.014-44.174q0-11.909-.006-24.609,0-6.343,0-12.869,0-3.262,0-6.568c-.008-1.1.016-2.214-.017-3.31a5.339,5.339,0,0,0-.326-1.6,5.294,5.294,0,0,0-.772-1.439,5.391,5.391,0,0,0-2.622-1.9,5.774,5.774,0,0,0-1.627-.254h-8.509l-13.867,0-28.6,0-60.147,0a5.292,5.292,0,0,0-3.455,1.307,5.568,5.568,0,0,0-1.8,3.227,10.4,10.4,0,0,0-.09,1.894V12.4q0,7.633,0,15.161,0,15.054,0,29.641c0,19.433,0,38.178-.007,56.034s-.007,34.825-.011,50.7q0,5.955,0,11.7a5.851,5.851,0,0,0,.667,2.705,5.5,5.5,0,0,0,1.866,2.028,5.4,5.4,0,0,0,1.244.594,5.288,5.288,0,0,0,1.351.233c.922.025,1.854.008,2.774.013l21.2.008,63.965.037,17.391.022,4.522.012c1.019,0,1.541.012,1.541.012s-.522.008-1.541.012l-4.522.012-17.391.021-63.965.037-21.2.008c-.923-.005-1.844.013-2.781-.011a5.48,5.48,0,0,1-1.4-.241,5.581,5.581,0,0,1-1.287-.613,5.691,5.691,0,0,1-1.93-2.094,6.04,6.04,0,0,1-.69-2.792q0-5.746,0-11.7c0-15.88-.007-32.848-.011-50.7s0-36.6-.007-56.034q0-14.575,0-29.641,0-7.527,0-15.161V6.658a10.657,10.657,0,0,1,.093-1.934,5.8,5.8,0,0,1,1.877-3.36A5.522,5.522,0,0,1,103.132,0l60.147,0,28.6,0,13.867,0h8.509a5.975,5.975,0,0,1,1.693.266,5.605,5.605,0,0,1,2.727,1.979,5.514,5.514,0,0,1,.8,1.494,5.537,5.537,0,0,1,.337,1.656c.034,1.12.009,2.217.017,3.322q0,3.305,0,6.568,0,6.524,0,12.869,0,12.687-.006,24.609c0,15.879-.009,30.67-.014,44.174-.015,27.006-.028,48.862-.037,63.968,0,3.776-.008,7.13-.01,10.037q0,2.18-.006,4.022a9.206,9.206,0,0,1-.1,1.753,5.737,5.737,0,0,1-.5,1.5,5.574,5.574,0,0,1-1.664,2.009,5.442,5.442,0,0,1-1.689.853,4.628,4.628,0,0,1-.655.146,3.218,3.218,0,0,1-.479.055c-.258.012-.388.014-.388.014" transform="translate(-53.857)" fill="#263238"/>
        <path id="Path_19099" data-name="Path 19099" d="M226.05,380.089a5.177,5.177,0,1,1-5.177-5.083,5.13,5.13,0,0,1,5.177,5.083" transform="translate(-119.08 -207.03)" fill="#fff"/>
        <path id="Path_19100" data-name="Path 19100" d="M229.111,17.2H204.183a1.8,1.8,0,0,1,0-3.6h24.928a1.8,1.8,0,0,1,0,3.6" transform="translate(-111.764 -7.51)"/>
        <rect id="Rectangle_3873" data-name="Rectangle 3873" width="114.359" height="151.312" transform="translate(47.557 13.042)" fill="#fff"/>
        <path id="Path_19101" data-name="Path 19101" d="M220.386,180.286c0-.917-.043-61.631-.1-151.312l.1.1-114.346.012h-.013l.115-.116c-.008,56.32-.015,108.541-.021,151.312l-.095-.095,114.359.095-114.359.095h-.095v-.095c-.006-42.771-.013-94.992-.021-151.312v-.116h.128l114.346.012h.1v.1c-.061,89.681-.1,150.4-.1,151.312" transform="translate(-58.471 -15.932)" fill="#263238"/>
        <path id="Path_19102" data-name="Path 19102" d="M98.461,72.819H96.8A10.223,10.223,0,0,1,86.573,62.6V47.808h22.11V62.6A10.223,10.223,0,0,1,98.461,72.819" transform="translate(-47.794 -26.393)" fill="#9ccb48"/>
        <path id="Path_19103" data-name="Path 19103" d="M147.43,72.819h-1.665A10.223,10.223,0,0,1,135.542,62.6V47.808h22.11V62.6A10.223,10.223,0,0,1,147.43,72.819" transform="translate(-74.829 -26.393)" fill="#9ccb48"/>
        <path id="Path_19104" data-name="Path 19104" d="M196.4,72.819h-1.665A10.223,10.223,0,0,1,184.511,62.6V47.808h22.11V62.6A10.223,10.223,0,0,1,196.4,72.819" transform="translate(-101.863 -26.393)" fill="#9ccb48"/>
        <path id="Path_19105" data-name="Path 19105" d="M245.368,72.819H243.7A10.223,10.223,0,0,1,233.48,62.6V47.812a0,0,0,0,1,0,0h22.1a0,0,0,0,1,0,0V62.6a10.223,10.223,0,0,1-10.223,10.223" transform="translate(-128.898 -26.393)" fill="#9ccb48"/>
        <path id="Path_19106" data-name="Path 19106" d="M294.337,72.819h-1.664A10.223,10.223,0,0,1,282.449,62.6V47.808H304.56V62.6a10.223,10.223,0,0,1-10.223,10.223" transform="translate(-155.932 -26.393)" fill="#9ccb48"/>
        <path id="Path_19107" data-name="Path 19107" d="M343.306,72.819h-1.665A10.223,10.223,0,0,1,331.418,62.6V47.808h22.11V62.6a10.223,10.223,0,0,1-10.223,10.223" transform="translate(-182.966 -26.393)" fill="#9ccb48"/>
        <g id="Group_22702" data-name="Group 22702" transform="translate(60.713 6.415)" opacity="0.3">
          <g id="Group_22701" data-name="Group 22701">
            <g id="Group_22700" data-name="Group 22700" transform="translate(0.474 15.23)" clip-path="url(#clip-path-6)">
              <path id="Path_19108" data-name="Path 19108" d="M147.43,72.819h-1.665A10.223,10.223,0,0,1,135.542,62.6V47.808h22.11V62.6A10.223,10.223,0,0,1,147.43,72.819" transform="translate(-135.542 -47.808)" fill="#fff"/>
            </g>
          </g>
        </g>
        <g id="Group_22705" data-name="Group 22705" transform="translate(104.582 6.415)" opacity="0.3">
          <g id="Group_22704" data-name="Group 22704">
            <g id="Group_22703" data-name="Group 22703" transform="translate(0.474 15.23)" clip-path="url(#clip-path-6)">
              <path id="Path_19109" data-name="Path 19109" d="M245.368,72.819H243.7A10.223,10.223,0,0,1,233.48,62.6V47.812a0,0,0,0,1,0,0h22.1a0,0,0,0,1,0,0V62.6a10.223,10.223,0,0,1-10.223,10.223" transform="translate(-233.48 -47.808)" fill="#fff"/>
            </g>
          </g>
        </g>
        <g id="Group_22708" data-name="Group 22708" transform="translate(148.925 20.644)" opacity="0.3">
          <g id="Group_22707" data-name="Group 22707" transform="translate(0 1)">
            <g id="Group_22706" data-name="Group 22706" clip-path="url(#clip-path-6)">
              <path id="Path_19110" data-name="Path 19110" d="M343.306,72.819h-1.665A10.223,10.223,0,0,1,331.418,62.6V47.808h22.11V62.6a10.223,10.223,0,0,1-10.223,10.223" transform="translate(-331.418 -47.808)" fill="#fff"/>
            </g>
          </g>
        </g>
        <path id="Path_19111" data-name="Path 19111" d="M135.792,47.192c.064,0,.116,3.879.116,8.662s-.052,8.663-.116,8.663-.116-3.878-.116-8.663.052-8.662.116-8.662" transform="translate(-74.903 -26.053)" fill="#fff"/>
        <path id="Path_19112" data-name="Path 19112" d="M184.761,47.192c.064,0,.116,3.879.116,8.662s-.052,8.663-.116,8.663-.116-3.878-.116-8.663.052-8.662.116-8.662" transform="translate(-101.937 -26.053)" fill="#fff"/>
        <path id="Path_19113" data-name="Path 19113" d="M233.73,47.192c.064,0,.116,3.879.116,8.662s-.052,8.663-.116,8.663-.116-3.878-.116-8.663.052-8.662.116-8.662" transform="translate(-128.971 -26.053)" fill="#fff"/>
        <path id="Path_19114" data-name="Path 19114" d="M282.7,47.192c.064,0,.116,3.879.116,8.662s-.052,8.663-.116,8.663-.116-3.878-.116-8.663.052-8.662.116-8.662" transform="translate(-156.006 -26.053)" fill="#fff"/>
        <path id="Path_19115" data-name="Path 19115" d="M331.668,47.192c.064,0,.116,3.879.116,8.662s-.052,8.663-.116,8.663-.116-3.878-.116-8.663.052-8.662.116-8.662" transform="translate(-183.04 -26.053)" fill="#fff"/>
        <path id="Path_19116" data-name="Path 19116" d="M218.356,37.532l-8.565-8.416H95.389l-8.817,8.416Z" transform="translate(-47.794 -16.074)" fill="#9ccb48"/>
        <path id="Path_19117" data-name="Path 19117" d="M215.221,47.552c0,.064-28.8.142-64.321.175s-64.327.008-64.327-.056,28.795-.142,64.327-.175,64.321-.008,64.321.056" transform="translate(-47.794 -26.213)" fill="#fff"/>
        <path id="Path_19118" data-name="Path 19118" d="M146.963,219.612h-14.32a1.517,1.517,0,0,1-1.517-1.517v-.516a1.517,1.517,0,0,1,1.517-1.517h14.32a1.517,1.517,0,0,1,1.517,1.517v.516a1.517,1.517,0,0,1-1.517,1.517" transform="translate(-72.391 -119.282)" fill="#e0e0e0"/>
        <path id="Path_19119" data-name="Path 19119" d="M205.045,218.81h-5.368a1.517,1.517,0,0,1-1.517-1.517v-.247a1.517,1.517,0,0,1,1.517-1.517h5.368a1.517,1.517,0,0,1,1.517,1.517v.247a1.517,1.517,0,0,1-1.517,1.517" transform="translate(-109.399 -118.987)" fill="#31aae0"/>
        <path id="Path_19120" data-name="Path 19120" d="M146.963,349.856h-14.32a1.517,1.517,0,0,1-1.517-1.517v-.516a1.517,1.517,0,0,1,1.517-1.517h14.32a1.517,1.517,0,0,1,1.517,1.517v.516a1.517,1.517,0,0,1-1.517,1.517" transform="translate(-72.391 -191.185)" fill="#e0e0e0"/>
        <path id="Path_19121" data-name="Path 19121" d="M201,349.856h-6.056a1.517,1.517,0,0,1-1.517-1.517v-.516a1.517,1.517,0,0,1,1.517-1.517H201a1.517,1.517,0,0,1,1.517,1.517v.516A1.517,1.517,0,0,1,201,349.856" transform="translate(-106.787 -191.185)" fill="#31aae0"/>
        <path id="Path_19122" data-name="Path 19122" d="M274.465,220.756h-14.32a1.517,1.517,0,0,1-1.517-1.517v-.516a1.517,1.517,0,0,1,1.517-1.517h14.32a1.517,1.517,0,0,1,1.517,1.517v.516a1.517,1.517,0,0,1-1.517,1.517" transform="translate(-142.781 -119.913)" fill="#e0e0e0"/>
        <path id="Path_19123" data-name="Path 19123" d="M328.63,220.756h-6.055a1.517,1.517,0,0,1-1.517-1.517v-.516a1.517,1.517,0,0,1,1.517-1.517h6.055a1.517,1.517,0,0,1,1.517,1.517v.516a1.517,1.517,0,0,1-1.517,1.517" transform="translate(-177.247 -119.913)" fill="#31aae0"/>
        <path id="Path_19124" data-name="Path 19124" d="M274.9,351h-14.32a1.517,1.517,0,0,1-1.517-1.517v-.516a1.517,1.517,0,0,1,1.517-1.517H274.9a1.517,1.517,0,0,1,1.517,1.517v.516A1.517,1.517,0,0,1,274.9,351" transform="translate(-143.023 -191.817)" fill="#e0e0e0"/>
        <path id="Path_19125" data-name="Path 19125" d="M329.069,351h-6.055a1.517,1.517,0,0,1-1.517-1.517v-.516a1.517,1.517,0,0,1,1.517-1.517h6.055a1.517,1.517,0,0,1,1.517,1.517v.516A1.517,1.517,0,0,1,329.069,351" transform="translate(-177.489 -191.817)" fill="#31aae0"/>
        <path id="Path_19126" data-name="Path 19126" d="M159.909,154.295H129.535a5.217,5.217,0,0,1-5.217-5.217V118.7a5.217,5.217,0,0,1,5.217-5.217h30.374a5.217,5.217,0,0,1,5.217,5.217v30.374a5.217,5.217,0,0,1-5.217,5.217" transform="translate(-68.632 -62.653)" fill="#fafafa"/>
        <path id="Path_19127" data-name="Path 19127" d="M159.766,154.153s.135-.014.4-.031a5.763,5.763,0,0,0,1.141-.223,5.413,5.413,0,0,0,1.657-.887,5.22,5.22,0,0,0,1.551-2.021,5.475,5.475,0,0,0,.387-1.475c.048-.532.028-1.1.03-1.7q0-1.782-.009-3.864c-.005-2.773-.011-5.93-.017-9.419s-.009-7.312-.014-11.415q0-1.539,0-3.129a8.79,8.79,0,0,0-.309-3.159,5.141,5.141,0,0,0-1.974-2.524,5.31,5.31,0,0,0-3.185-.857l-30.02.009a5.1,5.1,0,0,0-5.091,4.8c-.031,2.579-.009,5.145-.017,7.652,0,5.022,0,9.866-.007,14.48q0,3.461,0,6.743,0,.819,0,1.627a5.414,5.414,0,0,0,.194,1.558,5.15,5.15,0,0,0,1.639,2.542,5.566,5.566,0,0,0,1.271.783,5.433,5.433,0,0,0,1.417.376c.481.049.973.038,1.459.039l1.443,0,5.478.008,16.529.037,4.494.021,1.169.012c.263,0,.4.011.4.011s-.135.008-.4.012l-1.169.012-4.494.021-16.529.037-5.478.008-1.443,0c-.485,0-.976.013-1.48-.037a5.638,5.638,0,0,1-1.471-.387,5.775,5.775,0,0,1-1.319-.81,5.34,5.34,0,0,1-1.707-2.635,5.636,5.636,0,0,1-.2-1.611q0-.808,0-1.627,0-3.279,0-6.743c0-4.615,0-9.458-.007-14.48.006-2.514-.017-5.06.014-7.666a5.332,5.332,0,0,1,5.32-5.018l30.02.009a5.519,5.519,0,0,1,3.3.9,5.342,5.342,0,0,1,2.049,2.628,5.086,5.086,0,0,1,.308,1.622c.017.545,0,1.075.007,1.606q0,1.59,0,3.129c0,4.1-.01,7.925-.014,11.415s-.012,6.645-.017,9.419q-.005,2.079-.009,3.864c-.006.594.012,1.161-.04,1.708a5.544,5.544,0,0,1-.4,1.5A5.269,5.269,0,0,1,163,153.065a5.035,5.035,0,0,1-2.839,1.08c-.264.01-.4.008-.4.008" transform="translate(-68.49 -62.511)" fill="#ff725e"/>
        <path id="Path_19128" data-name="Path 19128" d="M166.083,141.743s-4.212-8.54-4.859-9.187a6.218,6.218,0,0,0-1.54-.942,8.077,8.077,0,0,0-.971-.421l-.069-.027h0c-1.818-.671-4.667-1.363-4.667-1.363s-.727,2.474-4.178,2.651c-3.451-.177-4.177-2.651-4.177-2.651s-2.85.692-4.667,1.363h0l-.069.027a8.046,8.046,0,0,0-.971.421,6.213,6.213,0,0,0-1.541.942c-.647.648-4.859,9.187-4.859,9.187l6.161,3.08,1.872-4.262-.426,15.433h17.449l-.521-15.433,1.872,4.262Z" transform="translate(-73.71 -71.66)" fill="#9ccb48"/>
        <path id="Path_19129" data-name="Path 19129" d="M148.746,149.244a9.134,9.134,0,0,1-.047-1.409c0-.877.009-2.1.035-3.472l.008.045-.244-.61c-.567-1.421-1.067-2.712-1.419-3.651-.176-.469-.314-.85-.405-1.116a1.609,1.609,0,0,1-.12-.421,1.581,1.581,0,0,1,.2.387c.116.255.278.627.473,1.089.391.923.915,2.2,1.481,3.625l.242.611.009.022v.023c-.032,1.376-.072,2.6-.111,3.471a9.159,9.159,0,0,1-.107,1.406" transform="translate(-80.907 -76.522)" fill="#263238"/>
        <path id="Path_19130" data-name="Path 19130" d="M187.941,149.244a9.117,9.117,0,0,1-.107-1.406c-.039-.876-.077-2.095-.11-3.471v-.023l.008-.022c.078-.2.159-.4.243-.611.566-1.421,1.09-2.7,1.481-3.625.2-.462.357-.834.473-1.089a1.552,1.552,0,0,1,.2-.387,1.657,1.657,0,0,1-.12.421c-.091.266-.23.647-.406,1.116-.351.939-.852,2.23-1.419,3.651-.083.209-.165.415-.244.61l.009-.045c.026,1.376.037,2.6.035,3.472a9.18,9.18,0,0,1-.047,1.409" transform="translate(-103.636 -76.522)" fill="#263238"/>
        <path id="Path_19131" data-name="Path 19131" d="M177.007,152.317c0-.019.172-.015.471-.095a2.019,2.019,0,0,0,1.453-1.543,6.257,6.257,0,0,0,.033-1.088c0-.793-.01-1.671-.016-2.612l.11.11-2.8.005-2.051,0,.113-.112c-.006,1.036-.011,2.007-.015,2.888,0,.219-.009.434.009.626a2.1,2.1,0,0,0,.141.552,1.993,1.993,0,0,0,.617.8,2.153,2.153,0,0,0,1.386.431,2.89,2.89,0,0,1,.55.039,2.888,2.888,0,0,1-.55.039,2.162,2.162,0,0,1-1.474-.393,2.127,2.127,0,0,1-.688-.849,2.23,2.23,0,0,1-.166-.6c-.024-.218-.018-.429-.021-.647,0-.882-.01-1.853-.015-2.888v-.112h.113l2.051,0,2.8.005h.111v.11c-.006.941-.011,1.819-.016,2.612a6.131,6.131,0,0,1-.059,1.123,2.158,2.158,0,0,1-.432.877,2.038,2.038,0,0,1-1.165.7,1.579,1.579,0,0,1-.363.036c-.083,0-.125-.006-.125-.013" transform="translate(-96.112 -81.079)" fill="#263238"/>
        <path id="Path_19132" data-name="Path 19132" d="M159.909,283.355H129.535a5.217,5.217,0,0,1-5.217-5.217V247.764a5.217,5.217,0,0,1,5.217-5.217h30.374a5.217,5.217,0,0,1,5.217,5.217v30.374a5.217,5.217,0,0,1-5.217,5.217" transform="translate(-68.632 -133.903)" fill="#fafafa"/>
        <path id="Path_19133" data-name="Path 19133" d="M159.766,283.212s.135-.015.4-.032a5.759,5.759,0,0,0,1.141-.223,5.414,5.414,0,0,0,1.657-.887,5.22,5.22,0,0,0,1.551-2.021,5.475,5.475,0,0,0,.387-1.475c.048-.532.028-1.1.03-1.7q0-1.782-.009-3.864c-.005-2.773-.011-5.93-.017-9.419s-.009-7.312-.014-11.415q0-1.539,0-3.129a8.788,8.788,0,0,0-.309-3.159,5.14,5.14,0,0,0-1.974-2.525,5.31,5.31,0,0,0-3.185-.857l-30.02.009a5.1,5.1,0,0,0-5.091,4.8c-.031,2.579-.009,5.145-.017,7.652,0,5.022,0,9.866-.007,14.48q0,3.461,0,6.743,0,.82,0,1.627a5.414,5.414,0,0,0,.194,1.558,5.149,5.149,0,0,0,1.639,2.542,5.564,5.564,0,0,0,1.271.783,5.43,5.43,0,0,0,1.417.376c.481.049.973.038,1.459.039l1.443,0,5.478.008,16.529.037,4.494.022,1.169.012c.263,0,.4.012.4.012s-.135.008-.4.012l-1.169.012-4.494.021-16.529.037-5.478.008-1.443,0c-.485,0-.976.013-1.48-.037a5.64,5.64,0,0,1-1.471-.387,5.775,5.775,0,0,1-1.319-.81,5.342,5.342,0,0,1-1.707-2.635,5.637,5.637,0,0,1-.2-1.611q0-.808,0-1.627,0-3.279,0-6.743c0-4.615,0-9.458-.007-14.48.006-2.514-.017-5.06.014-7.666a5.332,5.332,0,0,1,5.32-5.018l30.02.009a5.519,5.519,0,0,1,3.3.9,5.341,5.341,0,0,1,2.049,2.629,5.081,5.081,0,0,1,.308,1.622c.017.545,0,1.075.007,1.606q0,1.59,0,3.129c0,4.1-.01,7.925-.014,11.415s-.012,6.645-.017,9.419q-.005,2.079-.009,3.864c-.006.594.012,1.161-.04,1.707a5.544,5.544,0,0,1-.4,1.5A5.269,5.269,0,0,1,163,282.124a5.035,5.035,0,0,1-2.839,1.08c-.264.009-.4.008-.4.008" transform="translate(-68.49 -133.761)" fill="#e0e0e0"/>
        <path id="Path_19134" data-name="Path 19134" d="M153.977,256.816s2.85.692,4.667,1.363h0l.069.027a7.976,7.976,0,0,1,.971.422,6.2,6.2,0,0,1,1.54.942c.648.647,4.859,9.188,4.859,9.188l-6.161,3.08-1.872-4.262.522,15.433H141.123l.426-15.433-1.872,4.262-6.161-3.08s4.211-8.54,4.859-9.187a6.216,6.216,0,0,1,1.541-.942,7.977,7.977,0,0,1,.971-.422l.069-.027h0c1.818-.671,4.667-1.363,4.667-1.363l.49-1.66,3.536,2.357,3.953-2.357Z" transform="translate(-73.71 -140.864)" fill="#e0e0e0"/>
        <path id="Path_19135" data-name="Path 19135" d="M148.746,278.3a9.134,9.134,0,0,1-.047-1.409c0-.877.009-2.1.035-3.472l.008.044-.244-.61c-.567-1.421-1.067-2.712-1.419-3.651-.176-.469-.314-.85-.405-1.116a1.609,1.609,0,0,1-.12-.421,1.58,1.58,0,0,1,.2.387c.116.255.278.627.473,1.089.391.923.915,2.2,1.481,3.625l.242.611.009.022v.023c-.032,1.376-.072,2.6-.111,3.471a9.158,9.158,0,0,1-.107,1.406" transform="translate(-80.907 -147.772)" fill="#263238"/>
        <path id="Path_19136" data-name="Path 19136" d="M188.109,278.429a9.62,9.62,0,0,1-.155-1.442c-.069-.9-.151-2.149-.23-3.557V273.4l.009-.024.218-.549c.573-1.438,1.1-2.735,1.5-3.669.2-.467.361-.843.479-1.1a1.632,1.632,0,0,1,.2-.392,1.638,1.638,0,0,1-.121.426c-.092.269-.233.654-.411,1.129-.356.95-.863,2.256-1.436,3.694l-.219.549.008-.048c.073,1.408.127,2.661.156,3.561a9.623,9.623,0,0,1,0,1.45" transform="translate(-103.636 -147.772)" fill="#263238"/>
        <path id="Path_19137" data-name="Path 19137" d="M177.007,281.377c0-.019.172-.015.471-.095a2.019,2.019,0,0,0,1.453-1.543,6.257,6.257,0,0,0,.033-1.088c0-.794-.01-1.671-.016-2.612l.11.11-2.8.005-2.051,0,.113-.112c-.006,1.036-.011,2.007-.015,2.888,0,.219-.009.435.009.627a2.1,2.1,0,0,0,.141.552,1.993,1.993,0,0,0,.617.8,2.152,2.152,0,0,0,1.386.431,2.9,2.9,0,0,1,.55.039,2.893,2.893,0,0,1-.55.039,2.162,2.162,0,0,1-1.474-.393,2.127,2.127,0,0,1-.688-.849,2.23,2.23,0,0,1-.166-.6c-.024-.218-.018-.429-.021-.648,0-.881-.01-1.852-.015-2.888v-.112h.113l2.051,0,2.8.005h.111v.11c-.006.941-.011,1.818-.016,2.612a6.131,6.131,0,0,1-.059,1.123,2.158,2.158,0,0,1-.432.877,2.041,2.041,0,0,1-1.165.7,1.579,1.579,0,0,1-.363.036c-.083,0-.125-.006-.125-.013" transform="translate(-96.112 -152.329)" fill="#263238"/>
        <path id="Path_19138" data-name="Path 19138" d="M141.328,285.058a25.33,25.33,0,0,1-3.082-1.461,25.216,25.216,0,0,1-2.976-1.666,25.362,25.362,0,0,1,3.082,1.461,25.329,25.329,0,0,1,2.976,1.666" transform="translate(-74.679 -155.644)" fill="#263238"/>
        <path id="Path_19139" data-name="Path 19139" d="M288.473,155.712H258.1a5.217,5.217,0,0,1-5.217-5.217V120.121A5.217,5.217,0,0,1,258.1,114.9h30.374a5.217,5.217,0,0,1,5.217,5.217v30.374a5.217,5.217,0,0,1-5.217,5.217" transform="translate(-139.609 -63.435)" fill="#fafafa"/>
        <path id="Path_19140" data-name="Path 19140" d="M288.33,155.569s.135-.015.4-.032a5.761,5.761,0,0,0,1.141-.223,5.413,5.413,0,0,0,1.657-.887,5.215,5.215,0,0,0,1.551-2.021,5.474,5.474,0,0,0,.387-1.475c.048-.532.028-1.1.03-1.7q0-1.782-.009-3.864c0-2.773-.011-5.93-.017-9.419s-.009-7.312-.014-11.415q0-1.539,0-3.129a8.8,8.8,0,0,0-.309-3.159,5.14,5.14,0,0,0-1.974-2.525,5.31,5.31,0,0,0-3.185-.857l-30.02.009a5.1,5.1,0,0,0-5.091,4.8c-.031,2.579-.009,5.145-.017,7.652,0,5.022,0,9.866-.007,14.48q0,3.461,0,6.743,0,.82,0,1.627a5.414,5.414,0,0,0,.194,1.558,5.15,5.15,0,0,0,1.639,2.542,5.575,5.575,0,0,0,1.271.783,5.437,5.437,0,0,0,1.417.376c.481.049.973.038,1.459.039l1.443,0,5.478.008,16.529.037,4.494.022,1.169.012c.263,0,.4.012.4.012s-.135.008-.4.012l-1.169.012-4.494.021-16.529.037-5.478.008-1.443,0c-.485,0-.975.013-1.48-.037a5.637,5.637,0,0,1-1.471-.387,5.773,5.773,0,0,1-1.319-.81,5.34,5.34,0,0,1-1.707-2.635,5.637,5.637,0,0,1-.2-1.611q0-.808,0-1.627,0-3.279,0-6.743c0-4.615,0-9.458-.007-14.48.006-2.514-.017-5.06.014-7.666a5.332,5.332,0,0,1,5.32-5.018l30.02.009a5.526,5.526,0,0,1,3.3.9,5.341,5.341,0,0,1,2.049,2.629,5.08,5.08,0,0,1,.308,1.621c.017.545,0,1.075.007,1.606q0,1.59,0,3.129c0,4.1-.009,7.925-.014,11.415s-.012,6.645-.017,9.419q-.005,2.079-.009,3.864c-.006.594.012,1.161-.04,1.708a5.545,5.545,0,0,1-.4,1.5,5.269,5.269,0,0,1-1.591,2.039,5.035,5.035,0,0,1-2.839,1.079c-.264.01-.4.009-.4.009" transform="translate(-139.466 -63.293)" fill="#e0e0e0"/>
        <path id="Path_19141" data-name="Path 19141" d="M282.367,127.579s2.85.692,4.667,1.363h0l.068.027a7.977,7.977,0,0,1,.971.421,6.191,6.191,0,0,1,1.54.942c.648.647,4.859,9.187,4.859,9.187l-6.161,3.081-1.872-4.262.522,15.434H269.513l.426-15.434-1.872,4.262-6.161-3.081s4.211-8.54,4.859-9.187a6.2,6.2,0,0,1,1.541-.942,7.98,7.98,0,0,1,.971-.421l.069-.027h0c1.818-.671,4.667-1.363,4.667-1.363l-.066-2.954h8.337Z" transform="translate(-144.591 -68.802)" fill="#b56f40"/>
        <path id="Path_19142" data-name="Path 19142" d="M272.283,171.741l-11.347-7.054a4.159,4.159,0,0,1-1.3-5.179l.789-1.633,6.161,3.08,8.5,6.371Z" transform="translate(-143.106 -87.158)" fill="#99592e"/>
        <path id="Path_19143" data-name="Path 19143" d="M268.59,161.871a.637.637,0,0,1,.157.071l.439.237,1.651.926,0,0,0,0c1.89,1.382,4.978,3.671,8.535,6.331l.085.064-.057.09-.908,1.431-1.9,2.982-.06.094-.094-.059-6.876-4.322-2-1.281-.53-.352a.111.111,0,1,1,.021-.034l.55.32,2.033,1.225,6.919,4.254-.154.035L278.3,170.9l.909-1.43.028.153c-3.553-2.666-6.617-4.985-8.474-6.411l.006,0-1.621-.979-.423-.266a.631.631,0,0,1-.139-.1" transform="translate(-147.329 -89.364)" fill="#263238"/>
        <path id="Path_19144" data-name="Path 19144" d="M304.489,171.445l11.347-7.054a4.159,4.159,0,0,0,1.3-5.178l-.79-1.633-6.161,3.08-8.5,6.371Z" transform="translate(-166.551 -86.995)" fill="#99592e"/>
        <path id="Path_19145" data-name="Path 19145" d="M312.216,161.575a.63.63,0,0,1-.139.1l-.422.266-1.621.979.006,0c-1.858,1.426-4.922,3.745-8.474,6.411l.028-.153.909,1.43,1.892,2.985-.154-.035,6.919-4.254,2.033-1.225.55-.32a.955.955,0,0,1,.2-.1.909.909,0,0,1-.176.133l-.53.352-2,1.281-6.876,4.322-.094.059-.06-.094-1.9-2.982L301.4,169.3l-.057-.09.085-.064c3.557-2.66,6.644-4.949,8.535-6.331l0,0h0l1.652-.927.439-.237a.653.653,0,0,1,.157-.071" transform="translate(-166.362 -89.201)" fill="#263238"/>
        <path id="Path_19146" data-name="Path 19146" d="M291.975,127.956a11.242,11.242,0,0,1,0-3.215,11.236,11.236,0,0,1,0,3.215" transform="translate(-161.127 -68.866)" fill="#263238"/>
        <path id="Path_19147" data-name="Path 19147" d="M296.013,127.956a11.239,11.239,0,0,1,0-3.215,11.283,11.283,0,0,1,0,3.215" transform="translate(-163.356 -68.866)" fill="#263238"/>
        <path id="Path_19148" data-name="Path 19148" d="M299.7,127.879a11.242,11.242,0,0,1,0-3.215,11.236,11.236,0,0,1,0,3.215" transform="translate(-165.394 -68.823)" fill="#263238"/>
        <path id="Path_19149" data-name="Path 19149" d="M303.785,127.879a11.242,11.242,0,0,1,0-3.215,11.236,11.236,0,0,1,0,3.215" transform="translate(-167.647 -68.823)" fill="#263238"/>
        <path id="Path_19150" data-name="Path 19150" d="M296.5,156.713H280.061l-.194-4.186h16.351Z" transform="translate(-154.507 -84.205)" fill="#e0e0e0"/>
        <path id="Path_19151" data-name="Path 19151" d="M277.045,150.5a9.1,9.1,0,0,1-.048-1.412c0-.877.01-2.1.036-3.47l.008.044-.209-.529c-.551-1.4-1.038-2.673-1.38-3.6-.171-.463-.305-.839-.393-1.1a1.554,1.554,0,0,1-.115-.415,1.525,1.525,0,0,1,.2.382c.114.251.271.618.461,1.073.381.91.891,2.173,1.442,3.574.071.181.142.36.207.529l.009.021v.023c-.032,1.373-.071,2.593-.11,3.469a9.15,9.15,0,0,1-.107,1.408" transform="translate(-151.787 -77.304)" fill="#263238"/>
        <path id="Path_19152" data-name="Path 19152" d="M316.495,150.66a9.14,9.14,0,0,1-.154-1.4c-.069-.875-.149-2.094-.228-3.47v-.025l.009-.024.241-.607c.567-1.422,1.092-2.7,1.482-3.627.2-.462.357-.834.474-1.09a.22.22,0,1,1,.083.034c-.091.266-.229.647-.405,1.116-.352.939-.853,2.231-1.419,3.652l-.243.607.008-.049c.072,1.376.125,2.6.152,3.474a9.145,9.145,0,0,1,0,1.412" transform="translate(-174.516 -77.304)" fill="#263238"/>
        <path id="Path_19153" data-name="Path 19153" d="M286.54,183.844a13.593,13.593,0,0,1-2.915-2,13.593,13.593,0,0,1,2.915,2" transform="translate(-156.58 -100.389)" fill="#263238"/>
        <path id="Path_19154" data-name="Path 19154" d="M289.164,180.36a177.844,177.844,0,0,0-2.679-2.093,6.168,6.168,0,0,1,2.679,2.093" transform="translate(-158.159 -98.413)" fill="#263238"/>
        <path id="Path_19155" data-name="Path 19155" d="M305.77,178.3a9.121,9.121,0,0,1-2.524,1.416,9.121,9.121,0,0,1,2.524-1.416" transform="translate(-167.413 -98.429)" fill="#263238"/>
        <path id="Path_19156" data-name="Path 19156" d="M308.737,181.754a8.922,8.922,0,0,1-2.43,1.512,8.923,8.923,0,0,1,2.43-1.512" transform="translate(-169.102 -100.338)" fill="#263238"/>
        <path id="Path_19157" data-name="Path 19157" d="M168.743,259.034a7.441,7.441,0,0,1-.852.8c-.552.486-1.339,1.163-2.267,1.949l-.1.087-.063-.121-1.013-1.96.21-.011-.01.025-.76,1.935-.057.146-.116-.1c-.94-.834-1.742-1.554-2.3-2.071a7.845,7.845,0,0,1-.868-.849,7.908,7.908,0,0,1,.957.748c.587.488,1.407,1.187,2.358,2.009l-.173.043.748-1.94.01-.026.094-.24.116.229,1,1.966-.166-.034c.938-.773,1.744-1.428,2.32-1.885a7.5,7.5,0,0,1,.937-.7" transform="translate(-88.63 -142.909)" fill="#263238"/>
        <path id="Path_19158" data-name="Path 19158" d="M169.729,286.242a1.323,1.323,0,0,1-.023-.284c-.006-.211-.013-.481-.022-.815-.009-.737-.021-1.754-.037-3-.009-2.558-.021-6.042-.034-9.893.009-3.09.017-5.945.022-8.259h.186c0,.531-.007,1.026-.01,1.491h-.166c.016-1.289.028-2.343.038-3.1.009-.347.017-.626.022-.844a1.367,1.367,0,0,1,.024-.294,1.413,1.413,0,0,1,.023.294c.005.218.013.5.022.844.009.762.021,1.815.038,3.1h-.166c0-.465-.006-.959-.01-1.491h.186c.006,2.314.014,5.169.023,8.259-.013,3.85-.025,7.335-.034,9.893-.015,1.244-.027,2.262-.037,3-.009.335-.016.6-.021.815a1.383,1.383,0,0,1-.023.284" transform="translate(-93.638 -144.223)" fill="#263238"/>
        <path id="Path_19159" data-name="Path 19159" d="M196.9,281.064a3.9,3.9,0,0,1-.8.594c-.513.336-1.241.773-2.07,1.208s-1.6.785-2.172,1.015a3.88,3.88,0,0,1-.942.318c-.026-.063,1.359-.671,3.007-1.537s2.939-1.654,2.976-1.6" transform="translate(-105.399 -155.166)" fill="#263238"/>
        <path id="Path_19160" data-name="Path 19160" d="M288.361,282.748H257.987a5.217,5.217,0,0,1-5.217-5.217V247.157a5.217,5.217,0,0,1,5.217-5.217h30.374a5.217,5.217,0,0,1,5.217,5.217v30.374a5.217,5.217,0,0,1-5.217,5.217" transform="translate(-139.547 -133.568)" fill="#fafafa"/>
        <path id="Path_19161" data-name="Path 19161" d="M288.218,282.605s.135-.015.4-.032a5.759,5.759,0,0,0,1.141-.223,5.414,5.414,0,0,0,1.657-.887,5.216,5.216,0,0,0,1.551-2.021,5.475,5.475,0,0,0,.387-1.475c.048-.532.028-1.1.03-1.7q0-1.782-.009-3.864c-.005-2.773-.011-5.93-.017-9.419s-.009-7.312-.014-11.415q0-1.539,0-3.13a8.78,8.78,0,0,0-.309-3.159,5.137,5.137,0,0,0-1.974-2.525,5.31,5.31,0,0,0-3.185-.857l-30.021.009a5.1,5.1,0,0,0-5.09,4.8c-.031,2.579-.009,5.145-.017,7.652,0,5.022,0,9.866-.007,14.48q0,3.461,0,6.743,0,.82,0,1.627a5.429,5.429,0,0,0,.193,1.558,5.153,5.153,0,0,0,1.639,2.542,5.574,5.574,0,0,0,1.271.783,5.432,5.432,0,0,0,1.417.376c.481.049.973.038,1.459.039l1.443,0,5.478.008,16.529.037,4.494.022,1.169.012c.263,0,.4.012.4.012s-.135.008-.4.012l-1.169.012-4.494.021-16.529.037-5.478.008-1.443,0c-.485,0-.976.013-1.48-.037a5.637,5.637,0,0,1-1.471-.387,5.788,5.788,0,0,1-1.319-.809,5.343,5.343,0,0,1-1.707-2.636,5.636,5.636,0,0,1-.2-1.611q0-.808,0-1.627,0-3.279,0-6.743c0-4.615,0-9.458-.007-14.48.006-2.514-.017-5.06.014-7.666a5.333,5.333,0,0,1,5.32-5.018l30.021.009a5.522,5.522,0,0,1,3.3.9,5.341,5.341,0,0,1,2.049,2.629,5.068,5.068,0,0,1,.308,1.622c.017.545,0,1.075.008,1.606q0,1.59,0,3.13c0,4.1-.01,7.925-.014,11.415s-.012,6.645-.017,9.419q-.005,2.079-.009,3.864c-.006.593.012,1.161-.04,1.707a5.544,5.544,0,0,1-.4,1.5,5.27,5.27,0,0,1-1.591,2.039,5.035,5.035,0,0,1-2.839,1.079c-.264.01-.4.009-.4.009" transform="translate(-139.404 -133.426)" fill="#e0e0e0"/>
        <path id="Path_19162" data-name="Path 19162" d="M294.62,278.912s-6.376-17.257-7.023-17.9a6.2,6.2,0,0,0-1.54-.942,7.841,7.841,0,0,0-.971-.422l-.069-.027h0c-1.818-.672-4.667-1.363-4.667-1.363s-.727,2.473-4.177,2.651c-3.451-.178-4.178-2.651-4.178-2.651s-2.85.692-4.667,1.363h0l-.069.027a7.839,7.839,0,0,0-.971.422,6.2,6.2,0,0,0-1.54.942c-.648.647-6.547,18.107-6.547,18.107l5.072,1.738,4.649-11.838-.427,15.433h17.449l-.521-15.433,5.415,12.326Z" transform="translate(-142.545 -142.575)" fill="#9ccb48"/>
        <path id="Path_19163" data-name="Path 19163" d="M296.249,272.116c0,.064-4.291.116-9.583.116s-9.584-.052-9.584-.116,4.29-.116,9.584-.116,9.583.052,9.583.116" transform="translate(-152.969 -150.163)" fill="#fff"/>
        <path id="Path_19164" data-name="Path 19164" d="M296.579,285.334a3.53,3.53,0,0,1-.646.045l-1.762.037c-1.488.021-3.544.034-5.815.034s-4.327-.013-5.815-.034l-1.763-.037a3.522,3.522,0,0,1-.646-.045,3.427,3.427,0,0,1,.646-.045l1.763-.037c1.488-.021,3.544-.034,5.815-.034s4.326.013,5.815.034l1.762.037a3.435,3.435,0,0,1,.646.045" transform="translate(-154.653 -157.461)" fill="#fff"/>
        <path id="Path_19165" data-name="Path 19165" d="M296.579,297.868a3.479,3.479,0,0,1-.646.045l-1.762.037c-1.488.021-3.544.034-5.815.034s-4.327-.013-5.815-.034l-1.763-.037a3.471,3.471,0,0,1-.646-.045,3.477,3.477,0,0,1,.646-.045l1.763-.037c1.488-.021,3.544-.034,5.815-.034s4.326.013,5.815.034l1.762.037a3.485,3.485,0,0,1,.646.045" transform="translate(-154.653 -164.38)" fill="#fff"/>
        <path id="Path_19166" data-name="Path 19166" d="M296.579,310.4a3.432,3.432,0,0,1-.646.045l-1.762.037c-1.488.021-3.544.034-5.815.034s-4.327-.013-5.815-.034l-1.763-.037a3.424,3.424,0,0,1-.646-.045,3.525,3.525,0,0,1,.646-.045l1.763-.037c1.488-.021,3.544-.034,5.815-.034s4.326.013,5.815.034l1.762.037a3.534,3.534,0,0,1,.646.045" transform="translate(-154.653 -171.3)" fill="#fff"/>
        <path id="Path_19167" data-name="Path 19167" d="M277.2,277.7a9.138,9.138,0,0,1-.047-1.409c0-.877.009-2.1.035-3.472l.008.045-.244-.61c-.567-1.421-1.067-2.712-1.419-3.65-.176-.469-.314-.851-.405-1.116a1.608,1.608,0,0,1-.12-.421,1.592,1.592,0,0,1,.2.387c.116.255.278.627.473,1.089.391.923.915,2.2,1.481,3.625l.243.611.009.022v.023c-.033,1.376-.072,2.6-.111,3.471a9.156,9.156,0,0,1-.107,1.406" transform="translate(-151.822 -147.437)" fill="#263238"/>
        <path id="Path_19168" data-name="Path 19168" d="M316.394,277.7a9.162,9.162,0,0,1-.107-1.406c-.039-.875-.078-2.095-.111-3.471V272.8l.009-.022.243-.611c.566-1.421,1.091-2.7,1.481-3.625.2-.462.357-.834.473-1.089a1.593,1.593,0,0,1,.2-.387,1.611,1.611,0,0,1-.12.421c-.091.266-.229.647-.405,1.116-.352.938-.852,2.229-1.419,3.65l-.244.61.009-.045c.025,1.376.037,2.6.035,3.472a9.126,9.126,0,0,1-.047,1.409" transform="translate(-174.552 -147.437)" fill="#263238"/>
        <path id="Path_19169" data-name="Path 19169" d="M323.532,279.766a37.708,37.708,0,0,1-5.343,2.495,37.717,37.717,0,0,1,5.343-2.495" transform="translate(-175.663 -154.448)" fill="#fff"/>
        <path id="Path_19170" data-name="Path 19170" d="M328.06,291.04a34.338,34.338,0,0,1-5.13,2.316,34.358,34.358,0,0,1,5.13-2.316" transform="translate(-178.28 -160.672)" fill="#fff"/>
        <path id="Path_19171" data-name="Path 19171" d="M272.4,281.326a35.732,35.732,0,0,1-4.981-2.852,35.789,35.789,0,0,1,4.981,2.852" transform="translate(-147.633 -153.735)" fill="#fff"/>
        <path id="Path_19172" data-name="Path 19172" d="M267.912,293.9a33.971,33.971,0,0,1-5.082-2.332,33.915,33.915,0,0,1,5.082,2.332" transform="translate(-145.1 -160.963)" fill="#fff"/>
        <path id="Path_19173" data-name="Path 19173" d="M294.858,270.217a7.551,7.551,0,0,1,1.444-.092l-.093.092c-.014-.589-.023-1.329-.023-2.131,0-.987.013-1.881.034-2.528a4.74,4.74,0,0,1,.082-1.047,4.793,4.793,0,0,1,.081,1.047c.021.647.034,1.541.034,2.528,0,.8-.009,1.543-.023,2.131l0,.095-.09,0a7.637,7.637,0,0,1-1.444-.092" transform="translate(-162.783 -146.028)" fill="#263238"/>
        <path id="Path_19174" data-name="Path 19174" d="M295.64,268.924a.391.391,0,1,1-.392-.392.391.391,0,0,1,.392.392" transform="translate(-162.782 -148.249)" fill="#e0e0e0"/>
        <path id="Path_19175" data-name="Path 19175" d="M295.64,274.328a.391.391,0,1,1-.392-.391.391.391,0,0,1,.392.391" transform="translate(-162.782 -151.233)" fill="#e0e0e0"/>
      </g>
    </g>
    <g id="Group_22718" data-name="Group 22718">
      <g id="Group_22717" data-name="Group 22717" clip-path="url(#clip-path)">
        <path id="Path_19176" data-name="Path 19176" d="M48.282,119.489l-.014,16.366c0,2.783,3.406,7.772,7.9,7.575l.365.006c3.882-.459,1.674-4.983,1.674-7.581,0-1.232,0-2.259.011-2.386,0,0,4.251-.388,4.562-4.512.15-1.993.118-6.122.045-9.857a7.773,7.773,0,0,0-7.377-7.535l-.406-.024c-4.4-.013-6.863,3.639-6.755,7.947" transform="translate(-26.7 -61.302)" fill="#b56f40"/>
        <path id="Path_19177" data-name="Path 19177" d="M63.527,158.13a9.987,9.987,0,0,1-5.275-1.918s1.126,3.095,5.266,2.976Z" transform="translate(-32.159 -86.24)" fill="#b56f40"/>
        <path id="Path_19178" data-name="Path 19178" d="M61.306,131.489c-.081.084-.561-.293-1.252-.3s-1.2.334-1.275.246c-.036-.039.047-.192.271-.353a1.727,1.727,0,0,1,1.023-.3,1.666,1.666,0,0,1,.994.349c.21.171.279.327.239.365" transform="translate(-32.446 -72.197)" fill="#263238"/>
        <path id="Path_19179" data-name="Path 19179" d="M63.267,136a.558.558,0,0,1-.572.529.534.534,0,0,1-.544-.538.559.559,0,0,1,.572-.53.535.535,0,0,1,.544.538" transform="translate(-34.312 -74.782)" fill="#263238"/>
        <path id="Path_19180" data-name="Path 19180" d="M68.414,136.508a4.2,4.2,0,0,1,1.041-.123c.163-.007.318-.03.352-.138a.828.828,0,0,0-.078-.487l-.4-1.262a21.2,21.2,0,0,1-.877-3.291,21.279,21.279,0,0,1,1.14,3.213q.2.664.383,1.269a.942.942,0,0,1,.045.641.407.407,0,0,1-.281.22,1.1,1.1,0,0,1-.277.021,4.128,4.128,0,0,1-1.044-.063" transform="translate(-37.769 -72.435)" fill="#263238"/>
        <path id="Path_19181" data-name="Path 19181" d="M60.542,126.741c-.065.154-.619.045-1.28.087s-1.2.193-1.282.047c-.035-.07.067-.212.29-.352a2.168,2.168,0,0,1,1.952-.1c.235.115.348.246.32.319" transform="translate(-32.006 -69.692)" fill="#263238"/>
        <path id="Path_19182" data-name="Path 19182" d="M75.252,127.988c-.071.125-.611-.007-1.264-.019s-1.194.077-1.264-.052c-.031-.062.076-.175.3-.277a2.281,2.281,0,0,1,.964-.171,2.356,2.356,0,0,1,.962.225c.226.115.332.234.3.294" transform="translate(-40.146 -70.371)" fill="#263238"/>
        <path id="Path_19183" data-name="Path 19183" d="M45.1,135.915c-.069-.035-2.784-1.013-2.867,1.814a2.125,2.125,0,0,0,2.779,2.246c.007-.081.088-4.06.088-4.06" transform="translate(-23.313 -74.929)" fill="#b56f40"/>
        <path id="Path_19184" data-name="Path 19184" d="M45.061,139.991c-.012-.009-.05.033-.135.069a.493.493,0,0,1-.368,0,1.219,1.219,0,0,1-.532-1.109,1.633,1.633,0,0,1,.159-.7.57.57,0,0,1,.382-.367.251.251,0,0,1,.287.144c.035.08.016.136.031.141s.062-.046.043-.163a.312.312,0,0,0-.106-.18.372.372,0,0,0-.27-.08.692.692,0,0,0-.527.423,1.673,1.673,0,0,0-.194.783,1.279,1.279,0,0,0,.683,1.242.526.526,0,0,0,.452-.062c.09-.067.106-.13.1-.135" transform="translate(-24.197 -76.042)"/>
        <path id="Path_19185" data-name="Path 19185" d="M39.889,114.972a13.846,13.846,0,0,0,1.01-3.309,3.737,3.737,0,0,1,2-2.676l.025.01a2.974,2.974,0,0,1,2.993.245A3.866,3.866,0,0,1,48.8,106.2a9.566,9.566,0,0,1,5.111.343,10.49,10.49,0,0,1,3.369,2.553,13.857,13.857,0,0,1,1.462,1.73l1.291,3.834-1.045,2.03c-.062.138-.127.276-.205.413V117.1l-.913,4.264c-.074-1.159-.037-5.2-.111-6.354a6.466,6.466,0,0,1-4.634-2.076,7.592,7.592,0,0,0-2-1.977c-1.1-.528-2.4-.119-3.543.294l.048-.044a5.17,5.17,0,0,0-1.583,1.17,16.088,16.088,0,0,1-.617,6.813c-.1.331-.391,1.011-.713,1.14-.632.253-.81-.391-1.2-.731a1.679,1.679,0,0,0-1.157-.271,25.375,25.375,0,0,1-.809-2.923,2.579,2.579,0,0,1-1.185.093q.177-.439.355-.877a1.35,1.35,0,0,1-.505.235.46.46,0,0,1-.484-.2c-.11-.215.034-.467.154-.677" transform="translate(-21.915 -58.517)" fill="#263238"/>
        <path id="Path_19186" data-name="Path 19186" d="M49.134,114.268a3.534,3.534,0,0,0-.409.383,2.956,2.956,0,0,0-.617,1.375,5.227,5.227,0,0,0-.093,1.049c0,.379.038.786.072,1.213a10.866,10.866,0,0,1,.047,1.351,4.8,4.8,0,0,1-.085.714,1.487,1.487,0,0,1-.283.695.623.623,0,0,1-.58.2.923.923,0,0,1-.526-.29,2.132,2.132,0,0,1-.409-1.043l.086.009a3.447,3.447,0,0,1-.491.869,1.226,1.226,0,0,1-.8.446.791.791,0,0,1-.426-.069.686.686,0,0,1-.292-.281.706.706,0,0,1-.092-.364.51.51,0,0,1,.129-.322l.044.039a2.655,2.655,0,0,1-.877.674,2.324,2.324,0,0,1-.273.11.444.444,0,0,1-.1.026.506.506,0,0,1,.093-.041c.061-.026.151-.064.264-.123a2.739,2.739,0,0,0,.847-.684l.044.038a.528.528,0,0,0-.02.613.616.616,0,0,0,.264.249.715.715,0,0,0,.386.058,1.148,1.148,0,0,0,.739-.423,3.409,3.409,0,0,0,.473-.85l.057-.133.029.142a2.065,2.065,0,0,0,.39,1,.832.832,0,0,0,.471.259.526.526,0,0,0,.493-.171,1.407,1.407,0,0,0,.261-.65,4.631,4.631,0,0,0,.084-.7,10.935,10.935,0,0,0-.041-1.34c-.031-.428-.064-.835-.063-1.22a5.194,5.194,0,0,1,.106-1.062,2.917,2.917,0,0,1,.655-1.387,1.676,1.676,0,0,1,.437-.358" transform="translate(-23.83 -63.084)" fill="#455a64"/>
        <path id="Path_19187" data-name="Path 19187" d="M69.453,115.244s-.01.011-.033.029l-.1.076a1.355,1.355,0,0,1-.173.114,2.181,2.181,0,0,1-.249.135,3.649,3.649,0,0,1-1.76.338,4.667,4.667,0,0,1-2.5-.89,8.088,8.088,0,0,1-2.165-2.438c-.305-.5-.556-1-.83-1.474a5.449,5.449,0,0,0-.935-1.243,2.817,2.817,0,0,0-1.2-.707,2.018,2.018,0,0,0-.627-.065,2.217,2.217,0,0,0-.572.116A2.386,2.386,0,0,0,57,110.372a2.9,2.9,0,0,0-.206.62.167.167,0,0,1,0-.043l.018-.126a2.067,2.067,0,0,1,.151-.467,2.35,2.35,0,0,1,.454-.631,2.41,2.41,0,0,1,.868-.553,2.281,2.281,0,0,1,.59-.127,2.083,2.083,0,0,1,.652.062,2.881,2.881,0,0,1,1.236.72,5.508,5.508,0,0,1,.956,1.26c.278.473.529.98.831,1.471a8.091,8.091,0,0,0,2.134,2.416,4.644,4.644,0,0,0,2.45.894,3.713,3.713,0,0,0,1.741-.3,5.758,5.758,0,0,0,.573-.32" transform="translate(-31.355 -60.199)" fill="#455a64"/>
        <path id="Path_19188" data-name="Path 19188" d="M75.36,131.906c-.081.084-.561-.293-1.252-.3s-1.2.334-1.275.246c-.036-.039.047-.193.271-.353a1.723,1.723,0,0,1,1.023-.3,1.666,1.666,0,0,1,.994.349c.21.171.279.327.239.365" transform="translate(-40.204 -72.427)" fill="#263238"/>
        <path id="Path_19189" data-name="Path 19189" d="M75.717,136a.558.558,0,0,1-.572.529.534.534,0,0,1-.544-.538.559.559,0,0,1,.572-.53.535.535,0,0,1,.544.538" transform="translate(-41.185 -74.782)" fill="#263238"/>
        <path id="Path_19190" data-name="Path 19190" d="M80.74,115.732a1.765,1.765,0,0,0,1.467.825,4.3,4.3,0,0,0,.615-.18c.2.122.154.813.014,1a3.7,3.7,0,0,1-.434.448,2.286,2.286,0,0,0,2.017-.077,3.544,3.544,0,0,1-2.107,2.838,1.243,1.243,0,0,1-1.138.021,1.43,1.43,0,0,1-.5-.888,15.545,15.545,0,0,1-.5-3.789Z" transform="translate(-44.261 -63.892)" fill="#263238"/>
        <path id="Path_19191" data-name="Path 19191" d="M65.862,145.5c.012.034-.124.125-.381.163a1.543,1.543,0,0,1-1.632-.961c-.091-.243-.077-.406-.042-.413.075-.026.239.58.837.929a3.294,3.294,0,0,0,1.218.281" transform="translate(-35.211 -79.66)" fill="#263238"/>
        <path id="Path_19192" data-name="Path 19192" d="M75.34,408.173v8.869l18.25-.086c-.133-1.8-10.148-5.387-10.148-5.387l.2-3.4Z" transform="translate(-41.593 -225.34)" fill="#455a64"/>
        <g id="Group_22713" data-name="Group 22713" transform="translate(36.181 185.392)" opacity="0.6">
          <g id="Group_22712" data-name="Group 22712">
            <g id="Group_22711" data-name="Group 22711" clip-path="url(#clip-path-10)">
              <path id="Path_19193" data-name="Path 19193" d="M81.292,413.92a.773.773,0,0,0-.5.886.712.712,0,0,0,.842.523.815.815,0,0,0,.525-.941.732.732,0,0,0-.934-.443" transform="translate(-80.774 -413.886)" fill="#fff"/>
            </g>
          </g>
        </g>
        <path id="Path_19194" data-name="Path 19194" d="M75.34,426.228v-1.417l17.424.2s.909.536.826,1.128Z" transform="translate(-41.593 -234.526)" fill="#263238"/>
        <path id="Path_19195" data-name="Path 19195" d="M91.4,416.037c0,.092-.444.141-.876.443s-.658.693-.74.657c-.082-.017.042-.569.571-.925s1.063-.259,1.045-.175" transform="translate(-49.556 -229.637)" fill="#263238"/>
        <path id="Path_19196" data-name="Path 19196" d="M97.3,417.925c.021.089-.36.251-.655.645s-.377.807-.465.8c-.083.016-.152-.522.224-1s.893-.532.9-.444" transform="translate(-53.063 -230.704)" fill="#263238"/>
        <path id="Path_19197" data-name="Path 19197" d="M101.026,421.047c-.08.021-.211-.437.01-.944s.632-.714.671-.638-.214.349-.389.769-.2.8-.292.813" transform="translate(-55.712 -231.566)" fill="#263238"/>
        <path id="Path_19198" data-name="Path 19198" d="M90.7,410.115c-.036.084-.445-.037-.945.006s-.889.212-.937.134.323-.412.914-.454,1.01.24.968.313" transform="translate(-49.034 -226.237)" fill="#263238"/>
        <path id="Path_19199" data-name="Path 19199" d="M90.626,413.541a1.285,1.285,0,0,0,.039-.542,2.959,2.959,0,0,0-.483-1.4,2.766,2.766,0,0,0-.714-.736.628.628,0,0,0-.616-.106.68.68,0,0,0-.36.584,2.351,2.351,0,0,0,1.6,2.075,2.316,2.316,0,0,0,2.465-.717,1.626,1.626,0,0,0,.327-.548.58.58,0,0,0,0-.355.425.425,0,0,0-.248-.257.79.79,0,0,0-.569.055,3.439,3.439,0,0,0-.425.237,3.763,3.763,0,0,0-1.043,1.012,1.4,1.4,0,0,0-.252.475A5.225,5.225,0,0,1,91.744,412c.245-.138.564-.335.822-.247.113.046.158.176.1.331a1.42,1.42,0,0,1-.287.452,2.1,2.1,0,0,1-2.206.627,2.138,2.138,0,0,1-1.445-1.8.442.442,0,0,1,.215-.384.423.423,0,0,1,.407.079,2.67,2.67,0,0,1,.679.658,3.1,3.1,0,0,1,.532,1.3c.051.336.039.528.061.529" transform="translate(-48.854 -226.744)" fill="#263238"/>
        <path id="Path_19200" data-name="Path 19200" d="M47.422,408.72v2.865l-.206,5.148-6.842.164-.244-5.311.2-3.236Z" transform="translate(-22.154 -225.437)" fill="#455a64"/>
        <path id="Path_19201" data-name="Path 19201" d="M48.384,417.521c-.042,0,.057-1.573.22-3.517s.329-3.523.37-3.525-.057,1.572-.22,3.517-.329,3.522-.37,3.524" transform="translate(-26.706 -226.614)" fill="#263238"/>
        <path id="Path_19202" data-name="Path 19202" d="M47.49,425.152l-6.912.079v.942l6.917-.008Z" transform="translate(-22.402 -234.714)" fill="#263238"/>
        <path id="Path_19203" data-name="Path 19203" d="M40.614,416.079c-.01-.008.048-.107.175-.272a4.728,4.728,0,0,1,.61-.639,4.648,4.648,0,0,1,1.105-.727,3.7,3.7,0,0,1,4.263.773,3.056,3.056,0,0,1,.5.729.856.856,0,0,1,.109.3,7.025,7.025,0,0,0-.716-.934,3.68,3.68,0,0,0-2.565-1.031,4.235,4.235,0,0,0-2.6,1c-.572.458-.851.825-.88.8" transform="translate(-22.421 -228.601)" fill="#263238"/>
        <path id="Path_19204" data-name="Path 19204" d="M57.376,258.271l-.8-1.249-25.566,1.2a44.17,44.17,0,0,0-.751,8.379,42.122,42.122,0,0,0,1.1,6.826l1.213,24.695c.24,2.223.418,29.123.418,29.123H43.125l2.066-37.484c.218-4.172.06-10.494.27-15.11l3.481,14.14,2.219,9.662s-.433,3.953-.9,9.439c-.666,7.768-.723,19.031-.723,19.031l10.4.167s1.445-13.277,2.576-21.03l.971-9.253a48.593,48.593,0,0,0-.793-5.956Z" transform="translate(-16.706 -141.894)" fill="#263238"/>
        <path id="Path_19205" data-name="Path 19205" d="M59.978,286.8a2.481,2.481,0,0,1-.468-.157,4.8,4.8,0,0,1-.533-.228c-.2-.1-.441-.2-.684-.349a8.991,8.991,0,0,1-.794-.488c-.284-.179-.564-.4-.862-.634a11.963,11.963,0,0,1-3.079-3.783c-.162-.341-.327-.659-.443-.975a8.391,8.391,0,0,1-.311-.878,7.487,7.487,0,0,1-.2-.743A4.6,4.6,0,0,1,52.5,278a2.445,2.445,0,0,1-.052-.491c.04-.007.129.693.486,1.762a9.139,9.139,0,0,0,.329.86c.12.309.288.62.452.954a12.532,12.532,0,0,0,3.035,3.729c.291.232.563.457.84.64s.531.356.772.5c.971.574,1.633.814,1.618.851" transform="translate(-28.952 -153.203)" fill="#455a64"/>
        <path id="Path_19206" data-name="Path 19206" d="M138.81,172.135a22.644,22.644,0,0,1,1.089-2.208c.281-.372,1.534-1.8,1.534-1.8a12.886,12.886,0,0,1,2.926-1.048,3.086,3.086,0,0,1,.7.291l3.516-2.46s.824-.432,1.143.058-.121.862-.309,1.091-2.734,2.411-2.734,2.411l-.094.172s.948.292.951.81a2.518,2.518,0,0,1-.34,1.091.9.9,0,0,1,.29.979l-.185.632a1.112,1.112,0,0,1,.48,1.009c-.09.632-1.6,1.716-1.6,1.716a26.881,26.881,0,0,1-3.3,1.276c-.568.055-1.859.379-1.859.379Z" transform="translate(-76.633 -90.944)" fill="#b56f40"/>
        <path id="Path_19207" data-name="Path 19207" d="M148.586,169.418a3.383,3.383,0,0,1-.632.505,8.547,8.547,0,0,1-1.695.985,11.233,11.233,0,0,0-1.814.65,3.078,3.078,0,0,0-.61.5c-.022,0,.1-.325.539-.611a8.186,8.186,0,0,1,1.818-.714,11.785,11.785,0,0,0,1.688-.92,3.487,3.487,0,0,1,.706-.393" transform="translate(-79.406 -93.53)"/>
        <path id="Path_19208" data-name="Path 19208" d="M154.87,173.205c.023.011,0,.1-.1.191a1.588,1.588,0,0,1-.413.263c-.344.155-.629.233-.652.191s.239-.213.572-.363c.166-.077.312-.146.414-.2s.155-.1.179-.083" transform="translate(-84.855 -95.62)"/>
        <path id="Path_19209" data-name="Path 19209" d="M156.672,177.476c.038.036-.077.221-.28.389s-.406.247-.434.2.12-.19.312-.35.362-.278.4-.242" transform="translate(-86.098 -97.976)"/>
        <path id="Path_19210" data-name="Path 19210" d="M156.974,181.015c.048.017-.023.285-.278.492s-.531.224-.538.174.2-.143.417-.321.349-.368.4-.345" transform="translate(-86.21 -99.932)"/>
        <path id="Path_19211" data-name="Path 19211" d="M133.277,180.414l-4.708,3.045,1.867,6.059,5.989-4.984-.364-2.7Z" transform="translate(-70.979 -99.601)" fill="#b56f40"/>
        <path id="Path_19212" data-name="Path 19212" d="M22.384,183.365s-3.049,17.316-2.9,18.935.651,3.927,2.8,4.637a6.127,6.127,0,0,0,3.532,0l.806-10.264-3.014-11Z" transform="translate(-10.753 -101.23)" fill="#b56f40"/>
        <path id="Path_19213" data-name="Path 19213" d="M49.679,164.514l2.4,1.242L53.525,179.3,54,183.891l.746,12.743c.225,1.1,1.286,12.866,1.286,12.866l-28.631.688c.444-.129.839-5.139,1.1-6.215l.847-7.463-.847-10.68s-2.973-13.038-2.581-14.067,2.295-3.42,6.011-6.033c1.485-1.044,3.632-2.347,3.632-2.347l9.8.048Z" transform="translate(-14.291 -90.199)" fill="#455a64"/>
        <path id="Path_19214" data-name="Path 19214" d="M90.464,180.52s-6.419-5.672-8.831-8.082c-2.7-2.693-4.59-4.019-5.42-4.082a26.391,26.391,0,0,0-2.778,1.343s-.66.756-1.781,4.606,5.439,6.356,5.439,6.356l3.125,3.125c.594.541,5,4.476,8.224,5.741a5.058,5.058,0,0,0,5.158-.906l9.85-9.511a29.451,29.451,0,0,1-1.665-5.354" transform="translate(-39.486 -92.945)" fill="#b56f40"/>
        <path id="Path_19215" data-name="Path 19215" d="M22.384,182.092l-2.907,14.716,7.14,1.389L24.85,182.3Z" transform="translate(-10.753 -100.528)" fill="#455a64"/>
        <path id="Path_19216" data-name="Path 19216" d="M28.478,183.142c.063-.006.594,5.273,1.184,11.788s1.018,11.8.955,11.81-.594-5.272-1.184-11.789-1.019-11.8-.955-11.809" transform="translate(-15.719 -101.107)" fill="#263238"/>
        <path id="Path_19217" data-name="Path 19217" d="M69.454,176.051l10.29,8.634,6.466-8.858s-7.81-6.838-9.666-7.83c-2.3-1.227-4.017-2.138-5.821.053a7.59,7.59,0,0,0-1.269,8" transform="translate(-38.004 -92.042)" fill="#455a64"/>
        <path id="Path_19218" data-name="Path 19218" d="M79.483,185.019a.981.981,0,0,1-.2-.136l-.559-.423-2.03-1.593-6.66-5.336-.008-.006,0-.005-.126-.145a6.529,6.529,0,0,1-1.518-4.49,6.115,6.115,0,0,1,1.37-3.635,5.7,5.7,0,0,1,2.069-1.624,3.941,3.941,0,0,1,.674-.246,1.021,1.021,0,0,1,.245-.051c.007.024-.33.1-.881.377a5.884,5.884,0,0,0-1.98,1.644,6.022,6.022,0,0,0-1.285,3.542,6.368,6.368,0,0,0,1.48,4.331l.12.14-.012-.011,6.617,5.389,1.984,1.649.532.457a.989.989,0,0,1,.176.172" transform="translate(-37.744 -92.377)" fill="#263238"/>
        <g id="Group_22716" data-name="Group 22716" transform="translate(32.359 85.065)" opacity="0.3">
          <g id="Group_22715" data-name="Group 22715">
            <g id="Group_22714" data-name="Group 22714" clip-path="url(#clip-path-11)">
              <path id="Path_19219" data-name="Path 19219" d="M72.241,189.907a32.517,32.517,0,0,0,7.349,8.628l-.3-2.936Z" transform="translate(-72.241 -189.907)"/>
            </g>
          </g>
        </g>
        <path id="Path_19220" data-name="Path 19220" d="M51.979,232.757a2.724,2.724,0,0,1-.476.313c-.313.189-.772.452-1.342.771-1.141.638-2.735,1.49-4.519,2.383s-3.422,1.657-4.617,2.188c-.6.266-1.084.474-1.423.612a2.646,2.646,0,0,1-.535.193,2.7,2.7,0,0,1,.5-.275l1.391-.678c1.176-.568,2.8-1.355,4.583-2.246s3.385-1.72,4.544-2.321l1.377-.706a2.71,2.71,0,0,1,.519-.234" transform="translate(-21.568 -128.498)" fill="#263238"/>
      </g>
    </g>
  </g>
</svg>
