<svg xmlns="http://www.w3.org/2000/svg" width="24" height="24" viewBox="0 0 24 24">
  <g id="vuesax_bulk_location" data-name="vuesax/bulk/location" transform="translate(-428 -188)">
    <g id="location">
      <path id="Vector" d="M0,0H24V24H0Z" transform="translate(428 188)" fill="none" opacity="0"/>
      <path id="Path_19352" data-name="Path 19352" d="M.469-14.533v-2.175H2.232v-5.7H6.28l2.817,5.7h3.312v-5.7h3.439v5.7h1.916v2.175H15.848v1.3h1.916v2.175H15.848v6.377H12.066L8.831-11.06H5.671v6.377H2.232V-11.06H.469v-2.175H2.232v-1.3Zm10.354,1.3h1.586v-1.3H10.176Zm-5.152,0H7.739l-.66-1.3H5.671ZM12.46-9.861H12.5q-.051-.42-.076-1.2h-.508Q12.193-10.479,12.46-9.861ZM5.633-17.611H5.582q.025.4.051.9H6Q5.849-17.079,5.633-17.611Z" transform="translate(430.884 213.545)" fill="#9ccb48"/>
    </g>
  </g>
</svg>
