<svg width="20" height="25" viewBox="0 0 20 25" fill="none" xmlns="http://www.w3.org/2000/svg">
<path d="M3.07617 13.772V10.9009H0.341797V8.66211H3.07617V0.0146484H6.71631C6.81885 0.185547 7.01823 0.652669 7.31445 1.41602C7.61068 2.17936 8.52214 4.59473 10.0488 8.66211H14.1675V0.0146484H16.936V8.66211H19.6704V10.9009H16.936V13.772H19.6704V16.0107H16.936V25H13.2617L9.94629 16.0107H5.81055V25H3.07617V16.0107H0.341797V13.772H3.07617ZM14.1675 10.9009H10.8521L11.8945 13.772H14.1675V10.9009ZM5.81055 13.772H9.0918L8.04932 10.9009H5.81055V13.772ZM5.53711 4.42383C5.63965 6.09863 5.70801 7.51139 5.74219 8.66211H7.21191L5.67383 4.42383H5.53711ZM14.4238 19.8218L14.2017 16.0107H12.7319C13.5409 18.1868 14.0592 19.4572 14.2871 19.8218H14.4238Z" fill="black"/>
</svg>
