<svg id="Thrift_a_Name" data-name="Thrift a Name" xmlns="http://www.w3.org/2000/svg" width="22.929" height="29.478" viewBox="0 0 22.929 29.478">
  <path id="Path_19141" data-name="Path 19141" d="M.469-16.468v-1.641h1.3v-4.3H4.739l2.07,4.3H9.242v-4.3h2.526v4.3h1.408v1.641H11.768v.979h1.408v1.641H11.768v4.811H8.99L6.613-13.848H4.291v4.811H1.765v-4.811H.469v-1.641h1.3v-.979Zm7.607.979H9.242v-.979H7.6Zm-3.785,0h1.52l-.485-.979H4.291Zm4.988,2.545h.028q-.037-.317-.056-.9H8.878Q9.083-13.41,9.279-12.944ZM4.263-18.789H4.226q.019.3.037.681h.27Q4.422-18.388,4.263-18.789Z" transform="translate(4.773 30.718)" fill="#9ccb48"/>
  <path id="Vector" d="M.233,10.386A.983.983,0,0,1-.75,9.4,10.147,10.147,0,0,1,9.4-.75.983.983,0,0,1,10.246.738L8.871,3.031A.983.983,0,1,1,7.185,2.02l.354-.591A8.2,8.2,0,0,0,1.215,9.4.983.983,0,0,1,.233,10.386Z" transform="translate(0.75 0.75)" fill="#9ccb48" opacity="0.4"/>
  <path id="Vector-2" data-name="Vector" d="M9.4-.75a.983.983,0,0,1,.983.983A10.089,10.089,0,0,1,7.414,7.414,10.089,10.089,0,0,1,.233,10.386.983.983,0,0,1-.61,8.9L.766,6.605A.983.983,0,1,1,2.451,7.616L2.1,8.207A8.2,8.2,0,0,0,8.421.233.983.983,0,0,1,9.4-.75Z" transform="translate(12.543 19.092)" fill="#9ccb48" opacity="0.4"/>
</svg>
