<svg xmlns="http://www.w3.org/2000/svg" width="24" height="24" viewBox="0 0 24 24">
  <g id="vuesax_linear_notification" data-name="vuesax/linear/notification" transform="translate(-171 -188)">
    <g id="notification">
      <path id="Vector" d="M8.046-.75A6.758,6.758,0,0,1,14.8,6V8.89a4.208,4.208,0,0,0,.456,1.68l1.146,1.9A2.752,2.752,0,0,1,14.911,16.5a21.645,21.645,0,0,1-6.87,1.118A21.649,21.649,0,0,1,1.168,16.5,2.782,2.782,0,0,1-.594,14.855a2.732,2.732,0,0,1,.277-2.382l1.15-1.91A4.067,4.067,0,0,0,1.3,8.89V6A6.758,6.758,0,0,1,8.046-.75ZM8.041,16.12a20.151,20.151,0,0,0,6.4-1.041,1.236,1.236,0,0,0,.775-.749,1.251,1.251,0,0,0-.1-1.084l-1.157-1.921A5.672,5.672,0,0,1,13.3,8.89V6A5.25,5.25,0,1,0,2.8,6V8.89a5.546,5.546,0,0,1-.676,2.444L.968,13.247a1.264,1.264,0,0,0-.154,1.092,1.276,1.276,0,0,0,.832.741A20.147,20.147,0,0,0,8.041,16.12Z" transform="translate(174.974 190.91)"/>
      <path id="Vector-2" data-name="Vector" d="M3.7,2.01a.749.749,0,0,1-.209-.03A5.265,5.265,0,0,0,2.65,1.8a6.58,6.58,0,0,0-.814-.052A5.823,5.823,0,0,0,.209,1.98a.75.75,0,0,1-.763-.214A.75.75,0,0,1-.7.986,2.72,2.72,0,0,1,1.85-.75,2.72,2.72,0,0,1,4.4.986.75.75,0,0,1,3.7,2.01Z" transform="translate(181.17 189.94)"/>
      <path id="Vector-3" data-name="Vector" d="M3,3.75A3.775,3.775,0,0,1,.35,2.65,3.775,3.775,0,0,1-.75,0H.75a2.265,2.265,0,0,0,.66,1.59A2.265,2.265,0,0,0,3,2.25,2.253,2.253,0,0,0,5.25,0h1.5A3.754,3.754,0,0,1,3,3.75Z" transform="translate(180.02 207.06)"/>
      <path id="Vector-4" data-name="Vector" d="M0,0H24V24H0Z" transform="translate(171 188)" fill="none" opacity="0"/>
    </g>
  </g>
</svg>
