<svg xmlns="http://www.w3.org/2000/svg" xmlns:xlink="http://www.w3.org/1999/xlink" width="157.833" height="198.996" viewBox="0 0 157.833 198.996">
  <defs>
    <linearGradient id="linear-gradient" x1="-0.003" y1="0.003" x2="1.024" y2="0.949" gradientUnits="objectBoundingBox">
      <stop offset="0" stop-color="#5b95d4"/>
      <stop offset="1" stop-color="#31aae0"/>
    </linearGradient>
  </defs>
  <g id="Group_17712" data-name="Group 17712" transform="translate(0 -7.079)">
    <g id="Group_23447" data-name="Group 23447" transform="translate(53 20)">
      <g id="Group_17709" data-name="Group 17709" transform="translate(-53 9.917)">
        <path id="Path_19064" data-name="Path 19064" d="M410.584,436.918c0,.885-3.821-.853-3.961-.9-.68-.216-.475.1-1.079.183-.443.054-.637.7-1.446.55-.561-.108-.378-.939-.842-1.133-1.4-.583-1.759.076-2.8-1.166-.421-.518-.529-1.479-1.112-1.845-.626-.389-1.176.065-1.846-.108-1.727-.453-3.486-1.468-5.2-2.04-.971-.324-1.91-.151-2.882-.432-1.133-.335-1.144-1.09-2.4-.939a14.186,14.186,0,0,0-3.324,1.576,9.3,9.3,0,0,0-1.381,1.565c-1.943-.432-2.72,3.087-3.421,4.285a22.163,22.163,0,0,0-2.666-1.738c-.615-.41-.5-.561-.939-1.036-1.133-1.22-1.921-1.252-3.335-2.061a4.123,4.123,0,0,0-1.3-.68c-.54-.162-1.122.065-1.619-.173-1.2-.583-1.975-1.8-3.173-2.331s-2.687-.335-3.982-.41c-.475-.982-3.076-.55-3.853-.162-.594.291-.658,1.079-1.576,1.4-2.169.777-4.263.831-6.443,1.414a27.991,27.991,0,0,0-2.9,1.328,13.539,13.539,0,0,1-1.446.173c-.216.054-.766.669-1.079.777-.173.054-.8-.453-1.3-.281-.313.108-.745.745-.993.993-1.6,1.651-2.18,3.141-4.706,3.141-1.263,0-1.684-.464-2.752-.626-1.716-.27-3.3,1.015-4.824.13-1.155-.669-1.435-2.439-2.461-3.27-.442-.356-.961-.065-1.446-.529-.367-.345-.173-.971-.626-1.349-1.176-.982-2.083.13-3.335-.443-.874-.4-.982-1.522-1.943-1.813a9.158,9.158,0,0,0-2.525.389,10.645,10.645,0,0,0-3.162.745c-.3.151-1.738,1.586-1.792,1.586-1.133.043-1.565-.583-2.677-.194-1.338.475-1.781,1.36-3.367,1.565-1.63.216-3.281.011-4.911.086-.648.032-1.166.54-1.975.378-.885-.173-.561-.95-1.619-.777-.6.1-.9,1.058-1.608,1.133-.842.086-1.241-.594-1.986-.723-2.115-.367-4.252,1.166-6.292.367-.885-.345-1.284-1.36-2.331-1.435-.648-.043-1.166.583-1.8.529-1.166-.086-.777-.5-1.479-.863-.917-.475-.313-.453-1.36-.54-.529-.043-1.327.313-1.975.281-2.18-.1-6.152-2.471-8.181-.345-.928.971-.518,2.849-1.684,3.95a4.793,4.793,0,0,1-3.022,1.112c-1.381-.022-1.392-.745-2.623-1.09-.7-.194-1.662.14-2.515-.162-2.709-.95-2.925-2.623-4.727-4.457-1.284-1.317-1.662-1.662-1.748-3.637-.1-1.932-.766-2.644-1.263-4.317-1.23-4.112-.54-8.85-.54-13.1V261.02H410.616v175.9Z" transform="translate(-252.823 -261.009)" fill="#fcfcfc"/>
        <path id="Path_19065" data-name="Path 19065" d="M409.787,426.784c-.3.5-.248.971-.734,1.327-.464.335-.928-.669-1.673.216.486,1.241-.648,4-2.2,4.026-1.522.022-2.288-3.249-2.731-3.205a3.986,3.986,0,0,1-4.069-2.72c-1.414,1.381-4.619,2.9-5.083-.183-1.047.281-3.281,1.047-4.058-.14-.712-1.09.529-2.158.777-3.13-.583.194-1.273.809-1.921.82-1.122.022-1.684-.885-3.022-.691a13.511,13.511,0,0,0-2.979,1.22c-1.468.55-.982-.194-2.126-.313-1.414-.14-2.418,1.63-3.907,1.694-1.77.086-2.5-1.457-3.993-2.072-1.705-.7-1.414-.151-3.238.011a9.46,9.46,0,0,1-3.734-.335c-.356-.14-2.731-2.482-2.018-2.547-.637.054-.8.734-1.284.831a5.428,5.428,0,0,1-1.381.032,4.278,4.278,0,0,0-2.741.529,9.781,9.781,0,0,1-2.655,1.3c-.874.173-1.274-.237-2.083.065-.453.173-.961.7-1.414.8-1.781.41-1.565-.324-2.99-.637-.14-.032-3.324.54-2.871,1.047-1.3-1.446-1.414-1.846-2.828-.518-.41.378-1.252,1.522-1.824,1.619-.259.043-2.234-.561-1.953-.907-1.824,2.256-2.007,3.313-5.224,1.727-.194-.1-.151-.723-.432-.82-.389-.13-.637.227-.853.184-1.586-.27-2.288.7-2.2-1.824-1.468.745-7.469,2.385-7.943-.475-1.155.54-2.245,1.673-3.54,1.932-1.1.227-1.252-1.025-1.986-1.446a4.962,4.962,0,0,0-2.752-.432c-.95.086-5.213,2.072-4.727-.82-1.209.237-2.234,1.522-3.065,2.418-.475.507-1.047,1.554-1.651,1.878-.885.475-1.025-.076-1.662.151-1.468.507-1.878.259-3.54-.162-2.04-.507-3.583.151-5.6.464-.108.022-4.166-.065-3.27-.809-1.457,1.2-1.889.173-3.184-.076-.939-.173-2.2.777-2.6.086-1.274.259-2.569-1.932-3.993-2.2-2.31-.443-4.652.464-6.767,1.273-1.435.55-2.936,1.068-3.777,2.536-1.543-2.633-2.666,1.5-4.328,1.543-.518.011-2.968-1.392-2.2-1.705-1.381.572-3.821-.032-4.6-1.327-.507-.863.259-2.223-.194-3.044-.572-1.036-1.878-.453-2.385-1.122-.755-1.025.237-1.694-.043-2.655-.151-.54-1.047-1.381-1.371-1.867-3.281-5-2.148-12.66-2.148-18.6V261.01H410.586V415.819c0,2.569.162,5.191,0,7.749A6.763,6.763,0,0,1,409.787,426.784Z" transform="translate(-252.825 -261.01)" fill="url(#linear-gradient)"/>
      </g>
      <path id="Path_19071" data-name="Path 19071" d="M367.577,287.514c-1.856,0-1.856-1.781-3.713-1.781s-1.856,1.781-3.713,1.781-1.856-1.781-3.713-1.781-1.856,1.781-3.713,1.781-1.856-1.781-3.723-1.781-1.856,1.781-3.723,1.781V241.84c1.856,0,1.856,1.781,3.713,1.781s1.856-1.781,3.713-1.781,1.856,1.781,3.713,1.781,1.856-1.781,3.713-1.781,1.856,1.781,3.723,1.781,1.856-1.781,3.723-1.781Z" transform="translate(-299.631 -254.76)" fill="#fff" opacity="0.55"/>
      <path id="Path_19072" data-name="Path 19072" d="M311.577,289.514c-1.856,0-1.856-1.781-3.713-1.781s-1.856,1.781-3.713,1.781-1.856-1.781-3.713-1.781-1.856,1.781-3.713,1.781-1.856-1.781-3.723-1.781-1.856,1.781-3.723,1.781V243.84c1.856,0,1.856,1.781,3.713,1.781s1.856-1.781,3.713-1.781,1.856,1.781,3.713,1.781,1.856-1.781,3.713-1.781,1.856,1.781,3.723,1.781,1.856-1.781,3.723-1.781Z" transform="translate(-304.07 -254.602)" fill="#fff" opacity="0.55"/>
      <path id="Path_19084" data-name="Path 19084" d="M367.5,243.11v44.325c-1.856,0-1.856-1.781-3.713-1.781s-1.856,1.781-3.713,1.781-1.856-1.781-3.713-1.781-1.856,1.781-3.713,1.781-1.856-1.781-3.723-1.781c-1.414,0-1.748,1.014-2.644,1.511v1.349c1.856,0,1.856-1.781,3.723-1.781s1.856,1.781,3.723,1.781,1.856-1.781,3.713-1.781,1.856,1.781,3.713,1.781,1.856-1.781,3.713-1.781,1.856,1.781,3.713,1.781V242.84A2.1,2.1,0,0,0,367.5,243.11Z" transform="translate(-299.552 -254.76)" fill="#ccc" opacity="0.6"/>
      <path id="Path_19085" data-name="Path 19085" d="M311.5,245.11v44.325c-1.856,0-1.856-1.781-3.713-1.781s-1.856,1.781-3.713,1.781-1.856-1.781-3.713-1.781-1.856,1.781-3.713,1.781-1.856-1.781-3.723-1.781c-1.414,0-1.748,1.015-2.644,1.511v1.349c1.856,0,1.856-1.781,3.723-1.781s1.856,1.781,3.723,1.781,1.856-1.781,3.713-1.781,1.856,1.781,3.713,1.781,1.856-1.781,3.713-1.781,1.856,1.781,3.713,1.781V244.84A2.1,2.1,0,0,0,311.5,245.11Z" transform="translate(-303.99 -254.602)" fill="#ccc" opacity="0.6"/>
    </g>
  </g>
</svg>
