<svg xmlns="http://www.w3.org/2000/svg" width="18.802" height="18.802" viewBox="0 0 18.802 18.802">
  <g id="vuesax_linear_bag-2" data-name="vuesax/linear/bag-2" transform="translate(-523 -181)">
    <g id="bag-2" transform="translate(523 181)">
      <path id="Vector" d="M6.888,5.033A.588.588,0,0,1,6.3,4.445V3.364a2.949,2.949,0,0,0-.966-2.179A2.905,2.905,0,0,0,3.075.439,3.159,3.159,0,0,0,.425,3.513v.76a.588.588,0,0,1-.588.588A.588.588,0,0,1-.75,4.273v-.76A4.331,4.331,0,0,1,2.964-.73,4.113,4.113,0,0,1,7.476,3.364V4.445A.588.588,0,0,1,6.888,5.033Z" transform="translate(6.038 1.736)" fill="#31aae0"/>
      <path id="Vector-2" data-name="Vector" d="M9.044,11.393h-4.7a4.992,4.992,0,0,1-3.455-.976A3.535,3.535,0,0,1-.118,8.076l-.587-4.7V3.373A3.627,3.627,0,0,1-.011.416,4.573,4.573,0,0,1,3.56-.75H9.827A4.573,4.573,0,0,1,13.4.416a3.627,3.627,0,0,1,.7,2.957v.008l-.587,4.7a3.535,3.535,0,0,1-1.007,2.34A4.992,4.992,0,0,1,9.044,11.393ZM.461,3.239l.587,4.7v.01a2.328,2.328,0,0,0,.632,1.6,3.961,3.961,0,0,0,2.662.669h4.7a3.961,3.961,0,0,0,2.662-.669,2.328,2.328,0,0,0,.632-1.6v-.01l.587-4.7a2.525,2.525,0,0,0-.4-2.039,3.6,3.6,0,0,0-2.7-.775H3.56a3.6,3.6,0,0,0-2.7.775A2.525,2.525,0,0,0,.461,3.239Z" transform="translate(2.708 6.43)" fill="#31aae0"/>
      <path id="Vector-3" data-name="Vector" d="M.285,1.067H.278A.783.783,0,1,1,.278-.5H.285a.783.783,0,0,1,0,1.567Z" transform="translate(11.861 9.117)" fill="#31aae0"/>
      <path id="Vector-4" data-name="Vector" d="M.285,1.067H.278A.783.783,0,1,1,.278-.5H.285a.783.783,0,0,1,0,1.567Z" transform="translate(6.377 9.117)" fill="#31aae0"/>
      <path id="Vector-5" data-name="Vector" d="M0,0H18.8V18.8H0Z" fill="none" opacity="0"/>
    </g>
  </g>
</svg>
