<svg id="people" xmlns="http://www.w3.org/2000/svg" width="30.609" height="30.609" viewBox="0 0 30.609 30.609">
  <path id="Vector" d="M0,0H30.609V30.609H0Z" fill="none" opacity="0"/>
  <path id="Vector-2" data-name="Vector" d="M3.813,7.359a.942.942,0,0,0-.268,0,3.692,3.692,0,1,1,.268,0Z" transform="translate(18.544 2.551)" fill="#9ccb48" opacity="0.4"/>
  <path id="Vector-3" data-name="Vector" d="M5.344,5.985A7.919,7.919,0,0,1,.064,7.056,8.329,8.329,0,0,0,.816,3.625,7.837,7.837,0,0,0,0,.08,7.954,7.954,0,0,1,5.331,1.138C7.346,2.465,7.346,4.646,5.344,5.985Z" transform="translate(21.171 12.763)" fill="#9ccb48" opacity="0.4"/>
  <path id="Vector-4" data-name="Vector" d="M3.546,7.359a.942.942,0,0,1,.268,0,3.679,3.679,0,1,0-.268,0Z" transform="translate(4.668 2.551)" fill="#9ccb48" opacity="0.4"/>
  <path id="Vector-5" data-name="Vector" d="M5.809,3.626a8.306,8.306,0,0,0,.752,3.469A7.881,7.881,0,0,1,1.511,6C-.5,4.659-.5,2.478,1.511,1.139A7.832,7.832,0,0,1,6.613.055,8.109,8.109,0,0,0,5.809,3.626Z" transform="translate(2.544 12.763)" fill="#9ccb48" opacity="0.4"/>
  <path id="Vector-6" data-name="Vector" d="M4.553,8.762a1.44,1.44,0,0,0-.332,0,4.4,4.4,0,1,1,.332,0Z" transform="translate(10.904 11.478)" fill="#9ccb48"/>
  <path id="Vector-7" data-name="Vector" d="M1.444,1.1a2.618,2.618,0,0,0,0,4.681,7.793,7.793,0,0,0,7.984,0,2.618,2.618,0,0,0,0-4.681A7.793,7.793,0,0,0,1.444,1.1Z" transform="translate(9.868 21.78)" fill="#9ccb48"/>
</svg>
