<svg xmlns="http://www.w3.org/2000/svg" xmlns:xlink="http://www.w3.org/1999/xlink" width="257.39" height="207.564" viewBox="0 0 257.39 207.564">
  <defs>
    <linearGradient id="linear-gradient" x1="0.046" y1="2.121" x2="1.153" y2="-1.808" gradientUnits="objectBoundingBox">
      <stop offset="0.36" stop-color="#00272e"/>
      <stop offset="0.75" stop-color="#3f80a1" stop-opacity="0.251"/>
      <stop offset="1" stop-color="#69b9eb" stop-opacity="0"/>
    </linearGradient>
    <linearGradient id="linear-gradient-2" x1="0.901" y1="0.631" x2="0.107" y2="0.354" gradientUnits="objectBoundingBox">
      <stop offset="0"/>
      <stop offset="0.98" stop-opacity="0"/>
    </linearGradient>
    <linearGradient id="linear-gradient-3" x1="0.5" x2="0.5" y2="1" gradientUnits="objectBoundingBox">
      <stop offset="0" stop-color="#9ccb48"/>
      <stop offset="1" stop-color="#31aae0"/>
    </linearGradient>
  </defs>
  <g id="Group_23446" data-name="Group 23446" transform="translate(-66 -338)">
    <g id="new-messages" transform="translate(65.997 359.003)">
      <path id="Path_17164" data-name="Path 17164" d="M41.364,83.582c-7.606,1.613-15.513,3.363-21.619,8.178C14.588,95.823,6.554,103.323,4.12,109.416-6.193,135.157,5.467,166.479,28.1,182.5c10.644,7.534,23.909,11.181,33.475,20.05,6.05,5.609,10.288,13.034,16.725,18.191,9.406,7.528,22.106,9.194,34.125,10,8.35.566,17.025.809,24.772-2.366,5.6-2.294,10.344-6.228,15-10.106l30.847-25.759c4.956-4.134,9.591-10.719,16.044-10.675,58.081.416,62-67.938-27.144-98.213-7.856-2.669-13.244-10.088-20.625-13.891-15.247-7.859-32.794-5.313-48.172.125C83.62,76.776,61.626,79.273,41.364,83.582Z" transform="translate(-0.33 -44.521)" fill="#68e1fd" opacity="0.18"/>
      <path id="Path_17165" data-name="Path 17165" d="M555.235,469.818c2.431.041,5.563.647,5.938,3.047a4.759,4.759,0,0,1-1.287,3.475c-4.847,6.334-12.878,9.538-20.8,10.4s-15.912-.344-23.825-1.319q-17.15-2.119-34.438-2.812c-8.194-.331-16.812-.538-23.869-4.713a7.508,7.508,0,0,1-3.225-3.125c-1.25-2.759.725-6.119,3.438-7.459s5.9-1.209,8.925-1.047C495.794,467.862,525.479,469.818,555.235,469.818Z" transform="translate(-311.773 -320.488)" fill="#000405" opacity="0.05"/>
      <path id="Path_17166" data-name="Path 17166" d="M366.206,96.466s-10.572,13.672-12.578,15.963a41.924,41.924,0,0,0-6.019,9.622L342.3,144.657l-5.938-1.584-12.909-3.438s4.588-12.356,2.366-16.106c-2.962-5-.4-8.125.275-10.272,1.25-3.978-5.134-11.25-5.134-11.25l-4.091-18.322,6.175-.825,4.481,14.853,7.678,6.853,5.469.291s4.125.85,7.125-.537c2.869-1.331,13-12.759,13-12.759l4.134,3.75Z" transform="translate(-122.641 -56.968)" fill="#9ccb48"/>
      <path id="Path_17169" data-name="Path 17169" d="M185.391,181a7.815,7.815,0,0,0-.9.828h-.181Z" transform="translate(-126.814 -124.439)" opacity="0.61" fill="url(#linear-gradient)"/>
      <path id="Path_17177" data-name="Path 17177" d="M720.152,90.825a3.862,3.862,0,0,1,2.675-.844,2.812,2.812,0,0,1,1.938.669,3.087,3.087,0,0,1,.756,1.666,9.56,9.56,0,0,1,.172,2.331c-.069,1.434-.441,2.953.178,4.25a3.04,3.04,0,0,0,.587.831,1.635,1.635,0,0,0,1.088.541.872.872,0,0,0,.894-.7,3.319,3.319,0,0,1-5.112,1.222l.544,1.1a6.335,6.335,0,0,1-1.3-.494,5.462,5.462,0,0,1-2.425-3.669c-.313-1.359-.375-2.763-.669-4.128A2.656,2.656,0,0,1,720.152,90.825Z" transform="translate(-494.662 -61.858)"/>
      <path id="Path_17178" data-name="Path 17178" d="M717.292,97.491a2.187,2.187,0,0,1,.794.122,1.25,1.25,0,0,1,.766,1.047,1.181,1.181,0,0,1-.65,1.116,1.981,1.981,0,0,1-.844.147c-.263,0-.528,0-.791-.025a.459.459,0,0,1-.216-.053.475.475,0,0,1-.147-.209,4.728,4.728,0,0,1-.384-1.072C715.6,97.413,716.379,97.482,717.292,97.491Z" transform="translate(-493.201 -67.024)" fill="#31aae0"/>
      <path id="Path_17179" data-name="Path 17179" d="M689.9,132.61s-.05.9-.112,2.078c-.053.991-.119,2.188-.172,3.181a6.685,6.685,0,0,1-2.022,4.438c-.706.722-2.391,2.069-3.675,1.591-.625-.231-.647-1.019-.516-1.491a9.253,9.253,0,0,0,.478-2.666,9.353,9.353,0,0,0-.2-2.187C682.883,135.544,689.9,132.61,689.9,132.61Z" transform="translate(-469.899 -91.171)" fill="#b56f40"/>
      <path id="Path_17180" data-name="Path 17180" d="M690.541,132.61s-.05.9-.112,2.078c-.494,1.1-.956,2-1.209,2.444a7.432,7.432,0,0,1-4.687,2.609,9.35,9.35,0,0,0-.2-2.187C683.519,135.544,690.541,132.61,690.541,132.61Z" transform="translate(-470.535 -91.171)" fill="#99592e"/>
      <path id="Path_17181" data-name="Path 17181" d="M670.892,94.309a6.716,6.716,0,0,0-6.25,7.584,22.712,22.712,0,0,0,2.069,7.881c2.187,3.75,7.731.666,8.609-.878s4.247-8.506,2.831-10.478C677.177,97.087,674.474,94.165,670.892,94.309Z" transform="translate(-457.002 -64.836)" fill="#b56f40"/>
      <path id="Path_17182" data-name="Path 17182" d="M664.267,81.1a11.631,11.631,0,0,1,7.169.209,8.759,8.759,0,0,1,5.1,4.909,8.928,8.928,0,0,1-.2,6.469,12.637,12.637,0,0,1-4.062,5.134c-.459-1.406.956-2.656,1.506-4.028a1.134,1.134,0,0,0,.078-.819.932.932,0,0,0-1.4-.234,2.675,2.675,0,0,0-.784,1.412c.422-2.234.734-4.859-.847-6.5a5.17,5.17,0,0,0-3.7-1.344,9.062,9.062,0,0,0-6.622,2.847c-.5.534-1.2,1.191-1.834.822a1.251,1.251,0,0,1-.444-.541C656.358,85.75,661.258,81.928,664.267,81.1Z" transform="translate(-453.345 -55.44)"/>
      <path id="Path_17183" data-name="Path 17183" d="M659.887,92.59a12.319,12.319,0,0,0-4.9-1.25,6.077,6.077,0,0,0-4.578,1.85,6.428,6.428,0,0,0-1.25,2.428,4.374,4.374,0,0,0-.219,1.731,7.468,7.468,0,0,0,.312,1.25,3.452,3.452,0,0,1-.222,3.038,1.369,1.369,0,0,1-1.044.581.85.85,0,0,1-.856-.728,1.84,1.84,0,0,0,.891,2.1,2.925,2.925,0,0,0,2.4.116,2.6,2.6,0,0,0,.884-.484,3.043,3.043,0,0,0,.625-.859,29.121,29.121,0,0,0,1.469-3.778,6.26,6.26,0,0,1,2.347-3.219,6.063,6.063,0,0,1,2.981-.741c1.034-.034,2.075.05,3.106-.044s.284-.706-.159-1.028A9.855,9.855,0,0,0,659.887,92.59Z" transform="translate(-444.946 -62.798)"/>
      <path id="Path_17184" data-name="Path 17184" d="M782.565,51.286c.266.206-2.222,2.144-2.222,2.144A7.657,7.657,0,0,1,778,55.989c-1.181.556-10.056,15.047-10.056,15.047l-3.5-3.175L772,57.7s2.5-4.791,2.222-6.875c0,0,.15-2.463.9-1.319.531.816.191,2.1.819,2.238a.341.341,0,0,0,.2-.044,7.069,7.069,0,0,0,1.422-1.137c1.25-1.191,2.744-2.847,2.744-2.847s.819-.347.716,0-1.606,2.688-1.691,2.813c.141-.128,2.447-2.187,2.812-2.028s-1.787,2.531-1.913,2.669c.134-.094,2.594-1.806,2.778-1.653.347.291-1.875,2.219-2.059,2.366C781.09,51.8,782.312,51.086,782.565,51.286Z" transform="translate(-525.653 -32.697)" fill="#b56f40"/>
      <path id="Path_17185" data-name="Path 17185" d="M805.647,59.366a1.25,1.25,0,0,1-.578.047,15.939,15.939,0,0,0-1.894-.031c-.425.019-1.3.313-1.325-.347,0-.175.044-.347.034-.522a1.4,1.4,0,0,0-.031-.225,7.073,7.073,0,0,0,1.422-1.138,2.071,2.071,0,0,1,.537.272q.625.4,1.231.8c.219.144.438.287.647.444a.563.563,0,0,1,.213.241.4.4,0,0,1-.256.462Z" transform="translate(-551.372 -39.292)" fill="#99592e"/>
      <path id="Path_17186" data-name="Path 17186" d="M618.588,2.317c-.338.037.756,2.994.756,2.994a7.657,7.657,0,0,0,.641,3.409c.709,1.094.609,17.859.609,17.859l4.65-.625-1.056-12.628s.4-5.388,1.738-7.009c0,0,1.169-2.172-.072-1.6-.881.413-1.272,1.681-1.875,1.469a.331.331,0,0,1-.147-.144,6.874,6.874,0,0,1-.625-1.716c-.441-1.672-.828-3.866-.828-3.866s-.5-.719-.581-.372-.053,3.125-.05,3.284c-.053-.178-.922-3.153-1.328-3.206s.184,3.094.222,3.275c-.069-.15-1.25-2.9-1.494-2.869-.447.066.441,2.884.506,3.094C619.566,3.533,618.907,2.286,618.588,2.317Z" transform="translate(-425.335 0)" fill="#b56f40"/>
      <path id="Path_17188" data-name="Path 17188" d="M526.648,477.278c-1.25,2.553-2.159,4.538-2.159,4.538l-15.728.75s2.606-6.9,6.847-5.116c1.434.6,6.631-.528,6.631-.528l.163-.522Z" transform="translate(-349.873 -327.526)"/>
      <path id="Path_17189" data-name="Path 17189" d="M612.408,332.424,610,333.774l-20.625-21.681L587.1,283.149l-18.806,17.059s.5,11.747-6.072,20.938a103.6,103.6,0,0,0-5.387,10.169c-.056.116-.113.234-.166.35l-.353-.072-1.228-.256-2.666-.55,8.644-34.938L580.7,264.58l12.909,3.438,5.938,1.584s4.006,8.028,0,28.806L596.9,310.3s10.706,5.709,14.006,17l1.5,5.112Z" transform="translate(-379.889 -181.9)"/>
      <path id="Path_17190" data-name="Path 17190" d="M718.228,481.68l2.447,2.559-6.209,6.475H706.34a7.65,7.65,0,0,1,5.194-3.312c3.462-.453,4.291-4.375,4.291-4.375Z" transform="translate(-485.709 -331.156)"/>
      <path id="Path_17194" data-name="Path 17194" d="M461.938,76.245l-.187.525-1.4,1.4c.981-1.694-1.791-5.625-1.791-5.625l-1.106-.828-3.322-2.5L391.21,22.144l2-1.534,64.522,49.46A7.769,7.769,0,0,1,461.938,76.245Z" transform="translate(-269.058 -14.171)" fill="#fff" opacity="0.22"/>
      <path id="Path_17195" data-name="Path 17195" d="M714.067,123.849s-10.572,13.672-12.578,15.963a41.925,41.925,0,0,0-6.019,9.622l-5.313,22.606-5.937-1.584s5.544-20.728,7.772-25.128,20.794-22.638,20.794-22.638Z" transform="translate(-470.502 -84.351)" opacity="0.61" fill="url(#linear-gradient-2)"/>
      <path id="Path_17196" data-name="Path 17196" d="M618.269,339.953c-.109-.312-3.638-10.113-8.934-14.222a35.827,35.827,0,0,1-8.5-9.938c-1.266-11.063-1.353-40.253-1.353-40.253l5.938,1.584s4.006,8.028,0,28.806l-2.656,11.894s10.706,5.722,14.006,17.016Zm-44.113-32.216s.5,11.747-6.072,20.938a103.572,103.572,0,0,0-5.388,10.169l-.519.278-1.228-.256h0l10.194-32.153s12.347-14.628,14.606-16.028,7.213,0,7.213,0Z" transform="translate(-385.754 -189.435)" fill="#25233a"/>
    </g>
    <g id="Group_23445" data-name="Group 23445" transform="translate(12700 16)">
      <rect id="Rectangle_3955" data-name="Rectangle 3955" width="87" height="169" rx="18" transform="translate(-12555 322)" fill="url(#linear-gradient-3)"/>
      <rect id="Rectangle_3956" data-name="Rectangle 3956" width="77" height="158" rx="13" transform="translate(-12550 327)" fill="#94c144"/>
      <g id="tick-circle" transform="translate(-13288.643 183.715)">
        <path id="Vector" d="M48.57,24.285A24.285,24.285,0,1,1,24.285,0,24.285,24.285,0,0,1,48.57,24.285Z" transform="translate(752.857 192.857)" fill="#fff"/>
        <path id="Vector-2" data-name="Vector" d="M8.688,17.406A1.82,1.82,0,0,1,7.4,16.872L.528,10A1.82,1.82,0,0,1,3.1,7.425l5.586,5.586L21.171.528A1.82,1.82,0,0,1,23.745,3.1L9.975,16.872A1.82,1.82,0,0,1,8.688,17.406Z" transform="translate(765.006 208.43)" fill="url(#linear-gradient-3)"/>
        <path id="Vector-3" data-name="Vector" d="M0,0H58.284V58.284H0Z" transform="translate(748 188)" fill="none" opacity="0"/>
      </g>
      <line id="Line_183" data-name="Line 183" x2="9" transform="translate(-12516.5 333.5)" fill="none" stroke="#bbe275" stroke-linecap="round" stroke-width="1"/>
    </g>
    <path id="Path_31753" data-name="Path 31753" d="M196.968,51.659c-2.562-5.5-12.188-4.594-12.188-4.594,5.938-3.5,4.8-12.4,4.728-12.925h0c2.6,7.756,11.563,6.044,12.366,5.875C195.921,41.484,196.968,51.659,196.968,51.659ZM180.28,62.937c-1.628-3.494-7.75-2.919-7.75-2.919h0c3.875-2.3,3-8.231,3-8.231v.034c1.662,4.9,7.35,3.816,7.856,3.709C179.614,56.468,180.28,62.937,180.28,62.937Z" transform="translate(-47.719 335.53)" fill="#31aae0"/>
    <path id="Path_31754" data-name="Path 31754" d="M186.186,46.615l-1.372.45c5.938-3.5,4.8-12.4,4.728-12.925.094.422,1.475,6.294.722,8.222C189.323,44.771,186.186,46.615,186.186,46.615Zm-9.812,10.744c-.725,1-3.606,2.55-3.8,2.653,3.875-2.3,3-8.231,3-8.231v.034C175.72,52.221,177.079,56.378,176.373,57.359Z" transform="translate(-47.746 335.53)" fill="#fff" opacity="0.22"/>
  </g>
</svg>
