<svg xmlns="http://www.w3.org/2000/svg" width="20.79" height="20.79" viewBox="0 0 20.79 20.79">
  <g id="vuesax_bulk_call" data-name="vuesax/bulk/call" transform="translate(-108 -188)">
    <g id="call" transform="translate(108 188)">
      <path id="Vector" d="M8.481,10.577,5.648,13.409q-.468-.416-.91-.858A24.613,24.613,0,0,1,2.322,9.719a15.443,15.443,0,0,1-1.7-2.954A7.3,7.3,0,0,1,0,3.933,4.481,4.481,0,0,1,.312,2.261a3.987,3.987,0,0,1,1-1.447A2.538,2.538,0,0,1,3.11,0a1.628,1.628,0,0,1,.7.156,1.412,1.412,0,0,1,.58.485L6.4,3.474a2.965,2.965,0,0,1,.346.606,1.369,1.369,0,0,1,.121.528,1.176,1.176,0,0,1-.182.615,2.946,2.946,0,0,1-.485.615l-.658.684a.464.464,0,0,0-.139.346.786.786,0,0,0,.026.2c.026.069.052.121.069.173a7.188,7.188,0,0,0,.806,1.109c.39.45.806.91,1.256,1.369C7.874,10.022,8.177,10.317,8.481,10.577Z" transform="translate(1.732 1.732)" fill="#9ccb48" opacity="0.4"/>
      <path id="Vector-2" data-name="Vector" d="M10.715,3.716a2.2,2.2,0,0,1-.13.736,2.116,2.116,0,0,1-.087.208,3.574,3.574,0,0,1-.589.884A3.905,3.905,0,0,1,8.489,6.566c-.009,0-.017.009-.026.009A4.376,4.376,0,0,1,6.8,6.9a7.219,7.219,0,0,1-2.824-.632A15.215,15.215,0,0,1,1,4.548c-.338-.251-.676-.5-1-.771L2.833.944a4.867,4.867,0,0,0,.641.416c.043.017.1.043.156.069a.6.6,0,0,0,.217.035A.477.477,0,0,0,4.2,1.317L4.86.667A2.658,2.658,0,0,1,5.483.182,1.154,1.154,0,0,1,6.1,0a1.382,1.382,0,0,1,.528.113A3.35,3.35,0,0,1,7.233.45L10.1,2.486a1.314,1.314,0,0,1,.476.554A1.777,1.777,0,0,1,10.715,3.716Z" transform="translate(8.316 12.162)" fill="#9ccb48"/>
      <path id="Vector-3" data-name="Vector" d="M0,0H20.79V20.79H0Z" fill="none" opacity="0"/>
    </g>
  </g>
</svg>
