<svg xmlns="http://www.w3.org/2000/svg" xmlns:xlink="http://www.w3.org/1999/xlink" width="32.425" height="31.834" viewBox="0 0 32.425 31.834">
  <defs>
    <linearGradient id="linear-gradient" x1="0.021" y1="0.723" x2="1" y2="0.184" gradientUnits="objectBoundingBox">
      <stop offset="0" stop-color="#313c40"/>
      <stop offset="0.175" stop-color="#838e9c"/>
      <stop offset="0.472" stop-color="#b6bbc7"/>
      <stop offset="0.785" stop-color="#cdcfd9"/>
      <stop offset="1" stop-color="#525d66"/>
    </linearGradient>
  </defs>
  <g id="XMLID_816_" transform="translate(0 -3.007)">
    <path id="XMLID_39_" d="M6.656,198.028,4.807,193.22,0,191.371l7.4-7.4,6.656,6.656Z" transform="translate(0 -163.187)" fill="#8994a1"/>
    <path id="XMLID_38_" d="M194.378,198.028l1.849-4.807,4.807-1.849-7.4-7.4-6.656,6.656Z" transform="translate(-168.61 -163.187)" fill="#4a555c"/>
    <g id="XMLID_817_" transform="translate(3.174 3.007)">
      <path id="XMLID_818_" d="M78.719,38.871l-2.814,3.2-.276,4.257-4.256.276-3.2,2.814-3.2-2.814-4.257-.276-.276-4.256-2.814-3.2,2.814-3.2.276-4.257,4.257-.276,3.2-2.814,3.2,2.814,4.256.276.276,4.256Z" transform="translate(-55.13 -25.833)" fill="#c6c9d3"/>
      <path id="XMLID_819_" d="M172.737,35.667l-.276-4.256-4.256-.276L165,28.32v21.1l3.2-2.814,4.256-.276.276-4.257,2.814-3.2Z" transform="translate(-151.962 -25.833)" fill="rgba(255,255,255,0.32)"/>
      <path id="XMLID_820_" d="M56.44,18.255l1.941-2.21L56.444,13.84l.947-2.778-2.638-1.3-.191-2.935-2.929-.19L50.338,4l-2.785.946-2.21-1.941L43.137,4.944,40.359,4l-1.3,2.638-2.935.191-.19,2.929L33.3,11.05l.946,2.785L32.3,16.045l1.937,2.205-.947,2.778,2.638,1.3.191,2.935,2.929.19,1.3,2.634,2.785-.946,2.21,1.941,2.205-1.937,2.778.947,1.3-2.638,2.935-.191.19-2.929,2.634-1.3Zm-5.184.239-.094,1.442-1.3.637-.637,1.292-1.438.093-1.085.953-1.367-.466-1.363.463-1.082-.95-1.442-.094-.637-1.3-1.292-.637-.093-1.438-.953-1.085.466-1.367-.463-1.363.95-1.082.094-1.442,1.3-.637.637-1.292,1.438-.093,1.085-.953,1.367.466,1.363-.463,1.082.95,1.442.094.637,1.3,1.292.637.093,1.438.953,1.085-.466,1.367.463,1.363Z" transform="translate(-32.304 -3.007)" fill="url(#linear-gradient)"/>
      <path id="XMLID_823_" d="M178.038,16.046,176.1,13.841l.947-2.778-2.638-1.3-.191-2.935-2.929-.19L170,4l-2.785.946L165,3.008V9.645h0l1.363-.463,1.082.95,1.442.094.637,1.3,1.292.637.093,1.438.953,1.085L171.4,16.05l.463,1.363-.95,1.082-.094,1.442-1.3.637-.637,1.292-1.438.093-1.085.953L165,22.448v6.637l2.205-1.937,2.778.947,1.3-2.638,2.935-.191.19-2.929,2.634-1.3-.946-2.785Z" transform="translate(-151.962 -3.008)" fill="rgba(255,255,255,0.18)"/>
    </g>
  </g>
</svg>
