<svg xmlns="http://www.w3.org/2000/svg" width="24" height="24" viewBox="0 0 24 24">
  <g id="vuesax_bulk_refresh-2" data-name="vuesax/bulk/refresh-2" transform="translate(-364 -316)">
    <g id="refresh-2">
      <path id="Vector" d="M20,5.81v8.37c0,3.64-2.17,5.81-5.81,5.81H5.81C2.17,20,0,17.83,0,14.19V5.81C0,2.17,2.17,0,5.81,0h8.37C17.83,0,20,2.17,20,5.81Z" transform="translate(366 318)" opacity="0.4"/>
      <path id="Vector-2" data-name="Vector" d="M6.25,12.5a6.117,6.117,0,0,1-4.14-1.77v.71a.75.75,0,0,1-1.5,0V8.69a.755.755,0,0,1,.75-.75H3.84a.75.75,0,0,1,0,1.5h-.9A4.816,4.816,0,0,0,6.25,11,4.754,4.754,0,0,0,11,6.25a.75.75,0,0,1,1.5,0A6.252,6.252,0,0,1,6.25,12.5ZM.75,7A.755.755,0,0,1,0,6.25,6.252,6.252,0,0,1,6.25,0,7.136,7.136,0,0,1,11,1.82V1.06a.75.75,0,0,1,1.5,0V3.88a.75.75,0,0,1-.09.3.791.791,0,0,1-.21.24.9.9,0,0,1-.24.12.761.761,0,0,1-.21.03H9.32a.75.75,0,0,1,0-1.5h.83A5.651,5.651,0,0,0,6.27,1.51,4.754,4.754,0,0,0,1.52,6.26.785.785,0,0,1,.75,7Z" transform="translate(369.75 321.75)"/>
      <path id="Vector-3" data-name="Vector" d="M0,0H24V24H0Z" transform="translate(364 316)" fill="none" opacity="0"/>
    </g>
  </g>
</svg>
