<svg xmlns="http://www.w3.org/2000/svg" width="24" height="24" viewBox="0 0 24 24">
  <g id="vuesax_bold_shop-add" data-name="vuesax/bold/shop-add" transform="translate(-750 -188)">
    <g id="shop-add">
      <path id="Vector" d="M0,0H24V24H0Z" transform="translate(750 188)" fill="none" opacity="0"/>
      <path id="Vector-2" data-name="Vector" d="M4.81,9.41A4.812,4.812,0,0,1,0,4.6V1.76A.961.961,0,0,1,1.29.86a4.329,4.329,0,0,0,.79.19,2.2,2.2,0,0,0,.36.04,3.553,3.553,0,0,0,.46.03A4.919,4.919,0,0,0,5.98,0,4.668,4.668,0,0,0,9.02,1.12,4.581,4.581,0,0,0,12.05.01a4.857,4.857,0,0,0,3.04,1.11,4.236,4.236,0,0,0,.51-.03,3.31,3.31,0,0,0,.33-.04,4.489,4.489,0,0,0,.84-.21.961.961,0,0,1,1.27.9V4.6a4.812,4.812,0,0,1-4.81,4.81Z" transform="translate(752.99 200.74)"/>
      <path id="Vector-3" data-name="Vector" d="M19.98,6.74,19.7,4.08C19.3,1.18,17.98,0,15.16,0H4.82C2,0,.69,1.18.28,4.11L.02,6.75A3.921,3.921,0,0,0,.81,9.56a3.848,3.848,0,0,0,3.1,1.49,3.932,3.932,0,0,0,3.1-1.58,3.665,3.665,0,0,0,6,.04,3.943,3.943,0,0,0,3.08,1.54,3.821,3.821,0,0,0,3.15-1.57A3.882,3.882,0,0,0,19.98,6.74Z" transform="translate(752 189.85)"/>
      <path id="Vector-4" data-name="Vector" d="M0,0H24V24H0Z" transform="translate(774 212) rotate(180)" fill="none" opacity="0"/>
    </g>
  </g>
</svg>
