<svg xmlns="http://www.w3.org/2000/svg" width="20.34" height="20.34" viewBox="0 0 20.34 20.34">
  <g id="vuesax_bulk_shop" data-name="vuesax/bulk/shop" transform="translate(-172 -252)">
    <g id="shop" transform="translate(172 252)">
      <path id="Vector" d="M15.882.237V5.314a4.239,4.239,0,0,1-4.237,4.237H4.237A4.239,4.239,0,0,1,0,5.314V.3A3.455,3.455,0,0,0,2.551,1.39,3.469,3.469,0,0,0,5.288,0,3.182,3.182,0,0,0,7.941,1.39,3.165,3.165,0,0,0,10.577.034,3.474,3.474,0,0,0,13.289,1.39,3.382,3.382,0,0,0,15.882.237Z" transform="translate(2.229 9.416)" fill="#9ccb48" opacity="0.4"/>
      <path id="Vector-2" data-name="Vector" d="M5.726,0H.642L.014,6.238A3.3,3.3,0,0,0,.26,7.848a3.167,3.167,0,0,0,2.932,1.9,3.158,3.158,0,0,0,2.941-1.89,3.372,3.372,0,0,0,.254-1.22V6.475Z" transform="translate(6.977 1.059)" fill="#9ccb48"/>
      <path id="Vector-3" data-name="Vector" d="M7.5,5.949,7.255,3.6C6.9,1.042,5.738,0,3.254,0H0L.627,6.356A3.044,3.044,0,0,1,.644,6.7a3.236,3.236,0,0,0,.39,1.212A3.514,3.514,0,0,0,4.068,9.746a3.375,3.375,0,0,0,2.78-1.381A3.451,3.451,0,0,0,7.5,5.949Z" transform="translate(11.45 1.059)" fill="#9ccb48" opacity="0.6"/>
      <path id="Vector-4" data-name="Vector" d="M4.254,0C1.762,0,.61,1.042.245,3.627L.016,5.958A3.484,3.484,0,0,0,.711,8.433,3.4,3.4,0,0,0,3.449,9.746,3.508,3.508,0,0,0,6.474,7.924a3.155,3.155,0,0,0,.407-1.28L7.542.008H4.254Z" transform="translate(1.331 1.059)" fill="#9ccb48" opacity="0.6"/>
      <path id="Vector-5" data-name="Vector" d="M1.89.03A2.115,2.115,0,0,0,0,2.14V4.878H4.873V2.437C4.882.665,3.839-.174,1.89.03Z" transform="translate(7.729 14.089)" fill="#9ccb48"/>
      <path id="Vector-6" data-name="Vector" d="M0,0H20.34V20.34H0Z" fill="none" opacity="0"/>
    </g>
  </g>
</svg>
