<svg xmlns="http://www.w3.org/2000/svg" width="18" height="18" viewBox="0 0 18 18">
  <g id="vuesax_linear_lock" data-name="vuesax/linear/lock" transform="translate(-172 -252)">
    <g id="lock" transform="translate(172 252)">
      <path id="Vector" d="M9,6.75A.75.75,0,0,1,8.25,6V4.5C8.25,2.185,7.623.75,4.5.75S.75,2.185.75,4.5V6A.75.75,0,0,1,0,6.75.75.75,0,0,1-.75,6V4.5A5.584,5.584,0,0,1,.26.849C1.126-.227,2.513-.75,4.5-.75s3.374.523,4.24,1.6A5.584,5.584,0,0,1,9.75,4.5V6A.75.75,0,0,1,9,6.75Z" transform="translate(4.5 1.5)" fill="#9ccb48"/>
      <path id="Vector-2" data-name="Vector" d="M1.875-.75A2.625,2.625,0,1,1-.75,1.875,2.628,2.628,0,0,1,1.875-.75Zm0,3.75A1.125,1.125,0,1,0,.75,1.875,1.126,1.126,0,0,0,1.875,3Z" transform="translate(7.125 10.125)" fill="#9ccb48"/>
      <path id="Vector-3" data-name="Vector" d="M11.25,9.75H3.75A4.879,4.879,0,0,1,.22,8.78,4.879,4.879,0,0,1-.75,5.25V3.75A4.879,4.879,0,0,1,.22.22,4.879,4.879,0,0,1,3.75-.75h7.5a4.879,4.879,0,0,1,3.53.97,4.879,4.879,0,0,1,.97,3.53v1.5a4.879,4.879,0,0,1-.97,3.53A4.879,4.879,0,0,1,11.25,9.75Zm-7.5-9c-1.359,0-2.1.159-2.47.53S.75,2.391.75,3.75v1.5c0,1.359.159,2.1.53,2.47s1.11.53,2.47.53h7.5c1.359,0,2.1-.159,2.47-.53s.53-1.11.53-2.47V3.75c0-1.359-.159-2.1-.53-2.47S12.609.75,11.25.75Z" transform="translate(1.5 7.5)" fill="#9ccb48"/>
      <path id="Vector-4" data-name="Vector" d="M0,0H18V18H0Z" transform="translate(18 18) rotate(180)" fill="none" opacity="0"/>
    </g>
  </g>
</svg>
