<svg xmlns="http://www.w3.org/2000/svg" width="18" height="18" viewBox="0 0 18 18">
  <g id="Group_16126" data-name="Group 16126" transform="translate(-491 -2520)">
    <rect id="Path" width="18" height="18" transform="translate(491 2520)" fill="rgba(255,255,255,0)"/>
    <path id="log-out-Filled_1_" d="M501.481,2569.219a.75.75,0,0,1-.75.75h-3a3.754,3.754,0,0,1-3.75-3.75v-7.5a3.754,3.754,0,0,1,3.75-3.75h3a.75.75,0,0,1,0,1.5h-3a2.253,2.253,0,0,0-2.25,2.25v7.5a2.253,2.253,0,0,0,2.25,2.25h3A.749.749,0,0,1,501.481,2569.219Zm5.78-7.28-3-3A.75.75,0,0,0,503.2,2560l1.72,1.72h-5.689a.75.75,0,0,0,0,1.5h5.689l-1.72,1.72a.75.75,0,1,0,1.06,1.061l3-3A.749.749,0,0,0,507.261,2561.939Z" transform="translate(-0.745 -33.492)" fill="#9ccb48"/>
  </g>
</svg>
