<svg xmlns="http://www.w3.org/2000/svg" width="19.383" height="19.383" viewBox="0 0 19.383 19.383">
  <g id="vuesax_linear_notification" data-name="vuesax/linear/notification" transform="translate(-171 -188)">
    <g id="notification" transform="translate(171 188)">
      <path id="Vector" d="M6.353-.75A5.458,5.458,0,0,1,11.8,4.7V7.035a3.4,3.4,0,0,0,.369,1.356L13.1,9.929a2.223,2.223,0,0,1-1.2,3.254,17.481,17.481,0,0,1-5.549.9,17.484,17.484,0,0,1-5.55-.9A2.247,2.247,0,0,1-.624,11.853,2.206,2.206,0,0,1-.4,9.929L.528,8.387A3.285,3.285,0,0,0,.9,7.035V4.7A5.458,5.458,0,0,1,6.353-.75Zm0,13.625a16.274,16.274,0,0,0,5.167-.841,1,1,0,0,0,.626-.6,1.01,1.01,0,0,0-.081-.875L11.127,9a4.581,4.581,0,0,1-.533-1.966V4.7a4.24,4.24,0,1,0-8.48,0V7.035a4.479,4.479,0,0,1-.546,1.974l-.93,1.545a1.021,1.021,0,0,0-.124.882,1.031,1.031,0,0,0,.672.6A16.271,16.271,0,0,0,6.349,12.875Z" transform="translate(3.354 2.494)" fill="#9ccb48"/>
      <path id="Vector-2" data-name="Vector" d="M2.844,1.479a.605.605,0,0,1-.169-.024A4.252,4.252,0,0,0,2,1.313a5.314,5.314,0,0,0-.657-.042,4.7,4.7,0,0,0-1.313.184.606.606,0,0,1-.616-.173A.606.606,0,0,1-.708.652,2.2,2.2,0,0,1,1.35-.75,2.2,2.2,0,0,1,3.408.652a.606.606,0,0,1-.564.827Z" transform="translate(8.358 1.711)" fill="#9ccb48"/>
      <path id="Vector-3" data-name="Vector" d="M2.279,3.029A3.049,3.049,0,0,1,.138,2.14,3.049,3.049,0,0,1-.75,0H.461A1.829,1.829,0,0,0,.995,1.284a1.829,1.829,0,0,0,1.284.533A1.819,1.819,0,0,0,4.1,0H5.307A3.032,3.032,0,0,1,2.279,3.029Z" transform="translate(7.429 15.393)" fill="#9ccb48"/>
      <path id="Vector-4" data-name="Vector" d="M0,0H19.383V19.383H0Z" fill="none" opacity="0"/>
    </g>
  </g>
</svg>
