<svg xmlns="http://www.w3.org/2000/svg" xmlns:xlink="http://www.w3.org/1999/xlink" width="219.736" height="162.082" viewBox="0 0 219.736 162.082">
  <defs>
    <linearGradient id="linear-gradient" x1="0.5" x2="0.5" y2="1" gradientUnits="objectBoundingBox">
      <stop offset="0" stop-color="#9ccb48"/>
      <stop offset="1" stop-color="#31aae0"/>
    </linearGradient>
  </defs>
  <g id="undraw_feeling_blue_-4-b7q" transform="translate(0.009 -0.004)">
    <path id="Path_19265" data-name="Path 19265" d="M61.83,433.31c3.47,13.41,10.809,25,22.406,30.62,24.11,11.678,78.486,5.655,119.068-1.258,20.992-3.576,39.444-13.444,52.847-27.33Z" transform="translate(-59.472 -355.598)" fill="#707070" opacity="0.09"/>
    <path id="Path_19266" data-name="Path 19266" d="M297.1,58.882H274.837a1.75,1.75,0,1,1,0-3.482h3.851a1.75,1.75,0,1,1,0-3.482H275.94a1.75,1.75,0,1,1,0-3.482h11.622a33.3,33.3,0,0,0-9.067-2.261c-31.691-3.681-43.005-1.246-47,1.256a46.847,46.847,0,0,1-16.288,6.46c-19.552,3.65-56.117,8.04-89.258-1.4-16.472-4.7-28.715,3.232-36.052,16.492H300.971a28.653,28.653,0,0,0-2.615-10.527,2.031,2.031,0,0,1-1.252.423Z" transform="translate(-81.935 -44.29)" fill="#707070" opacity="0.09"/>
    <path id="Path_19267" data-name="Path 19267" d="M50.46,293.19a80.408,80.408,0,0,0,.863,23.4l195.5,6.47A82.941,82.941,0,0,0,260.4,304.314Zm77.321,16.69h-3.849a1.75,1.75,0,1,1,0,3.482H101.665a1.75,1.75,0,1,1,0-3.482h3.851a1.75,1.75,0,1,1,0-3.482h-2.751a1.75,1.75,0,1,1,0-3.482h22.267a1.75,1.75,0,1,1,0,3.482h2.749a1.75,1.75,0,1,1,0,3.482Z" transform="translate(-49.99 -243.468)" fill="#707070" opacity="0.09"/>
    <path id="Path_19268" data-name="Path 19268" d="M271.066,168.5,57.632,173.194a70.813,70.813,0,0,0-5.112,19.941H267.326a75.765,75.765,0,0,0,3.1-12.71A54.409,54.409,0,0,0,271.066,168.5ZM95.855,183.891H92.006a1.751,1.751,0,1,1,0,3.484H69.739a1.75,1.75,0,1,1,0-3.484H73.59a1.75,1.75,0,1,1,0-3.482H70.84a1.75,1.75,0,1,1,0-3.482H93.106a1.75,1.75,0,1,1,0,3.482h2.749a1.75,1.75,0,1,1,0,3.482Z" transform="translate(-52.022 -143.685)" fill="#707070" opacity="0.09"/>
    <ellipse id="Ellipse_603" data-name="Ellipse 603" cx="89.286" cy="8.214" rx="89.286" ry="8.214" transform="translate(19.589 139.6)" opacity="0.1"/>
    <path id="Path_19270" data-name="Path 19270" d="M886.971,322.124c-.2-1.846-2.2-3.438-1.6-5.194.326-.957,1.344-1.542,1.688-2.493a5.823,5.823,0,0,0,.128-1.984,2.082,2.082,0,0,1,.713-1.782c1.2-.8,2.741.845,4.139.509a7.325,7.325,0,0,0,.985-.419c1.632-.649,3.478.533,4.395,2.028s1.26,3.276,2.047,4.846a3.975,3.975,0,0,0,1.211,1.54,1.882,1.882,0,0,0,1.874.218l2.287,5.094c.6,1.312,1.286,2.735,2.6,3.312.587.258,1.242.316,1.85.525a4,4,0,0,1,2.6,3.026,7.453,7.453,0,0,0,.238,1.336c.509,1.374,2.261,1.682,3.538,2.4a4.948,4.948,0,0,1,1.8,1.74,1.153,1.153,0,0,1,.158,1.139c-.385.623-1.558.256-1.93.889a1.66,1.66,0,0,0,0,1.087,2.31,2.31,0,0,1-2.924,2.329,3.924,3.924,0,0,1-1.171,2.575,2.516,2.516,0,0,1-2.894-.152,5.355,5.355,0,0,1-1.708-2.537c-.441-1.179-.771-2.509-1.776-3.266-.364-.272-.8-.447-1.155-.721a4.872,4.872,0,0,1-1.484-2.6,27.16,27.16,0,0,0-1.2-3.622,5.451,5.451,0,0,0-2.543-2.747c-1.089-.489-2.343-.457-3.468-.855-1.936-.683-3.368-2.311-5.293-3.078a8.567,8.567,0,0,1-1.738-.983A2.387,2.387,0,0,1,886.971,322.124Z" transform="translate(-718.419 -257.28)"/>
    <g id="Group_22789" data-name="Group 22789" transform="translate(166.856 53.877)" opacity="0.1">
      <path id="Path_19271" data-name="Path 19271" d="M894.72,316.878a2.03,2.03,0,0,0,.108-.242,5.873,5.873,0,0,0,.128-1.984,3.566,3.566,0,0,1,.062-.663,2.8,2.8,0,0,0-.262,1.262A9.2,9.2,0,0,1,894.72,316.878Z" transform="translate(-892.844 -313.99)"/>
      <path id="Path_19272" data-name="Path 19272" d="M911.832,368.934a2.516,2.516,0,0,1-2.894-.154,5.266,5.266,0,0,1-1.7-2.539c-.441-1.179-.769-2.509-1.776-3.266-.362-.272-.8-.449-1.153-.721a4.9,4.9,0,0,1-1.486-2.587,26.879,26.879,0,0,0-1.2-3.622,5.451,5.451,0,0,0-2.543-2.747c-1.087-.489-2.341-.457-3.466-.855-1.938-.683-3.37-2.311-5.294-3.078a8.679,8.679,0,0,1-1.74-.983,2.469,2.469,0,0,1-1.338-2.175c-.2-1.73-1.958-3.238-1.684-4.868a2.532,2.532,0,0,0-.118.272c-.6,1.758,1.4,3.35,1.6,5.194a2.465,2.465,0,0,0,1.338,2.175,8.682,8.682,0,0,0,1.74.983c1.924.767,3.356,2.4,5.294,3.078,1.125.4,2.379.366,3.466.855a5.493,5.493,0,0,1,2.543,2.747,24.494,24.494,0,0,1,1.2,3.622,4.883,4.883,0,0,0,1.486,2.587c.361.272.8.449,1.153.721,1,.757,1.334,2.087,1.776,3.266a5.352,5.352,0,0,0,1.71,2.535,2.52,2.52,0,0,0,2.894.154,2.95,2.95,0,0,0,.977-1.662A2.453,2.453,0,0,1,911.832,368.934Z" transform="translate(-885.331 -335.877)"/>
      <path id="Path_19273" data-name="Path 19273" d="M1038.154,446.449a.843.843,0,0,0-.1.467c.452-.445,1.47-.184,1.826-.757a.729.729,0,0,0,.092-.469C1039.512,446.129,1038.493,445.868,1038.154,446.449Z" transform="translate(-1007.547 -419.382)"/>
      <path id="Path_19274" data-name="Path 19274" d="M1023.364,461.716c-.038.2-.076.413-.124.621a2.345,2.345,0,0,0,2.834-1.838A2.323,2.323,0,0,1,1023.364,461.716Z" transform="translate(-995.692 -431.234)"/>
    </g>
    <path id="Path_19275" data-name="Path 19275" d="M899,369.108s.665,1.342-1.3,1.37,1.264,8.717,1.264,8.717l3.264,4.155,4.061-2.2.234-6.061.3-3.662s-3.8-1.232-3.1-2.862S899,369.108,899,369.108Z" transform="translate(-727.868 -303.303)" fill="#99592e"/>
    <path id="Path_19276" data-name="Path 19276" d="M965.75,538.84s2.4,2.359,5.194-.771L968.8,535.79H966.08Z" transform="translate(-782.83 -437.607)" fill="#575a89"/>
    <path id="Path_19277" data-name="Path 19277" d="M965.73,535.79l-.33,3.05s2.4,2.359,5.193-.771" transform="translate(-782.55 -437.607)" opacity="0.1"/>
    <path id="Path_19278" data-name="Path 19278" d="M976.573,537.87a15.654,15.654,0,0,0,1.664,3.3c.7.765,1.8,6.059.334,5.459s-4.261-5.06-4.429-5.825a25.914,25.914,0,0,1-.232-2.93Z" transform="translate(-789.36 -439.272)" fill="#b56f40"/>
    <path id="Path_19279" data-name="Path 19279" d="M832.42,538.174l12.916.5-1.5-5.461-6.506-.132Z" transform="translate(-666.147 -426.591)" fill="#575a89"/>
    <path id="Path_19280" data-name="Path 19280" d="M841.41,538.174l12.918.5-1.5-5.461-6.508-.132Z" transform="translate(-673.341 -426.591)" opacity="0.1"/>
    <path id="Path_19281" data-name="Path 19281" d="M879.3,599.217c-.306.569-.188,2.539-.05,4,.088.927.184,1.64.184,1.64s-4.828,1.5-5.559.2a3.95,3.95,0,0,1-.31-1.584,31.949,31.949,0,0,1,.31-4.876s-.2-4.427-.3-4.86c-.04-.174-.1-.725-.162-1.322-.088-.887-.172-1.874-.172-1.874l6.592-3.5s0,.655-.012,1.664C879.784,591.872,879.678,598.518,879.3,599.217Z" transform="translate(-708.799 -478.62)" fill="#b56f40"/>
    <path id="Path_19282" data-name="Path 19282" d="M880.729,669.18s-4.828,1.5-5.559.2a3.949,3.949,0,0,1-.31-1.584,21.71,21.71,0,0,1,5.685-.256C880.633,668.467,880.729,669.18,880.729,669.18Z" transform="translate(-710.095 -542.948)" opacity="0.1"/>
    <path id="Path_19283" data-name="Path 19283" d="M879.265,695.949h-.076c-.581.022-3.885,0-3.885,0a1.783,1.783,0,0,1-.136-.16,2.725,2.725,0,0,1-.429-2.637,18.768,18.768,0,0,0,.665-4.628,2.145,2.145,0,0,0,.034-1.2,2.164,2.164,0,0,1-.068-1.1,2.85,2.85,0,0,0-.2-.765,2.282,2.282,0,0,1,.034-1.133,8.484,8.484,0,0,0-.334-2.1c-.3-.865-2.5-11.152-1.964-12.385,0,0,4.66-.8,6.426-.2l-.234,7.99s-.833,2.4-.134,3.03.034,2.6.034,2.6-.1.366.5,1.6,0,1.8,0,1.8v2.363a5.054,5.054,0,0,0,.066,2.9A6.218,6.218,0,0,1,879.265,695.949Z" transform="translate(-708.466 -544.547)" fill="#9ccb48"/>
    <path id="Path_19284" data-name="Path 19284" d="M926.589,595.136c-.306.569-.188,2.539-.05,4,.088.927.184,1.64.184,1.64s-4.828,1.5-5.559.2a3.952,3.952,0,0,1-.31-1.584,31.952,31.952,0,0,1,.31-4.876s-.2-4.427-.3-4.86c-.054-.234-.148-2.463-.222-4.463-.062-1.706-.112-3.248-.112-3.248l6.592,1.019s0,2.9-.082,5.877A35.2,35.2,0,0,1,926.589,595.136Z" transform="translate(-746.643 -474.539)" fill="#b56f40"/>
    <path id="Path_19285" data-name="Path 19285" d="M928.019,669.18s-4.828,1.5-5.559.2a3.949,3.949,0,0,1-.31-1.584,21.71,21.71,0,0,1,5.685-.256C927.923,668.467,928.019,669.18,928.019,669.18Z" transform="translate(-747.939 -542.948)" opacity="0.1"/>
    <path id="Path_19286" data-name="Path 19286" d="M926.531,695.917h-.076c-.581.022-3.885,0-3.885,0a1.792,1.792,0,0,1-.136-.16,2.725,2.725,0,0,1-.43-2.637,18.737,18.737,0,0,0,.659-4.636,2.145,2.145,0,0,0,.034-1.2,2.164,2.164,0,0,1-.068-1.1,2.847,2.847,0,0,0-.2-.765,2.283,2.283,0,0,1,.034-1.133,8.48,8.48,0,0,0-.334-2.1c-.3-.865-2.5-11.152-1.964-12.385,0,0,4.66-.8,6.426-.2l-.234,7.99s-.833,2.4-.134,3.03.034,2.6.034,2.6-.1.366.5,1.6,0,1.8,0,1.8v2.363a5.053,5.053,0,0,0,.066,2.9A6.255,6.255,0,0,1,926.531,695.917Z" transform="translate(-746.286 -544.515)" fill="#9ccb48"/>
    <circle id="Ellipse_604" data-name="Ellipse 604" cx="4.694" cy="4.694" r="4.694" transform="translate(169.035 57.986)" opacity="0.1"/>
    <circle id="Ellipse_605" data-name="Ellipse 605" cx="4.694" cy="4.694" r="4.694" transform="translate(169.035 57.786)" fill="#b56f40"/>
    <path id="Path_19287" data-name="Path 19287" d="M873.24,590.536l6.592-3.5s0,.655-.012,1.664c-.963.575-2.415,1.44-3.811,2.257-.759.445-1.5.877-2.135,1.239a2.846,2.846,0,0,1-.461.2C873.324,591.522,873.24,590.536,873.24,590.536Z" transform="translate(-708.799 -478.62)" opacity="0.1"/>
    <path id="Path_19288" data-name="Path 19288" d="M927.154,582.919s0,2.9-.082,5.877h-.024a11.1,11.1,0,0,1-1.476-.046c-.861-.092-1.55-.32-1.8-.771a11.812,11.812,0,0,0-3.092-2.831c-.062-1.706-.112-3.248-.112-3.248Z" transform="translate(-746.675 -474.506)" opacity="0.1"/>
    <path id="Path_19289" data-name="Path 19289" d="M859.645,395.074a19.012,19.012,0,0,0-.1,3.921c3.028,2.5,2.463,7.756,2.463,7.756s2.331,10.655,1.832,11.62,1.131,6.892,1.131,6.892a29.058,29.058,0,0,1-4.209.483,11.078,11.078,0,0,1-1.476-.046c-.861-.092-1.55-.32-1.8-.771-.931-1.63-4.96-4.061-4.96-4.061s-2.553,1.53-4.93,2.922c-.759.445-1.5.877-2.135,1.238a3.964,3.964,0,0,1-1.668.457c-2.827.21-6.592-1.56-5.993-2.187.733-.767,4.363-14.217,4.363-14.217s1.83-8.324,3.428-9.488a1.728,1.728,0,0,0,.6-.837c.547-1.52-.368-3.957-.368-3.957s-5.16-6.358-4.928-6.726a9.313,9.313,0,0,0,.234-2.329s.633-3.1,1-4.594,3-1.866,3.761-1.732,2.495.6,3.226,0,1.966.234,1.966.234l3.032.835,2.727-1.6s2.733.14,2.966.505,3.829,1.067,3.829,1.067c1.83,1.23,1.764,7.091,1.764,7.091s-4.395,3.827-5.293,5.793A6.606,6.606,0,0,0,859.645,395.074Z" transform="translate(-680.392 -312.049)" fill="#31aae0"/>
    <path id="Path_19290" data-name="Path 19290" d="M954.427,418.2l1,.8,1.033,9.289,1.031,9.323s.4.933.733.833.3,5.525.3,5.525-3.823-2.351-5.194.771l-1.067-7.529s-1.366-7.691-1.332-8.29-.7-7.091-.7-7.091Z" transform="translate(-770.41 -343.506)" fill="#31aae0"/>
    <path id="Path_19291" data-name="Path 19291" d="M851.923,420.37l-.733.9s.068,3.861-.5,4.794,1.566,6.392,2.365,6.059,2.6-8.855,2.6-8.955S851.923,420.37,851.923,420.37Z" transform="translate(-690.678 -345.243)" fill="#575a89"/>
    <path id="Path_19292" data-name="Path 19292" d="M848.2,447.87s-2.331,2.363-2.165,3.5,2.4,4.69,5.593,2.779C851.629,454.144,854.594,448.569,848.2,447.87Z" transform="translate(-687.022 -367.25)" fill="#575a89"/>
    <path id="Path_19293" data-name="Path 19293" d="M888.581,800.145c-.581.022-3.885,0-3.885,0a1.783,1.783,0,0,1-.136-.16A4.881,4.881,0,0,1,888.581,800.145Z" transform="translate(-717.858 -648.737)" opacity="0.1"/>
    <path id="Path_19294" data-name="Path 19294" d="M935.891,800.145c-.581.022-3.885,0-3.885,0a1.793,1.793,0,0,1-.136-.16A4.881,4.881,0,0,1,935.891,800.145Z" transform="translate(-755.717 -648.737)" opacity="0.1"/>
    <path id="Path_19295" data-name="Path 19295" d="M872.056,509.11c-.509,4.886-.342,14.582-.236,18.889-.759.445-1.5.877-2.135,1.239a3.965,3.965,0,0,1-1.668.457C867.8,528.392,870.737,515.015,872.056,509.11Z" transform="translate(-704.61 -416.257)" opacity="0.1"/>
    <path id="Path_19296" data-name="Path 19296" d="M888.9,495.23c-.014.07-.256,1.133-.623,2.773A7.075,7.075,0,0,1,888.9,495.23Z" transform="translate(-720.835 -405.149)" opacity="0.1"/>
    <path id="Path_19297" data-name="Path 19297" d="M909.761,492.59s2.831,17.778-5.551,19.975C904.208,512.557,910.009,511.677,909.761,492.59Z" transform="translate(-733.583 -403.037)" opacity="0.1"/>
    <path id="Path_19298" data-name="Path 19298" d="M938.027,515.894a11.089,11.089,0,0,1-1.476-.046L934.29,491.54C935.732,492.483,937.458,509.734,938.027,515.894Z" transform="translate(-757.654 -402.196)" opacity="0.1"/>
    <path id="Path_19299" data-name="Path 19299" d="M898.023,331.425a1.238,1.238,0,0,1,.445.046,1.945,1.945,0,0,1,.563.423,2.008,2.008,0,0,0,1.906.37,2.514,2.514,0,0,1,.717-.2,1.142,1.142,0,0,1,.909.6c.2.32.3.7.469,1.041a1.308,1.308,0,0,0,.815.749,1.426,1.426,0,0,1,.519.12.736.736,0,0,1,.224.31c.312.673.559,1.468,1.224,1.8a1.831,1.831,0,0,0,.781.17,1.632,1.632,0,0,0,.8-.144,1.53,1.53,0,0,0,.587-.585,3.651,3.651,0,0,0,.366-2.335,6.425,6.425,0,0,0-1.045-2.809,5.863,5.863,0,0,0-5.363-2.475,7.475,7.475,0,0,0-1.069.2,5.839,5.839,0,0,0-3.288,2.039,6.912,6.912,0,0,1-.613.755C897.32,331.463,897.671,331.433,898.023,331.425Z" transform="translate(-727.789 -271.705)" opacity="0.1"/>
    <path id="Path_19300" data-name="Path 19300" d="M898.023,330.425a1.237,1.237,0,0,1,.445.046,1.945,1.945,0,0,1,.563.423,2.007,2.007,0,0,0,1.906.37,2.513,2.513,0,0,1,.717-.2,1.142,1.142,0,0,1,.909.6c.2.32.3.7.469,1.041a1.308,1.308,0,0,0,.815.749,1.426,1.426,0,0,1,.519.12.735.735,0,0,1,.224.31c.312.673.559,1.468,1.224,1.8a1.832,1.832,0,0,0,.781.17,1.632,1.632,0,0,0,.8-.144,1.53,1.53,0,0,0,.587-.585,3.651,3.651,0,0,0,.366-2.335,6.425,6.425,0,0,0-1.045-2.809,5.863,5.863,0,0,0-5.363-2.475,7.469,7.469,0,0,0-1.069.2,5.839,5.839,0,0,0-3.288,2.039,6.912,6.912,0,0,1-.613.755C897.32,330.463,897.671,330.433,898.023,330.425Z" transform="translate(-727.789 -270.904)"/>
    <path id="Path_19301" data-name="Path 19301" d="M873.47,398.2s.234,1.866-.565,2.331S873.47,398.2,873.47,398.2Z" transform="translate(-708.33 -327.501)" opacity="0.1"/>
    <path id="Path_19302" data-name="Path 19302" d="M961.57,461.962s1.9-2.8,2.165-2S961.57,461.962,961.57,461.962Z" transform="translate(-779.485 -376.814)" opacity="0.1"/>
    <path id="Path_19303" data-name="Path 19303" d="M962.24,468.763s1.872-2.3,2.052-1.4S962.24,468.763,962.24,468.763Z" transform="translate(-780.021 -382.683)" opacity="0.1"/>
    <path id="Path_19304" data-name="Path 19304" d="M889.522,458.349a3.039,3.039,0,0,1-1.882-.619h-.164a2.956,2.956,0,0,1-2.055.773,2.917,2.917,0,0,1-2.131-.855h-.218a3.138,3.138,0,0,1-4.051-.074l-.781-.014s.915,2.437.367,3.957l13.35.238a19.012,19.012,0,0,1,.1-3.921v-.018l-.733-.014A3.072,3.072,0,0,1,889.522,458.349Z" transform="translate(-712.8 -375.004)" opacity="0.1"/>
    <path id="Path_19305" data-name="Path 19305" d="M889.522,460.349a3.039,3.039,0,0,1-1.882-.619h-.164a2.956,2.956,0,0,1-2.055.773,2.916,2.916,0,0,1-2.131-.855h-.218a3.138,3.138,0,0,1-4.051-.074l-.781-.014s.915,2.437.367,3.957l13.35.238a19.012,19.012,0,0,1,.1-3.921v-.018l-.733-.014A3.072,3.072,0,0,1,889.522,460.349Z" transform="translate(-712.8 -376.604)" opacity="0.1"/>
    <path id="Path_19306" data-name="Path 19306" d="M889.522,459.349a3.038,3.038,0,0,1-1.882-.619h-.164a2.956,2.956,0,0,1-2.055.773,2.917,2.917,0,0,1-2.131-.855h-.218a3.138,3.138,0,0,1-4.051-.074l-.781-.014s.915,2.437.367,3.957l13.35.238a19.012,19.012,0,0,1,.1-3.921v-.018l-.733-.014a3.072,3.072,0,0,1-1.8.547Z" transform="translate(-712.8 -375.804)"/>
    <path id="Path_19307" data-name="Path 19307" d="M931.75,395.83s2.811.18,2.829.579S931.75,395.83,931.75,395.83Z" transform="translate(-755.621 -325.605)" opacity="0.1"/>
    <path id="Path_19308" data-name="Path 19308" d="M886.238,387.3s-2.811.18-2.828.579S886.238,387.3,886.238,387.3Z" transform="translate(-716.937 -318.779)" opacity="0.1"/>
    <path id="Path_19309" data-name="Path 19309" d="M937.7,427.974c-.028-.02-.056-.036-.084-.054.719.647.6,2.061-.284,3.228s-2.223,1.652-3.038,1.129c.026.022.048.046.076.068.8.611,2.2.132,3.12-1.075S938.5,428.587,937.7,427.974Z" transform="translate(-757.654 -351.285)" opacity="0.1"/>
    <path id="Path_19310" data-name="Path 19310" d="M871.431,430.366c-.711-1.282-.619-2.7.186-3.236-.03.014-.062.026-.092.042-.883.491-1,1.964-.268,3.29s2.049,2,2.932,1.514a.765.765,0,0,0,.084-.056C873.393,432.32,872.142,431.648,871.431,430.366Z" transform="translate(-706.828 -350.652)" opacity="0.1"/>
    <path id="Path_19311" data-name="Path 19311" d="M875.145,387.261h0l-.258.4-.657-.35.346-.531A1.448,1.448,0,0,1,875.145,387.261Z" transform="translate(-709.591 -318.363)" opacity="0.1"/>
    <path id="Path_19312" data-name="Path 19312" d="M855.3,427.183s.585-2.753-.2-3.628-.533-5.461.665-5.361,3,3.727,2.7,4.495-1.432,4.694-1.432,4.694Z" transform="translate(-693.925 -343.5)" fill="#fbbebe"/>
    <path id="Path_19313" data-name="Path 19313" d="M907.987,344.935a1.53,1.53,0,0,1-.587.585,1.632,1.632,0,0,1-.8.144,1.832,1.832,0,0,1-.781-.17c-.665-.332-.913-1.127-1.224-1.8a.735.735,0,0,0-.2-.316,1.426,1.426,0,0,0-.513-.126,1.318,1.318,0,0,1-.815-.749c-.172-.34-.274-.715-.469-1.041a1.1,1.1,0,0,0-.909-.6,2.455,2.455,0,0,0-.717.21,2.014,2.014,0,0,1-1.906-.372,1.944,1.944,0,0,0-.563-.423,1.237,1.237,0,0,0-.445-.046c-.23,0-.457.022-.687.04a5.028,5.028,0,0,1-.366.427c.35-.03.7-.06,1.053-.068a1.237,1.237,0,0,1,.445.046,1.944,1.944,0,0,1,.563.423,2.014,2.014,0,0,0,1.906.372,2.454,2.454,0,0,1,.717-.21,1.142,1.142,0,0,1,.909.6c.2.32.3.7.469,1.041a1.308,1.308,0,0,0,.815.749,1.426,1.426,0,0,1,.513.126.736.736,0,0,1,.224.31c.312.673.559,1.468,1.224,1.8a1.831,1.831,0,0,0,.781.17,1.632,1.632,0,0,0,.8-.144,1.53,1.53,0,0,0,.587-.585,3.314,3.314,0,0,0,.4-1.85A3.052,3.052,0,0,1,907.987,344.935Z" transform="translate(-727.813 -281.112)" opacity="0.1"/>
    <ellipse id="Ellipse_606" data-name="Ellipse 606" cx="1.798" cy="1.219" rx="1.798" ry="1.219" transform="translate(160.466 83.429)" fill="#575a89"/>
    <circle id="Ellipse_607" data-name="Ellipse 607" cx="61.624" cy="61.624" r="61.624" transform="translate(42.039 29.226)" fill="#9ccb48"/>
    <path id="Path_19314" data-name="Path 19314" d="M471.779,548.029c0,9.728-15.293.831-31.689.831s-32.979,8.53-32.979-1.2c0-5.547,5.285-13.262,12.868-18.865h0c5.713-4.223,12.728-7.247,19.776-7.247,7.247,0,14.346,3.274,20.009,7.768C466.91,534.985,471.779,542.6,471.779,548.029Z" transform="translate(-335.781 -426.212)"/>
    <path id="Path_19315" data-name="Path 19315" d="M511.313,529.3c-8.715-1.312-24.478-2.912-39.783-.521,5.713-4.223,12.728-7.247,19.776-7.247C498.551,521.53,505.65,524.8,511.313,529.3Z" transform="translate(-387.333 -426.196)" fill="#f6f8fb"/>
    <path id="Path_19316" data-name="Path 19316" d="M333.348,281.31s-18.563,11.867-18.411,30.431S333.348,281.31,333.348,281.31Z" transform="translate(-262.018 -233.961)" opacity="0.05"/>
    <path id="Path_19317" data-name="Path 19317" d="M817.274,113.433s-16.819-1.013-14.836,10.773a2.865,2.865,0,0,0,1.494,3.028s.03-.873,1.724-.577a7.79,7.79,0,0,0,1.828.088,3.8,3.8,0,0,0,2.233-.923h0s4.728-1.952,6.568-9.68c0,0,1.36-1.686,1.306-2.117l-2.839,1.211a5.072,5.072,0,0,1,.2,3.749s-.092-3.674-.637-3.6c-.11.018-1.474.709-1.474.709s1.668,3.568.4,6.158c0,0,.477-4.395-.931-5.9l-2,1.167s1.95,3.683.627,6.69c0,0,.34-4.61-1.047-6.406l-1.812,1.412s1.832,3.632.715,6.124c0,0-.146-5.367-1.107-5.773a11.087,11.087,0,0,0-1.826,1.972s1.255,2.635.477,4.025c0,0-.477-3.576-.869-3.6a11.9,11.9,0,0,0-1.744,4,8.635,8.635,0,0,1,1.36-4.221A4.738,4.738,0,0,0,802.674,123s.246-1.676,2.8-1.822a10.926,10.926,0,0,1,1.654-1.906,10.363,10.363,0,0,0-4.091.471s1.358-1.58,4.556-.863l1.8-1.458s-3.352-.459-4.774.048c0,0,1.636-1.4,5.255-.38l1.948-1.165a17.858,17.858,0,0,0-4.562-.4s1.8-.969,5.132.082l1.4-.625s-2.1-.411-2.709-.475-.645-.236-.645-.236a7.261,7.261,0,0,1,3.941.457A17.749,17.749,0,0,0,817.274,113.433Z" transform="translate(-652.01 -99.6)" fill="url(#linear-gradient)"/>
    <path id="Path_19318" data-name="Path 19318" d="M763.855,87.25s-7.591-.459-6.7,4.866a1.3,1.3,0,0,0,.675,1.368s.012-.4.779-.26a3.607,3.607,0,0,0,.825.04,1.736,1.736,0,0,0,1.011-.417h0s2.135-.883,2.966-4.375c0,0,.615-.761.6-.957l-1.282.547a2.294,2.294,0,0,1,.094,1.694s-.042-1.66-.288-1.62c-.05,0-.667.32-.667.32a3.787,3.787,0,0,1,.186,2.783s.216-1.986-.419-2.667l-.9.527a3.991,3.991,0,0,1,.284,3.024s.152-2.083-.473-2.894l-.819.637a3.9,3.9,0,0,1,.324,2.767s-.066-2.425-.5-2.609a5.007,5.007,0,0,0-.825.891s.567,1.2.216,1.82c0,0-.216-1.616-.4-1.622a5.355,5.355,0,0,0-.787,1.8A3.89,3.89,0,0,1,758.358,91a2.14,2.14,0,0,0-1.091.565s.11-.757,1.266-.823a4.981,4.981,0,0,1,.747-.861,4.684,4.684,0,0,0-1.848.214,2.087,2.087,0,0,1,2.06-.4l.8-.657a6.937,6.937,0,0,0-2.157.02,2.623,2.623,0,0,1,2.375-.17l.879-.527a7.994,7.994,0,0,0-2.062-.178,3.162,3.162,0,0,1,2.319.038l.629-.284s-.947-.186-1.222-.214-.294-.106-.294-.106a3.274,3.274,0,0,1,1.778.2A8.046,8.046,0,0,0,763.855,87.25Z" transform="translate(-615.842 -78.657)" fill="url(#linear-gradient)"/>
    <ellipse id="Ellipse_608" data-name="Ellipse 608" cx="5.379" cy="0.909" rx="5.379" ry="0.909" transform="translate(208.968 144.009)" fill="#6c63ff" opacity="0.1"/>
    <ellipse id="Ellipse_609" data-name="Ellipse 609" cx="5.379" cy="0.909" rx="5.379" ry="0.909" transform="translate(3.956 159.128)" fill="#6c63ff" opacity="0.1"/>
    <ellipse id="Ellipse_610" data-name="Ellipse 610" cx="5.379" cy="0.909" rx="5.379" ry="0.909" transform="translate(35.184 160.269)" fill="#6c63ff" opacity="0.1"/>
    <ellipse id="Ellipse_611" data-name="Ellipse 611" cx="8.032" cy="1.358" rx="8.032" ry="1.358" transform="translate(194.542 153.299)" fill="url(#linear-gradient)"/>
    <path id="Path_19319" data-name="Path 19319" d="M1051,792.568a2.344,2.344,0,0,0,.767-1.157,1.031,1.031,0,0,0-.535-1.177c-.491-.188-1.017.154-1.414.5a1.9,1.9,0,0,1-1.376.663,2.092,2.092,0,0,0,.647-1.959.823.823,0,0,0-.18-.4c-.274-.292-.767-.168-1.095.062a4.078,4.078,0,0,0-1.334,3.412,6.4,6.4,0,0,1-.018-1.4,1.445,1.445,0,0,0-.527-1.245,1.6,1.6,0,0,0-.8-.188,1.663,1.663,0,0,0-1.306.369,1.285,1.285,0,0,0,.052,1.6,5.181,5.181,0,0,0,1.35,1.083,3,3,0,0,1,.967.921.976.976,0,0,1,.072.166h2.926A8.141,8.141,0,0,0,1051,792.568Z" transform="translate(-845.109 -640.13)" fill="url(#linear-gradient)"/>
    <path id="Path_19320" data-name="Path 19320" d="M97.219,723.55s1.1,1.434-.507,3.6-2.926,4-2.4,5.345c0,0,2.419-4.023,4.395-4.081S99.385,725.969,97.219,723.55Z" transform="translate(-85.373 -587.861)" fill="url(#linear-gradient)"/>
    <path id="Path_19321" data-name="Path 19321" d="M97.478,723.55A1.8,1.8,0,0,1,97.7,724c1.922,2.257,2.944,4.365,1.1,4.417-1.722.05-3.8,3.126-4.281,3.9a1.864,1.864,0,0,0,.06.178s2.419-4.023,4.395-4.081S99.644,725.969,97.478,723.55Z" transform="translate(-85.632 -587.861)" opacity="0.1"/>
    <path id="Path_19322" data-name="Path 19322" d="M118.524,731.389c0,.505-.058.915-.128.915s-.126-.4-.126-.915.07-.268.142-.268S118.524,730.884,118.524,731.389Z" transform="translate(-104.638 -593.873)" fill="#ffd037"/>
    <path id="Path_19323" data-name="Path 19323" d="M119.533,734.336c-.443.242-.829.388-.863.326s.3-.306.743-.547.268-.066.3,0S119.985,734.095,119.533,734.336Z" transform="translate(-104.956 -596.217)" fill="#ffd037"/>
    <path id="Path_19324" data-name="Path 19324" d="M70.434,723.55s-1.1,1.434.505,3.6,2.926,4,2.4,5.345c0,0-2.421-4.023-4.395-4.081S68.267,725.969,70.434,723.55Z" transform="translate(-64.385 -587.861)" fill="url(#linear-gradient)"/>
    <path id="Path_19325" data-name="Path 19325" d="M70.423,723.55A1.722,1.722,0,0,0,70.2,724c-1.922,2.257-2.946,4.365-1.1,4.417,1.72.05,3.8,3.126,4.279,3.9a1.851,1.851,0,0,1-.058.178s-2.421-4.023-4.395-4.081S68.255,725.969,70.423,723.55Z" transform="translate(-64.373 -587.861)" opacity="0.1"/>
    <path id="Path_19326" data-name="Path 19326" d="M70.1,731.389c0,.505.056.915.126.915s.126-.4.126-.915-.07-.268-.14-.268S70.1,730.884,70.1,731.389Z" transform="translate(-66.09 -593.873)" fill="#ffd037"/>
    <path id="Path_19327" data-name="Path 19327" d="M65.514,734.336c.443.242.831.388.865.326s-.3-.306-.743-.547-.27-.066-.3,0S65.07,734.095,65.514,734.336Z" transform="translate(-62.205 -596.217)" fill="#ffd037"/>
    <path id="Path_19328" data-name="Path 19328" d="M71.85,760.746s3.068-.094,4-.753,4.72-1.444,4.95-.4,4.61,5.254,1.147,5.281-8.048-.541-8.971-1.1S71.85,760.746,71.85,760.746Z" transform="translate(-67.49 -616.298)" fill="#a8a8a8"/>
    <path id="Path_19329" data-name="Path 19329" d="M82,771.155c-3.464.028-8.048-.541-8.971-1.1-.7-.427-.983-1.964-1.077-2.673h-.1s.2,2.475,1.117,3.036,5.507,1.131,8.971,1.1c1,0,1.344-.366,1.326-.891C83.124,770.95,82.745,771.149,82,771.155Z" transform="translate(-67.49 -622.936)" opacity="0.2"/>
    <path id="Path_19330" data-name="Path 19330" d="M401.57,443.212c1.173-.066,6.692-.481,10.2-2.481a3.972,3.972,0,0,1,1.852-.545c1.115-.032,2.4.433,1.576,3.038-1.33,4.261-9.055,9.055-13.849,8.789a15.886,15.886,0,0,1-13.691-8.645,4,4,0,0,1-.493-2.055c.042-1.318.521-2.97,3-1.129,3.344,2.487,9.688,2.958,10.961,3.028A4.2,4.2,0,0,0,401.57,443.212Z" transform="translate(-319.816 -360.443)"/>
    <path id="Path_19331" data-name="Path 19331" d="M623.57,443.212c1.173-.066,6.692-.481,10.2-2.481a3.973,3.973,0,0,1,1.852-.545c1.115-.032,2.4.433,1.576,3.038-1.33,4.261-9.055,9.055-13.849,8.789a15.886,15.886,0,0,1-13.691-8.645,4,4,0,0,1-.493-2.055c.042-1.318.521-2.97,3-1.129,3.344,2.487,9.688,2.958,10.961,3.028A4.2,4.2,0,0,0,623.57,443.212Z" transform="translate(-497.47 -360.443)"/>
  </g>
</svg>
