<svg xmlns="http://www.w3.org/2000/svg" width="19.691" height="19.691" viewBox="0 0 19.691 19.691">
  <g id="vuesax_linear_dollar-square" data-name="vuesax/linear/dollar-square" transform="translate(-172 -572)">
    <g id="dollar-square" transform="translate(172 572)">
      <path id="Vector" d="M3.746,8.128H1.687A2.486,2.486,0,0,1-.75,5.6a.615.615,0,0,1,.615-.615A.615.615,0,0,1,.481,5.6,1.255,1.255,0,0,0,1.687,6.9H3.746a1.016,1.016,0,0,0,.976-1.05c0-.689-.216-.841-.673-1L.746,3.7A2.032,2.032,0,0,1-.75,1.531,2.247,2.247,0,0,1,1.457-.75H3.516A2.486,2.486,0,0,1,5.953,1.777a.615.615,0,0,1-1.231,0A1.255,1.255,0,0,0,3.516.481H1.457a1.016,1.016,0,0,0-.976,1.05c0,.689.216.841.673,1l3.3,1.147a2.032,2.032,0,0,1,1.5,2.165A2.247,2.247,0,0,1,3.746,8.128Z" transform="translate(7.25 6.157)" fill="#9ccb48"/>
      <path id="Vector-2" data-name="Vector" d="M-.135,10.326A.615.615,0,0,1-.75,9.711V-.135A.615.615,0,0,1-.135-.75a.615.615,0,0,1,.615.615V9.711A.615.615,0,0,1-.135,10.326Z" transform="translate(9.98 5.057)" fill="#9ccb48"/>
      <path id="Vector-3" data-name="Vector" d="M10.532,16.89H5.609c-2.273,0-3.813-.481-4.845-1.514S-.75,12.8-.75,10.532V5.609C-.75,3.336-.269,1.8.764.764S3.336-.75,5.609-.75h4.923c2.273,0,3.813.481,4.845,1.514S16.89,3.336,16.89,5.609v4.923c0,2.273-.481,3.813-1.514,4.845S12.8,16.89,10.532,16.89ZM5.609.481C3.683.481,2.42.847,1.634,1.634S.481,3.683.481,5.609v4.923c0,1.925.366,3.188,1.153,3.975s2.05,1.153,3.975,1.153h4.923c1.925,0,3.188-.366,3.975-1.153s1.153-2.05,1.153-3.975V5.609c0-1.925-.366-3.188-1.153-3.975S12.457.481,10.532.481Z" transform="translate(1.776 1.776)" fill="#9ccb48"/>
      <path id="Vector-4" data-name="Vector" d="M0,0H19.691V19.691H0Z" fill="none" opacity="0"/>
    </g>
  </g>
</svg>
