<svg xmlns="http://www.w3.org/2000/svg" width="19.856" height="19.856" viewBox="0 0 19.856 19.856">
  <g id="vuesax_linear_profile" data-name="vuesax/linear/profile" transform="translate(-108 -252)">
    <g id="profile" transform="translate(108 252)">
      <path id="Vector" d="M3.676,7.83q-.031,0-.062,0a.914.914,0,0,0-.155,0,.622.622,0,0,1-.077,0A4.277,4.277,0,0,1-.75,3.544,4.294,4.294,0,1,1,3.7,7.829ZM3.544.491a3.05,3.05,0,0,0-.153,6.1,2.162,2.162,0,0,1,.3,0,3.05,3.05,0,0,0-.146-6.1Z" transform="translate(6.384 1.784)" fill="#9ccb48"/>
      <path id="Vector-2" data-name="Vector" d="M5.519-.75A8.135,8.135,0,0,1,10,.49a3.567,3.567,0,0,1,1.778,2.937A3.58,3.58,0,0,1,10,6.378,8.135,8.135,0,0,1,5.513,7.625,8.135,8.135,0,0,1,1.027,6.378,3.567,3.567,0,0,1-.75,3.442,3.58,3.58,0,0,1,1.027.49,8.2,8.2,0,0,1,5.519-.75ZM5.513,6.384a6.889,6.889,0,0,0,3.8-1.037,2.39,2.39,0,0,0,1.226-1.918A2.378,2.378,0,0,0,9.31,1.523,6.889,6.889,0,0,0,5.519.491a6.95,6.95,0,0,0-3.8,1.032A2.388,2.388,0,0,0,.491,3.44,2.378,2.378,0,0,0,1.716,5.346,6.889,6.889,0,0,0,5.513,6.384Z" transform="translate(4.552 11.04)" fill="#9ccb48"/>
      <path id="Vector-3" data-name="Vector" d="M0,0H19.856V19.856H0Z" transform="translate(19.856 19.856) rotate(180)" fill="none" opacity="0"/>
    </g>
  </g>
</svg>
