<svg xmlns="http://www.w3.org/2000/svg" width="24" height="24" viewBox="0 0 24 24">
  <g id="document-download" transform="translate(-300 -188)">
    <path id="Vector" d="M18,8.19H15.11a4.306,4.306,0,0,1-4.3-4.3V1a1,1,0,0,0-1-1H5.57A5.277,5.277,0,0,0,0,5.57v8.86A5.277,5.277,0,0,0,5.57,20h7.86A5.277,5.277,0,0,0,19,14.43V9.19A1,1,0,0,0,18,8.19ZM9.78,13.78l-2,2a.726.726,0,0,1-.81.16.662.662,0,0,1-.22-.15c-.01-.01-.02-.01-.02-.02l-2-2a.75.75,0,0,1,1.06-1.06l.71.73V9.25a.75.75,0,0,1,1.5,0v4.19l.72-.72a.75.75,0,0,1,1.06,1.06Z" transform="translate(302.5 190)" fill="#fff"/>
    <path id="Vector-2" data-name="Vector" d="M2.75,6.795c.95.01,2.27.01,3.4.01a.631.631,0,0,0,.47-1.07C5.18,4.285,2.6,1.675,1.12.195A.654.654,0,0,0,0,.635v3.49A2.726,2.726,0,0,0,2.75,6.795Z" transform="translate(314.68 190.015)" fill="#fff"/>
    <path id="Vector-3" data-name="Vector" d="M0,0H24V24H0Z" transform="translate(324 212) rotate(180)" fill="none" opacity="0"/>
  </g>
</svg>
