<svg xmlns="http://www.w3.org/2000/svg" xmlns:xlink="http://www.w3.org/1999/xlink" width="359" height="49" viewBox="0 0 359 49">
  <defs>
    <linearGradient id="linear-gradient" x1="0.098" y1="0.5" x2="0.924" y2="0.5" gradientUnits="objectBoundingBox">
      <stop offset="0" stop-color="#9ccb48"/>
      <stop offset="1" stop-color="#31aae0"/>
    </linearGradient>
    <filter id="Ellipse_8" x="0" y="0" width="49" height="49" filterUnits="userSpaceOnUse">
      <feOffset dy="3" input="SourceAlpha"/>
      <feGaussianBlur stdDeviation="3" result="blur"/>
      <feFlood flood-opacity="0.161"/>
      <feComposite operator="in" in2="blur"/>
      <feComposite in="SourceGraphic"/>
    </filter>
    <filter id="Ellipse_480" x="155" y="0" width="49" height="49" filterUnits="userSpaceOnUse">
      <feOffset dy="3" input="SourceAlpha"/>
      <feGaussianBlur stdDeviation="3" result="blur-2"/>
      <feFlood flood-opacity="0.161"/>
      <feComposite operator="in" in2="blur-2"/>
      <feComposite in="SourceGraphic"/>
    </filter>
    <filter id="Ellipse_480-2" x="310" y="0" width="49" height="49" filterUnits="userSpaceOnUse">
      <feOffset dy="3" input="SourceAlpha"/>
      <feGaussianBlur stdDeviation="3" result="blur-3"/>
      <feFlood flood-opacity="0.161"/>
      <feComposite operator="in" in2="blur-3"/>
      <feComposite in="SourceGraphic"/>
    </filter>
  </defs>
  <g id="Group_17214" data-name="Group 17214" transform="translate(-13 -145)">
    <line id="Line_27" data-name="Line 27" x2="307.634" transform="translate(43.866 166.5)" fill="none" stroke="#f2f2f2" stroke-linecap="round" stroke-width="8"/>
    <path id="Line_24" data-name="Line 24" d="M148.778,4H.039A4.019,4.019,0,0,1-4,0,4.019,4.019,0,0,1,.039-4H148.778a4.019,4.019,0,0,1,4.039,4A4.019,4.019,0,0,1,148.778,4Z" transform="translate(40.183 166.5)" fill="url(#linear-gradient)"/>
    <g id="Group_17205" data-name="Group 17205" transform="translate(-3)">
      <g transform="matrix(1, 0, 0, 1, 16, 145)" filter="url(#Ellipse_8)">
        <g id="Ellipse_8-2" data-name="Ellipse 8" transform="translate(9 6)" fill="#9ccb48" stroke="#fff" stroke-width="2">
          <circle cx="15.5" cy="15.5" r="15.5" stroke="none"/>
          <circle cx="15.5" cy="15.5" r="14.5" fill="none"/>
        </g>
      </g>
      <text id="_1" data-name="1" transform="translate(41 172)" font-size="16" font-family="Poppins-Medium, Poppins" font-weight="500"><tspan x="-2.8" y="0">1</tspan></text>
    </g>
    <g id="Group_17207" data-name="Group 17207" transform="translate(-100)">
      <g transform="matrix(1, 0, 0, 1, 113, 145)" filter="url(#Ellipse_480)">
        <g id="Ellipse_480-3" data-name="Ellipse 480" transform="translate(164 6)" fill="#9ccb48" stroke="#fff" stroke-width="2">
          <circle cx="15.5" cy="15.5" r="15.5" stroke="none"/>
          <circle cx="15.5" cy="15.5" r="14.5" fill="none"/>
        </g>
      </g>
      <text id="_2" data-name="2" transform="translate(293 172)" font-size="16" font-family="Poppins-Medium, Poppins" font-weight="500"><tspan x="-4.616" y="0">2</tspan></text>
    </g>
    <g id="Group_17883" data-name="Group 17883" transform="translate(55)">
      <g transform="matrix(1, 0, 0, 1, -42, 145)" filter="url(#Ellipse_480-2)">
        <g id="Ellipse_480-4" data-name="Ellipse 480" transform="translate(319 6)" fill="#707070" stroke="#fff" stroke-width="2">
          <circle cx="15.5" cy="15.5" r="15.5" stroke="none"/>
          <circle cx="15.5" cy="15.5" r="14.5" fill="none"/>
        </g>
      </g>
      <text id="_3" data-name="3" transform="translate(293 172)" fill="#fff" font-size="16" font-family="Poppins-Medium, Poppins" font-weight="500"><tspan x="-4.752" y="0">3</tspan></text>
    </g>
  </g>
</svg>
