<svg xmlns="http://www.w3.org/2000/svg" width="45.74" height="44.564" viewBox="0 0 45.74 44.564">
  <g id="Group_23447" data-name="Group 23447" transform="translate(-318.604 -325)">
    <g id="Ellipse_482" data-name="Ellipse 482" transform="translate(318.604 334.714)" fill="#fff" stroke="#9ccb48" stroke-width="1">
      <circle cx="17" cy="17" r="17" stroke="none"/>
      <circle cx="17" cy="17" r="16.5" fill="none"/>
    </g>
    <g id="Add_image" data-name="Add image" transform="translate(319.78 325)">
      <g id="gallery-add">
        <path id="Union_8" data-name="Union 8" d="M4.962,17.935A4.549,4.549,0,0,1,.478,15.4,5.742,5.742,0,0,1,0,12.973V5.816C0,2.708,1.853.854,4.962.854h7.191A1.564,1.564,0,0,1,13.69,0H16.2a1.594,1.594,0,0,1,1.734,1.734V4.245a1.564,1.564,0,0,1-.854,1.537,1.785,1.785,0,0,1-.879.2H13.69a1.594,1.594,0,0,1-1.734-1.734V2.135H4.962c-2.409,0-3.681,1.273-3.681,3.681v7.157a4.553,4.553,0,0,0,.3,1.682l3.194-2.143a1.9,1.9,0,0,1,2.255.119l.291.239a1.9,1.9,0,0,0,2.408,0L13.28,9.821a1.9,1.9,0,0,1,2.409,0l.111.094V5.978h.4a1.785,1.785,0,0,0,.879-.2v7.191c0,3.109-1.853,4.962-4.962,4.962ZM14.433,4.7a.514.514,0,0,0,.512.512.505.505,0,0,0,.35-.145.542.542,0,0,0,.162-.367l-.009-.752V3.51h1.2A.55.55,0,0,0,17,3.356a.582.582,0,0,0,.162-.367.514.514,0,0,0-.512-.512h-1.2V1.9l.009-.606a.513.513,0,1,0-1.025,0v1.2h-.444l-.752-.008a.514.514,0,0,0-.512.512.521.521,0,0,0,.512.521l1.2-.008ZM3.946,5.978A2.033,2.033,0,1,1,5.978,8.011,2.033,2.033,0,0,1,3.946,5.978Z" transform="translate(7.613 18.235)" fill="#9ccb48"/>
        <path id="Vector" d="M0,0H44.564V44.564H0Z" fill="none" opacity="0"/>
      </g>
    </g>
  </g>
</svg>
