<svg xmlns="http://www.w3.org/2000/svg" width="18.057" height="21.012" viewBox="0 0 18.057 21.012">
  <path id="_9298766_verified_ui_shield_check_protection_icon" data-name="9298766_verified_ui_shield_check_protection_icon" d="M52.336,1.919,47.434.371a7.987,7.987,0,0,0-4.81,0l-4.9,1.548A2.462,2.462,0,0,0,36,4.267v8.511a4.925,4.925,0,0,0,2,3.965l4.8,3.539a3.746,3.746,0,0,0,4.445,0l4.8-3.539a4.925,4.925,0,0,0,2-3.965V4.267A2.462,2.462,0,0,0,52.336,1.919ZM48.8,9.345l-4.063,4.063a1.231,1.231,0,0,1-1.741,0l-1.741-1.741a1.231,1.231,0,0,1,0-1.741h0a1.231,1.231,0,0,1,1.741,0l.871.871L47.06,7.6a1.231,1.231,0,0,1,1.741,0h0A1.231,1.231,0,0,1,48.8,9.345Z" transform="translate(-36)" fill="#fff"/>
</svg>
