<svg xmlns="http://www.w3.org/2000/svg" width="71.508" height="21.906" viewBox="0 0 71.508 21.906">
  <g id="visa-svgrepo-com" transform="translate(-60.197 -148.968)">
    <path id="Path_18947" data-name="Path 18947" d="M135.389,170.624l3.616-21.222h5.785l-3.619,21.222Zm26.681-20.765a14.938,14.938,0,0,0-5.184-.891c-5.716,0-9.742,2.878-9.776,7-.032,3.049,2.874,4.751,5.069,5.766,2.252,1.041,3.009,1.7,3,2.633-.014,1.423-1.8,2.072-3.461,2.072a12.131,12.131,0,0,1-5.445-1.114l-.746-.337-.812,4.751a18.309,18.309,0,0,0,6.444,1.132c6.081,0,10.028-2.846,10.073-7.251.022-2.414-1.519-4.251-4.857-5.766-2.022-.982-3.26-1.637-3.247-2.631,0-.882,1.048-1.825,3.313-1.825a10.673,10.673,0,0,1,4.329.813l.518.245.784-4.6m14.886-.458h-4.47a2.878,2.878,0,0,0-3.029,1.76l-8.591,19.449h6.074s.993-2.615,1.218-3.189c.664,0,6.565.009,7.408.009.173.743.7,3.18.7,3.18h5.368L176.956,149.4Zm-7.092,13.7c.479-1.223,2.3-5.933,2.3-5.933-.034.056.475-1.229.767-2.026l.391,1.83s1.108,5.066,1.339,6.128h-4.8Zm-39.385-13.7-5.663,14.473-.6-2.941c-1.054-3.39-4.339-7.064-8.011-8.9l5.178,18.56,6.12-.007,9.107-21.182h-6.128" transform="translate(-49.933)" fill="#0e4595"/>
    <path id="Path_18948" data-name="Path 18948" d="M69.6,152.96H60.271l-.074.442c7.257,1.757,12.058,6,14.052,11.1l-2.028-9.753a2.421,2.421,0,0,0-2.622-1.792" transform="translate(0 -3.559)" fill="#f2ae14"/>
  </g>
</svg>
