<svg xmlns="http://www.w3.org/2000/svg" width="24" height="24" viewBox="0 0 24 24">
  <g id="vuesax_bulk_empty-wallet" data-name="vuesax/bulk/empty-wallet" transform="translate(-236 -188)">
    <g id="empty-wallet">
      <path id="Vector" d="M0,0H24V24H0Z" transform="translate(236 188)" fill="none" opacity="0"/>
      <path id="Vector-2" data-name="Vector" d="M15.54,5.8a2.008,2.008,0,0,0-.6,1.63A2.132,2.132,0,0,0,17.1,9.3H19v1.19a3.768,3.768,0,0,1-3.76,3.76H3.76A3.768,3.768,0,0,1,0,10.49V3.76A3.768,3.768,0,0,1,3.76,0H15.24A3.768,3.768,0,0,1,19,3.76V5.2H16.98A1.993,1.993,0,0,0,15.54,5.8Z" transform="translate(238.5 195.75)" fill="#9ccb48" opacity="0.4"/>
      <path id="Vector-3" data-name="Vector" d="M12.35,1.9V5.7H3.76A3.768,3.768,0,0,0,0,9.461V5.791a2.848,2.848,0,0,1,1.84-2.67l7.94-3A1.9,1.9,0,0,1,12.35,1.9Z" transform="translate(238.5 190.049)" fill="#9ccb48"/>
      <path id="Vector-4" data-name="Vector" d="M5.129,1.02V3.08a1.027,1.027,0,0,1-1,1.02H2.169A2.132,2.132,0,0,1,.009,2.23,2.008,2.008,0,0,1,.609.6,1.993,1.993,0,0,1,2.049,0h2.08A1.027,1.027,0,0,1,5.129,1.02Z" transform="translate(253.431 200.95)" fill="#9ccb48"/>
      <g id="Group">
        <path id="Vector-5" data-name="Vector" d="M7.75,1.5h-7A.755.755,0,0,1,0,.75.755.755,0,0,1,.75,0h7A.755.755,0,0,1,8.5.75.755.755,0,0,1,7.75,1.5Z" transform="translate(242.25 199.25)" fill="#9ccb48"/>
      </g>
    </g>
  </g>
</svg>
