<svg xmlns="http://www.w3.org/2000/svg" width="21.001" height="22.833" viewBox="0 0 21.001 22.833">
  <g id="Group_23447" data-name="Group 23447" transform="translate(-1.996 -0.252)">
    <path id="Union_11" data-name="Union 11" d="M-18703.752,11705.783c-3.676,0-5.25-2.1-5.25-5.249v-6.466a1.057,1.057,0,0,1,1.053-1.052h16.795a1.071,1.071,0,0,1,1.061,1.062v1.826a1.04,1.04,0,0,1-1.2,1.028,5.172,5.172,0,0,0-.9-.07,5.783,5.783,0,0,0-5.775,5.775,6.1,6.1,0,0,0,.389,1.761,1.045,1.045,0,0,1-.994,1.385Zm.127-5.69a1.211,1.211,0,0,0-.348.221,1.122,1.122,0,0,0-.3.747,1.121,1.121,0,0,0,.3.746,1.124,1.124,0,0,0,.746.306,1.125,1.125,0,0,0,.748-.306,1.121,1.121,0,0,0,.3-.746,1.122,1.122,0,0,0-.3-.747,1.071,1.071,0,0,0-.744-.3A1.027,1.027,0,0,0-18703.625,11700.093Zm3.33-3.451a1.075,1.075,0,0,0-.307.742,1.076,1.076,0,0,0,.307.746,1.093,1.093,0,0,0,.746.306,1.115,1.115,0,0,0,.746-.306,1.1,1.1,0,0,0,.3-.746,1.1,1.1,0,0,0-.3-.742,1.052,1.052,0,0,0-.742-.292A1.074,1.074,0,0,0-18700.295,11696.642Zm-3.678,0a1.1,1.1,0,0,0-.3.742,1.1,1.1,0,0,0,.3.746,1.119,1.119,0,0,0,.746.306,1.924,1.924,0,0,0,.213-.019.757.757,0,0,0,.188-.066.7.7,0,0,0,.188-.094c.051-.042.1-.084.16-.127a1.1,1.1,0,0,0,.3-.746,1.1,1.1,0,0,0-.3-.742c-.057-.042-.109-.084-.16-.127a.732.732,0,0,0-.187-.094.753.753,0,0,0-.187-.065,1.083,1.083,0,0,0-.209-.021A1.069,1.069,0,0,0-18703.973,11696.642Zm-4.461-5.2a.531.531,0,0,1-.525-.559,4.463,4.463,0,0,1,4.424-4.461v-1.639a.788.788,0,0,1,.783-.784.793.793,0,0,1,.789.784v1.577h6.822v-1.577a.8.8,0,0,1,.789-.784.793.793,0,0,1,.789.784v1.639a4.458,4.458,0,0,1,4.418,4.461.52.52,0,0,1-.521.559Z" transform="translate(18710.998 -11683.75)" fill="#9ccb48"/>
    <path id="Vector" d="M4.2,0A4.2,4.2,0,0,0,0,4.2,4.117,4.117,0,0,0,.609,6.362a4.183,4.183,0,0,0,7.181,0A4.117,4.117,0,0,0,8.4,4.2,4.2,4.2,0,0,0,4.2,0ZM6.373,3.748,4.137,5.816a.8.8,0,0,1-.535.21A.779.779,0,0,1,3.045,5.8L2.005,4.756A.787.787,0,1,1,3.118,3.643l.5.5L5.3,2.593A.787.787,0,0,1,6.373,3.748Z" transform="translate(14.598 14.686)" fill="#9ccb48" opacity="0.4"/>
  </g>
</svg>
