<svg xmlns="http://www.w3.org/2000/svg" width="15.473" height="15.473" viewBox="0 0 15.473 15.473">
  <g id="vuesax_bold_trash" data-name="vuesax/bold/trash" transform="translate(-108 -188)">
    <g id="trash" transform="translate(108 188)">
      <path id="Vector" d="M12.135,2.566c-1.038-.1-2.076-.181-3.12-.239V2.321l-.142-.838C8.777.89,8.635,0,7.126,0H5.437C3.935,0,3.793.851,3.69,1.476L3.555,2.3c-.6.039-1.2.077-1.8.135L.441,2.566a.482.482,0,1,0,.09.961L1.846,3.4a51.4,51.4,0,0,1,10.2.135H12.1a.488.488,0,0,0,.484-.438A.494.494,0,0,0,12.135,2.566Z" transform="translate(1.448 0.806)" fill="#fff"/>
      <path id="Vector-2" data-name="Vector" d="M9.543.251A.815.815,0,0,0,8.956,0H.807A.8.8,0,0,0,.22.251.83.83,0,0,0,0,.857L.4,7.472c.071.98.161,2.2,2.411,2.2H6.951c2.25,0,2.34-1.218,2.411-2.2l.4-6.608A.836.836,0,0,0,9.543.251Zm-3.591,6.2H3.805a.484.484,0,0,1,0-.967H5.952a.484.484,0,0,1,0,.967Zm.542-2.579H3.27a.484.484,0,0,1,0-.967H6.493a.484.484,0,1,1,0,.967Z" transform="translate(2.855 4.996)" fill="#fff"/>
      <path id="Vector-3" data-name="Vector" d="M0,0H15.473V15.473H0Z" transform="translate(15.473 15.473) rotate(180)" fill="none" opacity="0"/>
    </g>
  </g>
</svg>
