<svg xmlns="http://www.w3.org/2000/svg" width="13.193" height="13.191" viewBox="0 0 13.193 13.191">
  <g id="Group_22981" data-name="Group 22981" transform="translate(-143.494 -547.006)">
    <path id="Vector" d="M5.554,1.144C4.048-.362,2.573-.4,1.029,1.144L.09,2.083a.323.323,0,0,0-.078.31A6.31,6.31,0,0,0,4.3,6.686.39.39,0,0,0,4.4,6.7a.311.311,0,0,0,.225-.093l.931-.939A3.208,3.208,0,0,0,6.7,3.426,3.2,3.2,0,0,0,5.554,1.144Z" transform="translate(149.992 547.006)" fill="#fff"/>
    <path id="Vector-2" data-name="Vector" d="M9.4,4.254c-.225-.109-.442-.217-.652-.342-.171-.1-.334-.21-.5-.326a4.687,4.687,0,0,1-.435-.334.947.947,0,0,1-.132-.116,6.565,6.565,0,0,1-.8-.807.946.946,0,0,1-.116-.14,4.515,4.515,0,0,1-.326-.427,4.262,4.262,0,0,1-.3-.458C6.021,1.094,5.912.885,5.8.668,5.695.435,5.609.21,5.532,0L.657,4.875A.934.934,0,0,0,.439,5.3L.02,8.275a1.591,1.591,0,0,0,.4,1.358,1.545,1.545,0,0,0,1.087.419,1.7,1.7,0,0,0,.279-.023L4.763,9.61a.864.864,0,0,0,.427-.217l4.875-4.875C9.847,4.44,9.638,4.355,9.4,4.254Z" transform="translate(143.494 550.145)" fill="#fff"/>
  </g>
</svg>
