<svg xmlns="http://www.w3.org/2000/svg" xmlns:xlink="http://www.w3.org/1999/xlink" width="337" height="236" viewBox="0 0 337 236">
  <defs>
    <clipPath id="clip-path">
      <rect id="Rectangle_2491" data-name="Rectangle 2491" width="337" height="236" transform="translate(-0.122 0.32)" fill="none"/>
    </clipPath>
    <clipPath id="clip-path-2">
      <rect id="Rectangle_2455" data-name="Rectangle 2455" width="117.89" height="66.204" fill="none"/>
    </clipPath>
    <clipPath id="clip-path-3">
      <rect id="Rectangle_2456" data-name="Rectangle 2456" width="122.887" height="61.975" fill="none"/>
    </clipPath>
    <clipPath id="clip-path-4">
      <rect id="Rectangle_2458" data-name="Rectangle 2458" width="42.475" height="19.76" fill="none"/>
    </clipPath>
    <clipPath id="clip-path-5">
      <rect id="Rectangle_2461" data-name="Rectangle 2461" width="66.208" height="18.886" fill="none"/>
    </clipPath>
    <clipPath id="clip-path-6">
      <rect id="Rectangle_2465" data-name="Rectangle 2465" width="44.95" height="53.215" fill="none"/>
    </clipPath>
    <clipPath id="clip-path-7">
      <rect id="Rectangle_2467" data-name="Rectangle 2467" width="69.815" height="17.965" fill="none"/>
    </clipPath>
    <clipPath id="clip-path-8">
      <rect id="Rectangle_2486" data-name="Rectangle 2486" width="3.599" height="3.985" fill="#b56f40"/>
    </clipPath>
    <clipPath id="clip-path-9">
      <rect id="Rectangle_2489" data-name="Rectangle 2489" width="1.543" height="2.027" fill="none"/>
    </clipPath>
    <clipPath id="clip-path-10">
      <rect id="Rectangle_2490" data-name="Rectangle 2490" width="1.583" height="1.957" fill="none"/>
    </clipPath>
  </defs>
  <g id="Group_17669" data-name="Group 17669" transform="translate(-0.099 -0.744)">
    <g id="Group_17670" data-name="Group 17670" transform="translate(0.221 0.424)">
      <g id="Group_17667" data-name="Group 17667">
        <g id="Group_17666" data-name="Group 17666" clip-path="url(#clip-path)">
          <path id="Path_18734" data-name="Path 18734" d="M179.322,264.627s-43.212-24.659-19.426-85.163,85.307-44.722,108.147-71.948S336.9,38.855,387.53,69.915s38.173,79.976,56.39,99.657,55.937,103.877-55.287,108.1-209.311-13.044-209.311-13.044" transform="translate(-135.071 -52.417)" fill="#31aae0" opacity="0.06"/>
          <g id="Group_17632" data-name="Group 17632" transform="translate(177.198 16.867)" opacity="0.3">
            <g id="Group_17631" data-name="Group 17631">
              <g id="Group_17630" data-name="Group 17630" clip-path="url(#clip-path-2)">
                <path id="Path_18735" data-name="Path 18735" d="M1585.215,212.826c4.537-.131,9.009-1.142,13.542-1.384,4.928-.264,10.077.349,14.629-1.556.086-.036.171-.076.256-.114a159.525,159.525,0,0,0-5.352-17.611c-.1.028-.2.055-.3.085-2.91.874-5.637,2.285-8.553,3.138a23.692,23.692,0,0,1-16.638-1.327c-5.779-2.745-10.41-7.832-16.586-9.5-4.5-1.218-9.286-.461-13.926-.932s-9.733-2.832-10.853-7.36a3.84,3.84,0,0,1,.124-2.577c.8-1.659,2.994-1.962,4.835-2.047a80.216,80.216,0,0,1,14.09.182c5.937.778,11.934,2.883,17.768,1.541,1.784-.41,3.481-1.133,5.253-1.59,4.714-1.215,9.672-.49,14.467.459a88.04,88.04,0,0,0-26.962-24.961q-.525-.322-1.049-.632c-4.7,2.549-8.792,6.257-13.716,8.378-5.908,2.545-12.564,2.621-18.986,2.256-3.838-.218-8.064-.47-11.119,1.864-2.237,1.709-3.39,4.5-5.472,6.4-2.517,2.293-6.045,3-9.345,3.834-4.189,1.062-8.425,2.556-11.578,5.512s-4.974,7.684-3.448,11.727c1.938,5.134,8.12,7.158,13.588,7.623,7,.6,14.193-.252,20.937,1.7,4.582,1.326,8.693,3.877,12.971,5.988,7.4,3.652,15.36,6.014,23.34,8.107,5.919,1.552,11.961,2.976,18.078,2.8" transform="translate(-1495.752 -146.637)" fill="#fff"/>
              </g>
            </g>
          </g>
          <g id="Group_17635" data-name="Group 17635" transform="translate(37.583 48.829)" opacity="0.3">
            <g id="Group_17634" data-name="Group 17634">
              <g id="Group_17633" data-name="Group 17633" clip-path="url(#clip-path-3)">
                <path id="Path_18736" data-name="Path 18736" d="M320.331,471.751l3.82,1.766c3.535,1.635,7.128,3.287,10.975,3.894a42.3,42.3,0,0,0,10.733-.147,64.364,64.364,0,0,0,12.916-2.172c4.6-1.437,8.86-3.9,13.554-5,5.164-1.2,10.548-.682,15.848-.5,7.039.237,14.215-.169,20.85-2.531s12.724-6.879,15.809-13.211c1.631-3.348,2.454-7.2,4.994-9.926,2.629-2.82,6.647-3.924,9.521-6.494a12.367,12.367,0,0,0,1.947-15.593,3.359,3.359,0,0,0-1.16-1.168,4.374,4.374,0,0,0-2.548-.144,19.154,19.154,0,0,1-9.277-1.191c-2.466-.972-4.74-2.46-7.123-3.605-1.946,2.144-3.772,4.246-5.469,6.269a36.8,36.8,0,0,1-7.815,6.914,30.339,30.339,0,0,1,5.827,2.238c1.557.792,3.219,1.992,3.316,3.737.095,1.7-1.356,3.069-2.8,3.964-3.963,2.453-8.956,3.48-11.958,7.045-2.651,3.148-3.393,7.92-6.9,10.079a11.573,11.573,0,0,1-5.28,1.366c-6.093.448-12.468-.312-18.11,2.033-1.237.514-2.416,1.171-3.687,1.6a20,20,0,0,1-5.182.807,128.885,128.885,0,0,1-30.483-1.807,70.633,70.633,0,0,0-12.316,11.781" transform="translate(-320.331 -415.728)" fill="#fff"/>
              </g>
            </g>
          </g>
          <path id="Path_18737" data-name="Path 18737" d="M1897.9,565.712c3.809,34.645-15.728,83.852-15.728,83.852s26.7-25.145,26.118-54.926l-8.54-.148s4.4-2.87,8.136-5.209a49.49,49.49,0,0,0-9.986-23.569" transform="translate(-1659.075 -499.068)" fill="#07085b"/>
          <path id="Path_18738" data-name="Path 18738" d="M1753.53,605.791l5.4-3.188-4.659-.68a47.133,47.133,0,0,1,6.928-15.4c3.52,1.068,7.547,2.187,7.547,2.187l-4.45-6.344a71.731,71.731,0,0,1,19.875-16.649c3.81,34.645-15.728,83.852-15.728,83.852-13.344-17.025-16.633-31.687-14.908-43.773" transform="translate(-1545.341 -499.068)" fill="#55769f"/>
          <path id="Path_18739" data-name="Path 18739" d="M1907.355,853.786a43.333,43.333,0,0,0-14.319,9.915c.535,2.416,1.115,5.323,1.115,5.323l-3.6-2.5c-13.113,16.172-12.934,38.057-12.934,38.057,12.879-5.307,20.577-12.359,25.087-19.516-.918-1.335-2.311-3.3-2.311-3.3l3.678.949a38.368,38.368,0,0,0,3.792-10.553c-1.918-.479-4.067-1.084-4.067-1.084l4.583-2.136a39.406,39.406,0,0,0-1.027-15.156" transform="translate(-1655.064 -752.925)" fill="#81b722"/>
          <path id="Path_18740" data-name="Path 18740" d="M1902.708,885.06c-.918-1.335-2.311-3.3-2.311-3.3l3.678.949a38.376,38.376,0,0,0,3.792-10.553c-1.918-.479-4.067-1.084-4.067-1.084l4.583-2.136a39.4,39.4,0,0,0-1.027-15.156c-16.55,17.865-29.735,50.79-29.735,50.79,12.879-5.307,20.577-12.36,25.087-19.516" transform="translate(-1655.065 -752.925)" fill="#9ccb48"/>
          <rect id="Rectangle_2457" data-name="Rectangle 2457" width="89.024" height="45.24" transform="matrix(0.494, -0.869, 0.869, 0.494, 199.599, 193.664)" fill="#8fd0d6"/>
          <path id="Path_18741" data-name="Path 18741" d="M1788.8,1033.716l-41.126,72.386-35.6-20.224,41.126-72.386Zm-42.136,68.719,38.468-67.708-30.919-17.567-38.468,67.708Z" transform="translate(-1509.188 -893.662)" fill="#cbefef"/>
          <path id="Path_18742" data-name="Path 18742" d="M1909.9,1261.019c8.862,5.035,12.331,15.656,7.747,23.723s-15.482,10.525-24.344,5.49-12.33-15.656-7.747-23.723,15.483-10.525,24.344-5.49" transform="translate(-1660.273 -1109.484)" fill="#cbefef"/>
          <path id="Path_18743" data-name="Path 18743" d="M1946.087,1330.658a3.114,3.114,0,0,0-2.8.331,2.686,2.686,0,0,0,.308.251c1.374.792,2.756,1.572,4.123,2.376a.508.508,0,0,0,.724-.095,22.089,22.089,0,0,1,1.873-1.543,5.375,5.375,0,0,1,6.818.209c2.572,1.9,3.292,4.326,2.33,7.4-.175.56-.045.825.444,1.048.356.162.685.385,1.06.6l-1.02,1.774-1.594-.916a6.64,6.64,0,0,1-8.462,2.047l1.477-3.377a4.9,4.9,0,0,0,3.933-.414l-2.082-1.2c-.9-.517-1.81-1.02-2.7-1.559a.59.59,0,0,0-.834.073,7.893,7.893,0,0,1-3.176,1.9,6.059,6.059,0,0,1-6.273-1.9,5.348,5.348,0,0,1-1.062-5.8c.049-.143.1-.284.147-.428a2,2,0,0,0,.039-.216l-1.331-.765,1.035-1.8c.317.182.653.347.956.557.322.223.512.141.747-.146a5.556,5.556,0,0,1,4.045-2.214,5.9,5.9,0,0,1,2.654.45l-1.381,3.367m5.6,5.19,4.77,2.741a2.806,2.806,0,0,0-1.079-3.392,2.775,2.775,0,0,0-3.691.651m-9.516-2.99a2.7,2.7,0,0,0,1.262,2.836,2.6,2.6,0,0,0,2.952-.414l-4.214-2.422" transform="translate(-1708.3 -1169.779)" fill="#8fd0d6"/>
          <path id="Path_18744" data-name="Path 18744" d="M1893.69,1601.913a2.452,2.452,0,1,0,.921,3.344,2.452,2.452,0,0,0-.921-3.344" transform="translate(-1665.996 -1411.908)" fill="#cbefef"/>
          <path id="Path_18745" data-name="Path 18745" d="M2143.578,1162.083a2.452,2.452,0,1,0,.92,3.344,2.453,2.453,0,0,0-.92-3.344" transform="translate(-1886.202 -1024.321)" fill="#cbefef"/>
          <g id="Group_17638" data-name="Group 17638" transform="translate(233.594 150.649)" style="mix-blend-mode: multiply;isolation: isolate">
            <g id="Group_17637" data-name="Group 17637">
              <g id="Group_17636" data-name="Group 17636" clip-path="url(#clip-path-4)">
                <path id="Path_18746" data-name="Path 18746" d="M2009.887,1278.481c-.136-.112,3.138-5.524,3.138-5.524l-42.476,16.41.563,3.35Z" transform="translate(-1970.55 -1272.957)" fill="#8fd0d6"/>
              </g>
            </g>
          </g>
          <rect id="Rectangle_2459" data-name="Rectangle 2459" width="89.024" height="45.24" transform="translate(213.108 178.202) rotate(-20.315)" fill="#8fd0d6"/>
          <path id="Path_18747" data-name="Path 18747" d="M1919.433,1308.51l-78.075,28.9-14.214-38.395,78.075-28.9Zm-76.486,25.447,73.03-27.036-12.346-33.349-73.03,27.036Z" transform="translate(-1610.584 -1119.804)" fill="#cbefef"/>
          <path id="Path_18748" data-name="Path 18748" d="M2105.61,1412.469c3.539,9.558-.646,19.918-9.347,23.139s-18.623-1.916-22.162-11.474.646-19.918,9.347-23.139,18.624,1.916,22.162,11.475" transform="translate(-1827.099 -1234.29)" fill="#cbefef"/>
          <path id="Path_18749" data-name="Path 18749" d="M2155.063,1455.773a3.113,3.113,0,0,0-2.355-1.55,2.657,2.657,0,0,0,.074.391c.541,1.491,1.1,2.977,1.624,4.473.116.328.269.407.615.394a22.1,22.1,0,0,1,2.426.026,5.375,5.375,0,0,1,5.082,4.55c.742,3.113-.267,5.43-2.98,7.16-.495.316-.565.6-.335,1.088.168.354.276.736.424,1.142l-1.922.7-.63-1.727a6.641,6.641,0,0,1-7.793-3.882l3.3-1.633a4.9,4.9,0,0,0,3.276,2.216l-.823-2.256c-.356-.976-.729-1.945-1.06-2.929a.59.59,0,0,0-.685-.482,7.888,7.888,0,0,1-3.651-.595,6.058,6.058,0,0,1-3.574-5.5,5.348,5.348,0,0,1,2.924-5.125c.13-.077.26-.153.388-.233a1.957,1.957,0,0,0,.169-.14l-.526-1.443,1.952-.712c.125.343.276.685.373,1.042.1.378.3.438.666.369a5.559,5.559,0,0,1,4.521.91,5.9,5.9,0,0,1,1.74,2.054l-3.225,1.688m.94,7.574,1.884,5.168a2.805,2.805,0,0,0,1.359-3.29,2.775,2.775,0,0,0-3.243-1.878m-5.355-8.415a2.7,2.7,0,0,0-.861,2.983,2.6,2.6,0,0,0,2.526,1.584l-1.665-4.567" transform="translate(-1891.626 -1278.067)" fill="#8fd0d6"/>
          <path id="Path_18750" data-name="Path 18750" d="M1963.627,1621.766a2.452,2.452,0,1,0-1.448,3.151,2.452,2.452,0,0,0,1.448-3.151" transform="translate(-1726.667 -1428.275)" fill="#cbefef"/>
          <path id="Path_18751" data-name="Path 18751" d="M2438.021,1446.142a2.453,2.453,0,1,0-1.448,3.151,2.453,2.453,0,0,0,1.448-3.151" transform="translate(-2144.712 -1273.51)" fill="#cbefef"/>
          <rect id="Rectangle_2460" data-name="Rectangle 2460" width="89.024" height="45.24" transform="translate(208.892 180.078) rotate(-0.176)" fill="#8fd0d6"/>
          <path id="Path_18752" data-name="Path 18752" d="M1870.314,1577.521l-83.253.256-.126-40.941,83.253-.256Zm-80.571-2.442,77.873-.24-.109-35.561-77.873.24Z" transform="translate(-1575.151 -1354.618)" fill="#cbefef"/>
          <path id="Path_18753" data-name="Path 18753" d="M2030.345,1573.578c.031,10.192-7.465,18.478-16.742,18.506s-16.825-8.21-16.856-18.4,7.465-18.478,16.742-18.506,16.825,8.211,16.856,18.4" transform="translate(-1760.041 -1371.005)" fill="#cbefef"/>
          <path id="Path_18754" data-name="Path 18754" d="M2089.047,1610.018a3.114,3.114,0,0,0-1.678-2.266,2.71,2.71,0,0,0-.064.392c-.005,1.586,0,3.173-.015,4.759,0,.347.112.475.442.581a22.078,22.078,0,0,1,2.269.86,5.376,5.376,0,0,1,3.2,6.021c-.375,3.178-2.12,5.006-5.263,5.7-.574.126-.738.371-.689.906.036.39.006.786.005,1.218l-2.046,0c0-.622,0-1.236,0-1.838a6.639,6.639,0,0,1-5.98-6.328l3.665-.4a4.9,4.9,0,0,0,2.313,3.208c0-.882,0-1.642,0-2.4,0-1.038-.014-2.077.013-3.115a.59.59,0,0,0-.477-.688,7.892,7.892,0,0,1-3.223-1.815,6.06,6.06,0,0,1-1.463-6.39,5.348,5.348,0,0,1,4.51-3.8c.148-.028.3-.053.444-.085a1.965,1.965,0,0,0,.207-.073c0-.487,0-.989,0-1.535l2.078,0c0,.365.023.738-.009,1.107-.034.39.133.515.5.575a5.557,5.557,0,0,1,3.931,2.411,5.9,5.9,0,0,1,.927,2.527l-3.609.474m-1.726,7.434c0,1.868-.007,3.683-.01,5.5a2.805,2.805,0,0,0,2.408-2.621,2.774,2.774,0,0,0-2.4-2.88m-2.131-9.744a2.7,2.7,0,0,0-1.835,2.5,2.6,2.6,0,0,0,1.826,2.357c0-1.593.006-3.19.009-4.861" transform="translate(-1832.732 -1413.078)" fill="#8fd0d6"/>
          <path id="Path_18755" data-name="Path 18755" d="M1870.411,1692.573a2.453,2.453,0,1,0-2.445,2.46,2.453,2.453,0,0,0,2.445-2.46" transform="translate(-1644.389 -1489.927)" fill="#cbefef"/>
          <path id="Path_18756" data-name="Path 18756" d="M2376.268,1691.015a2.452,2.452,0,1,0-2.445,2.46,2.453,2.453,0,0,0,2.445-2.46" transform="translate(-2090.161 -1488.554)" fill="#cbefef"/>
          <g id="Group_17641" data-name="Group 17641" transform="translate(235.152 176.123)" style="mix-blend-mode: multiply;isolation: isolate">
            <g id="Group_17640" data-name="Group 17640">
              <g id="Group_17639" data-name="Group 17639" clip-path="url(#clip-path-5)">
                <path id="Path_18757" data-name="Path 18757" d="M2046.477,1506.307l-.047-15.205-62.159.131-.6-3.6,66.171-.21.038,17.648Z" transform="translate(-1983.666 -1487.421)" fill="#8fd0d6"/>
              </g>
            </g>
          </g>
          <rect id="Rectangle_2462" data-name="Rectangle 2462" width="18.934" height="19.631" transform="matrix(0.97, -0.242, 0.242, 0.97, 61.869, 103.555)" fill="#99592e"/>
          <rect id="Rectangle_2463" data-name="Rectangle 2463" width="18.934" height="19.631" transform="translate(4.061 117.977) rotate(-14.008)" fill="#b56f40"/>
          <path id="Path_18758" data-name="Path 18758" d="M582.727,1050.793l-13.111-52.552-18.371,4.583,13.279,53.224.093.271a36.4,36.4,0,0,1,1.333,7.694c.242,3.613.027,8.824-2.37,13.126-2.334,4.189-6.451,7.039-12.57,8.7q-.81.184-1.592.323h0l4.59,18.4q.423-.086.847-.179l.005.021c.246-.061.49-.125.733-.189s.49-.116.736-.178l-.005-.021a43.032,43.032,0,0,0,14.207-6.758,34.354,34.354,0,0,0,9.677-11.06,38.314,38.314,0,0,0,4.248-12.881,49.782,49.782,0,0,0,.332-11.279,54.837,54.837,0,0,0-2.063-11.242" transform="translate(-484.624 -880.222)" fill="#9ccb48"/>
          <path id="Path_18759" data-name="Path 18759" d="M120.5,1191.064c-4.137-2.672-6.775-7.171-8.258-10.475a36.4,36.4,0,0,1-2.437-7.418l-.045-.283-13.279-53.224-18.371,4.583,13.11,52.552a54.847,54.847,0,0,0,3.459,10.893,49.8,49.8,0,0,0,5.592,9.8,38.317,38.317,0,0,0,9.8,9.376,34.357,34.357,0,0,0,13.739,5.219,42.587,42.587,0,0,0,14.87-.529l-4.59-18.4c-5.451.968-9.915.277-13.592-2.1" transform="translate(-69.301 -987.223)" fill="#31aae0"/>
          <path id="Path_18760" data-name="Path 18760" d="M1743.158,1393.765a32.2,32.2,0,1,1-32.538-31.85,32.2,32.2,0,0,1,32.538,31.85" transform="translate(-1479.833 -1200.698)" fill="#f4a640"/>
          <path id="Path_18761" data-name="Path 18761" d="M1763.956,1417.838a28.956,28.956,0,1,1-29.263-28.644,28.955,28.955,0,0,1,29.263,28.644" transform="translate(-1503.87 -1224.736)" fill="#f9cc4b"/>
          <path id="Path_18762" data-name="Path 18762" d="M1748.994,1458.956a27.109,27.109,0,1,1,26.817-27.4,27.139,27.139,0,0,1-26.817,27.4m-.569-53.218a26.113,26.113,0,1,0,26.39,25.832,26.142,26.142,0,0,0-26.39-25.832" transform="translate(-1517.573 -1238.438)" fill="#f4a640"/>
          <path id="Path_18764" data-name="Path 18764" d="M355.555,1365.871s14.144-19.554,6.8-23.172c0,0-1.312-2.076-6.592,5.344,0,0-3.263,1.073-3.449-2.711s5.172-9.542,1.755-12.823-5.18,2.623-7.588,3.744-1.267-13.966-4.606-15.584-4.248,4.333-6.117,5.028-7.391-16.885-16.325-13.618,1.272,9.849,5.558,13.923-4.562,1.8-5.486,7.008,14.866,1.013,13.435,6.078-5.955,2.178-6.8,5.961c-1.363,6.116,14.281.237,13.928,4.448-.281,3.358-5.954,1.149-6.559,3.745s9.217,11.9,22.041,12.627" transform="translate(-278.827 -1156.427)" fill="#07085b"/>
          <g id="Group_17647" data-name="Group 17647" transform="translate(39.077 156.229)" opacity="0.1" style="mix-blend-mode: color-dodge;isolation: isolate">
            <g id="Group_17646" data-name="Group 17646">
              <g id="Group_17645" data-name="Group 17645" clip-path="url(#clip-path-6)">
                <path id="Path_18765" data-name="Path 18765" d="M377.861,1350.268q-.1-.067-.2-.129c-.269.8-.6,1.681-1.006,2.594a21.285,21.285,0,0,1-9.393,10.479,80.786,80.786,0,0,0-4.783-8.771c1.342-7.645,4.023-11.916,6.036-14.152.174-.194.347-.375.517-.546-.058-.055-.116-.106-.173-.156-.165.167-.333.343-.5.532-2.016,2.234-4.692,6.476-6.06,14.029l-.024-.038c-1.959-3.12-4.231-6.366-6.794-9.708a55.321,55.321,0,0,1-.46-7.423,30.464,30.464,0,0,1,1.3-9.243,2.278,2.278,0,0,0-.229-.045,30.76,30.76,0,0,0-1.3,9.286,56.681,56.681,0,0,0,.41,7.058q-2.942-3.813-6.375-7.777c-6.375-7.358-12.5-13.326-15.7-16.326-.073.039-.145.078-.214.117,3.174,2.978,9.328,8.966,15.734,16.361,1.077,1.244,2.19,2.56,3.317,3.938a55.988,55.988,0,0,0-6.849-.716,48.875,48.875,0,0,0-10.591.618l-.007.038c-.012.07-.021.138-.028.2a48.538,48.538,0,0,1,10.611-.628,54.077,54.077,0,0,1,7.089.761c2.492,3.058,5.048,6.407,7.441,9.909-5.5-.685-14.247,1.209-18.552,2.275q-.01.125-.009.241c4.319-1.074,13.266-3.019,18.737-2.26a82.693,82.693,0,0,1,8.516,15.491c-4.6.748-10.058-1.293-13.846-3.152a55.61,55.61,0,0,1-5.661-3.22,1.414,1.414,0,0,0-.131.191,55.854,55.854,0,0,0,5.686,3.235c3.833,1.88,9.368,3.947,14.039,3.166a41.977,41.977,0,0,1,2.032,6.637l.121.008.091-.127a46.718,46.718,0,0,0-3.294-9.6q.495-.253.974-.536a19.3,19.3,0,0,0,4.993-4.289,24.644,24.644,0,0,0,3.542-5.777c.4-.9.726-1.76.992-2.553" transform="translate(-332.911 -1319.933)" fill="#fff"/>
              </g>
            </g>
          </g>
          <path id="Path_18766" data-name="Path 18766" d="M273.956,1712.787s-12.484-14.018-35.819-13.065l4.046,5.586-6.521-5.12s-13.53,1.123-22.748,4.425c0,0,19.813,10.437,24.816,11.353l6.678-1.985-3.617,4.99s10.9,6.061,22.115,4.82,11.05-11.005,11.05-11.005" transform="translate(-188.09 -1498.341)" fill="#8fd0d6"/>
          <path id="Path_18767" data-name="Path 18767" d="M1187.416,916.316h72.715a5.732,5.732,0,0,1,5.733,5.733v106.3a5.732,5.732,0,0,1-5.733,5.733h-72.715a5.733,5.733,0,0,1-5.733-5.733v-106.3a5.733,5.733,0,0,1,5.733-5.733" transform="translate(-1041.79 -808.028)"/>
          <rect id="Rectangle_2466" data-name="Rectangle 2466" width="69.815" height="17.965" transform="translate(147.473 117.974)" fill="#3cb4c5"/>
          <g id="Group_17650" data-name="Group 17650" transform="translate(147.473 117.974)" opacity="0.5" style="mix-blend-mode: multiply;isolation: isolate">
            <g id="Group_17649" data-name="Group 17649">
              <g id="Group_17648" data-name="Group 17648" clip-path="url(#clip-path-7)">
                <path id="Path_18768" data-name="Path 18768" d="M1247.351,1000.45h67.963v-2.586H1245.5v17.965h1.852Z" transform="translate(-1245.499 -997.863)" fill="#3cb4c5"/>
              </g>
            </g>
          </g>
          <path id="Path_18769" data-name="Path 18769" d="M1263.023,1198.73h-15.016a2.508,2.508,0,0,1-2.508-2.508v-1.456a2.508,2.508,0,0,1,2.508-2.508h15.016a2.508,2.508,0,0,1,2.508,2.508v1.456a2.508,2.508,0,0,1-2.508,2.508" transform="translate(-1098.026 -1051.194)" fill="#9ccb48"/>
          <path id="Path_18770" data-name="Path 18770" d="M1472.583,1198.73h-15.016a2.508,2.508,0,0,1-2.508-2.508v-1.456a2.508,2.508,0,0,1,2.508-2.508h15.016a2.508,2.508,0,0,1,2.508,2.508v1.456a2.508,2.508,0,0,1-2.508,2.508" transform="translate(-1282.694 -1051.194)" fill="#9ccb48"/>
          <path id="Path_18771" data-name="Path 18771" d="M1682.141,1198.73h-15.016a2.508,2.508,0,0,1-2.508-2.508v-1.456a2.508,2.508,0,0,1,2.508-2.508h15.016a2.508,2.508,0,0,1,2.508,2.508v1.456a2.508,2.508,0,0,1-2.508,2.508" transform="translate(-1467.361 -1051.194)" fill="#9ccb48"/>
          <path id="Path_18772" data-name="Path 18772" d="M1257.491,1304.4h-8.482a3.51,3.51,0,0,1-3.51-3.511V1293.4a3.511,3.511,0,0,1,3.51-3.51h8.482a3.511,3.511,0,0,1,3.51,3.51v7.488a3.51,3.51,0,0,1-3.51,3.511" transform="translate(-1098.026 -1137.231)" fill="#cfe4ff"/>
          <path id="Path_18773" data-name="Path 18773" d="M1409.909,1304.4h-8.482a3.51,3.51,0,0,1-3.51-3.511V1293.4a3.511,3.511,0,0,1,3.51-3.51h8.482a3.511,3.511,0,0,1,3.511,3.51v7.488a3.511,3.511,0,0,1-3.511,3.511" transform="translate(-1232.34 -1137.231)" fill="#cfe4ff"/>
          <path id="Path_18774" data-name="Path 18774" d="M1562.326,1304.4h-8.482a3.511,3.511,0,0,1-3.511-3.511V1293.4a3.511,3.511,0,0,1,3.511-3.51h8.482a3.511,3.511,0,0,1,3.51,3.51v7.488a3.51,3.51,0,0,1-3.51,3.511" transform="translate(-1366.653 -1137.231)" fill="#cfe4ff"/>
          <path id="Path_18775" data-name="Path 18775" d="M1257.491,1454.993h-8.482a3.51,3.51,0,0,1-3.51-3.51v-7.488a3.511,3.511,0,0,1,3.51-3.51h8.482a3.511,3.511,0,0,1,3.51,3.51v7.488a3.51,3.51,0,0,1-3.51,3.51" transform="translate(-1098.026 -1269.936)" fill="#cfe4ff"/>
          <path id="Path_18776" data-name="Path 18776" d="M1409.909,1454.993h-8.482a3.51,3.51,0,0,1-3.51-3.51v-7.488a3.51,3.51,0,0,1,3.51-3.51h8.482a3.511,3.511,0,0,1,3.511,3.51v7.488a3.51,3.51,0,0,1-3.511,3.51" transform="translate(-1232.34 -1269.936)" fill="#cfe4ff"/>
          <path id="Path_18777" data-name="Path 18777" d="M1562.326,1454.993h-8.482a3.511,3.511,0,0,1-3.511-3.51v-7.488a3.511,3.511,0,0,1,3.511-3.51h8.482a3.511,3.511,0,0,1,3.51,3.51v7.488a3.51,3.51,0,0,1-3.51,3.51" transform="translate(-1366.653 -1269.936)" fill="#cfe4ff"/>
          <path id="Path_18778" data-name="Path 18778" d="M1715.1,1289.892h-9.186a3.158,3.158,0,0,0-3.158,3.158v26.08a3.158,3.158,0,0,0,3.158,3.158h9.186a3.158,3.158,0,0,0,3.158-3.158v-26.08a3.158,3.158,0,0,0-3.158-3.158" transform="translate(-1500.966 -1137.231)" fill="#fdb137"/>
          <path id="Path_18779" data-name="Path 18779" d="M1257.491,1605.586h-8.482a3.51,3.51,0,0,1-3.51-3.511v-7.488a3.511,3.511,0,0,1,3.51-3.511h8.482a3.511,3.511,0,0,1,3.51,3.511v7.488a3.51,3.51,0,0,1-3.51,3.511" transform="translate(-1098.026 -1402.642)" fill="#cfe4ff"/>
          <path id="Path_18780" data-name="Path 18780" d="M1409.909,1605.586h-8.482a3.51,3.51,0,0,1-3.51-3.511v-7.488a3.511,3.511,0,0,1,3.51-3.511h8.482a3.511,3.511,0,0,1,3.511,3.511v7.488a3.511,3.511,0,0,1-3.511,3.511" transform="translate(-1232.34 -1402.642)" fill="#cfe4ff"/>
          <path id="Path_18781" data-name="Path 18781" d="M1562.326,1605.586h-8.482a3.511,3.511,0,0,1-3.511-3.511v-7.488a3.511,3.511,0,0,1,3.511-3.511h8.482a3.511,3.511,0,0,1,3.51,3.511v7.488a3.51,3.51,0,0,1-3.51,3.511" transform="translate(-1366.653 -1402.642)" fill="#cfe4ff"/>
          <path id="Path_18782" data-name="Path 18782" d="M1714.743,1605.586h-8.481a3.511,3.511,0,0,1-3.511-3.511v-7.488a3.511,3.511,0,0,1,3.511-3.511h8.481a3.511,3.511,0,0,1,3.511,3.511v7.488a3.511,3.511,0,0,1-3.511,3.511" transform="translate(-1500.966 -1402.642)" fill="#fdb137"/>
          <path id="Path_18783" data-name="Path 18783" d="M1257.491,1756.178h-8.482a3.511,3.511,0,0,1-3.51-3.51v-7.488a3.511,3.511,0,0,1,3.51-3.51h8.482a3.511,3.511,0,0,1,3.51,3.51v7.488a3.511,3.511,0,0,1-3.51,3.51" transform="translate(-1098.026 -1535.347)" fill="#cfe4ff"/>
          <path id="Path_18784" data-name="Path 18784" d="M1409.909,1756.178h-8.482a3.511,3.511,0,0,1-3.51-3.51v-7.488a3.511,3.511,0,0,1,3.51-3.51h8.482a3.511,3.511,0,0,1,3.511,3.51v7.488a3.511,3.511,0,0,1-3.511,3.51" transform="translate(-1232.34 -1535.347)" fill="#cfe4ff"/>
          <path id="Path_18785" data-name="Path 18785" d="M1562.326,1756.178h-8.482a3.511,3.511,0,0,1-3.511-3.51v-7.488a3.511,3.511,0,0,1,3.511-3.51h8.482a3.511,3.511,0,0,1,3.51,3.51v7.488a3.511,3.511,0,0,1-3.51,3.51" transform="translate(-1366.653 -1535.347)" fill="#fdb137"/>
          <path id="Path_18786" data-name="Path 18786" d="M1714.743,1756.178h-8.481a3.511,3.511,0,0,1-3.511-3.51v-7.488a3.511,3.511,0,0,1,3.511-3.51h8.481a3.511,3.511,0,0,1,3.511,3.51v7.488a3.511,3.511,0,0,1-3.511,3.51" transform="translate(-1500.966 -1535.347)" fill="#e87b50"/>
          <path id="Path_18787" data-name="Path 18787" d="M1294.633,1620.057v.734l-3.579,7.487H1289.9l3.566-7.272v-.025h-4.021v-.923Z" transform="translate(-1136.755 -1428.18)" fill="#fff"/>
          <path id="Path_18788" data-name="Path 18788" d="M1440.326,1625.159a2.349,2.349,0,0,1,1.631-2.2l-.012-.038a2.036,2.036,0,0,1-1.3-1.846,2.3,2.3,0,0,1,2.542-2.188,2.123,2.123,0,0,1,2.391,2.023,2.088,2.088,0,0,1-1.353,1.922v.038a2.279,2.279,0,0,1,1.657,2.125,2.532,2.532,0,0,1-2.8,2.39c-1.72,0-2.757-1.024-2.757-2.226m4.426-.051c0-1-.7-1.479-1.808-1.8a1.786,1.786,0,0,0-1.48,1.695,1.52,1.52,0,0,0,1.644,1.568,1.487,1.487,0,0,0,1.644-1.467m-3.06-4.11c0,.822.62,1.265,1.568,1.518a1.62,1.62,0,0,0,1.252-1.492,1.278,1.278,0,0,0-1.391-1.341,1.307,1.307,0,0,0-1.429,1.315" transform="translate(-1269.711 -1427.149)" fill="#fff"/>
          <path id="Path_18789" data-name="Path 18789" d="M1445.8,1771.79c0,2.795-1.037,4.337-2.858,4.337-1.606,0-2.694-1.5-2.719-4.224,0-2.757,1.189-4.275,2.858-4.275,1.733,0,2.719,1.543,2.719,4.161m-4.464.126c0,2.137.658,3.351,1.67,3.351,1.138,0,1.682-1.328,1.682-3.427,0-2.023-.518-3.352-1.669-3.352-.974,0-1.682,1.189-1.682,3.427" transform="translate(-1269.618 -1558.223)" fill="#fff"/>
          <path id="Path_18790" data-name="Path 18790" d="M1596.053,1626.462a4.64,4.64,0,0,0,.9-.038,3.1,3.1,0,0,0,1.72-.8,3.607,3.607,0,0,0,1.088-2.188h-.038a2.411,2.411,0,0,1-1.935.885,2.381,2.381,0,0,1-2.428-2.517,2.818,2.818,0,0,1,2.807-2.921c1.682,0,2.719,1.366,2.719,3.465a5.194,5.194,0,0,1-1.417,3.857,4.11,4.11,0,0,1-2.39,1.1,5.181,5.181,0,0,1-1.024.063Zm.4-4.729a1.581,1.581,0,0,0,1.581,1.745,1.84,1.84,0,0,0,1.619-.86.736.736,0,0,0,.1-.4c0-1.4-.519-2.479-1.682-2.479-.948,0-1.619.835-1.619,2" transform="translate(-1406.328 -1427.149)" fill="#fff"/>
          <path id="Path_18791" data-name="Path 18791" d="M1288.8,1474.737V1472.5h-3.819v-.734l3.667-5.248h1.2v5.109H1291v.873h-1.151v2.238Zm0-3.111v-2.744q0-.645.038-1.29h-.038c-.253.481-.455.835-.683,1.214l-2.011,2.795v.025Z" transform="translate(-1132.815 -1292.877)" fill="#fff"/>
          <path id="Path_18792" data-name="Path 18792" d="M1445.8,1467.453h-3.136l-.316,2.112a4.421,4.421,0,0,1,.67-.05,3.473,3.473,0,0,1,1.77.443,2.343,2.343,0,0,1,1.176,2.112,2.852,2.852,0,0,1-3.061,2.807,4.026,4.026,0,0,1-2.049-.506l.278-.847a3.681,3.681,0,0,0,1.758.455,1.814,1.814,0,0,0,1.947-1.783c-.013-1.062-.721-1.821-2.365-1.821a8.5,8.5,0,0,0-1.138.089l.531-3.946h3.933Z" transform="translate(-1270.18 -1292.878)" fill="#fff"/>
          <path id="Path_18793" data-name="Path 18793" d="M1599.443,1466.364a4.014,4.014,0,0,0-.834.051,3.341,3.341,0,0,0-2.858,2.921h.038a2.506,2.506,0,0,1,4.464,1.707,2.749,2.749,0,0,1-2.732,2.9c-1.758,0-2.909-1.366-2.909-3.5a5.169,5.169,0,0,1,1.391-3.705,4.474,4.474,0,0,1,2.63-1.214,5.325,5.325,0,0,1,.809-.063Zm-.316,4.742a1.67,1.67,0,0,0-1.695-1.884,1.831,1.831,0,0,0-1.593,1.012.944.944,0,0,0-.126.493c.025,1.354.645,2.352,1.808,2.352.961,0,1.606-.8,1.606-1.973" transform="translate(-1405.672 -1291.939)" fill="#fff"/>
          <path id="Path_18794" data-name="Path 18794" d="M1296.122,1320.412h-.025l-1.429.771-.215-.847,1.8-.961h.948v8.22h-1.075Z" transform="translate(-1141.165 -1163.212)" fill="#fff"/>
          <path id="Path_18795" data-name="Path 18795" d="M1441.177,1326.563v-.683l.873-.848c2.1-2,3.048-3.06,3.061-4.3a1.466,1.466,0,0,0-1.631-1.606,2.8,2.8,0,0,0-1.745.7l-.354-.784a3.607,3.607,0,0,1,2.327-.835,2.313,2.313,0,0,1,2.517,2.39c0,1.518-1.1,2.744-2.833,4.414l-.657.607v.025h3.693v.923Z" transform="translate(-1270.461 -1162.179)" fill="#fff"/>
          <path id="Path_18796" data-name="Path 18796" d="M1595.768,1325.285a3.719,3.719,0,0,0,1.821.518c1.429,0,1.872-.911,1.859-1.594-.013-1.151-1.049-1.644-2.125-1.644h-.62v-.835h.62c.809,0,1.834-.417,1.834-1.391,0-.658-.417-1.24-1.442-1.24a3.021,3.021,0,0,0-1.644.544l-.291-.809a3.909,3.909,0,0,1,2.15-.632c1.619,0,2.352.961,2.352,1.96a2.041,2.041,0,0,1-1.518,1.935v.025a2.141,2.141,0,0,1,1.834,2.112c0,1.315-1.024,2.466-3,2.466a4.176,4.176,0,0,1-2.137-.557Z" transform="translate(-1406.422 -1162.179)" fill="#fff"/>
          <path id="Path_18797" data-name="Path 18797" d="M1304.394,1821.525a.991.991,0,1,1-.991-.991.992.992,0,0,1,.991.991" transform="translate(-1148.178 -1604.844)" fill="#fff"/>
          <path id="Path_18798" data-name="Path 18798" d="M1730.208,1391.955h-5.218v-5.218h-1.342v5.218h-5.218v1.342h5.218v5.218h1.342V1393.3h5.218Z" transform="translate(-1514.782 -1222.573)" fill="#fff"/>
          <path id="Path_18799" data-name="Path 18799" d="M1593.3,1782.486l-2.763-2.763,2.763-2.763-.71-.71-2.763,2.763-2.763-2.763-.71.71,2.763,2.763-2.763,2.763.71.71,2.763-2.763,2.763,2.763Z" transform="translate(-1398.393 -1565.82)" fill="#fff"/>
          <rect id="Rectangle_2468" data-name="Rectangle 2468" width="8.739" height="1.338" transform="translate(204.845 195.405)" fill="#fff"/>
          <rect id="Rectangle_2469" data-name="Rectangle 2469" width="8.739" height="1.338" transform="translate(205.167 210.871)" fill="#fff"/>
          <rect id="Rectangle_2470" data-name="Rectangle 2470" width="8.739" height="1.338" transform="translate(205.167 214.24)" fill="#fff"/>
          <rect id="Rectangle_2471" data-name="Rectangle 2471" width="29.446" height="12.46" transform="translate(129.992 163.353)" fill="#f4a640"/>
          <rect id="Rectangle_2472" data-name="Rectangle 2472" width="29.446" height="12.46" transform="translate(100.546 163.353)" fill="#feb546"/>
          <rect id="Rectangle_2473" data-name="Rectangle 2473" width="29.446" height="12.46" transform="translate(71.1 163.353)" fill="#f9c27a"/>
          <path id="Path_18800" data-name="Path 18800" d="M689.368,1390.015h-88.8v-13.193h88.8Zm-88.339-.732h87.878v-11.728H601.029Z" transform="translate(-529.699 -1213.836)" fill="#e2881e"/>
          <rect id="Rectangle_2474" data-name="Rectangle 2474" width="29.446" height="12.46" transform="translate(125.481 188.274)" fill="#f4a640"/>
          <rect id="Rectangle_2475" data-name="Rectangle 2475" width="29.446" height="12.46" transform="translate(96.035 188.274)" fill="#feb546"/>
          <rect id="Rectangle_2476" data-name="Rectangle 2476" width="29.446" height="12.46" transform="translate(66.589 188.274)" fill="#f9c27a"/>
          <path id="Path_18801" data-name="Path 18801" d="M651.391,1599.826h-88.8v-13.193h88.8Zm-88.339-.733H650.93v-11.728H563.052Z" transform="translate(-496.233 -1398.726)" fill="#e2881e"/>
          <rect id="Rectangle_2477" data-name="Rectangle 2477" width="29.446" height="12.46" transform="translate(129.992 200.734)" fill="#f4a640"/>
          <rect id="Rectangle_2478" data-name="Rectangle 2478" width="29.446" height="12.46" transform="translate(100.546 200.734)" fill="#feb546"/>
          <rect id="Rectangle_2479" data-name="Rectangle 2479" width="29.446" height="12.46" transform="translate(71.1 200.734)" fill="#f9c27a"/>
          <path id="Path_18802" data-name="Path 18802" d="M689.368,1704.731h-88.8v-13.193h88.8ZM601.029,1704h87.878V1692.27H601.029Z" transform="translate(-529.699 -1491.17)" fill="#e2881e"/>
          <rect id="Rectangle_2480" data-name="Rectangle 2480" width="29.446" height="12.46" transform="translate(137.1 213.195)" fill="#f4a640"/>
          <rect id="Rectangle_2481" data-name="Rectangle 2481" width="29.446" height="12.46" transform="translate(107.654 213.195)" fill="#feb546"/>
          <rect id="Rectangle_2482" data-name="Rectangle 2482" width="29.446" height="12.46" transform="translate(78.208 213.195)" fill="#f9c27a"/>
          <path id="Path_18803" data-name="Path 18803" d="M749.211,1809.638h-88.8v-13.193h88.8Zm-88.339-.732H748.75v-11.728H660.872Z" transform="translate(-582.434 -1583.616)" fill="#e2881e"/>
          <rect id="Rectangle_2483" data-name="Rectangle 2483" width="29.446" height="12.46" transform="translate(134.845 175.813)" fill="#f4a640"/>
          <rect id="Rectangle_2484" data-name="Rectangle 2484" width="29.446" height="12.46" transform="translate(105.399 175.813)" fill="#feb546"/>
          <rect id="Rectangle_2485" data-name="Rectangle 2485" width="29.446" height="12.46" transform="translate(75.952 175.813)" fill="#f9c27a"/>
          <path id="Path_18804" data-name="Path 18804" d="M730.223,1494.92h-88.8v-13.193h88.8Zm-88.339-.732h87.878v-11.728H641.884Z" transform="translate(-565.701 -1306.28)" fill="#e2881e"/>
          <path id="Path_18805" data-name="Path 18805" d="M632.466,653.25l.888,6.693-4.754-3.472-14.552-7.434,11.256,1.031s5.734,1.393,6.044,1.674a13.956,13.956,0,0,1,1.118,1.508" transform="translate(-541.578 -572.496)" fill="#6db1b5"/>
          <path id="Path_18806" data-name="Path 18806" d="M1526.26,1040.889v1.144l2.585.675.072-2.523Z" transform="translate(-1345.438 -917.184)" fill="#ab7840"/>
          <path id="Path_18807" data-name="Path 18807" d="M1575.647,1043.2v1.364s2.483.745,2.475.751.2-2.238.2-2.238Z" transform="translate(-1388.959 -919.73)" fill="#ab7840"/>
          <path id="Path_18808" data-name="Path 18808" d="M637.45,649.208l-23.4-.171,18.418,4.213Z" transform="translate(-541.578 -572.497)" fill="#8fd0d6"/>
          <path id="Path_18809" data-name="Path 18809" d="M624.943,659.983l6.132-4.925-17.027-6.021Z" transform="translate(-541.578 -572.496)" fill="#8fd0d6"/>
          <path id="Path_18810" data-name="Path 18810" d="M1010.488,977.031l-.309-.456a6.294,6.294,0,0,0,1.288-1.166l.422.355a6.843,6.843,0,0,1-1.4,1.267" transform="translate(-890.657 -860.102)" fill="#6db1b5"/>
          <path id="Path_18811" data-name="Path 18811" d="M872.2,748.514l-.526-.165a15.464,15.464,0,0,0,.627-3.431l.549.042a16.021,16.021,0,0,1-.651,3.553m.632-7.155-.548.055q-.023-.227-.053-.453a14.331,14.331,0,0,0-.292-1.54c-.116-.469-.257-.942-.421-1.4l.52-.184c.17.48.317.97.437,1.456a14.905,14.905,0,0,1,.3,1.6c.02.152.039.311.055.47m-2.827-6.49a20.38,20.38,0,0,0-2.089-2.814l.414-.364a20.956,20.956,0,0,1,2.146,2.891Zm-17.218-1.3a3.066,3.066,0,0,1-1.945-.252,2.914,2.914,0,0,1-1.1-1.242l.5-.242a2.335,2.335,0,0,0,.891,1.011,2.54,2.54,0,0,0,1.531.19.327.327,0,0,0,.055-.017l.078-.051.306.458-.1.062a.714.714,0,0,1-.213.084m12.618-3.97a28.117,28.117,0,0,0-2.822-2.106l.3-.461a28.7,28.7,0,0,1,2.878,2.148Zm-10.325.728-.539-.113a5.1,5.1,0,0,0,.109-1.029,6.145,6.145,0,0,0-.184-1.485,7.443,7.443,0,0,0-.257-.825l.516-.194a7.94,7.94,0,0,1,.276.887,6.715,6.715,0,0,1,.2,1.618,5.645,5.645,0,0,1-.12,1.141m-4.844-1.7-.5-.238a5.543,5.543,0,0,1,2.575-2.51l.076-.036.234.5-.07.033a4.984,4.984,0,0,0-2.318,2.252m9.143-2.471a11.418,11.418,0,0,0-2.177-.509c-.441-.021-.844-.026-1.232-.014l-.017-.551c.4-.012.82-.008,1.275.014a12.61,12.61,0,0,1,2.312.532Zm-6.957-2.231a11.777,11.777,0,0,0-2.613-2.273l.3-.464a12.312,12.312,0,0,1,2.735,2.38Z" transform="translate(-749.273 -636.076)" fill="#6db1b5"/>
          <path id="Path_18812" data-name="Path 18812" d="M810.809,706.709a10.644,10.644,0,0,0-1.74-.328l.056-.548a11.181,11.181,0,0,1,1.83.345Z" transform="translate(-713.434 -622.546)" fill="#6db1b5"/>
          <path id="Path_18813" data-name="Path 18813" d="M1436.514,587.613l-.474,2.974-1-3.965s1.4-.681,1.466-.434a11.073,11.073,0,0,1,.01,1.425" transform="translate(-1265.052 -517.064)" fill="#07085b"/>
          <path id="Path_18814" data-name="Path 18814" d="M1377.145,652.48l-.434,5.142,4.537-.217-.523-4.553Z" transform="translate(-1213.653 -575.53)" fill="#ab7840"/>
          <path id="Path_18815" data-name="Path 18815" d="M1383.078,655.017l-.249-2.165-3.58-.372-.15,1.781a3.6,3.6,0,0,0,3.979.756" transform="translate(-1215.756 -575.53)" fill="#ab7840"/>
          <path id="Path_18816" data-name="Path 18816" d="M1435,618.116a.93.93,0,1,0,1.311-.626,1.04,1.04,0,0,0-1.311.626" transform="translate(-1264.897 -544.63)" fill="#ab7840"/>
          <path id="Path_18817" data-name="Path 18817" d="M1358.331,582.1a4.718,4.718,0,0,0,.414-.769,8.969,8.969,0,0,0,.625-2.2c.024-.147.056-.293.091-.438a4.848,4.848,0,1,0-9.551-1.445,1.048,1.048,0,0,0-.937-.133,1.462,1.462,0,0,0,1,2.673.925.925,0,0,0,.225-.123,4.546,4.546,0,0,0,4.247,4.445,4.35,4.35,0,0,0,3.023-1.04,2.2,2.2,0,0,0,.173-.143,4.2,4.2,0,0,0,.694-.831" transform="translate(-1188.609 -505.236)" fill="#ab7840"/>
          <path id="Path_18824" data-name="Path 18824" d="M1401.013,843.658s-.946,6.418,5.255,7.537a75.027,75.027,0,0,0,13.918.785l1.074,14.744,3.238.165s8.337-20.486-3.2-23.688l-10.37.051-4.27-.3s-4.321-1.068-4.372-.864-1.169,1.677-1.271,1.576" transform="translate(-1235.023 -742.589)" fill="#e03268"/>
          <path id="Path_18825" data-name="Path 18825" d="M1353.03,843.943s-.946,6.419,5.256,7.537a75.02,75.02,0,0,0,13.918.785l1.074,14.744,3.238.165s8.337-20.485-3.2-23.688l-10.37.051-4.27-.305s-4.321-1.068-4.372-.864-1.169,1.677-1.271,1.576" transform="translate(-1192.739 -742.84)" fill="#ff5b7e"/>
          <path id="Path_18826" data-name="Path 18826" d="M1303.418,675.487s4.27.542,5.354,1.423,6.3,13.827,6.3,13.827l-4.338,5.083-9.218.068s-6.913,3.728-11.251.2-2.1-15.792.407-18.435,6.981-2.575,6.981-2.575,4.067,2.846,5.761.407" transform="translate(-1135.315 -595.446)" fill="#9ccb48"/>
          <path id="Path_18827" data-name="Path 18827" d="M1346.545,732.714a17.959,17.959,0,0,1,.313,2.14c.037.359.052.72.073,1.08s.019.722.014,1.084a14.273,14.273,0,0,1-.178,2.163,7.107,7.107,0,0,1-.629,2.072,10.639,10.639,0,0,0,.413-2.1c.079-.709.106-1.424.115-2.138s0-1.431-.025-2.147-.058-1.434-.1-2.154" transform="translate(-1186.711 -646.234)" fill="#fff"/>
          <path id="Path_18828" data-name="Path 18828" d="M1457.124,728.72c.2,1.05.4,2.1.612,3.14s.436,2.085.689,3.118.527,2.06.863,3.067a15.049,15.049,0,0,0,.576,1.482,5.712,5.712,0,0,0,.819,1.359,5.194,5.194,0,0,1-.942-1.3,12.227,12.227,0,0,1-.658-1.469c-.192-.5-.357-1.012-.512-1.524s-.288-1.031-.417-1.551-.24-1.043-.345-1.567-.2-1.05-.286-1.578c-.174-1.054-.31-2.115-.4-3.18" transform="translate(-1284.514 -642.714)" fill="#fff"/>
          <path id="Path_18829" data-name="Path 18829" d="M1424.389,820.163c-.027-.214-1.656-.454-2.255-.485-.454-.023-3.461-.124-4.484-.17l.075.263-.016,1.161-.168.77c.9.057,3.091.143,3.548.233a11.2,11.2,0,0,1,1.669.581s.44-.1-.119-.341a2.685,2.685,0,0,1-.9-.643c-.077-.086.006-.239.062-.224,1.523.4,1.679.465,1.679.465s1.79-.01.01-.412c-1.067-.241-1.449-.381-1.544-.5-.041-.051.032-.224.1-.228.924-.057,2.584.271,2.129.056a11.722,11.722,0,0,0-1.992-.44c-.028,0-.073-.174.051-.184.88-.073,2.18.3,2.154.1" transform="translate(-1249.634 -722.719)" fill="#ab7840"/>
          <path id="Path_18830" data-name="Path 18830" d="M1340.789,803.114c.375.091.745.2,1.121.275s.753.154,1.128.233c.756.138,1.514.258,2.274.365s1.523.192,2.287.266,1.535.14,2.289.182l.1.006.022.088a6.242,6.242,0,0,1,.139.76,6.131,6.131,0,0,1,.045.768,4.951,4.951,0,0,1-.067.768,3.545,3.545,0,0,1-.223.741l-.009.021-.016.011-.837.562q-.418.281-.841.556c.262-.21.527-.417.794-.622l.8-.616-.025.032a3.391,3.391,0,0,0,.176-.713,4.954,4.954,0,0,0,.036-.737,6.889,6.889,0,0,0-.067-.738,6.015,6.015,0,0,0-.148-.722l.124.093c-.4-.01-.775-.036-1.163-.064s-.77-.059-1.153-.1c-.768-.079-1.534-.175-2.3-.3s-1.52-.272-2.272-.449c-.374-.1-.749-.188-1.117-.3s-.735-.234-1.1-.364" transform="translate(-1181.997 -708.272)" fill="#fff"/>
          <path id="Path_18831" data-name="Path 18831" d="M1433.043,752.4H1416.37l-4.728,11.539h-5.755a.428.428,0,0,0-.407.407.412.412,0,0,0,.407.407H1427.5Z" transform="translate(-1239.005 -663.582)" fill="#8fd0d6"/>
          <path id="Path_18832" data-name="Path 18832" d="M1556.212,799.972a.8.8,0,1,1-.6-1.046.857.857,0,0,1,.6,1.046" transform="translate(-1370.442 -704.569)" fill="#daeef7"/>
          <path id="Path_18833" data-name="Path 18833" d="M1364.151,550.5s1.423.046-.07-1.158-5.5-2.615-8.075-1.258c0,0-.514-1.093-1.257-.832s.483,1.013.483,1.013-.949-.031-1.239.435c-.214.344.367.359.685.344-.54.092-2.612,1.4-1.572,5.576.37-.081,2.475-3.134,2.475-3.134s4.815,2.675,4.339.548c0,0,4.988,3.113,4.28.542,0,0,1.929.141-.048-2.075" transform="translate(-1192.597 -482.769)" fill="#07085b"/>
          <path id="Path_18834" data-name="Path 18834" d="M1355.2,572.318a.913.913,0,0,1,.828.2c.429.34.381,1.536.381,1.536s2.047,1.32,1.831-4.265c-.23-5.941-1.708.477-1.708.477Z" transform="translate(-1194.701 -500.439)" fill="#07085b"/>
          <path id="Path_18835" data-name="Path 18835" d="M480.477,546.331l-12.461,16.9,4.5,2.152L467.061,579l13.44-15.616-5.282-2.086Z" transform="translate(-412.05 -481.989)" fill="#feb546"/>
          <path id="Path_18836" data-name="Path 18836" d="M848.6,1355.606l2.592-1.6,2.239,1.353-.782.557-2.715.383s-1.06-.136-1.106-.167a3.589,3.589,0,0,1-.228-.526" transform="translate(-748.266 -1193.731)" fill="#b56f40"/>
          <path id="Path_18837" data-name="Path 18837" d="M842.472,1365.642l-.657.423a.36.36,0,0,0,.19.664l4.974.024a.318.318,0,0,0,.319-.316l.005-1.041c-3.318,1.039-4.46.713-4.831.247" transform="translate(-742.142 -1203.766)" fill="#ff5b7e"/>
          <path id="Path_18838" data-name="Path 18838" d="M940.458,1356.391l2.592-1.6,2.239,1.353-.782.557-2.715.383s-1.06-.135-1.106-.167a3.608,3.608,0,0,1-.228-.526" transform="translate(-829.217 -1194.422)" fill="#b56f40"/>
          <path id="Path_18839" data-name="Path 18839" d="M934.334,1366.427l-.657.423a.36.36,0,0,0,.19.664l4.974.024a.318.318,0,0,0,.319-.316l.005-1.041c-3.318,1.039-4.46.713-4.831.247" transform="translate(-823.093 -1204.458)" fill="#ff5b7e"/>
          <path id="Path_18840" data-name="Path 18840" d="M38.107,779.622l9.4,13.288,2.68-2.787,8.687,7.334-8.213-13.7-2.823,3.377Z" transform="translate(-34.046 -687.57)" fill="#feb546"/>
          <path id="Path_18841" data-name="Path 18841" d="M275.273,613.992l-1.5,12.014,2.871-.187,1.093,8.388,2.359-11.645-3.245.439Z" transform="translate(-241.716 -541.614)" fill="#feb546"/>
          <path id="Path_18842" data-name="Path 18842" d="M1135.23,993.828a3.4,3.4,0,0,1,3.421,0c1.821,1.047,1.821,4.58,1.1,5.425s.037,1.99-1.4,3.093-3.719,1.509-5.023.219-.348-4.165-.348-4.165Z" transform="translate(-998.579 -875.923)"/>
          <path id="Path_18843" data-name="Path 18843" d="M960.892,1081.271a.1.1,0,0,1-.176.02,11.351,11.351,0,0,0-1.62-2.048c-.178.071.786,1.523.678,1.666s-1.012-1.3-1.19-1.19.69,1.392.631,1.464-1.023-1.071-1.166-1.071.738,1.345.69,1.452-.964-.619-1.035-.547-.131.107,1.464,2.333c0,0,.694.7.742.986l.841.264.857-.845s.083-3.523-.036-3.606-.216-.018-.68,1.123" transform="translate(-844.39 -951.602)" fill="#ffc0bb"/>
          <path id="Path_18844" data-name="Path 18844" d="M956.748,1258.259l-3.257,11.129-3.936-1.1,1.312-9.345,4.069-2.792Z" transform="translate(-837.234 -1107.497)" fill="#191919"/>
          <path id="Path_18845" data-name="Path 18845" d="M990.873,1081.617s-6.831,8.405-7.989,9.742l-6.92-6.831a9.279,9.279,0,0,0-2.109,1.6s2.792,6.445,5.2,8.138l4.812,3.237-.921,2.2,1.723,1.336.906-2.168,2.48-5.495,2.346-7.306.445-3.623Z" transform="translate(-858.647 -953.695)" fill="#31aae0"/>
          <path id="Path_18846" data-name="Path 18846" d="M1071.27,1088.619a53.051,53.051,0,0,0-3.475,6.5c-.594,1.812-.119,1.96-.386,4.158a66.26,66.26,0,0,1-2.287,8.078l3.356,2.257s1.812-5.792,1.812-6.029,1.693-10.841,1.693-10.841l1.4-3.95Z" transform="translate(-939.074 -959.865)" fill="#fff"/>
          <path id="Path_18847" data-name="Path 18847" d="M892.877,1217.028s-5.762-5.168-10.217-6.207-16.438,17.035-16.438,17.035l2.865,2.063s10.365-7.455,12.326-10.781c0,0,8.421,11.1,11.243,11.372s6-.329,9.755-4.838c4.253-5.112-9.534-8.643-9.534-8.643" transform="translate(-763.799 -1067.514)" fill="#333"/>
          <path id="Path_18848" data-name="Path 18848" d="M1116.63,1050.111l1.277,3.445s-.924,2.1-4.021,1.325a3.229,3.229,0,0,0-.2-2.205c-.535-1.5,2.944-2.565,2.944-2.565" transform="translate(-981.82 -925.931)" fill="#b56f40"/>
          <g id="Group_17653" data-name="Group 17653" transform="translate(131.81 124.18)" opacity="0.6">
            <g id="Group_17652" data-name="Group 17652">
              <g id="Group_17651" data-name="Group 17651" clip-path="url(#clip-path-8)">
                <path id="Path_18849" data-name="Path 18849" d="M1116.63,1050.111l.6,1.609c-.277,1.2-1.29,2.052-3.247,2.375a4.723,4.723,0,0,0-.3-1.419c-.535-1.5,2.944-2.565,2.944-2.565" transform="translate(-1113.63 -1050.111)" fill="#b56f40"/>
              </g>
            </g>
          </g>
          <path id="Path_18850" data-name="Path 18850" d="M982.146,1252.774a4.282,4.282,0,0,0-.082.86,5.855,5.855,0,0,0,.069.864,7.566,7.566,0,0,0,.186.847,6.234,6.234,0,0,0,.288.819l.067-.058a3.925,3.925,0,0,1-.442-.352c-.141-.127-.277-.26-.407-.4s-.253-.284-.374-.432-.233-.3-.347-.456q.147.246.315.48c.11.158.232.305.357.452s.258.286.4.417a3.965,3.965,0,0,0,.45.368l.129.088-.062-.146a8.132,8.132,0,0,1-.28-.808,7.519,7.519,0,0,1-.195-.834,6.3,6.3,0,0,1-.1-.851,5.248,5.248,0,0,1,.027-.859" transform="translate(-865.037 -1104.522)" fill="#fff"/>
          <path id="Path_18851" data-name="Path 18851" d="M1066.1,1025.649a.919.919,0,1,1-1.295-.619,1.028,1.028,0,0,1,1.295.619" transform="translate(-938.397 -903.765)" fill="#b56f40"/>
          <path id="Path_18852" data-name="Path 18852" d="M1072.983,990.083a4.667,4.667,0,0,1-.409-.76,8.852,8.852,0,0,1-.618-2.168c-.024-.145-.056-.289-.09-.432a4.788,4.788,0,1,1,9.432-1.427,1.035,1.035,0,0,1,.926-.131,1.444,1.444,0,0,1-.984,2.639.913.913,0,0,1-.223-.122,4.489,4.489,0,0,1-4.193,4.39,4.294,4.294,0,0,1-2.985-1.027,2.054,2.054,0,0,1-.171-.141,4.151,4.151,0,0,1-.685-.821" transform="translate(-944.899 -864.863)" fill="#b56f40"/>
          <path id="Path_18860" data-name="Path 18860" d="M857.465,1036.762a14.668,14.668,0,1,1-19.089-8.121,14.668,14.668,0,0,1,19.089,8.121" transform="translate(-731.163 -906.07)" fill="#f4a640"/>
          <path id="Path_18861" data-name="Path 18861" d="M867.05,1048.267a13.192,13.192,0,1,1-17.167-7.3,13.192,13.192,0,0,1,17.167,7.3" transform="translate(-742.118 -917.024)" fill="#f9cc4b"/>
          <path id="Path_18864" data-name="Path 18864" d="M973.036,1163.17a.111.111,0,0,1-.126.15,12.5,12.5,0,0,0-2.847-.41c-.089.192,1.783.623,1.805.818s-1.792-.271-1.854-.05,1.607.591,1.614.693-1.63-.081-1.744.027,1.609.516,1.652.638-1.24.235-1.243.346-.024.185,2.938.757l1.176.175,1.037-.375.045-1.325s-2.6-2.881-2.761-2.857-.187.149.307,1.413" transform="translate(-855.144 -1024.316)" fill="#b56f40"/>
          <path id="Path_18862" data-name="Path 18862" d="M865.7,1070.921a12.351,12.351,0,1,1,6.838-16.073,12.365,12.365,0,0,1-6.838,16.073m-9.065-22.49a11.9,11.9,0,1,0,15.482,6.586,11.91,11.91,0,0,0-15.482-6.586" transform="translate(-748.384 -923.29)" fill="#f4a640"/>
          <path id="Path_18865" data-name="Path 18865" d="M1021.969,1074.241s5.881,7.083,5.079,19.558-.936,12.563-.936,12.563a13.672,13.672,0,0,1-6.281-2.525,31.294,31.294,0,0,0-5.94-3.594l2.168-7.039a13.774,13.774,0,0,1-4.871-.772c-2.049-.861-6.326-3.148-6.326-3.148a10.842,10.842,0,0,1,.8-2.762s5.435,1.663,8.168,1.693c0,0,3.178-9.8,8.138-13.974" transform="translate(-885.971 -947.195)" fill="#31aae0"/>
          <path id="Path_18866" data-name="Path 18866" d="M1087.979,1093.369a24.888,24.888,0,0,0-2.5,2.52,29.715,29.715,0,0,0-2.158,2.821l-.246.37c-.083.123-.165.246-.24.374l-.462.76c-.079.126-.146.258-.218.388l-.212.391-.212.391c-.069.131-.129.267-.194.4l-.381.8-.334.823-.164.412-.139.422q-.14.421-.274.843.165-.412.324-.825l.16-.412.184-.4.363-.806.4-.787c.068-.131.131-.264.2-.392l.217-.385.217-.385c.073-.128.142-.258.222-.381l.464-.752c.075-.126.158-.248.24-.37l.246-.367q.985-1.465,2.111-2.832l.57-.676c.2-.22.387-.444.586-.662.393-.44.8-.866,1.221-1.282" transform="translate(-952.405 -964.051)" fill="#07085b"/>
          <path id="Path_18867" data-name="Path 18867" d="M1108.533,1135c-.484,1.09-1,2.163-1.535,3.226-.269.53-.543,1.059-.828,1.581s-.574,1.042-.88,1.551-.616,1.016-.947,1.509c-.162.249-.335.49-.505.733s-.351.478-.537.71a13.46,13.46,0,0,1-1.185,1.325,6.249,6.249,0,0,1-1.424,1.06,5.89,5.89,0,0,0,1.491-.988,12.085,12.085,0,0,0,1.24-1.3c.386-.458.739-.943,1.078-1.435s.657-1,.962-1.513c.609-1.028,1.163-2.088,1.675-3.166s.982-2.176,1.4-3.3" transform="translate(-970.419 -1000.739)" fill="#07085b"/>
          <path id="Path_18868" data-name="Path 18868" d="M1065.614,960.2a5.751,5.751,0,0,1,3.183-2.811,6.131,6.131,0,0,1,4.453-.082c4.051,1.521,3.243,5.988,3.053,6.824a1.093,1.093,0,0,0-.784.136,1.842,1.842,0,0,0-.336.23c-.788-.24-1.027-1.548-1.435-2.179-.553-.855-2.7-.041-3.625-.648a2.408,2.408,0,0,1-1.083-1.238c-3.568.566-3.3,4.582-3.3,4.582-.154-.034-.511-.612-.511-.612s-.879-1.451.386-4.2" transform="translate(-938.905 -843.816)"/>
          <path id="Path_18869" data-name="Path 18869" d="M2124.854,1461.657l-7.621,4.79-.569,45.02,1.518,1.044,1.491-.332,4.324-29.6,3.529-19.107Z" transform="translate(-1865.715 -1288.594)" fill="#b56f40"/>
          <path id="Path_18870" data-name="Path 18870" d="M2172.593,1503.276a49.978,49.978,0,0,0-9.343-15.4s1.115-3.007,2.259-12.926-3.687-16.15-3.687-16.15l-8.547,2.556s4.351,25.993,5.05,27.646c.548,1.295,7.5,10.6,10.494,14.577l0,.07,1.348,1.723h0l1.277,1.632,1.51-.683.267-1.885Z" transform="translate(-1897.976 -1286.078)" fill="#b56f40"/>
          <path id="Path_18871" data-name="Path 18871" d="M2108.095,1475.543s-2,15.282-1.778,26.7a71.29,71.29,0,0,0,13.41.794l.244-6.532,1.221,6.166s2.808-.122,4.09-1.16a84.633,84.633,0,0,1-.549-11.538c.232-5.014.023-11.324-1.628-15.509s-10.826.4-10.826.4Z" transform="translate(-1856.582 -1298.326)" fill="#333"/>
          <path id="Path_18872" data-name="Path 18872" d="M2160.106,1172.6a7.107,7.107,0,0,1,2.285,3.247c.451,1.624,2.46,1.34,3.716,3.51,1.4,2.41,3.379,6.016-1.171,8.447-2.827,1.51-7.327,2.672-8.348,1.653s-3.454-.611-2.906-11.323c0,0,6.654-3.76,6.72-3.782a15.015,15.015,0,0,0-.3-1.752" transform="translate(-1898.266 -1033.875)" fill="#333"/>
          <path id="Path_18873" data-name="Path 18873" d="M2049.365,1364.487l.814-3.5-2.026-5.439a64.006,64.006,0,0,1-2.772,8.165l-6.105.742-1.289.244s8.356,4.765,10.625,1.257l.39.1.217-.932a3.034,3.034,0,0,0,.288-.631Z" transform="translate(-1796.382 -1195.088)" fill="#81b722"/>
          <path id="Path_18874" data-name="Path 18874" d="M2167.362,1262.966l-.163,2.573-3.507.729h-.62l.129-3.083,3.72-1.313Z" transform="translate(-1906.611 -1112.539)" fill="#9e6239"/>
          <path id="Path_18875" data-name="Path 18875" d="M2152.709,1291.821c-.159,1.729.556,2.051.556,2.051l5.3-3.93c-3.287.322-5.413.675-5.413.675s-.273,1.252-.439,1.2" transform="translate(-1897.458 -1137.274)" fill="#9e6239"/>
          <path id="Path_18876" data-name="Path 18876" d="M2144.657,1169.534s1.081-4.436-1.494-6.1a7.042,7.042,0,0,0-7.165-.481c-1.86,1-2.973,4.466-2.139,6.449l6.172-1.894Z" transform="translate(-1880.62 -1024.703)" fill="#333"/>
          <path id="Path_18877" data-name="Path 18877" d="M2167.9,1265.424s-.074.747-.139,1.677c-1.334,1.461-3.834.959-4.164.818.02-.468,0-1.415,0-1.415Z" transform="translate(-1907.072 -1115.669)" fill="#915b36"/>
          <path id="Path_18878" data-name="Path 18878" d="M2129.219,1223.482a.944.944,0,1,1-1.262-.763,1.056,1.056,0,0,1,1.262.763" transform="translate(-1875.177 -1077.997)" fill="#b56f40"/>
          <path id="Path_18879" data-name="Path 18879" d="M2136.795,1190.63a4.8,4.8,0,0,1-.342-.818,9.079,9.079,0,0,1-.414-2.279c-.01-.151-.028-.3-.049-.451a4.921,4.921,0,1,1,9.791-.514,1.063,1.063,0,0,1,.96-.042,1.484,1.484,0,0,1-1.271,2.6.945.945,0,0,1-.216-.147,4.613,4.613,0,0,1-4.729,4.069,4.416,4.416,0,0,1-2.95-1.349,2.195,2.195,0,0,1-.161-.162,4.245,4.245,0,0,1-.619-.908" transform="translate(-1882.703 -1041.695)" fill="#9e6239"/>
          <path id="Path_18884" data-name="Path 18884" d="M2239.429,1341.554a3.693,3.693,0,0,1-.314-.381,4.082,4.082,0,0,1-.267-.419,3.8,3.8,0,0,1-.219-.448,4.659,4.659,0,0,1-.166-.474,2.672,2.672,0,0,0,.106.5c.023.082.055.161.085.24s.066.157.105.233a3.39,3.39,0,0,0,.262.439,3.017,3.017,0,0,0,.256.322,1.821,1.821,0,0,1-.262.032,1.851,1.851,0,0,1-.365-.017c-.061-.007-.12-.021-.181-.034s-.119-.032-.176-.055a2,2,0,0,1-.336-.161,1.537,1.537,0,0,0,.678.333,1.679,1.679,0,0,0,.383.038,1.588,1.588,0,0,0,.386-.048l.092-.025Z" transform="translate(-1972.603 -1181.24)" fill="#fff"/>
          <path id="Path_18886" data-name="Path 18886" d="M2135.7,1304.675h0c.63-3.505.9-7.267.9-7.267.036-.867-.992-2.064-1.038-2.743a3.43,3.43,0,0,1-1.086-1.3l-1.53-3.177s-1.018-.5-1.018-.5a4.856,4.856,0,0,0-1.185,0l-2.624,1.975a1.7,1.7,0,0,1-2.719-1.3h0c-2.3,1.846-3.851,2.679-4.171,5.643-.223,2.069.9,3.822,1.027,5.792l-1.031,12.442a94.186,94.186,0,0,0,15.011-1.081,52.782,52.782,0,0,1-.535-8.485" transform="translate(-1869.713 -1137.023)" fill="#9ccb48"/>
          <path id="Path_18887" data-name="Path 18887" d="M2001.725,1397.063l-9.063.547a1.531,1.531,0,0,1-1.418-.82l-4.768-11.032c-.21-.487.083-.91.655-.945l9.063-.547a1.531,1.531,0,0,1,1.418.82l4.768,11.032c.21.487-.083.91-.655.945" transform="translate(-1750.931 -1220.394)" fill="#333"/>
          <path id="Path_18888" data-name="Path 18888" d="M2017.92,1383.184l-3.085.186a.661.661,0,0,1-.612-.354l-.085-.2c-.091-.211.036-.394.283-.408l3.085-.186a.661.661,0,0,1,.613.354l.085.2c.091.211-.036.394-.283.408" transform="translate(-1775.34 -1218.595)" fill="#c8eef1"/>
          <path id="Path_18889" data-name="Path 18889" d="M2002,1437.821l-.039.017a.489.489,0,0,1-.621-.2l-1.42-2.466a.357.357,0,0,1,.01-.383c.24-.359.758-1.1.935-1.07.233.035-.479,1.262-.382,1.287s1.1-.792,1.19-.659-.811,1.07-.77,1.144,1.065-.521,1.176-.415-.865.864-.852.918Z" transform="translate(-1762.795 -1263.971)" fill="#b56f40"/>
          <path id="Path_18890" data-name="Path 18890" d="M2010.72,1451.471s1.025-.312,1.116-.2-1.121.769-1.116.739,0-.543,0-.543" transform="translate(-1772.355 -1279.422)" fill="#ffc0bb"/>
          <path id="Path_18891" data-name="Path 18891" d="M2161.967,1180.3l-.116-.014-.078-.963-.43-.89s-1.686-2.393-1.745-2.453-1.345-.831-1.424-.87-1.879.257-1.879.257-3.166-.682-2.631,1.088a4.53,4.53,0,0,0,2.967,2.611,3.1,3.1,0,0,1-.416-1.523,15.777,15.777,0,0,0,5.128,3.41,1.026,1.026,0,0,1,.96-.042Z" transform="translate(-1898.266 -1036.077)" fill="#333"/>
          <path id="Path_18893" data-name="Path 18893" d="M2090.32,1298.009s-1.287-7.075-5.239-8.549a1.642,1.642,0,0,0-2.218,1.529c-.009,1.627,5,13.682,4.483,14.3-.7.842-13.546,3.877-13.976,3.978l-1.53-.146a19.577,19.577,0,0,0-2.67-.165c-.1.131-.037.259,1.3.891a.121.121,0,0,1,.012.213,13.748,13.748,0,0,0-2.573,1.814c.074.22,1.886-.845,2.051-.707s-1.629,1.132-1.513,1.354,1.722-.739,1.8-.663-1.357,1.161-1.367,1.333,1.667-.8,1.793-.735-.81,1.119-.729,1.21-.231.226,2.553-1.546c0,0,.687-.463.938-.656,0,0,15.953-2.252,16.945-3.514,1.839-2.341-.071-9.941-.071-9.941" transform="translate(-1822.755 -1136.758)" fill="#b56f40"/>
          <path id="Path_18894" data-name="Path 18894" d="M2130.593,1298.009s-1.288-7.075-5.24-8.549a1.642,1.642,0,0,0-2.217,1.529c-.009,1.627,5,13.682,4.483,14.3-.7.842-13.546,3.877-13.976,3.978l-.029,0a18.821,18.821,0,0,0,.572,2.131c2.634-.382,15.586-2.313,16.477-3.447,1.839-2.341-.07-9.941-.07-9.941" transform="translate(-1863.028 -1136.758)" fill="#81b722"/>
          <path id="Path_18895" data-name="Path 18895" d="M1628.085,180.387a6.057,6.057,0,0,0-7.426-4.5,8.916,8.916,0,0,0-10.721-4.736,10.983,10.983,0,0,0-19.728,1.919,7.534,7.534,0,0,0-11.2,6.584c0,.247.013.49.036.731Z" transform="translate(-1391.925 -146.694)" fill="#fff"/>
          <path id="Path_18896" data-name="Path 18896" d="M1226.4,435.99a3.2,3.2,0,0,1,3.927-2.379,4.716,4.716,0,0,1,5.67-2.5,5.809,5.809,0,0,1,10.434,1.015,3.985,3.985,0,0,1,5.922,3.482c0,.13-.007.259-.019.387Z" transform="translate(-1081.198 -377.975)" fill="#fff"/>
          <path id="Path_18897" data-name="Path 18897" d="M1909.479,410.758a3.2,3.2,0,0,1,3.927-2.379,4.716,4.716,0,0,1,5.67-2.5,5.809,5.809,0,0,1,10.434,1.015,3.985,3.985,0,0,1,5.922,3.482c0,.13-.007.259-.019.387Z" transform="translate(-1683.139 -355.74)" fill="#fff"/>
          <path id="Path_18898" data-name="Path 18898" d="M2216.625,733.961a3.882,3.882,0,0,1,4.758-2.882,5.714,5.714,0,0,1,6.87-3.035,7.038,7.038,0,0,1,12.642,1.23,4.828,4.828,0,0,1,7.175,4.219q0,.237-.023.469Z" transform="translate(-1953.803 -639.119)" fill="#fff"/>
          <path id="Path_18899" data-name="Path 18899" d="M2092.609,1875.454l3.151-1.944,2.722,1.644-.951.677-3.3.465s-1.288-.165-1.345-.2a4.392,4.392,0,0,1-.277-.639" transform="translate(-1844.517 -1651.528)" fill="#b56f40"/>
          <path id="Path_18900" data-name="Path 18900" d="M2085.165,1887.652l-.8.513a.438.438,0,0,0,.231.808l6.046.029a.386.386,0,0,0,.388-.384l.006-1.265c-4.032,1.263-5.422.866-5.873.3" transform="translate(-1837.073 -1663.726)" fill="#07085b"/>
          <path id="Path_18901" data-name="Path 18901" d="M2298.675,1848.289l-.085-3.87,2.69-1.4.126,1.16-1.2,3.108s-.773,1.044-.833,1.074a4.364,4.364,0,0,1-.693-.07" transform="translate(-2026.032 -1624.657)" fill="#b56f40"/>
          <path id="Path_18902" data-name="Path 18902" d="M2299.31,1848.289l.058.948a.438.438,0,0,0,.818.192l2.976-5.263a.386.386,0,0,0-.146-.526l-1.1-.623c-.866,4.136-1.89,5.155-2.6,5.272" transform="translate(-2026.666 -1624.657)" fill="#07085b"/>
          <path id="Path_18903" data-name="Path 18903" d="M1568.982,1071.825l-5.4-2.087a.261.261,0,0,1-.15-.338l.04-.1a.261.261,0,0,1,.338-.149l5.4,2.087a.261.261,0,0,1,.15.338l-.04.1a.262.262,0,0,1-.339.15" transform="translate(-1378.179 -942.689)" fill="#fff"/>
          <path id="Path_18904" data-name="Path 18904" d="M1566.233,1052.5l-.832,1.573c-.1.194-.06.422.089.48l5.19,2.006a.406.406,0,0,0,.432-.111.773.773,0,0,0,.139-.791c-.211-.836-1.675-1.587-2.206-2.436l-2.417-.934a.343.343,0,0,0-.4.214" transform="translate(-1379.88 -927.839)" fill="#333"/>
          <path id="Path_18905" data-name="Path 18905" d="M1590.179,1063.141h0a.119.119,0,0,1,.022-.146,1.075,1.075,0,0,1,1.325-.25.1.1,0,0,1,.015.129v0c-.025.047-.072.067-.105.047a.928.928,0,0,0-1.156.214.063.063,0,0,1-.1,0" transform="translate(-1401.751 -936.94)" fill="#fff"/>
          <path id="Path_18906" data-name="Path 18906" d="M1594.026,1066.681h0a.119.119,0,0,1,.022-.146,1.075,1.075,0,0,1,1.325-.25.1.1,0,0,1,.015.129h0c-.025.047-.072.067-.106.047a.927.927,0,0,0-1.156.214.063.063,0,0,1-.1,0" transform="translate(-1405.141 -940.06)" fill="#fff"/>
          <path id="Path_18907" data-name="Path 18907" d="M1597.6,1069.979h0a.119.119,0,0,1,.022-.146,1.075,1.075,0,0,1,1.325-.25.1.1,0,0,1,.015.13h0c-.025.047-.072.067-.106.047a.926.926,0,0,0-1.156.214.063.063,0,0,1-.1,0" transform="translate(-1408.293 -942.966)" fill="#fff"/>
          <g id="Group_17662" data-name="Group 17662" transform="translate(185.464 125.227)" opacity="0.3" style="mix-blend-mode: multiply;isolation: isolate">
            <g id="Group_17661" data-name="Group 17661">
              <g id="Group_17660" data-name="Group 17660" clip-path="url(#clip-path-9)">
                <path id="Path_18908" data-name="Path 18908" d="M1566.875,1060.952c.106-1.49-.542-1.909-.939-2.027l-.535,1.012c-.1.194-.06.422.089.48Z" transform="translate(-1565.344 -1058.925)" fill="#e87b50"/>
              </g>
            </g>
          </g>
          <path id="Path_18915" data-name="Path 18915" d="M0,3.308H1.015V0H2.776L4.385,3.308H6.525V0H7.941V3.308H9V4.385H7.941v.842H9V6.311H7.941V9.9H6.277L4.5,6.311H2.431V9.9H1.015V6.311H0V5.227H1.015V4.385H0Zm5.324,1.92h1.2V4.385H4.91Zm-2.893,0H3.964l-.414-.842H2.431ZM6.56,7.761h.014a7.3,7.3,0,0,1-.041-.994V6.311H5.849ZM2.417,2.009H2.382a5.911,5.911,0,0,1,.041.891v.407h.594l-.428-.891Q2.472,2.161,2.417,2.009Z" transform="matrix(0.883, -0.469, 0.469, 0.883, 104.512, 135.183)" fill="#fff"/>
          <path id="Path_18909" data-name="Path 18909" d="M1521.56,1074.714l-5.534-1.706a.262.262,0,0,1-.173-.327l.033-.107a.262.262,0,0,1,.327-.173l5.534,1.706a.262.262,0,0,1,.173.327l-.033.107a.262.262,0,0,1-.327.173" transform="translate(-1336.258 -945.564)" fill="#fff"/>
          <path id="Path_18910" data-name="Path 18910" d="M1518.324,1055.168l-.72,1.627c-.089.2-.031.426.122.473l5.317,1.639a.406.406,0,0,0,.424-.141.773.773,0,0,0,.083-.8c-.269-.82-1.782-1.466-2.37-2.276l-2.477-.763a.343.343,0,0,0-.379.241" transform="translate(-1337.773 -930.167)" fill="#333"/>
          <path id="Path_18911" data-name="Path 18911" d="M1542.164,1064.267h0a.119.119,0,0,1,.012-.147,1.074,1.074,0,0,1,1.3-.342.1.1,0,0,1,.024.128h0c-.022.049-.067.072-.1.054a.927.927,0,0,0-1.138.294.063.063,0,0,1-.1.011" transform="translate(-1359.435 -937.878)" fill="#fff"/>
          <path id="Path_18912" data-name="Path 18912" d="M1546.248,1067.53h0a.119.119,0,0,1,.012-.147,1.074,1.074,0,0,1,1.3-.342.1.1,0,0,1,.024.128v0c-.022.049-.067.071-.1.054a.927.927,0,0,0-1.138.294.063.063,0,0,1-.1.011" transform="translate(-1363.035 -940.754)" fill="#fff"/>
          <path id="Path_18913" data-name="Path 18913" d="M1550.046,1070.57h0a.119.119,0,0,1,.012-.147,1.075,1.075,0,0,1,1.3-.342.1.1,0,0,1,.024.128v0c-.022.049-.067.072-.1.054a.926.926,0,0,0-1.138.294c-.031.036-.073.041-.1.011" transform="translate(-1366.381 -943.433)" fill="#fff"/>
          <g id="Group_17665" data-name="Group 17665" transform="translate(179.788 125.582)" opacity="0.3" style="mix-blend-mode: multiply;isolation: isolate">
            <g id="Group_17664" data-name="Group 17664">
              <g id="Group_17663" data-name="Group 17663" clip-path="url(#clip-path-10)">
                <path id="Path_18914" data-name="Path 18914" d="M1519.145,1063.87c0-1.493-.674-1.867-1.078-1.957l-.463,1.047c-.089.2-.031.426.123.473Z" transform="translate(-1517.562 -1061.914)" fill="#e87b50"/>
              </g>
            </g>
          </g>
          <path id="Path_18916" data-name="Path 18916" d="M0,6.691H2.053V0H5.615L8.87,6.691H13.2V0h2.864V6.691h2.151V8.87H16.064v1.7h2.151v2.193H16.064v7.264H12.7l-3.6-7.264H4.917v7.264H2.053V12.767H0V10.574H2.053V8.87H0Zm10.77,3.883H13.2V8.87H9.931Zm-5.853,0h3.1L7.18,8.87H4.917ZM13.27,15.7H13.3a14.766,14.766,0,0,1-.084-2.011v-.922H11.831ZM4.889,4.065h-.07a11.957,11.957,0,0,1,.084,1.8v.824H6.1l-.866-1.8Q5,4.372,4.889,4.065Z" transform="matrix(0.883, -0.469, 0.469, 0.883, 223.037, 189.34)" fill="#fff"/>
        </g>
      </g>
    </g>
  </g>
</svg>
