<svg xmlns="http://www.w3.org/2000/svg" xmlns:xlink="http://www.w3.org/1999/xlink" width="216.391" height="170.596" viewBox="0 0 216.391 170.596">
  <defs>
    <linearGradient id="linear-gradient" x1="-8.873" y1="0.912" x2="-7.748" y2="0.912" gradientUnits="objectBoundingBox">
      <stop offset="0" stop-color="#8a5933"/>
      <stop offset="1" stop-color="#915c42"/>
    </linearGradient>
    <linearGradient id="linear-gradient-2" x1="-1.136" y1="-0.303" x2="-0.69" y2="-0.303" xlink:href="#linear-gradient"/>
    <linearGradient id="linear-gradient-3" x1="0.002" y1="0.5" x2="1.002" y2="0.5" xlink:href="#linear-gradient"/>
    <linearGradient id="linear-gradient-4" x1="0" y1="0.5" x2="1" y2="0.5" xlink:href="#linear-gradient"/>
    <linearGradient id="linear-gradient-5" x1="0" y1="0.499" x2="1" y2="0.499" xlink:href="#linear-gradient"/>
    <linearGradient id="linear-gradient-6" x1="-3.218" y1="0.499" x2="-2.219" y2="0.499" xlink:href="#linear-gradient"/>
    <linearGradient id="linear-gradient-7" x1="0" y1="0.5" x2="1.001" y2="0.5" xlink:href="#linear-gradient"/>
    <linearGradient id="linear-gradient-8" x1="-0.585" y1="0.5" x2="0.415" y2="0.5" xlink:href="#linear-gradient"/>
    <linearGradient id="linear-gradient-9" x1="0.515" y1="0.4" x2="0.45" y2="0.862" gradientUnits="objectBoundingBox">
      <stop offset="0" stop-color="#754233"/>
      <stop offset="1" stop-color="#915c42"/>
    </linearGradient>
    <linearGradient id="linear-gradient-10" x1="0.279" y1="0.242" x2="0.354" y2="0.936" xlink:href="#linear-gradient"/>
    <linearGradient id="linear-gradient-11" x1="0.882" y1="0.557" x2="0.943" y2="1.259" xlink:href="#linear-gradient"/>
    <linearGradient id="linear-gradient-12" x1="-20.564" y1="1.012" x2="-20.497" y2="1.704" xlink:href="#linear-gradient"/>
    <linearGradient id="linear-gradient-13" x1="0.544" y1="0.175" x2="0.503" y2="1.266" gradientUnits="objectBoundingBox">
      <stop offset="0" stop-color="#6a3025"/>
      <stop offset="0.96" stop-color="#ab7840"/>
    </linearGradient>
    <linearGradient id="linear-gradient-14" x1="0.591" y1="0.935" x2="0.577" y2="0.248" gradientUnits="objectBoundingBox">
      <stop offset="0" stop-color="#8c5733"/>
      <stop offset="0.96" stop-color="#ab7840"/>
    </linearGradient>
    <linearGradient id="linear-gradient-15" x1="0.501" y1="0.849" x2="0.517" y2="0.39" gradientUnits="objectBoundingBox">
      <stop offset="0" stop-color="#8a5933"/>
      <stop offset="1" stop-color="#7d4742"/>
    </linearGradient>
    <linearGradient id="linear-gradient-16" x1="0" y1="0.5" x2="1" y2="0.5" xlink:href="#linear-gradient-14"/>
    <linearGradient id="linear-gradient-17" x1="0" y1="0.5" x2="1" y2="0.5" xlink:href="#linear-gradient"/>
    <linearGradient id="linear-gradient-18" x1="0.036" y1="0.5" x2="0.481" y2="0.5" xlink:href="#linear-gradient"/>
    <linearGradient id="linear-gradient-19" x1="-0.55" y1="0.037" x2="-0.377" y2="0.481" xlink:href="#linear-gradient-9"/>
    <linearGradient id="linear-gradient-20" x1="28.869" y1="2.191" x2="29.864" y2="2.191" xlink:href="#linear-gradient"/>
    <linearGradient id="linear-gradient-21" x1="39.752" y1="2.626" x2="40.747" y2="2.626" xlink:href="#linear-gradient"/>
    <linearGradient id="linear-gradient-22" x1="0.53" y1="0.291" x2="0.482" y2="0.853" xlink:href="#linear-gradient-9"/>
    <linearGradient id="linear-gradient-23" x1="0.377" y1="1.389" x2="0.274" y2="0.342" xlink:href="#linear-gradient"/>
    <linearGradient id="linear-gradient-24" x1="-0.56" y1="0.629" x2="0.441" y2="0.629" xlink:href="#linear-gradient"/>
    <linearGradient id="linear-gradient-25" x1="-0.59" y1="0.385" x2="0.411" y2="0.385" xlink:href="#linear-gradient"/>
    <linearGradient id="linear-gradient-26" x1="-0.125" y1="0.483" x2="0.873" y2="0.483" xlink:href="#linear-gradient"/>
    <linearGradient id="linear-gradient-27" x1="-0.101" y1="0.5" x2="0.9" y2="0.5" xlink:href="#linear-gradient"/>
    <linearGradient id="linear-gradient-28" x1="-4.959" y1="4.953" x2="-3.031" y2="4.953" xlink:href="#linear-gradient"/>
  </defs>
  <g id="Layer_2" data-name="Layer 2" transform="translate(0 -0.011)">
    <g id="Family" transform="translate(0 0.011)">
      <g id="Group_17577" data-name="Group 17577" transform="translate(0 165.231)" opacity="0.54">
        <rect id="Rectangle_2407" data-name="Rectangle 2407" width="216.391" height="1.931" transform="translate(0 1.717)" fill="#d3ded3" opacity="0.42"/>
        <rect id="Rectangle_2408" data-name="Rectangle 2408" width="172.256" height="1.717" transform="translate(26.663)" fill="#d3ded3" opacity="0.42"/>
        <rect id="Rectangle_2409" data-name="Rectangle 2409" width="193.456" height="1.717" transform="translate(14.738 3.648)" fill="#d3ded3" opacity="0.42"/>
      </g>
      <path id="Path_18402" data-name="Path 18402" d="M869.728,269.76s4.215,7.252,7.534,13.759c.79,1.546,1.594,2.445,1.207,3.415-1.995,5.173-6.548,14.7-6.548,14.7l-1.434-.533s3.479-9.124,5.237-13.129c.585-1.341.086-2.1-.478-3.231-2.229-4.442-7.345-12.881-7.345-12.881Z" transform="translate(-670.286 -208.34)" fill="url(#linear-gradient)"/>
      <path id="Path_18403" data-name="Path 18403" d="M721.093,269.05s-4.781,10.959-8.47,15.1a9.408,9.408,0,0,1-2.96,2.653c-5.037,1.995-19-.344-19-.344l.706-1.5s12.9.767,17.077-.66a3.628,3.628,0,0,0,1.96-1.318c2.935-3.3,8.113-13.973,8.113-13.973Z" transform="translate(-533.402 -207.753)" fill="url(#linear-gradient-2)"/>
      <path id="Path_18404" data-name="Path 18404" d="M805.516,457.339l-.683,29.29-.228,13.044-.339,17.988-2.136,2.361,4.554.572.114-2.37s1.052-13.661,1.742-24.119c.282-4.285-.141-6.92,0-9.445.455-7.983,2.361-27.38,2.361-27.38Z" transform="translate(-619.492 -353.164)" fill="url(#linear-gradient-3)"/>
      <path id="Path_18405" data-name="Path 18405" d="M862.815,459.475l-.057,26.032.956,7.926-.688,25.861.856,1.293-3.882.4.51-3.158-.956-23.951-.451-9.668L857.53,457.79Z" transform="translate(-662.277 -353.557)" fill="url(#linear-gradient-4)"/>
      <path id="Path_18406" data-name="Path 18406" d="M203.831,387.089s-.9,14.618,2.473,19.566c6.747,5.009,29.8-2.3,29.8-2.3a22.879,22.879,0,0,0,3.709-17.532C237.711,380.506,203.831,387.089,203.831,387.089Z" transform="translate(-157.336 -296.632)" fill="#363b36"/>
      <path id="Path_18407" data-name="Path 18407" d="M205.68,454.82s2.024,63.526,1.8,64.209c1.573.112,5.847,0,5.847,0l-.312-1.366-.362-1.325a221.42,221.42,0,0,1,4.722-25.076c2.115-7.992,4.16-35.643,4.16-35.643Z" transform="translate(-158.848 -351.264)" fill="#363b36"/>
      <path id="Path_18408" data-name="Path 18408" d="M282.22,445.155s3.6,34.746,2.024,65.1c1.687,0,5.312-.084,6.41,0,.057-.619-.114-.77-.562-1.35-.351-.455-1.013-.979-1.125-1.348,1.687-8.425,4.52-17.277,6.41-28.673,2.905-17.514,4.722-35.417,4.722-35.417Z" transform="translate(-217.961 -342.498)" fill="#363b36"/>
      <path id="Path_18409" data-name="Path 18409" d="M786.3,239.823l2.867-7.423s6.41,7.514,13.746,10.289a33.76,33.76,0,0,1-1.013,3.372l-7.589-.683Z" transform="translate(-607.266 -179.487)" fill="url(#linear-gradient-5)"/>
      <path id="Path_18410" data-name="Path 18410" d="M593.252,232.915,590.376,225s-6.41,7.514-13.746,10.287a34.393,34.393,0,0,0,1.02,3.374l7.589-.683Z" transform="translate(-445.336 -173.772)" fill="url(#linear-gradient-6)"/>
      <path id="Path_18411" data-name="Path 18411" d="M651.6,614.82c.171,1.35,3.094,26.255,3.094,26.255l-1.182,2.193,5.9-.169v-3.192l2.521-24.468Z" transform="translate(-503.236 -474.833)" fill="url(#linear-gradient-7)"/>
      <path id="Path_18412" data-name="Path 18412" d="M735.56,614.82c.168,1.35,2.921,25.244,2.921,25.244l-1.227,2.7,6.86-.057-.282-2.978,1.847-24.793Z" transform="translate(-568.079 -474.833)" fill="url(#linear-gradient-8)"/>
      <path id="Path_18413" data-name="Path 18413" d="M615.4,148.65s8.6,13.493,15.349,17.2c3.773,2.074,9.95,9.791,9.95,9.791l-2.361,7.757s-10.61-10.667-11.173-11.51c-3.372-5.059-17.05-16.262-17.05-16.262Z" transform="translate(-471.201 -114.806)" fill="#c4544a"/>
      <path id="Path_18414" data-name="Path 18414" d="M371.074,405.69l-.9,33.619-.225,29.236-.282,11.355-1.516,1.519,4.217-.168,9.95-73.872Z" transform="translate(-284.325 -313.32)" fill="#52708a"/>
      <path id="Path_18415" data-name="Path 18415" d="M440.74,415.4l1.35,22.086L444,468.125l.168,20.242,4.554-.055-1.516-2.361s4.44-43.066,3.654-69.6C450.774,413.477,440.74,415.4,440.74,415.4Z" transform="translate(-340.387 -320.333)" fill="#52708a"/>
      <path id="Path_18416" data-name="Path 18416" d="M551.635,320.269c-.455,6.3-.683,7.083-5.342,7.083l-9.725.228c-4.659,0-7.14-2.53-7.814-7.757l-.114-5.062c0-4.656,3.327-12.031,7.983-12.031h8.425c4.656,0,6.521,8.274,6.521,12.933Z" transform="translate(-408.273 -233.803)" fill="#3b7594"/>
      <path id="Path_18417" data-name="Path 18417" d="M514.81,136.938a6,6,0,0,1,1.266-2.445c2.782-1.434,9.941-3.693,13.746-3.627A34.643,34.643,0,0,1,541.889,135s-.927,23.68-1.432,33.985c-.3,6.091.157,2.011.455,7.871.387,7.769.059,4.966.228,6.8.1,1.063-19.226.911-23.388.733a173.487,173.487,0,0,0-.337-17.655C516.16,156.868,514.81,136.938,514.81,136.938Z" transform="translate(-397.592 -101.07)" fill="#c4544a"/>
      <path id="Path_18418" data-name="Path 18418" d="M461.142,150.5a52.538,52.538,0,0,1-14.506,14.59c-5.519,3.611.683,5.895,4.385,3.709,4.948-2.924,18.215-12.817,18.215-12.817Z" transform="translate(-343.247 -116.235)" fill="#c4544a"/>
      <path id="Path_18419" data-name="Path 18419" d="M380.881,162.342c.337,13.156,2.418,12.762,2.53,21.421a29.415,29.415,0,0,1-.505,5.059c-.729,4.554-2.974,12-3.374,15.517-.842,7.42-1.011,9.613-1.011,9.613l12.817,1.35,12.314-1.182s.731-4.948-1.182-13.83c-.48-2.24-1.849-6.831-2.361-9.613-1.068-5.79-.28-10.064.114-14.055-.228-6.3,2.277-6.02,1.91-9.563-.849-8.01-1.337-8.748-4.217-12.817-2.53-.845-5.487-3.222-8.04-3.149-2.873.082-4.945,1.967-9.162,4.16C379.522,156.689,380.838,160.678,380.881,162.342Z" transform="translate(-292.334 -116.693)" fill="#d1d9c9"/>
      <path id="Path_18420" data-name="Path 18420" d="M558.545,137.23s5.838-7.6,5.312-7.7c-.911-.168-3.456-1.913-5.986-1.687a18.25,18.25,0,0,0-5.651,1.856Z" transform="translate(-426.484 -98.72)" fill="#fff"/>
      <path id="Path_18421" data-name="Path 18421" d="M560.74,95.733s1.323,5.9,1.1,7.591c1.53.815,2.327,1.423,3.372,1.348a3.085,3.085,0,0,0,2.53-1.594L567.389,94Z" transform="translate(-433.064 -72.599)" fill="url(#linear-gradient-9)"/>
      <path id="Path_18422" data-name="Path 18422" d="M555.16,23.461c-.389,4.253-.435,3.7-.583,5.207-1.041,2.4-4.262,5.984-6.243,5.87-2.732-.159-5.786-3.229-7.172-4.224-1.38-1.963-1.052-2.156-2.079-8.707-.733-4.681-.622-8.283.8-11.036,1.628-3.147,4.631-2.873,7.742-2.883,2.732,0,4.654-.943,6.485,2.188C556.184,13.415,555.508,19.679,555.16,23.461Z" transform="translate(-415.994 -5.837)" fill="url(#linear-gradient-10)"/>
      <path id="Path_18425" data-name="Path 18425" d="M534.117,12.363s-.455-3.736-.811-6.116c-.168-1.138.2-1.671,1.138-2.639a24.289,24.289,0,0,1,3.6-2.484c1.967-1.138,6.776-1.844,10.123.123a8.474,8.474,0,0,1,2.584,2.024c.628.986.628.849.774,1.683a56.738,56.738,0,0,1-.2,7.63l-.348.228s-.328-6.291-1.214-7.093c-1.434-1.293-3.5-1.22-5.774-.5-1.778-.471-5.711-1.844-8.6,1.578-.776,2.115-.043,5.751-.043,5.751Z" transform="translate(-411.847 -0.011)" fill="#1d1d1d"/>
      <path id="Path_18435" data-name="Path 18435" d="M534.893,54.179c.061.911-.246,2.149-1.091,2.209s-1.906-1.082-1.967-2a1.715,1.715,0,0,1,1.382-1.9A1.748,1.748,0,0,1,534.893,54.179Z" transform="translate(-410.737 -40.539)" fill="url(#linear-gradient-11)"/>
      <path id="Path_18436" data-name="Path 18436" d="M606.064,56.082c.087.911.294,1.929,1.138,1.851a2.331,2.331,0,0,0,1.619-2.293,1.705,1.705,0,0,0-1.674-1.648C606.306,54.071,605.978,55.164,606.064,56.082Z" transform="translate(-468.058 -41.696)" fill="url(#linear-gradient-12)"/>
      <path id="Path_18437" data-name="Path 18437" d="M529.734,465.025l-4.554.169.562-33.73.788-45.033,9.276,4.554-3.6,40.871Z" transform="translate(-405.601 -298.446)" fill="#3b7594"/>
      <path id="Path_18438" data-name="Path 18438" d="M592.368,466.614l-4.891-.845s-.526-24.591-.788-32.788c-.326-10.164-2.25-41.44-2.25-41.44l10.121-3.711s-1.036,29.914-1.113,39.316C593.343,436.929,592.368,466.614,592.368,466.614Z" transform="translate(-451.368 -299.527)" fill="#3b7594"/>
      <path id="Path_18439" data-name="Path 18439" d="M464.881,184.224s-1.516-1.266-2.96-2.614c-2.878-2.71-6.482-8.814-10.289-15.18-6.061.9-2.983,9.921-2.983,9.921s5.4,9.283,12,12.68c1.8.927,3.509,1.844,4.836,1.8A45.8,45.8,0,0,0,464.881,184.224Z" transform="translate(-345.891 -128.538)" fill="#d1d9c9"/>
      <path id="Path_18440" data-name="Path 18440" d="M550.45,360.641l-23.78.505.223-2.7,23.725-.168Z" transform="translate(-406.752 -276.705)" fill="#b8402b"/>
      <path id="Path_18441" data-name="Path 18441" d="M309.63,193.509l3.543,4.048,18.775-19.172-4.271-9Z" transform="translate(-239.13 -130.824)" fill="#d1d9c9"/>
      <path id="Path_18442" data-name="Path 18442" d="M636.468,188.16c-3.6,4.834-3.768,6.325-7.14,9.276a19.973,19.973,0,0,1-.387,3.415,21.444,21.444,0,0,0,2.129,5.638s5.426-1.528,6.8-3.541C640.441,199.18,636.468,188.16,636.468,188.16Z" transform="translate(-485.736 -145.32)" fill="#349b83"/>
      <path id="Path_18443" data-name="Path 18443" d="M764.354,187.17a57.7,57.7,0,0,0,7.871,10.795c-1.519,4.046-1.236,5.171-2.924,7.757l-6.211-3.611Z" transform="translate(-589.341 -144.555)" fill="#349b83"/>
      <path id="Path_18444" data-name="Path 18444" d="M673.228,225.519a79.1,79.1,0,0,0-2.077-13.8c-1.107-3.261-2.912-10.176-3.094-10.485-.811-1.38-.228-9.222-.228-11.442,0-7.646,1.2-5.312.153-10.929-.842-4.536-.767-7.876-3.188-10.569-4.693-2.8-9.406-5.009-13.381-4.834-4.312.194-6.3,2.924-10.569,5.622C639.181,178.1,638.46,172,638.1,185.04c-.048,1.687.665,3.169,1.232,5.51.335,1.387.276,9.529-1.293,14.841a86.571,86.571,0,0,0-2.029,11.637c-.592,4.722-1.444,9.44-1.2,13.409,1.179,19.049-.061,18.165,3.343,38.252,0,0,13.375,1.109,17.045,1.125s15.674-.788,15.674-.788S673.966,241.71,673.228,225.519Z" transform="translate(-490.232 -126.234)" fill="#349b83"/>
      <path id="Path_18445" data-name="Path 18445" d="M415.364,127l-.924,6.423a6.419,6.419,0,0,0,3.074.858,3.514,3.514,0,0,0,2.432-1.045l-1.316-5.943Z" transform="translate(-320.075 -98.086)" fill="url(#linear-gradient-13)"/>
      <path id="Path_18446" data-name="Path 18446" d="M395.875,52.353c.066,4.016-2.96,8.181-7.5,10.531-.228.421-.786.815-.911,1.038a5.881,5.881,0,0,1-1.91.255c-.257-.007-.455-.28-.733-.307-5.132-.494-11.633-4.046-12.254-9.729A11.272,11.272,0,0,1,382.733,41.9C388.76,41.246,395.772,46.021,395.875,52.353Z" transform="translate(-287.689 -32.319)" fill="url(#linear-gradient-14)"/>
      <path id="Path_18456" data-name="Path 18456" d="M828.575,414.6l-8.272,1.016-7.534-1.011s-.3-11.091-.228-15.349c.016-.927,1.013-7.926,1.013-7.926l12.978-1.182s2.154,8.666,2.193,10.121C828.9,406.337,828.575,414.6,828.575,414.6Z" transform="translate(-627.523 -301.319)" fill="#6991ba"/>
      <path id="Path_18457" data-name="Path 18457" d="M357.183,17.91A26.78,26.78,0,0,0,361.4,19.5c.959.1-.064,3.3-.312,4a12.893,12.893,0,0,1-1.938,2.118l.3,1.63-1.33,2.98-2.19,1.168-.305,1.983L353.64,35.19a9.689,9.689,0,0,0-.683,1.956,16.466,16.466,0,0,0,.658,3.047c.275.838,2.826,2.96,3.149,3.035s-1.84,1.091-3.932,1.544c-1.628-.077-4.472-.956-5.26-2.161.455-1.523-3.429-3.682-2.867-5.144.831-2.165-.084-3.5-.255-5.062,1.576-2.361.455-3.525.76-4.47.562-1.8,2.593-2.6,3.2-3.119,1.462-1.236.888-1.965,1.771-3.035s3.354-1.182,4.048-1.771C354.821,17.994,357.183,17.91,357.183,17.91Z" transform="translate(-266.022 -13.835)" fill="#1d1d1d"/>
      <path id="Path_18458" data-name="Path 18458" d="M412.749,16.117s-1.926,1.539-3.481,1.482c-1-.039.8,4.7,1.541,4.506s3.962,1.011,3.962,1.011l1.266,2.445s3.169,1.25,3.766,2.9c.257.708.4,1.4.562,1.967.5,1.7.938,2.318,1.182,3.092a5.529,5.529,0,0,1-.228,4.5,21.23,21.23,0,0,1-1.63,2.587c-.228.264,4.44.455,4.836.087a11.175,11.175,0,0,0,2.714-1.926c.089-2.277,1.473-2.4,1.576-3.329.264-2.363.146-1.123-.469-2.787-.173-1.314,1.054-2.983-.084-4.385-2.889-2.539-.8-3.254-1.851-4.212s-2.108-1-2.532-1.685c-.474-.779-1.138-2.582-2.277-3.459-1.186-.911-2.614-.032-4.891-1.432C415.73,16.482,415.051,15.211,412.749,16.117Z" transform="translate(-315.853 -12.211)" fill="#1d1d1d"/>
      <path id="Path_18462" data-name="Path 18462" d="M524.021,729.411H517.78a9.284,9.284,0,0,1,.617-1.97c1.744-.168,5.624-1.011,5.624-1.011Z" transform="translate(-399.886 -561.03)" fill="#304557"/>
      <path id="Path_18463" data-name="Path 18463" d="M597.78,728.319h7a11.874,11.874,0,0,0-.758-1.94c-1.963-.455-6.241-1.209-6.241-1.209Z" transform="translate(-461.67 -560.057)" fill="#304557"/>
      <path id="Path_18464" data-name="Path 18464" d="M691.2,162.943s-1.573-1.125-1.573.9c0,2.924,2.7,4.5,3.372,3.823a5.621,5.621,0,0,0,1.07-1.8Z" transform="translate(-532.607 -125.604)" fill="#fff"/>
      <path id="Path_18465" data-name="Path 18465" d="M713.252,162.14s1.8-1.013,1.8,1.011c0,2.924-3.147,4.5-3.823,3.823a10.244,10.244,0,0,1-1.348-1.913Z" transform="translate(-548.246 -125.029)" fill="#fff"/>
      <path id="Path_18466" data-name="Path 18466" d="M821.589,288.933c-1.755.394-4.991.911-6.747.505-.911-.2-4.5-1.63-4.5-1.63l1.293-7.814-.168-9.192-.515-3.793-.788-2.924.112-1.8a11.4,11.4,0,0,0,.508-2.445c-.417-.228-.993-1.683-1.407-1.883a6.381,6.381,0,0,1,.731-1.658,76.516,76.516,0,0,1,7.168-2.878s4.7,2.006,6.79,2.71a4.736,4.736,0,0,1,.886,1.685c-.76,1.1-1.182,1.856-1.182,1.856l.337,1.856.339,2.96-.717,6.284.378,9.4,1.519,7.871Z" transform="translate(-625.091 -195.721)" fill="#e68ac9"/>
      <path id="Path_18467" data-name="Path 18467" d="M838.894,237.307l-1.664.952-1.69-1.072.72-7.307h1.917Z" transform="translate(-645.294 -177.541)" fill="url(#linear-gradient-15)"/>
      <path id="Path_18468" data-name="Path 18468" d="M822.453,158.6c-.171,2.313-1.041,6.252-2.247,8.1a8.23,8.23,0,0,1-4.763,3.912c-1.437-.455-2.96-1.94-4.233-3.349a11.389,11.389,0,0,1-2.755-6.692c-.683-8.092,1.314-11.817,7.029-11.271C820.091,149.732,822.947,151.979,822.453,158.6Z" transform="translate(-624.276 -115.262)" fill="url(#linear-gradient-16)"/>
      <path id="Path_18469" data-name="Path 18469" d="M475.93,222.72a26.99,26.99,0,0,1,.027,4.668,5.36,5.36,0,0,0,1.4,1.321A14.179,14.179,0,0,0,475.93,222.72Z" transform="translate(-367.565 -172.011)" fill="#bdc8b2"/>
      <path id="Path_18470" data-name="Path 18470" d="M384.422,211.86s-1.011,3.035-1.462,4.722c.455-.228,1.8-1.236,1.8-1.236A10.635,10.635,0,0,1,384.422,211.86Z" transform="translate(-295.763 -163.624)" fill="#bdc8b2"/>
      <path id="Path_18471" data-name="Path 18471" d="M421.84,234.07s-8.671,0-11.84.228c.886.328,5.845,1.316,5.845,1.316A47.41,47.41,0,0,0,421.84,234.07Z" transform="translate(-316.646 -180.777)" fill="#bdc8b2"/>
      <path id="Path_18472" data-name="Path 18472" d="M413.605,41.153l-.669,2.477V43.5l.494,1.79v.052a5.509,5.509,0,0,1-.531,1.054,5.426,5.426,0,0,0,.367-1.1v.052l-.783-1.685-.023-.052.016-.082L412.947,41Z" transform="translate(-318.546 -31.667)" fill="#1d1d1d"/>
      <path id="Path_18473" data-name="Path 18473" d="M413.1,158.521a6.863,6.863,0,0,1-3.955-1.642l.228-.253c.02.018,2.049,1.776,4.142,1.535a6.674,6.674,0,0,0,3.834-1.931l.262.214a6.929,6.929,0,0,1-4.057,2.049A4.266,4.266,0,0,1,413.1,158.521Z" transform="translate(-315.982 -120.66)" fill="#bdc8b2"/>
      <path id="Path_18474" data-name="Path 18474" d="M711.342,47.117a5.227,5.227,0,1,1-5.221-4.977A5.1,5.1,0,0,1,711.342,47.117Z" transform="translate(-541.311 -32.548)" fill="#c7c7c7"/>
      <path id="Path_18475" data-name="Path 18475" d="M699.459,142.01l-3.894,2.867-3.716-2.7.118-5.847,6.252-1.011Z" transform="translate(-534.321 -104.511)" fill="#7a4d30"/>
      <path id="Path_18476" data-name="Path 18476" d="M685.333,73.928c0,3.188.08,3.871-.984,6.747a16.679,16.679,0,0,1-3.871,3.871,21.741,21.741,0,0,1-1.94,1.516c-2.388.929-2.25.845-4.217.255a11.748,11.748,0,0,1-2.53-1.434c-2.277-1.594-3.964-3.206-4.722-5.059,0-3.374.169-9.445.43-12.978.228-2.924,3.463-3.1,6.744-3.151C681.242,63.584,685.333,67.86,685.333,73.928Z" transform="translate(-515.184 -49.192)" fill="url(#linear-gradient-17)"/>
      <path id="Path_18479" data-name="Path 18479" d="M662.115,65.1a10.4,10.4,0,0,1,2.154-3.579,18.113,18.113,0,0,1,5.339-3.037s1.947-.763,1.036-1.473c-.266-.207-2.1.228-3.122.5a29.082,29.082,0,0,0-3.95,1.546c-2.5,1.125-2.7,2.461-2.732,7.14-.014,1.516-1.239,1.865-.2,4.271.162.38.667.549,1.138,1.421A49.334,49.334,0,0,0,662.115,65.1Z" transform="translate(-509.894 -43.987)" fill="#d6d6d6"/>
      <path id="Path_18480" data-name="Path 18480" d="M712.792,67.192s-1.3-.993-2.655-2.277a11.251,11.251,0,0,1-2.653-4.048s-3.725-.314-2.807-1.027a6.915,6.915,0,0,1,3.274-.164c.927.241,2.96-.492,4.326.658,1.241,1.038,2.607,2.466,3.7,6.35.41,1.466-.738,7.029-.738,7.029l-1.387,2.361a24.919,24.919,0,0,0,0-5.285A13.487,13.487,0,0,0,712.792,67.192Z" transform="translate(-544.115 -45.997)" fill="#d6d6d6"/>
      <path id="Path_18481" data-name="Path 18481" d="M685.536,54.967c.31,1.507-5.251,3.329-7.582,3.329S672.1,56.345,672.1,54.8s3.62-3.677,5.943-3.775C681.918,50.864,684.933,52.012,685.536,54.967Z" transform="translate(-519.068 -39.4)" fill="#d6d6d6"/>
      <path id="Path_18482" data-name="Path 18482" d="M312.643,198.28s6.241,11.3,15.349,16.528c.505,6.41.168,7.591.168,7.591a53.689,53.689,0,0,1-6.073-.683c-3.748-.7-10.276-2.363-14.5-7.084C304.139,210.8,312.643,198.28,312.643,198.28Z" transform="translate(-236.915 -153.136)" fill="#82c2e8"/>
      <path id="Path_18483" data-name="Path 18483" d="M144.913,201.49s-11.132,18.671-21.253,19.677c2.227,2.329.178,6.284,2.193,6.241,15.517-.337,17.5-4.1,23.277-10.289C152.654,213.346,144.913,201.49,144.913,201.49Z" transform="translate(-95.504 -155.615)" fill="#82c2e8"/>
      <path id="Path_18485" data-name="Path 18485" d="M556.289,63.061c.055.72-.7,1.441-2.049,1.546s-2.482-.4-2.536-1.118S552.7,62.1,554.041,62,556.234,62.339,556.289,63.061Z" transform="translate(-426.083 -47.874)" fill="#8f5a37"/>
      <path id="Path_18486" data-name="Path 18486" d="M589.886,63.166c-.164.7-.776.576-2.092.271s-2.213-.576-2.049-1.28,1.063-.988,2.4-.815C589.945,61.577,590.055,62.463,589.886,63.166Z" transform="translate(-452.36 -47.34)" fill="#8f5a37"/>
      <path id="Path_18487" data-name="Path 18487" d="M552.563,148.546l-.141-.168c-.073-.087-7.286-8.7-8.072-9.7l.266-.207c.717.911,6.906,8.308,7.924,9.524l6.872-9.773.278.2Z" transform="translate(-420.406 -106.751)" fill="#a6422e"/>
      <path id="Path_18488" data-name="Path 18488" d="M690.955,176.333c-3.964,0-5.672-6.323-5.745-6.6l.326-.084c.018.068,1.865,6.91,5.94,6.312,2.691-.4,5.009-7.1,5.039-7.168l.319.109c-.1.285-2.416,6.965-5.307,7.393a3.827,3.827,0,0,1-.571.041Z" transform="translate(-529.193 -130.36)" fill="#1d877c"/>
      <path id="Path_18489" data-name="Path 18489" d="M687.439,181.46c-4.021,0-6.562-8.855-6.669-9.237l.323-.091c.027.091,2.577,8.992,6.346,8.992h.171c4.554-.326,6.462-9.777,6.48-9.873l.332.066c-.08.4-1.992,9.791-6.787,10.144Z" transform="translate(-525.764 -132.26)" fill="#1d877c"/>
      <path id="Path_18490" data-name="Path 18490" d="M794.1,149.909a14.093,14.093,0,0,0,2.222.99,18.322,18.322,0,0,1-1.425-4.326,28.027,28.027,0,0,1,.1-3.9c.2-.956.731-2.782.731-2.782a4.827,4.827,0,0,0,4.419-2.024l-.175-4.385s1.578-2.566,2.129-2.47c.911.155-.134-1.2-1.257-1.494-2.074-.533-3.033,1.658-4.021,1.822-1.5.257-1.892,1.177-2.584,1.685-.945.694-1.1-.048-1.35,1.239-.141.724-2.065,2.336-2.065,2.336-1.366,1.416-.2,3-.5,3.666-1.061,2.379-.021,3.049-.021,3.049a8.753,8.753,0,0,1,1.532,3.149c.187,1.159,1.578.911,1.883,1.366C794.2,148.559,793.4,149.236,794.1,149.909Z" transform="translate(-610.012 -99.965)" fill="#1d1d1d"/>
      <path id="Path_18491" data-name="Path 18491" d="M828.287,152.684l-2.131.346s2.049-4.048,1.992-7.432a7.675,7.675,0,0,0-.562-2.96,8.24,8.24,0,0,1-6.266-2.732,6.71,6.71,0,0,1-5.289-.344l.972-5.314.943-.722c.936.373,1.769-1.99,2.96-1.976,1.544.016,3.063,1.881,4.538,1.717a3.886,3.886,0,0,1,3.49,1.216,7.937,7.937,0,0,1,.738,1.544s1.421,1.323,1.776,1.749c.708.852,1.478,1.981,1.478,1.981.683.74.077,2.543.362,3.488.628,1.412-.733,2.5-.683,3.372a2.664,2.664,0,0,1-.578,2.133c-.351.569-1.018.749-1.366,1.079s-.269,1.093-.5,1.391A9.959,9.959,0,0,1,828.287,152.684Z" transform="translate(-630.227 -101.599)" fill="#1d1d1d"/>
      <path id="Path_18492" data-name="Path 18492" d="M643.645,230.13s-2.024,6.573-1.771,7.257a8.551,8.551,0,0,1-2.614,1.434A44.975,44.975,0,0,1,643.645,230.13Z" transform="translate(-493.706 -177.734)" fill="#148c7f"/>
      <path id="Path_18493" data-name="Path 18493" d="M773.58,220.26s2.9,10.146,3.149,10.822l-2.081-1.35S774.254,225.665,773.58,220.26Z" transform="translate(-597.442 -170.111)" fill="#148c7f"/>
      <path id="Path_18495" data-name="Path 18495" d="M668.52,281.748s7.694.376,9.36.337c1.785-.041,9.866-.845,9.866-.845s-6.282,2.883-9.7,2.755C676.7,283.945,668.52,281.748,668.52,281.748Z" transform="translate(-516.303 -217.206)" fill="#148c7f"/>
      <path id="Path_18496" data-name="Path 18496" d="M824.44,319.547s2.819,0,3.818-.043c1.068-.041,4.447-.294,4.447-.294a10.174,10.174,0,0,1-4.447,1.138C827.448,320.3,824.44,319.547,824.44,319.547Z" transform="translate(-636.722 -246.531)" fill="#d173c1"/>
      <path id="Path_18503" data-name="Path 18503" d="M76.73,722.917a5.789,5.789,0,0,1,1.164-2.482c1.234-.273,1.159-.082,1.159-.082l4.64-1.653,3.386,1.822L86.826,723Z" transform="translate(-59.259 -555.06)" fill="#e6e6e6"/>
      <path id="Path_18504" data-name="Path 18504" d="M94.38,723.277l1.735,2.361,1.612-.039-2.684-2.53Z" transform="translate(-72.89 -558.435)" fill="#828f9c"/>
      <path id="Path_18505" data-name="Path 18505" d="M87.02,726.056l1.175,1.678,1.118-.059L87.7,725.79Z" transform="translate(-67.206 -560.536)" fill="#828f9c"/>
      <rect id="Rectangle_2410" data-name="Rectangle 2410" width="0.745" height="9.684" transform="matrix(0.002, -1, 1, 0.002, 17.635, 167.928)" fill="#d3d0d3"/>
      <path id="Path_18506" data-name="Path 18506" d="M171.11,335.305l2.778,13.978.872,20-1.07,3.144.594.41.865-1.091V373.7l-.487,1.362.747.291.453-.517,1.653-.26.487-1.719-.323-3.629-1-20.2-2.869-14.814Z" transform="translate(-132.15 -258.116)" fill="url(#linear-gradient-18)"/>
      <path id="Path_18507" data-name="Path 18507" d="M84.71,328.706,81.844,343.94l-.8,17.566,1.07,3.142-.594.412-.865-1.091v1.944l.487,1.362-.747.291-.453-.519-1.653-.26-.487-1.717.323-3.632,1.134-18.063,2.962-15.968Z" transform="translate(-60.086 -252.864)" fill="url(#linear-gradient-19)"/>
      <path id="Path_18508" data-name="Path 18508" d="M189.34,477.412l-3.34.583.032-.874,3.113-.811Z" transform="translate(-143.649 -367.861)" fill="#de4238"/>
      <path id="Path_18509" data-name="Path 18509" d="M160.887,720.575a3.956,3.956,0,0,0-.8-2.516c-1.239-.255-1.985-.33-1.985-.33l-4.8-1.979-2.96,2.5.184,2.3Z" transform="translate(-116.109 -552.782)" fill="#e6e6e6"/>
      <path id="Path_18510" data-name="Path 18510" d="M139.21,473.615c.164.531,1.671,16.954,2.036,30.738.373,14.156.337,26.818.337,26.818l6.073-1.7-1.35-24.456-1.441-31.422Z" transform="translate(-107.513 -365.76)" fill="#5c5e80"/>
      <path id="Path_18511" data-name="Path 18511" d="M100.141,472.35c0,1.744-.669,18.791-1.35,32.56C98.108,518.571,97.78,530.1,97.78,530.1l5.97,1.567.282-26.761,1.084-31.934Z" transform="translate(-75.516 -364.802)" fill="#5c5e80"/>
      <path id="Path_18512" data-name="Path 18512" d="M119.122,458.238l-11.212-.929L106.67,455.7l.253-5.567,13.1.478.014,5.148Z" transform="translate(-82.382 -347.642)" fill="#5c5e80"/>
      <path id="Path_18513" data-name="Path 18513" d="M165.126,722.567l-1.742,2.357-1.614-.046,2.694-2.518Z" transform="translate(-124.936 -557.887)" fill="#828f9c"/>
      <path id="Path_18514" data-name="Path 18514" d="M174.97,725.369l-1.179,1.674-1.12-.064,1.619-1.878Z" transform="translate(-133.354 -560.003)" fill="#828f9c"/>
      <rect id="Rectangle_2411" data-name="Rectangle 2411" width="0.745" height="10.426" transform="translate(34.416 167.781) rotate(-89.9)" fill="#d3d0d3"/>
      <path id="Path_18515" data-name="Path 18515" d="M107.43,457.943V457.7a2.242,2.242,0,0,0,2.179-2.247l.248.021A2.514,2.514,0,0,1,107.43,457.943Z" transform="translate(-82.969 -351.75)" fill="#4d4569"/>
      <path id="Path_18516" data-name="Path 18516" d="M155.5,458.27A2.487,2.487,0,0,1,153,455.8l.246-.025a2.213,2.213,0,0,0,2.277,2.252l.014.246Z" transform="translate(-118.163 -351.997)" fill="#4d4569"/>
      <path id="Path_18517" data-name="Path 18517" d="M121.468,455.624,108.69,455.2l0-.248,12.774.337Z" transform="translate(-83.942 -351.364)" fill="#4d4569"/>
      <rect id="Rectangle_2412" data-name="Rectangle 2412" width="0.499" height="3.885" transform="translate(29.233 110.125) rotate(-84.289)" fill="#4d4569"/>
      <path id="Path_18518" data-name="Path 18518" d="M166.5,228.5a1.5,1.5,0,0,0,1.416,1.676,1.685,1.685,0,0,0,1.8-1.43,1.5,1.5,0,0,0-1.416-1.674A1.683,1.683,0,0,0,166.5,228.5Z" transform="translate(-128.585 -175.367)" fill="url(#linear-gradient-20)"/>
      <path id="Path_18519" data-name="Path 18519" d="M88.515,233.538a1.5,1.5,0,0,0,1.416,1.674,1.683,1.683,0,0,0,1.8-1.428,1.5,1.5,0,0,0-1.416-1.674A1.683,1.683,0,0,0,88.515,233.538Z" transform="translate(-68.353 -179.259)" fill="url(#linear-gradient-21)"/>
      <path id="Path_18520" data-name="Path 18520" d="M95.169,286.91a10.129,10.129,0,0,1-1.138,1.981c-.478.8-1.91,8.32-1.91,8.32l3.711,1.013.765-3.431L95.606,322l13.156.505.515-28.206.553,3.358,3.709-1.913-2.867-8.652-5.5-2.024-2.4-.842Z" transform="translate(-71.145 -219.516)" fill="#dbb34d"/>
      <path id="Path_18521" data-name="Path 18521" d="M123.33,265.92c0,.929,1.387,3.552,3.459,3.748,2.336.228,3.156-3,3.2-3.871l-1.94-.717-.471-5.852L125.557,259l-.535,6.148S123.915,265.66,123.33,265.92Z" transform="translate(-95.249 -200.03)" fill="url(#linear-gradient-22)"/>
      <path id="Path_18522" data-name="Path 18522" d="M165.89,314.52l.291,3.493.446,1.3L166.462,316Z" transform="translate(-128.118 -242.909)" fill="#d2960a"/>
      <path id="Path_18523" data-name="Path 18523" d="M110.275,319.628l.478-3.3-.408-.039-.706,4.3Z" transform="translate(-84.676 -244.276)" fill="#d2960a"/>
      <path id="Path_18524" data-name="Path 18524" d="M96.816,194.671c.426,4.656,5.253,11.061,9.263,10.847,3.21-.171,6.478-3.1,8-10.059.435-1.992.583-6.99-.455-8.652-1.635-2.643-4.028-2.719-7.4-2.976-3.9-.3-6.869.683-8.57,4.438A14.561,14.561,0,0,0,96.816,194.671Z" transform="translate(-74.729 -141.938)" fill="url(#linear-gradient-23)"/>
      <path id="Path_18526" data-name="Path 18526" d="M107.591,181.563s1.441-3.415.412-5.173c1.2-2.637-.911-2.5-.852-3.468a1.217,1.217,0,0,0-1.337-1.175c-.48-1.473-.683-1.5-1.958-1.248a1.307,1.307,0,0,0-1.995-1.366c-.515-1.633-3.008-2.206-3.632-.364-.4-.763-1.323-.722-1.721.342a1.431,1.431,0,0,0-2.277.606c-.76-.553-2.036.28-2.19,1.259-.806-.1-1.46.774-1.5,1.457a1.15,1.15,0,0,0-.874,1.692c-.683.032-1.255.121-1.462.742-.351,1.054-.266,1.728.228,2.067a4.69,4.69,0,0,0,.043,2.4,8.019,8.019,0,0,0,.66,2.081l1.068,1.573.521-6.3a21.418,21.418,0,0,1,4.18-1.43c8.211-1.71,12.084.364,12.084.364Z" transform="translate(-67.956 -129.461)" fill="#1c2126"/>
      <path id="Path_18539" data-name="Path 18539" d="M843.258,299.874h-.339v-9.108l-.055-9.725-.394-13.882.337-.009.394,13.887.057,9.729Z" transform="translate(-650.646 -206.325)" fill="#d173c1"/>
      <path id="Path_18540" data-name="Path 18540" d="M836.653,259.59l.788,1.726-1.7-.549Z" transform="translate(-645.449 -200.486)" fill="#d173c1"/>
      <path id="Path_18541" data-name="Path 18541" d="M843.772,259.59l.815.968-1.378.7Z" transform="translate(-651.218 -200.486)" fill="#d173c1"/>
      <path id="Path_18542" data-name="Path 18542" d="M830,254.137l1.382-1.387.838,1.557-1.041,1.979Z" transform="translate(-641.016 -195.203)" fill="#e0a0d5"/>
      <path id="Path_18543" data-name="Path 18543" d="M847.563,253.986l-1.179-1.266-1.013,1.646,1.223,1.685Z" transform="translate(-652.886 -195.18)" fill="#e0a0d5"/>
      <path id="Path_18544" data-name="Path 18544" d="M658.841,732.37l6.016-.168.112-.845-3.318.169a9.971,9.971,0,0,0-1.8-1.4C659.57,730.12,658.327,731.416,658.841,732.37Z" transform="translate(-508.733 -563.88)" fill="#349b83"/>
      <path id="Path_18545" data-name="Path 18545" d="M741.585,729.853h7.2l-.228-1.011-4.44.112s-1.239-1.293-1.519-1.293S741.072,728.9,741.585,729.853Z" transform="translate(-572.637 -561.98)" fill="#349b83"/>
      <path id="Path_18546" data-name="Path 18546" d="M800.22,725.41l.729-.79c.194.389.683.54.981,1.086a17.441,17.441,0,0,0,2.179.25l.182,1.154-5.651-.128.059-.972Z" transform="translate(-616.796 -559.633)" fill="#d14f2e"/>
      <path id="Path_18547" data-name="Path 18547" d="M871.482,725.595l-.51-.975c-.194.389-.59.426-.895.975a2.807,2.807,0,0,1-1.742-.337l-.455,1.853,4.217-.121-.061-.972Z" transform="translate(-670.271 -559.632)" fill="#d14f2e"/>
      <path id="Path_18548" data-name="Path 18548" d="M235.964,229.524a100.972,100.972,0,0,1-36.431,1.35c-1.027-8.989-2.011-20.879-.3-29.584a146.84,146.84,0,0,0,2.657-24.056s3.871-6.241,16.25-6.416c3.4-.05,8.038,4.224,10.9,6.248,2.976,6.637,3.1,11.416,5.679,20.859C238.776,212.771,235.964,229.524,235.964,229.524Z" transform="translate(-153.153 -131.927)" fill="#6e8383"/>
      <path id="Path_18549" data-name="Path 18549" d="M220.182,108.771a2.165,2.165,0,1,1-1.983-2.653A2.356,2.356,0,0,1,220.182,108.771Z" transform="translate(-166.754 -81.956)" fill="url(#linear-gradient-24)"/>
      <path id="Path_18550" data-name="Path 18550" d="M311.849,102.342a2.164,2.164,0,1,1-1.981-2.653A2.359,2.359,0,0,1,311.849,102.342Z" transform="translate(-237.551 -76.991)" fill="url(#linear-gradient-25)"/>
      <path id="Path_18551" data-name="Path 18551" d="M249.874,140.317l-.984,7.876s5.4,2.361,6.915,3.374a51.13,51.13,0,0,1,5.4-3.543l-1.079-9.574Z" transform="translate(-192.22 -106.929)" fill="url(#linear-gradient-26)"/>
      <path id="Path_18552" data-name="Path 18552" d="M248.491,73.612c-.59,5.084-5.405,8.814-11.66,8.443s-11.079-4.8-10.777-9.916c.228-3.93.385-10.7,5.2-13.623a10.355,10.355,0,0,1,5.515-1.822c5.708.143,7.475,2.682,9.235,6.182.683,1.366.722,3.491.972,4.957C247.339,69.981,248.682,71.984,248.491,73.612Z" transform="translate(-174.573 -43.787)" fill="url(#linear-gradient-27)"/>
      <path id="Path_18553" data-name="Path 18553" d="M226.372,73.278l2.159-3.588a22.438,22.438,0,0,0-2.614,1.282c-1.216.683-.774,1.029-1.514,3.231-.5,1.516-.046,5.075-.046,5.075l.551,1.528,1.043-4.513Z" transform="translate(-173.126 -53.825)" fill="#4d4d4d"/>
      <path id="Path_18554" data-name="Path 18554" d="M305.077,70.268,304.59,69a13.79,13.79,0,0,0,1.594.708,12.643,12.643,0,0,1,1.46,3.092c.48,1.291.562,6.633.562,6.633l-.228-.731-1.428-5.92Z" transform="translate(-235.237 -53.292)" fill="#4d4d4d"/>
      <path id="Path_18563" data-name="Path 18563" d="M224.3,102.459s1.036-.881,1.138-.087c.169,1.434,1.193,4.278,2.277,4.807,1.179.574,2.489.084,4.426-.59a32.773,32.773,0,0,1,3.923-1.223c4.1-.824,6.148,1.9,8.516,1.307,1.842-.455,1.013-4.863,1.013-4.863s.162-1.455.505-.562c.255.66,1,4.8,1.17,5.61a22.966,22.966,0,0,1,.508,5.428c0,1.245-2.277,3.365-4.4,5.153-3.1,1.054-10.638.836-14.2.057a17.019,17.019,0,0,1-4.593-4.215Z" transform="translate(-173.229 -77.973)" fill="#4d4d4d"/>
      <path id="Path_18567" data-name="Path 18567" d="M353.588,43.9l-.2-.157,4.2-5.321,1.521-5.522L362,30.529l3.418-5.323,1-2.675.237.089-1.011,2.7-3.468,5.394-2.837,2.336-1.53,5.515Z" transform="translate(-272.926 -17.403)" fill="#3c3c3c"/>
      <path id="Path_18568" data-name="Path 18568" d="M366.789,103.092l-.209-.143,1.837-2.675.592-4.137L370.3,94.59l.194.162-1.241,1.491-.608,4.151Z" transform="translate(-283.113 -73.055)" fill="#3c3c3c"/>
      <path id="Path_18569" data-name="Path 18569" d="M464.493,93.754,463.072,91l-.112-3.659L460.72,85.1l.178-.18,2.313,2.313.114,3.732,1.391,2.673Z" transform="translate(-355.818 -65.587)" fill="#3c3c3c"/>
      <path id="Path_18570" data-name="Path 18570" d="M441.476,39.58,438.9,33.311l-2.933-2.5-1.9-4.253-4.6-5.046-2.038-3.393.216-.132,2.024,3.374,4.615,5.073,1.9,4.246,2.937,2.5,2.584,6.3Z" transform="translate(-330.108 -13.896)" fill="#3c3c3c"/>
      <path id="Path_18571" data-name="Path 18571" d="M828.583,139.147h-.036c-.016,0-1.457-.36-1.193-2.557a7.985,7.985,0,0,1,.173-.911,3.164,3.164,0,0,0,.134-1.086c-.036-.26-.305-.455-.59-.683a2.222,2.222,0,0,1-.779-.861,2.169,2.169,0,0,1-.064-1.835,1.607,1.607,0,0,1,.995-.779.123.123,0,0,1,.153.093.125.125,0,0,1-.093.153,1.38,1.38,0,0,0-.831.651,1.9,1.9,0,0,0,.075,1.623,2.02,2.02,0,0,0,.7.754c.326.25.633.487.683.849a3.362,3.362,0,0,1-.139,1.179,8.235,8.235,0,0,0-.169.879c-.228,1.96.95,2.266,1,2.277a.129.129,0,0,1-.018.253Z" transform="translate(-637.969 -100.736)" fill="#443232"/>
      <path id="Path_18572" data-name="Path 18572" d="M811.977,150.538a2.1,2.1,0,0,1-1.5-.572,1.63,1.63,0,0,1-.326-1.4c.068-.455-.7-1.316-1.011-1.569a4.2,4.2,0,0,0-.435-.314,1.265,1.265,0,0,1-.749-1.218,2.037,2.037,0,0,1,.735-1.792.123.123,0,0,1,.173.039.125.125,0,0,1-.039.175,1.8,1.8,0,0,0-.617,1.578c0,.59.228.747.635,1.006a4.87,4.87,0,0,1,.455.33c.2.168,1.2,1.154,1.1,1.8a1.391,1.391,0,0,0,.264,1.2,1.916,1.916,0,0,0,1.348.487.116.116,0,0,1,.132.121.128.128,0,0,1-.121.132Z" transform="translate(-623.994 -110.945)" fill="#443232"/>
      <path id="Path_18573" data-name="Path 18573" d="M844.75,147.1a.125.125,0,0,1-.073-.023,1.835,1.835,0,0,1-.683-1.116,2.349,2.349,0,0,1,.492-1.758,4.383,4.383,0,0,1,.6-.683,1.685,1.685,0,0,0,.483-.64c.064-.178-.077-.357-.312-.635a2,2,0,0,1-.624-1.526,1.9,1.9,0,0,1,2.017-1.774.128.128,0,0,1-.016.253,1.629,1.629,0,0,0-1.749,1.544,1.748,1.748,0,0,0,.565,1.341c.241.287.471.558.357.881a1.909,1.909,0,0,1-.546.738,4.289,4.289,0,0,0-.567.642,2.135,2.135,0,0,0-.455,1.569,1.607,1.607,0,0,0,.587.954.125.125,0,0,1,.034.175A.127.127,0,0,1,844.75,147.1Z" transform="translate(-651.802 -107.31)" fill="#443232"/>
      <path id="Path_18574" data-name="Path 18574" d="M858.093,176.51a.481.481,0,0,1-.326-.141c-.43-.4-.537-1.578-.307-3.4a3.221,3.221,0,0,1,.171-.613,3.518,3.518,0,0,0-.651-3.848,5.848,5.848,0,0,0-2.3-1.225,1.4,1.4,0,0,0-1.113.043,4.07,4.07,0,0,0-1.594,2.072l-.228-.084a4.3,4.3,0,0,1,1.724-2.215,1.632,1.632,0,0,1,1.3-.052,5.742,5.742,0,0,1,2.418,1.3,3.728,3.728,0,0,1,.683,4.1,3.087,3.087,0,0,0-.159.558c-.3,2.407.059,3.031.228,3.188a.228.228,0,0,0,.155.075l.048.248A.363.363,0,0,1,858.093,176.51Z" transform="translate(-657.806 -128.925)" fill="#443232"/>
      <path id="Path_18575" data-name="Path 18575" d="M346.749,35.345l-.139-.209,3.006-2,2.363-5.292,3.144-1.685,1.127-3.026,2.924-3.709.2.157L356.46,23.27l-1.134,3.062-3.151,1.689L349.816,33.3Z" transform="translate(-267.69 -15.001)" fill="#3c3c3c"/>
      <path id="Path_18576" data-name="Path 18576" d="M420.4,28.41l-2.361-2.78-.562-2.475.248-.055.553,2.443,2.313,2.7Z" transform="translate(-322.423 -17.843)" fill="#3c3c3c"/>
      <path id="Path_18577" data-name="Path 18577" d="M194.085,248.16c.084,3.709-1.853,11.974-1.853,11.974l-3.092,1.63Z" transform="translate(-146.074 -191.658)" fill="#74b0e3"/>
      <path id="Path_18578" data-name="Path 18578" d="M354.266,268.4c-.112.455,1.138,6.129,1.138,6.129a11.572,11.572,0,0,0,2.634.842A64.852,64.852,0,0,1,354.266,268.4Z" transform="translate(-273.597 -207.29)" fill="#74b0e3"/>
      <path id="Path_18579" data-name="Path 18579" d="M672.844,347.662l-.075-.034c-2.562-1.17-11.56-6.28-11.649-6.332l.166-.294c.089.052,8.9,5.057,11.549,6.284a115.117,115.117,0,0,0,11.881-7.257l.2.273a115.364,115.364,0,0,1-11.995,7.32Z" transform="translate(-510.588 -262.61)" fill="#1d877c"/>
      <path id="Path_18580" data-name="Path 18580" d="M681.337,619.757c-7.446,0-17.928-.642-18.737-1.091l.164-.3c.89.5,18.443,1.532,24.363.824l.041.335A54.859,54.859,0,0,1,681.337,619.757Z" transform="translate(-511.731 -477.575)" fill="#1d877c"/>
      <path id="Path_18581" data-name="Path 18581" d="M243.791,174.21a3.274,3.274,0,0,0-1.594,1.011c-.276.355,2.559,5.567,5.483,6.578a5.544,5.544,0,0,1,3.035-2.867Z" transform="translate(-187.036 -134.546)" fill="#74b0e3"/>
      <path id="Path_18582" data-name="Path 18582" d="M284.414,174.39s1.391,1.2,1.391,1.644a11.251,11.251,0,0,1-4.244,5.426c-1.152-2.22-2.671-2.388-2.671-2.388Z" transform="translate(-215.389 -134.685)" fill="#74b0e3"/>
      <path id="Path_18583" data-name="Path 18583" d="M237.167,323.3l-3.657,5.547,3.026,5.421,3.4-5.169Z" transform="translate(-180.342 -249.69)" fill="#859b9b"/>
      <path id="Path_18584" data-name="Path 18584" d="M278.885,323.67l-3.065,5.294,3.192,5.672,3.235-5.419Z" transform="translate(-213.018 -249.975)" fill="#859b9b"/>
      <path id="Path_18585" data-name="Path 18585" d="M317.831,322.74l-2.311,5.294,3.151,5.547,2.552-5.7Z" transform="translate(-243.679 -249.257)" fill="#859b9b"/>
      <path id="Path_18586" data-name="Path 18586" d="M683.7,63.938A9.341,9.341,0,0,1,678,58.6l.317-.118a9.1,9.1,0,0,0,5.49,5.125Z" transform="translate(-523.625 -45.167)" fill="#c2c2c2"/>
      <path id="Path_18587" data-name="Path 18587" d="M698.877,57.248c-2.079-2.589-6.571-5.219-6.617-5.237l.168-.291c.046.027,4.595,2.689,6.712,5.326Z" transform="translate(-534.638 -39.946)" fill="#c2c2c2"/>
      <path id="Path_18588" data-name="Path 18588" d="M731.265,67.259l-.337-.018c.171-3.625-2.719-7.325-2.748-7.361l.266-.209C728.567,59.825,731.443,63.516,731.265,67.259Z" transform="translate(-562.379 -46.086)" fill="#c2c2c2"/>
      <path id="Path_18589" data-name="Path 18589" d="M665.815,74.037a4.283,4.283,0,0,1,.838-5.207l.228.257a3.886,3.886,0,0,0-.756,4.8Z" transform="translate(-513.803 -53.16)" fill="#c2c2c2"/>
      <path id="Path_18590" data-name="Path 18590" d="M285.091,481.885l-.091-.323a13.158,13.158,0,0,0,3.327-1.662l.191.276A13.261,13.261,0,0,1,285.091,481.885Z" transform="translate(-220.108 -370.633)" fill="#535353"/>
      <path id="Path_18591" data-name="Path 18591" d="M368.4,730.857l1.391-1.1,2.741.505V731.7H368.15Z" transform="translate(-284.325 -563.602)" fill="#d1823b"/>
      <path id="Path_18592" data-name="Path 18592" d="M460.451,729.143l-1.771-1.6-3.119.927.168,1.519H460.7Z" transform="translate(-351.833 -561.888)" fill="#d1823b"/>
      <path id="Path_18601" data-name="Path 18601" d="M880.417,397.54l-1.407,2.25.33,4.26,1.582-.214.505-1.236-.842-.842.562-2.193Z" transform="translate(-678.867 -307.026)" fill="url(#linear-gradient-28)"/>
      <path id="Path_18610" data-name="Path 18610" d="M868.353,163.248c-.89,0-1.537-.831-2.117-1.576-.412-.531-.8-1.031-1.207-1.138-1.705-.5-2.71,1.352-2.721,1.366l-.228-.118c0-.02,1.111-2.049,3.015-1.5a3.249,3.249,0,0,1,1.337,1.236c.644.827,1.311,1.683,2.25,1.432l.066.246A1.56,1.56,0,0,1,868.353,163.248Z" transform="translate(-665.791 -123.719)" fill="#443232"/>
      <path id="Path_18611" data-name="Path 18611" d="M238.7,138.544l-1.066-1.956,2.559-3.072c-.048-.553-.332-4.046-.332-4.836h.337c0,.827.332,4.836.337,4.877v.068l-2.5,3,.956,1.756Z" transform="translate(-183.524 -99.383)" fill="#5a5a5a"/>
      <path id="Path_18612" data-name="Path 18612" d="M228.139,131.936l-.319-.1.581-1.744-.084-2.7v-.03a17.172,17.172,0,0,0,.833-3.147h.339a15.843,15.843,0,0,1-.842,3.231l.084,2.7Z" transform="translate(-175.947 -95.931)" fill="#5a5a5a"/>
      <path id="Path_18613" data-name="Path 18613" d="M293.451,133.49l-.335-.039.332-2.914-1.006-2.96c-.025-.209-.592-5.162-.592-6.007h.337c0,.8.549,5.615.587,5.952l1.018,2.96Z" transform="translate(-225.398 -93.892)" fill="#5a5a5a"/>
      <path id="Path_18614" data-name="Path 18614" d="M269.193,135.319l-.683-2.571.845-3.559c-.036-.43-.419-4.9-.419-5.72h.337c0,.827.417,5.67.421,5.72v.027l-.845,3.527.665,2.489Z" transform="translate(-207.372 -95.359)" fill="#5a5a5a"/>
      <path id="Path_18615" data-name="Path 18615" d="M310.011,134.849l-.414-2.817-1.355-1.523v-.059a14.406,14.406,0,0,0-.742-3.818l.305-.141a14.052,14.052,0,0,1,.77,3.871l1.346,1.514.426,2.928Z" transform="translate(-237.485 -97.692)" fill="#5a5a5a"/>
      <path id="Path_18616" data-name="Path 18616" d="M711.208,108.769c-.027.48.87.911,2,.956s2.074-.3,2.1-.779-.872-.781-2-.829S711.235,108.289,711.208,108.769Z" transform="translate(-549.271 -83.498)" fill="#8f5c3c"/>
      <path id="Path_18617" data-name="Path 18617" d="M681.184,108.416c.016.48-.89.888-2.026.911s-2.013-.455-2.029-.934.786-.587,1.919-.61S681.166,107.936,681.184,108.416Z" transform="translate(-522.952 -83.243)" fill="#8c593b"/>
      <path id="Path_18620" data-name="Path 18620" d="M793.963,175.354a2.562,2.562,0,0,1-1.594-.911.126.126,0,0,1,.168-.187c1.314,1.2,1.685.961,2.473.253a1.462,1.462,0,0,1,1.177-.43,1.84,1.84,0,0,1,1.236.934.126.126,0,0,1-.214.134,1.613,1.613,0,0,0-1.056-.817,1.211,1.211,0,0,0-.972.367A1.932,1.932,0,0,1,793.963,175.354Z" transform="translate(-611.921 -134.44)" fill="#443232"/>
      <path id="Path_18621" data-name="Path 18621" d="M561.48,406.935l8.939-.505-3.372,1.179-3.374.168Z" transform="translate(-433.636 -313.892)" fill="#386285"/>
      <path id="Path_18622" data-name="Path 18622" d="M509.434,179.76c0,1.013.168,4.722.168,4.722l-2.193,1.687Z" transform="translate(-391.877 -138.833)" fill="#b8402b"/>
      <path id="Path_18623" data-name="Path 18623" d="M632.019,176.8c0,1.011-.169,4.722-.169,4.722l2.193,1.687Z" transform="translate(-487.983 -136.547)" fill="#b8402b"/>
      <path id="Path_18624" data-name="Path 18624" d="M419.815,41.89a3,3,0,0,0,.125,1.708,14.87,14.87,0,0,0,.159-1.644Z" transform="translate(-324.171 -32.354)" fill="#1d1d1d"/>
      <path id="Path_18625" data-name="Path 18625" d="M464.29,41.079h-.253c-.027-.212-1.029-2.277-1.662-3.547l-4.326-3.857L456,27.57l.239-.08,2.017,6.036,4.326,3.871A37.492,37.492,0,0,1,464.29,41.079Z" transform="translate(-352.173 -21.233)" fill="#3c3c3c"/>
    </g>
  </g>
</svg>
