<svg xmlns="http://www.w3.org/2000/svg" width="17.834" height="15.286" viewBox="0 0 17.834 15.286">
  <g id="vuesax_bold_profile-2user" data-name="vuesax/bold/profile-2user" transform="translate(-168.999 -252)">
    <g id="profile-2user" transform="translate(168.999 252)">
      <path id="Vector" d="M3.025,0a3.023,3.023,0,0,0-.076,6.044.514.514,0,0,1,.14,0h.045A3.023,3.023,0,0,0,3.025,0Z" transform="translate(5.255 1.274)"/>
      <path id="Vector-2" data-name="Vector" d="M7.719.888a6.324,6.324,0,0,0-6.465,0A2.514,2.514,0,0,0,0,2.946,2.493,2.493,0,0,0,1.248,4.99a5.885,5.885,0,0,0,3.235.9,5.885,5.885,0,0,0,3.235-.9A2.513,2.513,0,0,0,8.968,2.933,2.508,2.508,0,0,0,7.719.888Z" transform="translate(3.797 8.124)"/>
      <path id="Vector-3" data-name="Vector" d="M3.745,2.091A2.28,2.28,0,0,1,1.751,4.556H1.72a.3.3,0,0,0-.108.013A2.285,2.285,0,0,1,0,4.04,2.915,2.915,0,0,0,.955,1.62,2.956,2.956,0,0,0,.465.231a2.287,2.287,0,0,1,3.28,1.86Z" transform="translate(11.535 2.584)"/>
      <path id="Vector-4" data-name="Vector" d="M.008,2.091A2.28,2.28,0,0,0,2,4.556h.032a.3.3,0,0,1,.108.013A2.285,2.285,0,0,0,3.753,4.04,2.914,2.914,0,0,1,2.8,1.62,2.956,2.956,0,0,1,3.288.231a2.287,2.287,0,0,0-3.28,1.86Z" transform="translate(1.273 2.584)"/>
      <path id="Vector-5" data-name="Vector" d="M5.1,2.605A1.94,1.94,0,0,1,3.987,4.121a4.5,4.5,0,0,1-2.236.5A2.273,2.273,0,0,0,2.528,3.14,2.509,2.509,0,0,0,1.465.987,5.258,5.258,0,0,0,0,.185,4.978,4.978,0,0,1,4.267.93,1.935,1.935,0,0,1,5.1,2.605Z" transform="translate(11.458 7.961)"/>
      <path id="Vector-6" data-name="Vector" d="M.007,2.605A1.94,1.94,0,0,0,1.115,4.121a4.5,4.5,0,0,0,2.236.5A2.273,2.273,0,0,1,2.574,3.14,2.509,2.509,0,0,1,3.637.987,5.258,5.258,0,0,1,5.1.185,4.978,4.978,0,0,0,.835.93,1.935,1.935,0,0,0,.007,2.605Z" transform="translate(0 7.961)"/>
      <path id="Vector-7" data-name="Vector" d="M0,0H15.286V15.286H0Z" transform="translate(17.834 15.286) rotate(180)" fill="none" opacity="0"/>
    </g>
  </g>
</svg>
