<svg xmlns="http://www.w3.org/2000/svg" width="16.074" height="16.878" viewBox="0 0 16.074 16.878">
  <path id="bank" d="M17.271,8.43a.8.8,0,0,0,.8-.8V5.215a.8.8,0,0,0-.549-.762L10.292,2.042a.805.805,0,0,0-.509,0L2.549,4.453A.8.8,0,0,0,2,5.215V7.626a.8.8,0,0,0,.8.8h.8V14.2A2.407,2.407,0,0,0,2,16.467v1.607a.8.8,0,0,0,.8.8H17.271a.8.8,0,0,0,.8-.8V16.467A2.407,2.407,0,0,0,16.467,14.2V8.43ZM5.215,14.056V8.43H6.822v5.626Zm3.215,0V8.43h3.215v5.626Zm4.822,0V8.43H14.86v5.626Z" transform="translate(-2 -2)"/>
</svg>
