<svg xmlns="http://www.w3.org/2000/svg" width="18.638" height="18.638" viewBox="0 0 18.638 18.638">
  <g id="vuesax_bold_messages-2" data-name="vuesax/bold/messages-2" transform="translate(-428 -252)">
    <g id="messages-2" transform="translate(428 252)">
      <path id="Vector" d="M0,0H18.638V18.638H0Z" fill="none" opacity="0"/>
      <path id="Vector-2" data-name="Vector" d="M10.8,11.517l.3,2.454a.773.773,0,0,1-1.165.761l-2.687-1.6a.388.388,0,0,1-.132-.528,4.9,4.9,0,0,0,.6-2.33A5.308,5.308,0,0,0,2.278,5.118,5.6,5.6,0,0,0,.508,5.4a.392.392,0,0,1-.5-.466A6.769,6.769,0,0,1,6.682,0a6.639,6.639,0,0,1,6.857,6.4A6.255,6.255,0,0,1,10.8,11.517Z" transform="translate(3.546 1.553)"/>
      <path id="Vector-3" data-name="Vector" d="M8.543,3.992a3.775,3.775,0,0,1-.916,2.454,4.337,4.337,0,0,1-3.355,1.53l-2.027,1.2a.486.486,0,0,1-.73-.474l.194-1.53A3.874,3.874,0,0,1,0,3.992,3.9,3.9,0,0,1,1.848.707,4.414,4.414,0,0,1,4.271,0,4.137,4.137,0,0,1,8.543,3.992Z" transform="translate(1.553 7.836)"/>
    </g>
  </g>
</svg>
