<svg xmlns="http://www.w3.org/2000/svg" width="18" height="18" viewBox="0 0 18 18">
  <g id="vuesax_bold_call-calling" data-name="vuesax/bold/call-calling" transform="translate(-172 -188)">
    <g id="call-calling" transform="translate(172 188)">
      <path id="Vector" d="M3.278,3.862A.578.578,0,0,1,2.7,3.285a2.611,2.611,0,0,0-.743-1.357,2.093,2.093,0,0,0-1.38-.772A.577.577,0,1,1,.578,0,3.188,3.188,0,0,1,2.8,1.133,3.539,3.539,0,0,1,3.862,3.278.586.586,0,0,1,3.278,3.862Z" transform="translate(9.938 4.2)"/>
      <path id="Vector-2" data-name="Vector" d="M5.977,6.562A.578.578,0,0,1,5.4,5.985,4.828,4.828,0,0,0,.577,1.162.581.581,0,0,1,.57,0,5.992,5.992,0,0,1,6.555,5.985.583.583,0,0,1,5.977,6.562Z" transform="translate(9.945 1.5)"/>
      <path id="Vector-3" data-name="Vector" d="M6.787,9.712,5.4,11.1a.754.754,0,0,1-1.057.008c-.082-.082-.165-.158-.247-.24A21.31,21.31,0,0,1,2,8.415,13.371,13.371,0,0,1,.533,5.858,6.439,6.439,0,0,1,0,3.4,3.88,3.88,0,0,1,.27,1.957,3.452,3.452,0,0,1,1.132.7,2.2,2.2,0,0,1,2.693,0,1.409,1.409,0,0,1,3.3.135a1.223,1.223,0,0,1,.5.42l1.74,2.452a2.567,2.567,0,0,1,.3.525,1.185,1.185,0,0,1,.105.458,1.018,1.018,0,0,1-.158.532,2.551,2.551,0,0,1-.42.532l-.57.593a.4.4,0,0,0-.12.3A.681.681,0,0,0,4.7,6.12c.023.06.045.105.06.15a6.224,6.224,0,0,0,.7.96c.337.39.7.787,1.088,1.185.075.075.157.15.233.225A.752.752,0,0,1,6.787,9.712Z" transform="translate(1.5 1.5)"/>
      <path id="Vector-4" data-name="Vector" d="M9.277,3.217a1.9,1.9,0,0,1-.113.638,1.832,1.832,0,0,1-.075.18,3.1,3.1,0,0,1-.51.765,3.381,3.381,0,0,1-1.23.885c-.008,0-.015.007-.023.007a3.789,3.789,0,0,1-1.44.278,6.25,6.25,0,0,1-2.445-.547A13.173,13.173,0,0,1,.862,3.938C.57,3.72.278,3.5,0,3.27L2.452.818a4.214,4.214,0,0,0,.555.36c.038.015.083.038.135.06a.518.518,0,0,0,.187.03.413.413,0,0,0,.307-.127l.57-.562a2.3,2.3,0,0,1,.54-.42A1,1,0,0,1,5.28,0a1.2,1.2,0,0,1,.457.1A2.9,2.9,0,0,1,6.262.39L8.745,2.152a1.138,1.138,0,0,1,.413.48A1.539,1.539,0,0,1,9.277,3.217Z" transform="translate(7.2 10.53)"/>
      <path id="Vector-5" data-name="Vector" d="M0,0H18V18H0Z" transform="translate(18 18) rotate(180)" fill="none" opacity="0"/>
    </g>
  </g>
</svg>
