<svg id="Layer_2" data-name="Layer 2" xmlns="http://www.w3.org/2000/svg" width="21" height="21" viewBox="0 0 21 21">
  <g id="credit-card">
    <rect id="Rectangle_2495" data-name="Rectangle 2495" width="21" height="21" opacity="0"/>
    <path id="Path_18930" data-name="Path 18930" d="M17.041,5H4.654A2.654,2.654,0,0,0,2,7.654v7.078a2.654,2.654,0,0,0,2.654,2.654H17.041a2.654,2.654,0,0,0,2.654-2.654V7.654A2.654,2.654,0,0,0,17.041,5ZM9.963,13.847H6.424a.885.885,0,1,1,0-1.769H9.963a.885.885,0,0,1,0,1.769Zm5.308,0H13.5a.885.885,0,0,1,0-1.769h1.769a.885.885,0,0,1,0,1.769Zm2.654-5.308H3.769V7.654a.885.885,0,0,1,.885-.885H17.041a.885.885,0,0,1,.885.885Z" transform="translate(-0.231 -0.576)"/>
  </g>
</svg>
