<svg id="help-svgrepo-com_1_" data-name="help-svgrepo-com (1)" xmlns="http://www.w3.org/2000/svg" width="18.944" height="18.944" viewBox="0 0 18.944 18.944">
  <path id="Path_18953" data-name="Path 18953" d="M18.593,6.923s0,0,0-.005,0,0,0-.007a9.413,9.413,0,0,0-.845-2.034.323.323,0,0,0,.219.088.327.327,0,0,0,.327-.327V4.319a.327.327,0,1,0-.653,0v.319a.308.308,0,0,0,.011.055c-.049-.084-.1-.168-.151-.25a.3.3,0,0,0-.03-.031,9.514,9.514,0,0,0-.662-.918.289.289,0,0,0-.022-.041q-.1-.118-.2-.233c-.006-.007-.014-.01-.021-.016a9.527,9.527,0,0,0-.828-.828c-.006-.006-.008-.014-.015-.019q-.115-.1-.232-.2a.3.3,0,0,0-.039-.021,9.494,9.494,0,0,0-.92-.663.344.344,0,0,0-.032-.03c-.082-.052-.166-.1-.25-.151a.319.319,0,0,0,.061.012h.319a.327.327,0,1,0,0-.653H14.31a.325.325,0,0,0-.236.55A9.4,9.4,0,0,0,12.032.354l-.006,0h0a9.421,9.421,0,0,0-5.1,0h0l-.006,0A9.412,9.412,0,0,0,4.877,1.2.323.323,0,0,0,4.965.98.327.327,0,0,0,4.638.653H4.319a.327.327,0,0,0,0,.653h.319A.312.312,0,0,0,4.694,1.3q-.126.074-.25.152a.3.3,0,0,0-.031.03,9.529,9.529,0,0,0-.918.663.275.275,0,0,0-.04.021q-.118.1-.233.2c-.007.006-.009.013-.015.019a9.545,9.545,0,0,0-.829.829c-.006.006-.014.008-.019.015q-.1.115-.2.233a.278.278,0,0,0-.021.04,9.511,9.511,0,0,0-.662.918.284.284,0,0,0-.031.032q-.077.123-.151.25a.289.289,0,0,0,.012-.061V4.315a.327.327,0,1,0-.653,0v.319a.327.327,0,0,0,.327.327A.322.322,0,0,0,1.2,4.87,9.406,9.406,0,0,0,.355,6.911s0,0,0,.007,0,0,0,.005a9.429,9.429,0,0,0,0,5.1s0,0,0,.005a.089.089,0,0,0,0,.008A9.415,9.415,0,0,0,1.2,14.067a.323.323,0,0,0-.219-.088.327.327,0,0,0-.327.327v.319a.327.327,0,0,0,.653,0v-.319a.311.311,0,0,0-.011-.055c.049.084.1.167.151.249a.328.328,0,0,0,.044.053,9.5,9.5,0,0,0,.649.9.289.289,0,0,0,.022.041q.1.118.2.233c.006.006.013.008.019.014a9.519,9.519,0,0,0,.83.83c.006.006.008.014.015.019q.115.1.232.2a.29.29,0,0,0,.044.025,9.445,9.445,0,0,0,.915.659.344.344,0,0,0,.032.03c.082.052.166.1.25.151a.346.346,0,0,0-.061-.012H4.315a.327.327,0,1,0,0,.653h.319a.325.325,0,0,0,.236-.55,9.4,9.4,0,0,0,2.041.849l.006,0h.007a9.422,9.422,0,0,0,5.1,0h.007l.006,0a9.412,9.412,0,0,0,2.035-.845.323.323,0,0,0-.088.219.327.327,0,0,0,.327.327h.319a.327.327,0,1,0,0-.653h-.319a.312.312,0,0,0-.055.011q.126-.074.25-.152a.3.3,0,0,0,.031-.03,9.465,9.465,0,0,0,.914-.659.356.356,0,0,0,.045-.025q.118-.1.233-.2c.007-.006.009-.014.015-.02a9.533,9.533,0,0,0,.83-.831c.005-.005.013-.007.018-.013q.1-.115.2-.233a.278.278,0,0,0,.021-.04,9.484,9.484,0,0,0,.649-.9A.332.332,0,0,0,17.5,14.5q.077-.123.151-.25a.333.333,0,0,0-.012.062v.319a.327.327,0,1,0,.653,0V14.31a.327.327,0,0,0-.327-.327.322.322,0,0,0-.223.09,9.4,9.4,0,0,0,.848-2.039.089.089,0,0,0,0-.008s0,0,0-.005a9.429,9.429,0,0,0,0-5.1ZM9.472.653a8.8,8.8,0,0,1,2.08.25l-.907,3.629a4.907,4.907,0,0,0-2.346,0L7.392.9A8.821,8.821,0,0,1,9.472.653ZM.653,9.472A8.787,8.787,0,0,1,.9,7.392L4.532,8.3a4.912,4.912,0,0,0,0,2.346L.9,11.552A8.787,8.787,0,0,1,.653,9.472Zm8.819,8.819a8.8,8.8,0,0,1-2.08-.25L8.3,14.412a4.912,4.912,0,0,0,2.346,0l.907,3.629A8.8,8.8,0,0,1,9.472,18.291Zm0-4.39A4.429,4.429,0,1,1,13.9,9.472,4.434,4.434,0,0,1,9.472,13.9Zm8.568-2.349-3.628-.907a4.912,4.912,0,0,0,0-2.346l3.628-.907a8.771,8.771,0,0,1,0,4.16Z"/>
  <path id="Path_18954" data-name="Path 18954" d="M3.285,3.828a.327.327,0,0,0,.255-.122,1.113,1.113,0,0,1,.174-.174.327.327,0,0,0-.407-.511A1.778,1.778,0,0,0,3.03,3.3a.327.327,0,0,0,.254.531Z" transform="translate(-1.992 -1.987)"/>
  <path id="Path_18955" data-name="Path 18955" d="M7.666,2.653h.319a.327.327,0,1,0,0-.653H7.666a.327.327,0,1,0,0,.653Z" transform="translate(-4.942 -1.347)"/>
  <path id="Path_18956" data-name="Path 18956" d="M2.327,8.3a.327.327,0,0,0,.327-.327V7.653a.327.327,0,0,0-.653,0v.319A.327.327,0,0,0,2.327,8.3Z" transform="translate(-1.347 -4.933)"/>
  <path id="Path_18957" data-name="Path 18957" d="M48.023,2.653h.319a.327.327,0,1,0,0-.653h-.319a.327.327,0,0,0,0,.653Z" transform="translate(-32.118 -1.347)"/>
  <path id="Path_18958" data-name="Path 18958" d="M52.658,3.713a.327.327,0,0,0,.511-.407,1.785,1.785,0,0,0-.276-.277.327.327,0,1,0-.409.51A1.154,1.154,0,0,1,52.658,3.713Z" transform="translate(-35.259 -1.992)"/>
  <path id="Path_18959" data-name="Path 18959" d="M54,7.666v.319a.327.327,0,1,0,.653,0V7.666a.327.327,0,1,0-.653,0Z" transform="translate(-36.363 -4.942)"/>
  <path id="Path_18960" data-name="Path 18960" d="M54.327,47.7a.327.327,0,0,0-.327.327v.319a.327.327,0,1,0,.653,0v-.319A.327.327,0,0,0,54.327,47.7Z" transform="translate(-36.363 -32.118)"/>
  <path id="Path_18961" data-name="Path 18961" d="M48.33,54h-.319a.327.327,0,1,0,0,.653h.319a.327.327,0,1,0,0-.653Z" transform="translate(-32.11 -36.363)"/>
  <path id="Path_18962" data-name="Path 18962" d="M52.65,52.484a1.113,1.113,0,0,1-.174.174.327.327,0,0,0,.407.511,1.767,1.767,0,0,0,.277-.276.327.327,0,0,0-.51-.409Z" transform="translate(-35.253 -35.26)"/>
  <path id="Path_18963" data-name="Path 18963" d="M7.973,54H7.654a.327.327,0,1,0,0,.653h.319a.327.327,0,1,0,0-.653Z" transform="translate(-4.934 -36.363)"/>
  <path id="Path_18964" data-name="Path 18964" d="M2.653,48.329V48.01a.327.327,0,1,0-.653,0v.319a.327.327,0,1,0,.653,0Z" transform="translate(-1.347 -32.109)"/>
  <path id="Path_18965" data-name="Path 18965" d="M3.532,52.475a.327.327,0,1,0-.511.407,1.785,1.785,0,0,0,.276.277.327.327,0,0,0,.409-.51A1.154,1.154,0,0,1,3.532,52.475Z" transform="translate(-1.987 -35.253)"/>
</svg>
