<svg id="Group_17688" data-name="Group 17688" xmlns="http://www.w3.org/2000/svg" xmlns:xlink="http://www.w3.org/1999/xlink" width="16.544" height="17.533" viewBox="0 0 16.544 17.533">
  <defs>
    <clipPath id="clip-path">
      <rect id="Rectangle_2494" data-name="Rectangle 2494" width="16.544" height="17.533" fill="none"/>
    </clipPath>
  </defs>
  <g id="Group_17687" data-name="Group 17687" clip-path="url(#clip-path)">
    <path id="Path_18925" data-name="Path 18925" d="M177.94,257.727v-.2h-.295l.306.624h.006a3.145,3.145,0,0,1-.017-.426" transform="translate(-170.82 -247.634)"/>
    <path id="Path_18926" data-name="Path 18926" d="M138.96,209.546q-.05-.11-.074-.176h-.015a2.542,2.542,0,0,1,.018.383v.176h.255Z" transform="translate(-133.536 -201.326)"/>
    <path id="Path_18927" data-name="Path 18927" d="M139.4,235.986v.362h.66l-.178-.362Z" transform="translate(-134.041 -226.919)"/>
    <path id="Path_18928" data-name="Path 18928" d="M256.6,278.92a3.408,3.408,0,1,0,3.408,3.408,3.408,3.408,0,0,0-3.408-3.408m1.461,3.895H256.6a.488.488,0,0,1-.487-.487v-1.461a.487.487,0,0,1,.974,0v.974h.974a.487.487,0,0,1,0,.974" transform="translate(-243.467 -268.203)"/>
    <path id="Path_18929" data-name="Path 18929" d="M10.961,10.322a4.384,4.384,0,0,1,2.172-.579c.107,0,.214,0,.321.01a9.955,9.955,0,0,0-2.984-5.3A6.658,6.658,0,0,0,8.936,3.426l.755-2.035A.484.484,0,0,0,9.56.86,4.182,4.182,0,0,0,6.8.005a4.182,4.182,0,0,0-2.76.857.484.484,0,0,0-.131.531l.756,2.035A6.891,6.891,0,0,0,2.719,4.855C1.541,5.925.174,9.2,0,11.69c.19,3.52,3.135,4.869,6.807,4.869a11.579,11.579,0,0,0,2.527-.253,4.385,4.385,0,0,1,1.627-5.984M8.183,9.067H7.726v.362h.457v.466H7.726v1.542H7.01L6.244,9.894H5.356v1.542H4.748V9.894H4.311V9.428h.437V9.066H4.311V8.6h.437V7.18H5.5L6.2,8.6h.921V7.18h.608V8.6h.457Z" transform="translate(0 0)"/>
  </g>
</svg>
