<svg xmlns="http://www.w3.org/2000/svg" width="20" height="20" viewBox="0 0 20 20">
  <g id="vuesax_bold_arrow-left" data-name="vuesax/bold/arrow-left" transform="translate(-108 -380)">
    <g id="arrow-left" transform="translate(108 380)">
      <path id="Vector" d="M8.333,0a8.333,8.333,0,1,0,8.333,8.333A8.336,8.336,0,0,0,8.333,0ZM11.25,8.958H6.925l1.433,1.433a.629.629,0,0,1,0,.883.624.624,0,0,1-.883,0l-2.5-2.5a.629.629,0,0,1,0-.883l2.5-2.5a.625.625,0,0,1,.883.883L6.925,7.708H11.25a.625.625,0,1,1,0,1.25Z" transform="translate(1.667 1.667)"/>
      <path id="Vector-2" data-name="Vector" d="M0,0H20V20H0Z" transform="translate(20 20) rotate(180)" fill="none" opacity="0"/>
    </g>
  </g>
</svg>
