<svg xmlns="http://www.w3.org/2000/svg" width="16.003" height="16.003" viewBox="0 0 16.003 16.003">
  <g id="vuesax_bold_message-notif" data-name="vuesax/bold/message-notif" transform="translate(-108 -252)">
    <g id="message-notif" transform="translate(108 252)">
      <path id="Vector" d="M3.667,1.834A1.834,1.834,0,1,1,1.834,0,1.834,1.834,0,0,1,3.667,1.834Z" transform="translate(11.502 0.833)"/>
      <path id="Vector-2" data-name="Vector" d="M11.362,4.1A2.818,2.818,0,0,1,9.235,1.974,2.909,2.909,0,0,1,9.215.8.659.659,0,0,0,8.568,0H3.334A3.335,3.335,0,0,0,0,3.334V7.968A3.335,3.335,0,0,0,3.334,11.3h1a.741.741,0,0,1,.533.267l1,1.327a.947.947,0,0,0,1.6,0l1-1.327A.666.666,0,0,1,9,11.3h1.007a3.324,3.324,0,0,0,3.327-3.327V4.768a.665.665,0,0,0-.8-.647A3.033,3.033,0,0,1,11.362,4.1ZM4,6.668A.667.667,0,1,1,4.668,6,.664.664,0,0,1,4,6.668Zm2.667,0A.667.667,0,1,1,7.335,6,.664.664,0,0,1,6.668,6.668Zm2.667,0A.667.667,0,1,1,10,6,.664.664,0,0,1,9.335,6.668Z" transform="translate(1.334 1.334)"/>
      <path id="Vector-3" data-name="Vector" d="M0,0H16V16H0Z" fill="none" opacity="0"/>
      <path id="Vector-4" data-name="Vector" d="M0,0H16V16H0Z" transform="translate(16.003 16.003) rotate(180)" fill="none" opacity="0"/>
    </g>
  </g>
</svg>
