<svg id="profile" xmlns="http://www.w3.org/2000/svg" width="19.856" height="19.856" viewBox="0 0 19.856 19.856">
  <path id="Vector" d="M3.676,7.83q-.031,0-.062,0a.914.914,0,0,0-.155,0,.622.622,0,0,1-.077,0A4.277,4.277,0,0,1-.75,3.544,4.294,4.294,0,1,1,3.7,7.829Z" transform="translate(6.384 1.784)"/>
  <path id="Vector-2" data-name="Vector" d="M5.519-.75A8.135,8.135,0,0,1,10,.49a3.567,3.567,0,0,1,1.778,2.937A3.58,3.58,0,0,1,10,6.378,8.135,8.135,0,0,1,5.513,7.625,8.135,8.135,0,0,1,1.027,6.378,3.567,3.567,0,0,1-.75,3.442,3.58,3.58,0,0,1,1.027.49,8.2,8.2,0,0,1,5.519-.75Z" transform="translate(4.552 11.04)"/>
  <path id="Vector-3" data-name="Vector" d="M0,0H19.856V19.856H0Z" transform="translate(19.856 19.856) rotate(180)" fill="none" opacity="0"/>
</svg>
