<svg xmlns="http://www.w3.org/2000/svg" width="16.002" height="16.001" viewBox="0 0 16.002 16.001">
  <g id="Layer_2" data-name="Layer 2" transform="translate(0.002 -0.003)">
    <g id="Layer_1" data-name="Layer 1" transform="translate(-0.002 0.003)">
      <path id="Subtraction_1" data-name="Subtraction 1" d="M-4929.705-743.245a16.736,16.736,0,0,1-3.441-.359,5.254,5.254,0,0,1-3.863-3.2,9.544,9.544,0,0,1-.722-3.785,16.514,16.514,0,0,1,.25-3.7,5.388,5.388,0,0,1,4.44-4.567,14.014,14.014,0,0,1,3.3-.394,14.013,14.013,0,0,1,3.3.394,5.343,5.343,0,0,1,4.433,4.563,10.916,10.916,0,0,1,.252,2.953,12.58,12.58,0,0,1-.252,3.086,5.749,5.749,0,0,1-5.267,4.828A16.7,16.7,0,0,1-4929.705-743.245Zm-.812-3.367c.589,0,1.279,0,1.834,0h.023l.843,0h.022a1.908,1.908,0,0,0,1.89-1.6c.083-.494.311-2.783.447-4.151.035-.353.065-.654.087-.864.017-.073.015-.119-.007-.146s-.072-.037-.138-.037h-1.643c-.181,0-.188,0-.195-.192a2.4,2.4,0,0,0-2.39-2.269h-.007a2.4,2.4,0,0,0-2.4,2.255c-.015.19-.015.19-.2.19h-1.643a.163.163,0,0,0-.131.04.148.148,0,0,0-.018.126.871.871,0,0,0,.013.128v.005c0,.025.008.049.01.074.021.2.059.558.1.985l.021.2c.13,1.2.307,2.849.348,3.389a2.006,2.006,0,0,0,2,1.866C-4931.46-746.609-4931.08-746.612-4930.517-746.612Zm1.9-6.807h-2.333a.16.16,0,0,1-.124-.037.168.168,0,0,1-.026-.134,1.406,1.406,0,0,1,1.312-1.271h.043a1.376,1.376,0,0,1,1.359,1.148v.03c.017.128.019.191-.012.226S-4928.49-753.419-4928.618-753.419Z" transform="translate(4937.748 759.246)"/>
    </g>
  </g>
</svg>
